solid OpenSCAD_Model
  facet normal 0.962444 0.191441 0.192489
    outer loop
      vertex 4.6194 1.91342 0
      vertex 4 0 5
      vertex 5 0 0
    endloop
  endfacet
  facet normal -0.191441 -0.962444 0.192489
    outer loop
      vertex 0 -4 5
      vertex -1.91342 -4.6194 0
      vertex 0 -5 0
    endloop
  endfacet
  facet normal -0.962444 -0.191441 0.192489
    outer loop
      vertex -4 0 5
      vertex -5 0 0
      vertex -4.6194 -1.91342 0
    endloop
  endfacet
  facet normal 0.815918 0.545184 0.192489
    outer loop
      vertex 4.6194 1.91342 0
      vertex 3.53553 3.53553 0
      vertex 3.69552 1.53073 5
    endloop
  endfacet
  facet normal -0.191441 0.962444 0.192489
    outer loop
      vertex 0 5 0
      vertex -1.91342 4.6194 0
      vertex 0 4 5
    endloop
  endfacet
  facet normal -0.815917 -0.545186 0.19249
    outer loop
      vertex -3.53553 -3.53553 0
      vertex -3.17001 -2.3172 5
      vertex -3.69552 -1.53073 5
    endloop
  endfacet
  facet normal -0.815924 -0.545176 0.192488
    outer loop
      vertex -3.17001 -2.3172 5
      vertex -3.53553 -3.53553 0
      vertex -2.90484 -2.71406 5
    endloop
  endfacet
  facet normal -0.815953 -0.545134 0.192485
    outer loop
      vertex -2.90484 -2.71406 5
      vertex -3.53553 -3.53553 0
      vertex -2.82843 -2.82843 5
    endloop
  endfacet
  facet normal 0 0 -1
    outer loop
      vertex 4.6194 -1.91342 0
      vertex 4.6194 1.91342 0
      vertex 5 0 0
    endloop
  endfacet
  facet normal 0 0 -1
    outer loop
      vertex 3.53553 -3.53553 0
      vertex 4.6194 1.91342 0
      vertex 4.6194 -1.91342 0
    endloop
  endfacet
  facet normal 0 0 -1
    outer loop
      vertex 3.53553 -3.53553 0
      vertex 3.53553 3.53553 0
      vertex 4.6194 1.91342 0
    endloop
  endfacet
  facet normal 0 0 -1
    outer loop
      vertex 1.91342 -4.6194 0
      vertex 3.53553 3.53553 0
      vertex 3.53553 -3.53553 0
    endloop
  endfacet
  facet normal 0 0 -1
    outer loop
      vertex 1.91342 -4.6194 0
      vertex 1.91342 4.6194 0
      vertex 3.53553 3.53553 0
    endloop
  endfacet
  facet normal 0 0 -1
    outer loop
      vertex 0 -5 0
      vertex 1.91342 4.6194 0
      vertex 1.91342 -4.6194 0
    endloop
  endfacet
  facet normal 0 0 -1
    outer loop
      vertex 0 -5 0
      vertex 0 5 0
      vertex 1.91342 4.6194 0
    endloop
  endfacet
  facet normal 0 0 -1
    outer loop
      vertex -1.91342 -4.6194 0
      vertex 0 5 0
      vertex 0 -5 0
    endloop
  endfacet
  facet normal 0 0 -1
    outer loop
      vertex -1.91342 -4.6194 0
      vertex -1.91342 4.6194 0
      vertex 0 5 0
    endloop
  endfacet
  facet normal 0 0 -1
    outer loop
      vertex -3.53553 -3.53553 0
      vertex -1.91342 4.6194 0
      vertex -1.91342 -4.6194 0
    endloop
  endfacet
  facet normal 0 0 -1
    outer loop
      vertex -3.53553 -3.53553 0
      vertex -3.53553 3.53553 0
      vertex -1.91342 4.6194 0
    endloop
  endfacet
  facet normal 0 0 -1
    outer loop
      vertex -4.6194 -1.91342 0
      vertex -3.53553 3.53553 0
      vertex -3.53553 -3.53553 0
    endloop
  endfacet
  facet normal 0 0 -1
    outer loop
      vertex -4.6194 -1.91342 0
      vertex -4.6194 1.91342 0
      vertex -3.53553 3.53553 0
    endloop
  endfacet
  facet normal 0 -0 -1
    outer loop
      vertex -4.6194 1.91342 0
      vertex -4.6194 -1.91342 0
      vertex -5 0 0
    endloop
  endfacet
  facet normal 0.545166 0.815931 0.192486
    outer loop
      vertex 3.53553 3.53553 0
      vertex 2.47176 3.06674 5
      vertex 2.82843 2.82843 5
    endloop
  endfacet
  facet normal 0.545189 0.815915 0.19249
    outer loop
      vertex 2.47176 3.06674 5
      vertex 3.53553 3.53553 0
      vertex 1.95423 3.41255 5
    endloop
  endfacet
  facet normal 0.545176 0.815924 0.192486
    outer loop
      vertex 1.95423 3.41255 5
      vertex 3.53553 3.53553 0
      vertex 1.53073 3.69552 5
    endloop
  endfacet
  facet normal 0.815925 0.545175 0.192487
    outer loop
      vertex 3.27502 2.16005 5
      vertex 3.53553 3.53553 0
      vertex 2.82843 2.82843 5
    endloop
  endfacet
  facet normal 0.815921 0.54518 0.192488
    outer loop
      vertex 3.58015 1.70339 5
      vertex 3.53553 3.53553 0
      vertex 3.27502 2.16005 5
    endloop
  endfacet
  facet normal 0.815915 0.545188 0.192491
    outer loop
      vertex 3.53553 3.53553 0
      vertex 3.58015 1.70339 5
      vertex 3.69552 1.53073 5
    endloop
  endfacet
  facet normal 0.962444 0.191441 0.192489
    outer loop
      vertex 4.6194 1.91342 0
      vertex 3.69552 1.53073 5
      vertex 4 0 5
    endloop
  endfacet
  facet normal 0.962444 -0.191441 0.192489
    outer loop
      vertex 5 0 0
      vertex 4 0 5
      vertex 4.6194 -1.91342 0
    endloop
  endfacet
  facet normal -0.191443 0.962443 0.19249
    outer loop
      vertex -1.91342 4.6194 0
      vertex -1.13185 3.77486 5
      vertex 0 4 5
    endloop
  endfacet
  facet normal -0.191439 0.962444 0.192489
    outer loop
      vertex -1.13185 3.77486 5
      vertex -1.91342 4.6194 0
      vertex -1.46361 3.70887 5
    endloop
  endfacet
  facet normal -0.191428 0.962447 0.192489
    outer loop
      vertex -1.46361 3.70887 5
      vertex -1.91342 4.6194 0
      vertex -1.53073 3.69552 5
    endloop
  endfacet
  facet normal -0.962444 0.191441 0.192489
    outer loop
      vertex -4.6194 1.91342 0
      vertex -5 0 0
      vertex -4 0 5
    endloop
  endfacet
  facet normal -0.545184 0.815918 0.192489
    outer loop
      vertex -1.91342 4.6194 0
      vertex -3.53553 3.53553 0
      vertex -1.53073 3.69552 5
    endloop
  endfacet
  facet normal -0.815918 -0.545184 0.192489
    outer loop
      vertex -3.69552 -1.53073 5
      vertex -4.6194 -1.91342 0
      vertex -3.53553 -3.53553 0
    endloop
  endfacet
  facet normal -0.962445 -0.191438 0.192488
    outer loop
      vertex -4.6194 -1.91342 0
      vertex -3.88377 -0.584341 5
      vertex -4 0 5
    endloop
  endfacet
  facet normal -0.962443 -0.191444 0.192489
    outer loop
      vertex -3.88377 -0.584341 5
      vertex -4.6194 -1.91342 0
      vertex -3.76432 -1.18485 5
    endloop
  endfacet
  facet normal -0.962444 -0.191442 0.192489
    outer loop
      vertex -3.76432 -1.18485 5
      vertex -4.6194 -1.91342 0
      vertex -3.69552 -1.53073 5
    endloop
  endfacet
  facet normal -0.545184 -0.815918 0.192489
    outer loop
      vertex -1.53073 -3.69552 5
      vertex -3.53553 -3.53553 0
      vertex -1.91342 -4.6194 0
    endloop
  endfacet
  facet normal -0.191428 -0.962447 0.192489
    outer loop
      vertex -1.91342 -4.6194 0
      vertex -1.46361 -3.70887 5
      vertex -1.53073 -3.69552 5
    endloop
  endfacet
  facet normal -0.191439 -0.962444 0.192489
    outer loop
      vertex -1.46361 -3.70887 5
      vertex -1.91342 -4.6194 0
      vertex -1.13185 -3.77486 5
    endloop
  endfacet
  facet normal -0.191443 -0.962443 0.19249
    outer loop
      vertex -1.13185 -3.77486 5
      vertex -1.91342 -4.6194 0
      vertex 0 -4 5
    endloop
  endfacet
  facet normal 0.545176 -0.815924 0.192486
    outer loop
      vertex 3.53553 -3.53553 0
      vertex 1.95423 -3.41255 5
      vertex 1.53073 -3.69552 5
    endloop
  endfacet
  facet normal 0.545189 -0.815915 0.19249
    outer loop
      vertex 1.95423 -3.41255 5
      vertex 3.53553 -3.53553 0
      vertex 2.47176 -3.06674 5
    endloop
  endfacet
  facet normal 0.545166 -0.815931 0.192486
    outer loop
      vertex 2.47176 -3.06674 5
      vertex 3.53553 -3.53553 0
      vertex 2.82843 -2.82843 5
    endloop
  endfacet
  facet normal 0.191441 -0.962444 0.192489
    outer loop
      vertex 0 -4 5
      vertex 0 -5 0
      vertex 1.91342 -4.6194 0
    endloop
  endfacet
  facet normal 0.815921 -0.54518 0.192488
    outer loop
      vertex 3.53553 -3.53553 0
      vertex 3.58015 -1.70339 5
      vertex 3.27502 -2.16005 5
    endloop
  endfacet
  facet normal 0.815925 -0.545175 0.192487
    outer loop
      vertex 3.53553 -3.53553 0
      vertex 3.27502 -2.16005 5
      vertex 2.82843 -2.82843 5
    endloop
  endfacet
  facet normal 0.815915 -0.545188 0.192491
    outer loop
      vertex 3.58015 -1.70339 5
      vertex 3.53553 -3.53553 0
      vertex 3.69552 -1.53073 5
    endloop
  endfacet
  facet normal 0.191441 0.962444 0.192489
    outer loop
      vertex 0 5 0
      vertex 0 4 5
      vertex 1.91342 4.6194 0
    endloop
  endfacet
  facet normal -0 -0 -1
    outer loop
      vertex 3.54182 1.85889 5
      vertex 3.58015 1.70339 5
      vertex 3.27502 2.16005 5
    endloop
  endfacet
  facet normal 0 0 -1
    outer loop
      vertex -3.88377 0.957262 5
      vertex -3.76432 1.18485 5
      vertex -3.88377 0.584341 5
    endloop
  endfacet
  facet normal 0 -0 -1
    outer loop
      vertex -1.41842 3.74006 5
      vertex -1.13185 3.77486 5
      vertex -1.46361 3.70887 5
    endloop
  endfacet
  facet normal 0 0 -1
    outer loop
      vertex -3.88377 -0.584341 5
      vertex -3.76432 -1.18485 5
      vertex -3.88377 -0.957262 5
    endloop
  endfacet
  facet normal 0 0 -1
    outer loop
      vertex 3.58015 -1.70339 5
      vertex 3.54182 -1.85889 5
      vertex 3.27502 -2.16005 5
    endloop
  endfacet
  facet normal -0 -0 -1
    outer loop
      vertex 2.27226 3.29193 5
      vertex 2.47176 3.06674 5
      vertex 1.95423 3.41255 5
    endloop
  endfacet
  facet normal 0 -0 -1
    outer loop
      vertex -2.99404 2.65249 5
      vertex -2.90484 2.71406 5
      vertex -3.17001 2.3172 5
    endloop
  endfacet
  facet normal 0 0 1
    outer loop
      vertex 4 0 5
      vertex 3.58015 -1.70339 5
      vertex 3.69552 -1.53073 5
    endloop
  endfacet
  facet normal 0 0 1
    outer loop
      vertex 3.69552 1.53073 5
      vertex 3.58015 1.70339 5
      vertex 4 0 5
    endloop
  endfacet
  facet normal 0 0 -1
    outer loop
      vertex 2.47176 -3.06674 5
      vertex 2.27226 -3.29193 5
      vertex 1.95423 -3.41255 5
    endloop
  endfacet
  facet normal 0 -0 -1
    outer loop
      vertex 0.482146 3.97083 5
      vertex 0.85223 3.83048 5
      vertex 0.273802 3.94554 5
    endloop
  endfacet
  facet normal 0 0 -1
    outer loop
      vertex 0.85223 -3.83048 5
      vertex 0.482146 -3.97083 5
      vertex 0.273802 -3.94554 5
    endloop
  endfacet
  facet normal 0 0 -1
    outer loop
      vertex -2.90484 -2.71406 5
      vertex -2.99404 -2.65249 5
      vertex -3.17001 -2.3172 5
    endloop
  endfacet
  facet normal 0 0 -1
    outer loop
      vertex -1.13185 -3.77486 5
      vertex -1.41842 -3.74006 5
      vertex -1.46361 -3.70887 5
    endloop
  endfacet
  facet normal 0 0 1
    outer loop
      vertex -3.17001 -2.3172 5
      vertex -3.76432 -1.18485 5
      vertex -3.69552 -1.53073 5
    endloop
  endfacet
  facet normal 0 0 1
    outer loop
      vertex 1.53073 3.69552 5
      vertex 0.85223 3.83048 5
      vertex 1.95423 3.41255 5
    endloop
  endfacet
  facet normal 0 0 1
    outer loop
      vertex 1.95423 -3.41255 5
      vertex 0.85223 -3.83048 5
      vertex 1.53073 -3.69552 5
    endloop
  endfacet
  facet normal 0 0 1
    outer loop
      vertex 0 4 5
      vertex -1.13185 3.77486 5
      vertex 0.273802 3.94554 5
    endloop
  endfacet
  facet normal 0 0 1
    outer loop
      vertex -1.46361 -3.70887 5
      vertex -2.82843 -2.82843 5
      vertex -1.53073 -3.69552 5
    endloop
  endfacet
  facet normal -0 -0 1
    outer loop
      vertex -2.82843 -2.82843 5
      vertex -1.46361 -3.70887 5
      vertex -2.90484 -2.71406 5
    endloop
  endfacet
  facet normal 0 0 1
    outer loop
      vertex 2.82843 2.82843 5
      vertex 2.47176 3.06674 5
      vertex 3.27502 2.16005 5
    endloop
  endfacet
  facet normal 0 0 1
    outer loop
      vertex -2.82843 2.82843 5
      vertex -1.46361 3.70887 5
      vertex -1.53073 3.69552 5
    endloop
  endfacet
  facet normal 0 0 1
    outer loop
      vertex -1.46361 3.70887 5
      vertex -2.82843 2.82843 5
      vertex -2.90484 2.71406 5
    endloop
  endfacet
  facet normal 0 0 1
    outer loop
      vertex 3.27502 -2.16005 5
      vertex 2.47176 -3.06674 5
      vertex 2.82843 -2.82843 5
    endloop
  endfacet
  facet normal 0 0 1
    outer loop
      vertex 0.273802 -3.94554 5
      vertex -1.13185 -3.77486 5
      vertex 0 -4 5
    endloop
  endfacet
  facet normal 0 0 1
    outer loop
      vertex -3.88377 0.584341 5
      vertex -4 0 5
      vertex -3.88377 -0.584341 5
    endloop
  endfacet
  facet normal -0 0 1
    outer loop
      vertex -3.69552 1.53073 5
      vertex -3.76432 1.18485 5
      vertex -3.17001 2.3172 5
    endloop
  endfacet
  facet normal -0.962444 0.191442 0.192489
    outer loop
      vertex -4.6194 1.91342 0
      vertex -3.76432 1.18485 5
      vertex -3.69552 1.53073 5
    endloop
  endfacet
  facet normal -0.962443 0.191444 0.192489
    outer loop
      vertex -4.6194 1.91342 0
      vertex -3.88377 0.584341 5
      vertex -3.76432 1.18485 5
    endloop
  endfacet
  facet normal -0.962445 0.191438 0.192488
    outer loop
      vertex -3.88377 0.584341 5
      vertex -4.6194 1.91342 0
      vertex -4 0 5
    endloop
  endfacet
  facet normal -0.815953 0.545134 0.192485
    outer loop
      vertex -3.53553 3.53553 0
      vertex -2.90484 2.71406 5
      vertex -2.82843 2.82843 5
    endloop
  endfacet
  facet normal -0.815924 0.545176 0.192488
    outer loop
      vertex -3.53553 3.53553 0
      vertex -3.17001 2.3172 5
      vertex -2.90484 2.71406 5
    endloop
  endfacet
  facet normal -0.815917 0.545186 0.19249
    outer loop
      vertex -3.17001 2.3172 5
      vertex -3.53553 3.53553 0
      vertex -3.69552 1.53073 5
    endloop
  endfacet
  facet normal -0.815918 0.545184 0.192489
    outer loop
      vertex -3.53553 3.53553 0
      vertex -4.6194 1.91342 0
      vertex -3.69552 1.53073 5
    endloop
  endfacet
  facet normal -0.545178 -0.815922 0.192487
    outer loop
      vertex -2.82843 -2.82843 5
      vertex -3.53553 -3.53553 0
      vertex -1.53073 -3.69552 5
    endloop
  endfacet
  facet normal 0.191433 -0.962446 0.192486
    outer loop
      vertex 1.91342 -4.6194 0
      vertex 0.273802 -3.94554 5
      vertex 0 -4 5
    endloop
  endfacet
  facet normal 0.191448 -0.962442 0.19249
    outer loop
      vertex 0.273802 -3.94554 5
      vertex 1.91342 -4.6194 0
      vertex 0.85223 -3.83048 5
    endloop
  endfacet
  facet normal 0.191439 -0.962444 0.192489
    outer loop
      vertex 0.85223 -3.83048 5
      vertex 1.91342 -4.6194 0
      vertex 1.53073 -3.69552 5
    endloop
  endfacet
  facet normal 0.545184 -0.815918 0.192489
    outer loop
      vertex 3.53553 -3.53553 0
      vertex 1.53073 -3.69552 5
      vertex 1.91342 -4.6194 0
    endloop
  endfacet
  facet normal 0.815918 -0.545184 0.192489
    outer loop
      vertex 3.69552 -1.53073 5
      vertex 3.53553 -3.53553 0
      vertex 4.6194 -1.91342 0
    endloop
  endfacet
  facet normal 0.962444 -0.191441 0.192489
    outer loop
      vertex 4 0 5
      vertex 3.69552 -1.53073 5
      vertex 4.6194 -1.91342 0
    endloop
  endfacet
  facet normal 0.545184 0.815918 0.192489
    outer loop
      vertex 1.91342 4.6194 0
      vertex 1.53073 3.69552 5
      vertex 3.53553 3.53553 0
    endloop
  endfacet
  facet normal 0.191439 0.962444 0.192489
    outer loop
      vertex 1.91342 4.6194 0
      vertex 0.85223 3.83048 5
      vertex 1.53073 3.69552 5
    endloop
  endfacet
  facet normal 0.191448 0.962442 0.19249
    outer loop
      vertex 0.85223 3.83048 5
      vertex 1.91342 4.6194 0
      vertex 0.273802 3.94554 5
    endloop
  endfacet
  facet normal 0.191433 0.962446 0.192486
    outer loop
      vertex 0.273802 3.94554 5
      vertex 1.91342 4.6194 0
      vertex 0 4 5
    endloop
  endfacet
  facet normal -0.545178 0.815922 0.192487
    outer loop
      vertex -1.53073 3.69552 5
      vertex -3.53553 3.53553 0
      vertex -2.82843 2.82843 5
    endloop
  endfacet
  facet normal 0.970938 0.239332 0
    outer loop
      vertex 3.54182 1.85889 9
      vertex 3.58015 1.70339 5
      vertex 3.54182 1.85889 5
    endloop
  endfacet
  facet normal 0.970941 0.239318 5.56757e-07
    outer loop
      vertex 4 0 9
      vertex 3.58015 1.70339 5
      vertex 3.54182 1.85889 9
    endloop
  endfacet
  facet normal 0.970942 0.239317 0
    outer loop
      vertex 3.58015 1.70339 5
      vertex 4 0 9
      vertex 4 0 5
    endloop
  endfacet
  facet normal -1 0 0
    outer loop
      vertex -3.88377 0.584341 5
      vertex -3.88377 0.957262 9
      vertex -3.88377 0.957262 5
    endloop
  endfacet
  facet normal -1 0 0
    outer loop
      vertex -3.88377 -0.584341 5
      vertex -3.88377 0.957262 9
      vertex -3.88377 0.584341 5
    endloop
  endfacet
  facet normal -1 0 0
    outer loop
      vertex -3.88377 -0.957262 9
      vertex -3.88377 -0.584341 5
      vertex -3.88377 -0.957262 5
    endloop
  endfacet
  facet normal -1 0 0
    outer loop
      vertex -3.88377 -0.584341 5
      vertex -3.88377 -0.957262 9
      vertex -3.88377 0.957262 9
    endloop
  endfacet
  facet normal -0.120501 0.992713 0
    outer loop
      vertex 0.273802 3.94554 5
      vertex 0.482146 3.97083 9
      vertex 0.482146 3.97083 5
    endloop
  endfacet
  facet normal -0.120539 0.992709 1.98005e-06
    outer loop
      vertex -1.13185 3.77486 5
      vertex 0.482146 3.97083 9
      vertex 0.273802 3.94554 5
    endloop
  endfacet
  facet normal -0.120536 0.992709 1.03654e-06
    outer loop
      vertex 0.482146 3.97083 9
      vertex -1.13185 3.77486 5
      vertex -1.41842 3.74006 9
    endloop
  endfacet
  facet normal -0.120551 0.992707 0
    outer loop
      vertex -1.41842 3.74006 9
      vertex -1.13185 3.77486 5
      vertex -1.41842 3.74006 5
    endloop
  endfacet
  facet normal 0.748512 0.663121 0
    outer loop
      vertex 2.27226 3.29193 9
      vertex 2.47176 3.06674 5
      vertex 2.27226 3.29193 5
    endloop
  endfacet
  facet normal 0.74851 0.663124 -3.0223e-07
    outer loop
      vertex 2.27226 3.29193 9
      vertex 3.27502 2.16005 5
      vertex 2.47176 3.06674 5
    endloop
  endfacet
  facet normal 0.748511 0.663122 7.33552e-07
    outer loop
      vertex 3.54182 1.85889 9
      vertex 3.27502 2.16005 5
      vertex 2.27226 3.29193 9
    endloop
  endfacet
  facet normal 0.748516 0.663116 0
    outer loop
      vertex 3.27502 2.16005 5
      vertex 3.54182 1.85889 9
      vertex 3.54182 1.85889 5
    endloop
  endfacet
  facet normal -0.568035 0.823004 0
    outer loop
      vertex -1.46361 3.70887 5
      vertex -1.41842 3.74006 9
      vertex -1.41842 3.74006 5
    endloop
  endfacet
  facet normal -0.568065 0.822984 4.99679e-07
    outer loop
      vertex -2.90484 2.71406 5
      vertex -1.41842 3.74006 9
      vertex -1.46361 3.70887 5
    endloop
  endfacet
  facet normal -0.568064 0.822984 -4.18643e-08
    outer loop
      vertex -1.41842 3.74006 9
      vertex -2.90484 2.71406 5
      vertex -2.99404 2.65249 9
    endloop
  endfacet
  facet normal -0.568063 0.822985 0
    outer loop
      vertex -2.99404 2.65249 9
      vertex -2.90484 2.71406 5
      vertex -2.99404 2.65249 5
    endloop
  endfacet
  facet normal 0.970942 -0.239317 0
    outer loop
      vertex 4 0 9
      vertex 3.58015 -1.70339 5
      vertex 4 0 5
    endloop
  endfacet
  facet normal 0.970941 -0.239318 5.56757e-07
    outer loop
      vertex 3.54182 -1.85889 9
      vertex 3.58015 -1.70339 5
      vertex 4 0 9
    endloop
  endfacet
  facet normal 0.970938 -0.239332 0
    outer loop
      vertex 3.58015 -1.70339 5
      vertex 3.54182 -1.85889 9
      vertex 3.54182 -1.85889 5
    endloop
  endfacet
  facet normal 0.354623 0.935009 0
    outer loop
      vertex 1.95423 3.41255 5
      vertex 2.27226 3.29193 9
      vertex 2.27226 3.29193 5
    endloop
  endfacet
  facet normal 0.354602 0.935017 1.90102e-06
    outer loop
      vertex 0.85223 3.83048 5
      vertex 2.27226 3.29193 9
      vertex 1.95423 3.41255 5
    endloop
  endfacet
  facet normal 0.354605 0.935016 9.82971e-07
    outer loop
      vertex 2.27226 3.29193 9
      vertex 0.85223 3.83048 5
      vertex 0.482146 3.97083 9
    endloop
  endfacet
  facet normal 0.354595 0.93502 0
    outer loop
      vertex 0.482146 3.97083 9
      vertex 0.85223 3.83048 5
      vertex 0.482146 3.97083 5
    endloop
  endfacet
  facet normal -0.88546 0.464715 0
    outer loop
      vertex -3.17001 2.3172 5
      vertex -2.99404 2.65249 9
      vertex -2.99404 2.65249 5
    endloop
  endfacet
  facet normal -0.885454 0.464727 -2.70406e-07
    outer loop
      vertex -3.88377 0.957262 9
      vertex -3.17001 2.3172 5
      vertex -3.76432 1.18485 5
    endloop
  endfacet
  facet normal -0.885452 0.464731 0
    outer loop
      vertex -3.88377 0.957262 9
      vertex -3.76432 1.18485 5
      vertex -3.88377 0.957262 5
    endloop
  endfacet
  facet normal -0.885455 0.464726 -1.08389e-06
    outer loop
      vertex -3.17001 2.3172 5
      vertex -3.88377 0.957262 9
      vertex -2.99404 2.65249 9
    endloop
  endfacet
  facet normal -0.885452 -0.464731 0
    outer loop
      vertex -3.76432 -1.18485 5
      vertex -3.88377 -0.957262 9
      vertex -3.88377 -0.957262 5
    endloop
  endfacet
  facet normal -0.885454 -0.464727 -2.70406e-07
    outer loop
      vertex -3.17001 -2.3172 5
      vertex -3.88377 -0.957262 9
      vertex -3.76432 -1.18485 5
    endloop
  endfacet
  facet normal -0.88546 -0.464715 -0
    outer loop
      vertex -2.99404 -2.65249 9
      vertex -3.17001 -2.3172 5
      vertex -2.99404 -2.65249 5
    endloop
  endfacet
  facet normal -0.885455 -0.464726 -1.08389e-06
    outer loop
      vertex -3.17001 -2.3172 5
      vertex -2.99404 -2.65249 9
      vertex -3.88377 -0.957262 9
    endloop
  endfacet
  facet normal 0.748516 -0.663116 0
    outer loop
      vertex 3.54182 -1.85889 9
      vertex 3.27502 -2.16005 5
      vertex 3.54182 -1.85889 5
    endloop
  endfacet
  facet normal 0.748511 -0.663122 7.33552e-07
    outer loop
      vertex 2.27226 -3.29193 9
      vertex 3.27502 -2.16005 5
      vertex 3.54182 -1.85889 9
    endloop
  endfacet
  facet normal 0.74851 -0.663124 -3.0223e-07
    outer loop
      vertex 3.27502 -2.16005 5
      vertex 2.27226 -3.29193 9
      vertex 2.47176 -3.06674 5
    endloop
  endfacet
  facet normal 0.748512 -0.663121 0
    outer loop
      vertex 2.47176 -3.06674 5
      vertex 2.27226 -3.29193 9
      vertex 2.27226 -3.29193 5
    endloop
  endfacet
  facet normal -0.568063 -0.822985 0
    outer loop
      vertex -2.90484 -2.71406 5
      vertex -2.99404 -2.65249 9
      vertex -2.99404 -2.65249 5
    endloop
  endfacet
  facet normal -0.568064 -0.822984 -4.18643e-08
    outer loop
      vertex -2.99404 -2.65249 9
      vertex -2.90484 -2.71406 5
      vertex -1.41842 -3.74006 9
    endloop
  endfacet
  facet normal -0.568065 -0.822984 4.99679e-07
    outer loop
      vertex -1.46361 -3.70887 5
      vertex -1.41842 -3.74006 9
      vertex -2.90484 -2.71406 5
    endloop
  endfacet
  facet normal -0.568035 -0.823004 -0
    outer loop
      vertex -1.41842 -3.74006 9
      vertex -1.46361 -3.70887 5
      vertex -1.41842 -3.74006 5
    endloop
  endfacet
  facet normal 0.354595 -0.93502 0
    outer loop
      vertex 0.85223 -3.83048 5
      vertex 0.482146 -3.97083 9
      vertex 0.482146 -3.97083 5
    endloop
  endfacet
  facet normal 0.354605 -0.935016 9.82971e-07
    outer loop
      vertex 0.482146 -3.97083 9
      vertex 0.85223 -3.83048 5
      vertex 2.27226 -3.29193 9
    endloop
  endfacet
  facet normal 0.354602 -0.935017 1.90102e-06
    outer loop
      vertex 1.95423 -3.41255 5
      vertex 2.27226 -3.29193 9
      vertex 0.85223 -3.83048 5
    endloop
  endfacet
  facet normal 0.354623 -0.935009 0
    outer loop
      vertex 2.27226 -3.29193 9
      vertex 1.95423 -3.41255 5
      vertex 2.27226 -3.29193 5
    endloop
  endfacet
  facet normal -0.120551 -0.992707 0
    outer loop
      vertex -1.13185 -3.77486 5
      vertex -1.41842 -3.74006 9
      vertex -1.41842 -3.74006 5
    endloop
  endfacet
  facet normal -0.120536 -0.992709 1.03654e-06
    outer loop
      vertex -1.41842 -3.74006 9
      vertex -1.13185 -3.77486 5
      vertex 0.482146 -3.97083 9
    endloop
  endfacet
  facet normal -0.120539 -0.992709 1.98005e-06
    outer loop
      vertex 0.273802 -3.94554 5
      vertex 0.482146 -3.97083 9
      vertex -1.13185 -3.77486 5
    endloop
  endfacet
  facet normal -0.120501 -0.992713 -0
    outer loop
      vertex 0.482146 -3.97083 9
      vertex 0.273802 -3.94554 5
      vertex 0.482146 -3.97083 5
    endloop
  endfacet
  facet normal 0.963868 0.237575 0.120484
    outer loop
      vertex 3.54182 1.85889 9
      vertex 3.5 0 13
      vertex 4 0 9
    endloop
  endfacet
  facet normal -0.119658 0.985477 0.120483
    outer loop
      vertex 0.482146 3.97083 9
      vertex -1.41842 3.74006 9
      vertex 0.421878 3.47448 13
    endloop
  endfacet
  facet normal 0.743059 0.658291 0.120482
    outer loop
      vertex 3.54182 1.85889 9
      vertex 2.27226 3.29193 9
      vertex 3.0991 1.62653 13
    endloop
  endfacet
  facet normal 0.743049 -0.658301 0.120488
    outer loop
      vertex 2.27226 -3.29193 9
      vertex 2.98439 -1.75601 13
      vertex 2.59709 -2.19317 13
    endloop
  endfacet
  facet normal 0.743063 -0.658287 0.120483
    outer loop
      vertex 2.27226 -3.29193 9
      vertex 2.59709 -2.19317 13
      vertex 1.98823 -2.88044 13
    endloop
  endfacet
  facet normal 0.743056 -0.658294 0.120484
    outer loop
      vertex 2.98439 -1.75601 13
      vertex 2.27226 -3.29193 9
      vertex 3.0991 -1.62653 13
    endloop
  endfacet
  facet normal -0.563926 0.816989 0.120482
    outer loop
      vertex -1.41842 3.74006 9
      vertex -2.99404 2.65249 9
      vertex -1.24112 3.27256 13
    endloop
  endfacet
  facet normal -0.119662 0.985477 0.120484
    outer loop
      vertex -1.41842 3.74006 9
      vertex -0.114996 3.40929 13
      vertex 0.421878 3.47448 13
    endloop
  endfacet
  facet normal -0.119653 0.985478 0.120481
    outer loop
      vertex -0.114996 3.40929 13
      vertex -1.41842 3.74006 9
      vertex -0.801147 3.32598 13
    endloop
  endfacet
  facet normal -0.119653 0.985478 0.120481
    outer loop
      vertex -0.801147 3.32598 13
      vertex -1.41842 3.74006 9
      vertex -1.24112 3.27256 13
    endloop
  endfacet
  facet normal 0.743063 0.658287 0.120483
    outer loop
      vertex 2.59709 2.19317 13
      vertex 2.27226 3.29193 9
      vertex 1.98823 2.88044 13
    endloop
  endfacet
  facet normal 0.743049 0.658301 0.120488
    outer loop
      vertex 2.98439 1.75601 13
      vertex 2.27226 3.29193 9
      vertex 2.59709 2.19317 13
    endloop
  endfacet
  facet normal 0.743056 0.658294 0.120484
    outer loop
      vertex 2.27226 3.29193 9
      vertex 2.98439 1.75601 13
      vertex 3.0991 1.62653 13
    endloop
  endfacet
  facet normal 0.96387 0.23757 0.120482
    outer loop
      vertex 3.54182 1.85889 9
      vertex 3.0991 1.62653 13
      vertex 3.5 0 13
    endloop
  endfacet
  facet normal -0.563932 0.816985 0.120485
    outer loop
      vertex -2.99404 2.65249 9
      vertex -1.87265 2.83664 13
      vertex -1.24112 3.27256 13
    endloop
  endfacet
  facet normal -0.563925 0.81699 0.120483
    outer loop
      vertex -1.87265 2.83664 13
      vertex -2.99404 2.65249 9
      vertex -2.40514 2.46909 13
    endloop
  endfacet
  facet normal -0.563921 0.816993 0.120482
    outer loop
      vertex -2.40514 2.46909 13
      vertex -2.99404 2.65249 9
      vertex -2.61979 2.32093 13
    endloop
  endfacet
  facet normal -0.992715 0 0.120483
    outer loop
      vertex -3.88377 0.957262 9
      vertex -3.3983 -0.837605 13
      vertex -3.3983 0.837605 13
    endloop
  endfacet
  facet normal -0.992715 0 0.120483
    outer loop
      vertex -3.3983 -0.837605 13
      vertex -3.88377 0.957262 9
      vertex -3.88377 -0.957262 9
    endloop
  endfacet
  facet normal -0.563921 -0.816993 0.120482
    outer loop
      vertex -2.99404 -2.65249 9
      vertex -2.40514 -2.46909 13
      vertex -2.61979 -2.32093 13
    endloop
  endfacet
  facet normal -0.563925 -0.81699 0.120483
    outer loop
      vertex -2.40514 -2.46909 13
      vertex -2.99404 -2.65249 9
      vertex -1.87265 -2.83664 13
    endloop
  endfacet
  facet normal -0.563932 -0.816985 0.120485
    outer loop
      vertex -1.87265 -2.83664 13
      vertex -2.99404 -2.65249 9
      vertex -1.24112 -3.27256 13
    endloop
  endfacet
  facet normal 0 0 1
    outer loop
      vertex 3.5 0 13
      vertex 2.98439 -1.75601 13
      vertex 3.0991 -1.62653 13
    endloop
  endfacet
  facet normal 0 0 1
    outer loop
      vertex 3.0991 1.62653 13
      vertex 2.98439 1.75601 13
      vertex 3.5 0 13
    endloop
  endfacet
  facet normal 0 0 -1
    outer loop
      vertex -3.35822 0.986063 13
      vertex -3.15179 1.30728 13
      vertex -3.35822 0.913954 13
    endloop
  endfacet
  facet normal 0 -0 -1
    outer loop
      vertex -0.498101 3.46437 13
      vertex -0.114996 3.40929 13
      vertex -0.801147 3.32598 13
    endloop
  endfacet
  facet normal 0 0 -1
    outer loop
      vertex -3.35822 -0.913954 13
      vertex -3.15179 -1.30728 13
      vertex -3.35822 -0.986063 13
    endloop
  endfacet
  facet normal -0 -0 -1
    outer loop
      vertex 2.94439 1.89224 13
      vertex 2.98439 1.75601 13
      vertex 2.59709 2.19317 13
    endloop
  endfacet
  facet normal -0 0 -1
    outer loop
      vertex -0.114996 -3.40929 13
      vertex -0.498101 -3.46437 13
      vertex -0.801147 -3.32598 13
    endloop
  endfacet
  facet normal 0 0 -1
    outer loop
      vertex 2.98439 -1.75601 13
      vertex 2.94439 -1.89224 13
      vertex 2.59709 -2.19317 13
    endloop
  endfacet
  facet normal -0 -0 -1
    outer loop
      vertex 1.45395 3.18371 13
      vertex 1.66051 3.00473 13
      vertex 1.02653 3.24516 13
    endloop
  endfacet
  facet normal 0 -0 -1
    outer loop
      vertex -2.29201 2.64512 13
      vertex -1.87265 2.83664 13
      vertex -2.40514 2.46909 13
    endloop
  endfacet
  facet normal 0 0 -1
    outer loop
      vertex 1.66051 -3.00473 13
      vertex 1.45395 -3.18371 13
      vertex 1.02653 -3.24516 13
    endloop
  endfacet
  facet normal 0 0 -1
    outer loop
      vertex -1.87265 -2.83664 13
      vertex -2.29201 -2.64512 13
      vertex -2.40514 -2.46909 13
    endloop
  endfacet
  facet normal 0 0 1
    outer loop
      vertex 2.59709 -2.19317 13
      vertex 1.66051 -3.00473 13
      vertex 1.98823 -2.88044 13
    endloop
  endfacet
  facet normal 0 0 1
    outer loop
      vertex 0.421878 3.47448 13
      vertex -0.114996 3.40929 13
      vertex 1.02653 3.24516 13
    endloop
  endfacet
  facet normal 0 0 1
    outer loop
      vertex 1.98823 2.88044 13
      vertex 1.66051 3.00473 13
      vertex 2.59709 2.19317 13
    endloop
  endfacet
  facet normal -0 0 1
    outer loop
      vertex -2.61979 2.32093 13
      vertex -3.15179 1.30728 13
      vertex -2.40514 2.46909 13
    endloop
  endfacet
  facet normal -0 0 1
    outer loop
      vertex -3.3983 0.837605 13
      vertex -3.35822 -0.913954 13
      vertex -3.35822 0.913954 13
    endloop
  endfacet
  facet normal 0 0 1
    outer loop
      vertex -3.35822 -0.913954 13
      vertex -3.3983 0.837605 13
      vertex -3.3983 -0.837605 13
    endloop
  endfacet
  facet normal 0 0 1
    outer loop
      vertex -2.40514 -2.46909 13
      vertex -3.15179 -1.30728 13
      vertex -2.61979 -2.32093 13
    endloop
  endfacet
  facet normal 0 0 1
    outer loop
      vertex -0.801147 -3.32598 13
      vertex -1.87265 -2.83664 13
      vertex -1.24112 -3.27256 13
    endloop
  endfacet
  facet normal 0 0 1
    outer loop
      vertex 1.02653 -3.24516 13
      vertex -0.114996 -3.40929 13
      vertex 0.421878 -3.47448 13
    endloop
  endfacet
  facet normal -0 0 1
    outer loop
      vertex -1.24112 3.27256 13
      vertex -1.87265 2.83664 13
      vertex -0.801147 3.32598 13
    endloop
  endfacet
  facet normal -0.119653 -0.985478 0.120481
    outer loop
      vertex -1.41842 -3.74006 9
      vertex -0.801147 -3.32598 13
      vertex -1.24112 -3.27256 13
    endloop
  endfacet
  facet normal -0.119653 -0.985478 0.120481
    outer loop
      vertex -0.801147 -3.32598 13
      vertex -1.41842 -3.74006 9
      vertex -0.114996 -3.40929 13
    endloop
  endfacet
  facet normal -0.119662 -0.985477 0.120484
    outer loop
      vertex -0.114996 -3.40929 13
      vertex -1.41842 -3.74006 9
      vertex 0.421878 -3.47448 13
    endloop
  endfacet
  facet normal 0.963868 -0.237575 0.120484
    outer loop
      vertex 4 0 9
      vertex 3.5 0 13
      vertex 3.54182 -1.85889 9
    endloop
  endfacet
  facet normal 0.743059 -0.658291 0.120482
    outer loop
      vertex 3.0991 -1.62653 13
      vertex 2.27226 -3.29193 9
      vertex 3.54182 -1.85889 9
    endloop
  endfacet
  facet normal -0.879008 0.461335 0.120482
    outer loop
      vertex -2.99404 2.65249 9
      vertex -3.15179 1.30728 13
      vertex -2.61979 2.32093 13
    endloop
  endfacet
  facet normal -0.879009 0.461332 0.120481
    outer loop
      vertex -2.99404 2.65249 9
      vertex -3.35822 0.913954 13
      vertex -3.15179 1.30728 13
    endloop
  endfacet
  facet normal -0.878959 0.461416 0.120522
    outer loop
      vertex -3.35822 0.913954 13
      vertex -2.99404 2.65249 9
      vertex -3.3983 0.837605 13
    endloop
  endfacet
  facet normal -0.879005 0.46134 0.120483
    outer loop
      vertex -2.99404 2.65249 9
      vertex -3.88377 0.957262 9
      vertex -3.3983 0.837605 13
    endloop
  endfacet
  facet normal -0.119658 -0.985477 0.120483
    outer loop
      vertex 0.421878 -3.47448 13
      vertex -1.41842 -3.74006 9
      vertex 0.482146 -3.97083 9
    endloop
  endfacet
  facet normal -0.563926 -0.816989 0.120482
    outer loop
      vertex -1.24112 -3.27256 13
      vertex -2.99404 -2.65249 9
      vertex -1.41842 -3.74006 9
    endloop
  endfacet
  facet normal -0.879005 -0.46134 0.120483
    outer loop
      vertex -3.3983 -0.837605 13
      vertex -3.88377 -0.957262 9
      vertex -2.99404 -2.65249 9
    endloop
  endfacet
  facet normal 0.352021 -0.928205 0.120483
    outer loop
      vertex 2.27226 -3.29193 9
      vertex 0.421878 -3.47448 13
      vertex 0.482146 -3.97083 9
    endloop
  endfacet
  facet normal 0.352029 -0.928202 0.120486
    outer loop
      vertex 2.27226 -3.29193 9
      vertex 1.02653 -3.24516 13
      vertex 0.421878 -3.47448 13
    endloop
  endfacet
  facet normal 0.352013 -0.928209 0.120481
    outer loop
      vertex 1.02653 -3.24516 13
      vertex 2.27226 -3.29193 9
      vertex 1.66051 -3.00473 13
    endloop
  endfacet
  facet normal 0.352027 -0.928203 0.120483
    outer loop
      vertex 1.66051 -3.00473 13
      vertex 2.27226 -3.29193 9
      vertex 1.98823 -2.88044 13
    endloop
  endfacet
  facet normal 0.96387 -0.23757 0.120482
    outer loop
      vertex 3.5 0 13
      vertex 3.0991 -1.62653 13
      vertex 3.54182 -1.85889 9
    endloop
  endfacet
  facet normal 0.352027 0.928203 0.120483
    outer loop
      vertex 2.27226 3.29193 9
      vertex 1.66051 3.00473 13
      vertex 1.98823 2.88044 13
    endloop
  endfacet
  facet normal 0.352013 0.928209 0.120481
    outer loop
      vertex 1.66051 3.00473 13
      vertex 2.27226 3.29193 9
      vertex 1.02653 3.24516 13
    endloop
  endfacet
  facet normal 0.352029 0.928202 0.120486
    outer loop
      vertex 1.02653 3.24516 13
      vertex 2.27226 3.29193 9
      vertex 0.421878 3.47448 13
    endloop
  endfacet
  facet normal 0.352021 0.928205 0.120483
    outer loop
      vertex 0.482146 3.97083 9
      vertex 0.421878 3.47448 13
      vertex 2.27226 3.29193 9
    endloop
  endfacet
  facet normal -0.878959 -0.461416 0.120522
    outer loop
      vertex -2.99404 -2.65249 9
      vertex -3.35822 -0.913954 13
      vertex -3.3983 -0.837605 13
    endloop
  endfacet
  facet normal -0.879009 -0.461332 0.120481
    outer loop
      vertex -3.35822 -0.913954 13
      vertex -2.99404 -2.65249 9
      vertex -3.15179 -1.30728 13
    endloop
  endfacet
  facet normal -0.879008 -0.461335 0.120482
    outer loop
      vertex -3.15179 -1.30728 13
      vertex -2.99404 -2.65249 9
      vertex -2.61979 -2.32093 13
    endloop
  endfacet
  facet normal 0.952667 0.279723 0.119081
    outer loop
      vertex 3 0 17
      vertex 2.98439 1.75601 13
      vertex 2.94439 1.89224 13
    endloop
  endfacet
  facet normal 0.952666 0.279727 0.119083
    outer loop
      vertex 2.98439 1.75601 13
      vertex 3 0 17
      vertex 3.5 0 13
    endloop
  endfacet
  facet normal -0.992884 0 0.119082
    outer loop
      vertex -3.35822 0.913954 13
      vertex -2.87848 0.845197 17
      vertex -3.35822 0.986063 13
    endloop
  endfacet
  facet normal -0.992884 0 0.119082
    outer loop
      vertex -3.35822 0.913954 13
      vertex -2.87848 -0.845197 17
      vertex -2.87848 0.845197 17
    endloop
  endfacet
  facet normal -0.992884 0 0.119082
    outer loop
      vertex -3.35822 -0.913954 13
      vertex -2.87848 -0.845197 17
      vertex -3.35822 0.913954 13
    endloop
  endfacet
  facet normal -0.992884 0 0.119082
    outer loop
      vertex -2.87848 -0.845197 17
      vertex -3.35822 -0.913954 13
      vertex -3.35822 -0.986063 13
    endloop
  endfacet
  facet normal -0.412443 0.903167 0.119084
    outer loop
      vertex -0.801147 3.32598 13
      vertex -0.426944 2.96946 17
      vertex -0.498101 3.46437 13
    endloop
  endfacet
  facet normal -0.41246 0.903159 0.119084
    outer loop
      vertex -1.87265 2.83664 13
      vertex -0.426944 2.96946 17
      vertex -0.801147 3.32598 13
    endloop
  endfacet
  facet normal -0.412467 0.903155 0.119087
    outer loop
      vertex -0.426944 2.96946 17
      vertex -1.87265 2.83664 13
      vertex -2.29201 2.64512 13
    endloop
  endfacet
  facet normal -0.412457 0.903161 0.119082
    outer loop
      vertex -0.426944 2.96946 17
      vertex -2.29201 2.64512 13
      vertex -1.96458 2.26725 17
    endloop
  endfacet
  facet normal 0.650202 0.750371 0.119084
    outer loop
      vertex 2.94439 1.89224 13
      vertex 1.24624 2.7289 17
      vertex 2.52376 1.62192 17
    endloop
  endfacet
  facet normal 0.952666 -0.279727 0.119083
    outer loop
      vertex 3 0 17
      vertex 2.98439 -1.75601 13
      vertex 3.5 0 13
    endloop
  endfacet
  facet normal 0.952667 -0.279723 0.119081
    outer loop
      vertex 2.98439 -1.75601 13
      vertex 3 0 17
      vertex 2.94439 -1.89224 13
    endloop
  endfacet
  facet normal 0.141294 0.98278 0.11908
    outer loop
      vertex 1.02653 3.24516 13
      vertex -0.426944 2.96946 17
      vertex 1.45395 3.18371 13
    endloop
  endfacet
  facet normal 0.141305 0.982778 0.119084
    outer loop
      vertex -0.114996 3.40929 13
      vertex -0.426944 2.96946 17
      vertex 1.02653 3.24516 13
    endloop
  endfacet
  facet normal 0.141297 0.982779 0.119083
    outer loop
      vertex -0.426944 2.96946 17
      vertex -0.114996 3.40929 13
      vertex -0.498101 3.46437 13
    endloop
  endfacet
  facet normal -0.835267 0.536794 0.119083
    outer loop
      vertex -2.87848 0.845197 17
      vertex -2.40514 2.46909 13
      vertex -3.15179 1.30728 13
    endloop
  endfacet
  facet normal -0.835272 0.536787 0.119082
    outer loop
      vertex -2.87848 0.845197 17
      vertex -3.15179 1.30728 13
      vertex -3.35822 0.986063 13
    endloop
  endfacet
  facet normal -0.835262 0.536802 0.119086
    outer loop
      vertex -2.40514 2.46909 13
      vertex -2.87848 0.845197 17
      vertex -2.29201 2.64512 13
    endloop
  endfacet
  facet normal 0.65019 -0.750381 0.119083
    outer loop
      vertex 1.66051 -3.00473 13
      vertex 1.24624 -2.7289 17
      vertex 1.45395 -3.18371 13
    endloop
  endfacet
  facet normal 0.650205 -0.750368 0.119084
    outer loop
      vertex 2.59709 -2.19317 13
      vertex 1.24624 -2.7289 17
      vertex 1.66051 -3.00473 13
    endloop
  endfacet
  facet normal 0.650193 -0.75038 0.119078
    outer loop
      vertex 1.24624 -2.7289 17
      vertex 2.59709 -2.19317 13
      vertex 2.94439 -1.89224 13
    endloop
  endfacet
  facet normal -0.835272 -0.536787 0.119082
    outer loop
      vertex -3.15179 -1.30728 13
      vertex -2.87848 -0.845197 17
      vertex -3.35822 -0.986063 13
    endloop
  endfacet
  facet normal -0.835267 -0.536794 0.119083
    outer loop
      vertex -2.40514 -2.46909 13
      vertex -2.87848 -0.845197 17
      vertex -3.15179 -1.30728 13
    endloop
  endfacet
  facet normal -0.835262 -0.536802 0.119086
    outer loop
      vertex -2.87848 -0.845197 17
      vertex -2.40514 -2.46909 13
      vertex -2.29201 -2.64512 13
    endloop
  endfacet
  facet normal 0.952665 0.279729 0.119084
    outer loop
      vertex 2.94439 1.89224 13
      vertex 2.52376 1.62192 17
      vertex 3 0 17
    endloop
  endfacet
  facet normal 0.141298 0.982779 0.119082
    outer loop
      vertex 1.45395 3.18371 13
      vertex -0.426944 2.96946 17
      vertex 1.24624 2.7289 17
    endloop
  endfacet
  facet normal 0.650193 0.75038 0.119078
    outer loop
      vertex 2.59709 2.19317 13
      vertex 1.24624 2.7289 17
      vertex 2.94439 1.89224 13
    endloop
  endfacet
  facet normal 0.650205 0.750368 0.119084
    outer loop
      vertex 1.66051 3.00473 13
      vertex 1.24624 2.7289 17
      vertex 2.59709 2.19317 13
    endloop
  endfacet
  facet normal 0.65019 0.750381 0.119083
    outer loop
      vertex 1.24624 2.7289 17
      vertex 1.66051 3.00473 13
      vertex 1.45395 3.18371 13
    endloop
  endfacet
  facet normal 0 0 1
    outer loop
      vertex 2.52376 1.62192 17
      vertex 2.52376 -1.62192 17
      vertex 3 0 17
    endloop
  endfacet
  facet normal 0 0 1
    outer loop
      vertex 1.24624 2.7289 17
      vertex 2.52376 -1.62192 17
      vertex 2.52376 1.62192 17
    endloop
  endfacet
  facet normal 0 0 1
    outer loop
      vertex 1.24624 2.7289 17
      vertex 1.24624 -2.7289 17
      vertex 2.52376 -1.62192 17
    endloop
  endfacet
  facet normal 0 0 1
    outer loop
      vertex -0.426944 2.96946 17
      vertex 1.24624 -2.7289 17
      vertex 1.24624 2.7289 17
    endloop
  endfacet
  facet normal 0 0 1
    outer loop
      vertex -0.426944 2.96946 17
      vertex -0.426944 -2.96946 17
      vertex 1.24624 -2.7289 17
    endloop
  endfacet
  facet normal -0 0 1
    outer loop
      vertex -1.96458 2.26725 17
      vertex -0.426944 -2.96946 17
      vertex -0.426944 2.96946 17
    endloop
  endfacet
  facet normal 0 0 1
    outer loop
      vertex -1.96458 2.26725 17
      vertex -1.96458 -2.26725 17
      vertex -0.426944 -2.96946 17
    endloop
  endfacet
  facet normal -0 0 1
    outer loop
      vertex -2.87848 0.845197 17
      vertex -1.96458 -2.26725 17
      vertex -1.96458 2.26725 17
    endloop
  endfacet
  facet normal 0 0 1
    outer loop
      vertex -1.96458 -2.26725 17
      vertex -2.87848 0.845197 17
      vertex -2.87848 -0.845197 17
    endloop
  endfacet
  facet normal -0.835267 0.536795 0.119083
    outer loop
      vertex -2.29201 2.64512 13
      vertex -2.87848 0.845197 17
      vertex -1.96458 2.26725 17
    endloop
  endfacet
  facet normal -0.835267 -0.536795 0.119083
    outer loop
      vertex -1.96458 -2.26725 17
      vertex -2.87848 -0.845197 17
      vertex -2.29201 -2.64512 13
    endloop
  endfacet
  facet normal -0.412467 -0.903155 0.119087
    outer loop
      vertex -1.87265 -2.83664 13
      vertex -0.426944 -2.96946 17
      vertex -2.29201 -2.64512 13
    endloop
  endfacet
  facet normal -0.41246 -0.903159 0.119084
    outer loop
      vertex -0.801147 -3.32598 13
      vertex -0.426944 -2.96946 17
      vertex -1.87265 -2.83664 13
    endloop
  endfacet
  facet normal -0.412443 -0.903167 0.119084
    outer loop
      vertex -0.426944 -2.96946 17
      vertex -0.801147 -3.32598 13
      vertex -0.498101 -3.46437 13
    endloop
  endfacet
  facet normal 0.141298 -0.982779 0.119082
    outer loop
      vertex 1.24624 -2.7289 17
      vertex -0.426944 -2.96946 17
      vertex 1.45395 -3.18371 13
    endloop
  endfacet
  facet normal 0.141297 -0.982779 0.119083
    outer loop
      vertex -0.114996 -3.40929 13
      vertex -0.426944 -2.96946 17
      vertex -0.498101 -3.46437 13
    endloop
  endfacet
  facet normal 0.141305 -0.982778 0.119084
    outer loop
      vertex 1.02653 -3.24516 13
      vertex -0.426944 -2.96946 17
      vertex -0.114996 -3.40929 13
    endloop
  endfacet
  facet normal 0.141294 -0.98278 0.11908
    outer loop
      vertex -0.426944 -2.96946 17
      vertex 1.02653 -3.24516 13
      vertex 1.45395 -3.18371 13
    endloop
  endfacet
  facet normal 0.650202 -0.750371 0.119084
    outer loop
      vertex 2.52376 -1.62192 17
      vertex 1.24624 -2.7289 17
      vertex 2.94439 -1.89224 13
    endloop
  endfacet
  facet normal 0.952665 -0.279729 0.119084
    outer loop
      vertex 3 0 17
      vertex 2.52376 -1.62192 17
      vertex 2.94439 -1.89224 13
    endloop
  endfacet
  facet normal -0.412457 -0.903161 0.119082
    outer loop
      vertex -1.96458 -2.26725 17
      vertex -2.29201 -2.64512 13
      vertex -0.426944 -2.96946 17
    endloop
  endfacet
endsolid OpenSCAD_Model
