solid OpenSCAD_Model
  facet normal 0.970978 0.139606 0.194196
    outer loop
      vertex 6.71645 1.97213 0
      vertex 6 0 5
      vertex 7 0 0
    endloop
  endfacet
  facet normal 0 0 -1
    outer loop
      vertex 6.71645 -1.97213 0
      vertex 6.71645 1.97213 0
      vertex 7 0 0
    endloop
  endfacet
  facet normal 0 0 -1
    outer loop
      vertex 5.88877 -3.78448 0
      vertex 6.71645 1.97213 0
      vertex 6.71645 -1.97213 0
    endloop
  endfacet
  facet normal 0 0 -1
    outer loop
      vertex 5.88877 -3.78448 0
      vertex 5.88877 3.78448 0
      vertex 6.71645 1.97213 0
    endloop
  endfacet
  facet normal 0 0 -1
    outer loop
      vertex 4.58402 -5.29025 0
      vertex 5.88877 3.78448 0
      vertex 5.88877 -3.78448 0
    endloop
  endfacet
  facet normal 0 0 -1
    outer loop
      vertex 4.58402 -5.29025 0
      vertex 4.58402 5.29025 0
      vertex 5.88877 3.78448 0
    endloop
  endfacet
  facet normal 0 0 -1
    outer loop
      vertex 2.9079 -6.36742 0
      vertex 4.58402 5.29025 0
      vertex 4.58402 -5.29025 0
    endloop
  endfacet
  facet normal 0 0 -1
    outer loop
      vertex 2.9079 -6.36742 0
      vertex 2.9079 6.36742 0
      vertex 4.58402 5.29025 0
    endloop
  endfacet
  facet normal 0 0 -1
    outer loop
      vertex 0.996203 -6.92875 0
      vertex 2.9079 6.36742 0
      vertex 2.9079 -6.36742 0
    endloop
  endfacet
  facet normal 0 0 -1
    outer loop
      vertex 0.996203 -6.92875 0
      vertex 0.996203 6.92875 0
      vertex 2.9079 6.36742 0
    endloop
  endfacet
  facet normal 0 0 -1
    outer loop
      vertex -0.996203 -6.92875 0
      vertex 0.996203 6.92875 0
      vertex 0.996203 -6.92875 0
    endloop
  endfacet
  facet normal 0 0 -1
    outer loop
      vertex -0.996203 -6.92875 0
      vertex -0.996203 6.92875 0
      vertex 0.996203 6.92875 0
    endloop
  endfacet
  facet normal 0 0 -1
    outer loop
      vertex -2.9079 -6.36742 0
      vertex -0.996203 6.92875 0
      vertex -0.996203 -6.92875 0
    endloop
  endfacet
  facet normal 0 0 -1
    outer loop
      vertex -2.9079 -6.36742 0
      vertex -2.9079 6.36742 0
      vertex -0.996203 6.92875 0
    endloop
  endfacet
  facet normal 0 0 -1
    outer loop
      vertex -4.58402 -5.29025 0
      vertex -2.9079 6.36742 0
      vertex -2.9079 -6.36742 0
    endloop
  endfacet
  facet normal 0 0 -1
    outer loop
      vertex -4.58402 -5.29025 0
      vertex -4.58402 5.29025 0
      vertex -2.9079 6.36742 0
    endloop
  endfacet
  facet normal 0 0 -1
    outer loop
      vertex -5.88877 -3.78448 0
      vertex -4.58402 5.29025 0
      vertex -4.58402 -5.29025 0
    endloop
  endfacet
  facet normal 0 0 -1
    outer loop
      vertex -5.88877 -3.78448 0
      vertex -5.88877 3.78448 0
      vertex -4.58402 5.29025 0
    endloop
  endfacet
  facet normal 0 0 -1
    outer loop
      vertex -6.71645 -1.97213 0
      vertex -5.88877 3.78448 0
      vertex -5.88877 -3.78448 0
    endloop
  endfacet
  facet normal 0 0 -1
    outer loop
      vertex -6.71645 -1.97213 0
      vertex -6.71645 1.97213 0
      vertex -5.88877 3.78448 0
    endloop
  endfacet
  facet normal 0 -0 -1
    outer loop
      vertex -6.71645 1.97213 0
      vertex -6.71645 -1.97213 0
      vertex -7 0 0
    endloop
  endfacet
  facet normal 0.530346 -0.82524 0.194195
    outer loop
      vertex 4.58402 -5.29025 0
      vertex 2.49249 -5.45779 5
      vertex 2.9079 -6.36742 0
    endloop
  endfacet
  facet normal 0.741366 -0.64239 0.194195
    outer loop
      vertex 4.85099 -3.47065 5
      vertex 5.88877 -3.78448 0
      vertex 5.04752 -3.24384 5
    endloop
  endfacet
  facet normal 0.741361 -0.642396 0.194195
    outer loop
      vertex 4.38973 -4.00297 5
      vertex 5.88877 -3.78448 0
      vertex 4.85099 -3.47065 5
    endloop
  endfacet
  facet normal 0.741365 -0.642391 0.194196
    outer loop
      vertex 3.92916 -4.5345 5
      vertex 5.88877 -3.78448 0
      vertex 4.38973 -4.00297 5
    endloop
  endfacet
  facet normal 0.741364 -0.642392 0.194195
    outer loop
      vertex 5.88877 -3.78448 0
      vertex 3.92916 -4.5345 5
      vertex 4.58402 -5.29025 0
    endloop
  endfacet
  facet normal -0.530346 0.82524 0.194195
    outer loop
      vertex -2.9079 6.36742 0
      vertex -4.58402 5.29025 0
      vertex -2.49249 5.45779 5
    endloop
  endfacet
  facet normal 0.530348 0.825239 0.194196
    outer loop
      vertex 4.58402 5.29025 0
      vertex 3.54219 4.78319 5
      vertex 3.92916 4.5345 5
    endloop
  endfacet
  facet normal 0.530353 0.825235 0.194196
    outer loop
      vertex 3.54219 4.78319 5
      vertex 4.58402 5.29025 0
      vertex 2.92685 5.17865 5
    endloop
  endfacet
  facet normal 0.530341 0.825244 0.194192
    outer loop
      vertex 2.92685 5.17865 5
      vertex 4.58402 5.29025 0
      vertex 2.49249 5.45779 5
    endloop
  endfacet
  facet normal 0.741365 0.642391 0.194196
    outer loop
      vertex 5.88877 3.78448 0
      vertex 3.92916 4.5345 5
      vertex 4.38973 4.00297 5
    endloop
  endfacet
  facet normal 0.741364 0.642392 0.194195
    outer loop
      vertex 3.92916 4.5345 5
      vertex 5.88877 3.78448 0
      vertex 4.58402 5.29025 0
    endloop
  endfacet
  facet normal 0.741361 0.642396 0.194195
    outer loop
      vertex 4.85099 3.47065 5
      vertex 5.88877 3.78448 0
      vertex 4.38973 4.00297 5
    endloop
  endfacet
  facet normal 0.741366 0.64239 0.194195
    outer loop
      vertex 5.88877 3.78448 0
      vertex 4.85099 3.47065 5
      vertex 5.04752 3.24384 5
    endloop
  endfacet
  facet normal 0.892315 0.407506 0.194197
    outer loop
      vertex 5.44636 2.3705 5
      vertex 6.71645 1.97213 0
      vertex 5.04752 3.24384 5
    endloop
  endfacet
  facet normal 0.892312 0.407514 0.194195
    outer loop
      vertex 5.69545 1.82508 5
      vertex 6.71645 1.97213 0
      vertex 5.44636 2.3705 5
    endloop
  endfacet
  facet normal 0.892317 0.407502 0.194196
    outer loop
      vertex 6.71645 1.97213 0
      vertex 5.69545 1.82508 5
      vertex 5.75696 1.69039 5
    endloop
  endfacet
  facet normal -0.276371 0.941227 0.194195
    outer loop
      vertex -0.996203 6.92875 0
      vertex -2.09631 5.57412 5
      vertex -0.853889 5.93893 5
    endloop
  endfacet
  facet normal -0.276374 0.941226 0.194194
    outer loop
      vertex -2.09631 5.57412 5
      vertex -0.996203 6.92875 0
      vertex -2.44542 5.47161 5
    endloop
  endfacet
  facet normal -0.27635 0.941231 0.194203
    outer loop
      vertex -2.44542 5.47161 5
      vertex -0.996203 6.92875 0
      vertex -2.49249 5.45779 5
    endloop
  endfacet
  facet normal -0 -0 -1
    outer loop
      vertex 3.28169 5.023 5
      vertex 3.54219 4.78319 5
      vertex 2.92685 5.17865 5
    endloop
  endfacet
  facet normal -0 -0 -1
    outer loop
      vertex 4.73484 3.68528 5
      vertex 4.85099 3.47065 5
      vertex 4.38973 4.00297 5
    endloop
  endfacet
  facet normal -0 -0 -1
    outer loop
      vertex 5.6749 1.9482 5
      vertex 5.69545 1.82508 5
      vertex 5.44636 2.3705 5
    endloop
  endfacet
  facet normal -0 -0 -1
    outer loop
      vertex 1.47291 5.8164 5
      vertex 1.88139 5.63723 5
      vertex 1.19186 5.83969 5
    endloop
  endfacet
  facet normal -0 0 -1
    outer loop
      vertex -0.00577253 -5.93893 5
      vertex -0.495476 -5.97951 5
      vertex -0.655714 -5.93893 5
    endloop
  endfacet
  facet normal 0 0 -1
    outer loop
      vertex 3.54219 -4.78319 5
      vertex 3.28169 -5.023 5
      vertex 2.92685 -5.17865 5
    endloop
  endfacet
  facet normal 0 0 -1
    outer loop
      vertex 5.69545 -1.82508 5
      vertex 5.6749 -1.9482 5
      vertex 5.44636 -2.3705 5
    endloop
  endfacet
  facet normal 0 0 -1
    outer loop
      vertex 4.85099 -3.47065 5
      vertex 4.73484 -3.68528 5
      vertex 4.38973 -4.00297 5
    endloop
  endfacet
  facet normal 0 -0 -1
    outer loop
      vertex -4.06369 4.41434 5
      vertex -3.9936 4.46013 5
      vertex -4.33214 4.06944 5
    endloop
  endfacet
  facet normal 0 -0 -1
    outer loop
      vertex -5.27684 2.85568 5
      vertex -5.15088 3.01752 5
      vertex -5.43445 2.39658 5
    endloop
  endfacet
  facet normal 0 0 -1
    outer loop
      vertex -5.91817 0.987567 5
      vertex -5.81466 1.28908 5
      vertex -5.91817 0.569158 5
    endloop
  endfacet
  facet normal 0 0 -1
    outer loop
      vertex -3.9936 -4.46013 5
      vertex -4.06369 -4.41434 5
      vertex -4.33214 -4.06944 5
    endloop
  endfacet
  facet normal 0 0 -1
    outer loop
      vertex -5.15088 -3.01752 5
      vertex -5.27684 -2.85568 5
      vertex -5.43445 -2.39658 5
    endloop
  endfacet
  facet normal 0 0 -1
    outer loop
      vertex -5.91817 -0.569158 5
      vertex -5.81466 -1.28908 5
      vertex -5.91817 -0.987567 5
    endloop
  endfacet
  facet normal 0 0 -1
    outer loop
      vertex -2.09631 -5.57412 5
      vertex -2.41017 -5.49464 5
      vertex -2.44542 -5.47161 5
    endloop
  endfacet
  facet normal 0 0 -1
    outer loop
      vertex 1.88139 -5.63723 5
      vertex 1.47291 -5.8164 5
      vertex 1.19186 -5.83969 5
    endloop
  endfacet
  facet normal 0 0 1
    outer loop
      vertex 6 0 5
      vertex 5.69545 -1.82508 5
      vertex 5.75696 -1.69039 5
    endloop
  endfacet
  facet normal 0 0 1
    outer loop
      vertex 5.75696 1.69039 5
      vertex 5.69545 1.82508 5
      vertex 6 0 5
    endloop
  endfacet
  facet normal 0 -0 -1
    outer loop
      vertex -0.495476 5.97951 5
      vertex -0.00577253 5.93893 5
      vertex -0.655714 5.93893 5
    endloop
  endfacet
  facet normal 0 -0 -1
    outer loop
      vertex -2.41017 5.49464 5
      vertex -2.09631 5.57412 5
      vertex -2.44542 5.47161 5
    endloop
  endfacet
  facet normal 0 0 1
    outer loop
      vertex 0.853889 5.93893 5
      vertex -0.00577253 5.93893 5
      vertex 1.19186 5.83969 5
    endloop
  endfacet
  facet normal 0 0 1
    outer loop
      vertex 2.92685 -5.17865 5
      vertex 1.88139 -5.63723 5
      vertex 2.49249 -5.45779 5
    endloop
  endfacet
  facet normal 0 0 1
    outer loop
      vertex 3.92916 4.5345 5
      vertex 3.54219 4.78319 5
      vertex 4.38973 4.00297 5
    endloop
  endfacet
  facet normal 0 0 1
    outer loop
      vertex 5.04752 3.24384 5
      vertex 4.85099 3.47065 5
      vertex 5.44636 2.3705 5
    endloop
  endfacet
  facet normal 0 0 1
    outer loop
      vertex -3.92916 4.5345 5
      vertex -2.44542 5.47161 5
      vertex -2.49249 5.45779 5
    endloop
  endfacet
  facet normal 0 0 1
    outer loop
      vertex -2.44542 5.47161 5
      vertex -3.92916 4.5345 5
      vertex -3.9936 4.46013 5
    endloop
  endfacet
  facet normal -0 0 1
    outer loop
      vertex -0.853889 5.93893 5
      vertex -2.09631 5.57412 5
      vertex -0.655714 5.93893 5
    endloop
  endfacet
  facet normal 0 0 1
    outer loop
      vertex -2.44542 -5.47161 5
      vertex -3.92916 -4.5345 5
      vertex -2.49249 -5.45779 5
    endloop
  endfacet
  facet normal -0 -0 1
    outer loop
      vertex -3.92916 -4.5345 5
      vertex -2.44542 -5.47161 5
      vertex -3.9936 -4.46013 5
    endloop
  endfacet
  facet normal -0 0 1
    outer loop
      vertex -5.75696 1.69039 5
      vertex -5.81466 1.28908 5
      vertex -5.43445 2.39658 5
    endloop
  endfacet
  facet normal 0 0 1
    outer loop
      vertex 1.19186 -5.83969 5
      vertex -0.00577253 -5.93893 5
      vertex 0.853889 -5.93893 5
    endloop
  endfacet
  facet normal 0 0 1
    outer loop
      vertex -0.655714 -5.93893 5
      vertex -2.09631 -5.57412 5
      vertex -0.853889 -5.93893 5
    endloop
  endfacet
  facet normal 0 0 1
    outer loop
      vertex -4.33214 -4.06944 5
      vertex -5.15088 -3.01752 5
      vertex -5.04752 -3.24384 5
    endloop
  endfacet
  facet normal 0 0 1
    outer loop
      vertex -5.43445 -2.39658 5
      vertex -5.81466 -1.28908 5
      vertex -5.75696 -1.69039 5
    endloop
  endfacet
  facet normal 0 0 1
    outer loop
      vertex -5.91817 0.569158 5
      vertex -6 0 5
      vertex -5.91817 -0.569158 5
    endloop
  endfacet
  facet normal -0 0 1
    outer loop
      vertex -5.04752 3.24384 5
      vertex -5.15088 3.01752 5
      vertex -4.33214 4.06944 5
    endloop
  endfacet
  facet normal 0 0 1
    outer loop
      vertex 4.38973 -4.00297 5
      vertex 3.54219 -4.78319 5
      vertex 3.92916 -4.5345 5
    endloop
  endfacet
  facet normal 0 0 1
    outer loop
      vertex 5.44636 -2.3705 5
      vertex 4.85099 -3.47065 5
      vertex 5.04752 -3.24384 5
    endloop
  endfacet
  facet normal 0 0 1
    outer loop
      vertex 2.49249 5.45779 5
      vertex 1.88139 5.63723 5
      vertex 2.92685 5.17865 5
    endloop
  endfacet
  facet normal 0.970978 -0.139606 0.194196
    outer loop
      vertex 7 0 0
      vertex 6 0 5
      vertex 6.71645 -1.97213 0
    endloop
  endfacet
  facet normal -0.276372 0.941226 0.194195
    outer loop
      vertex -0.996203 6.92875 0
      vertex -2.9079 6.36742 0
      vertex -2.49249 5.45779 5
    endloop
  endfacet
  facet normal 0 0.980963 0.194195
    outer loop
      vertex 0.996203 6.92875 0
      vertex -0.00577253 5.93893 5
      vertex 0.853889 5.93893 5
    endloop
  endfacet
  facet normal -0 0.980963 0.194195
    outer loop
      vertex -0.996203 6.92875 0
      vertex -0.00577253 5.93893 5
      vertex 0.996203 6.92875 0
    endloop
  endfacet
  facet normal 0 0.980963 0.194195
    outer loop
      vertex -0.00577253 5.93893 5
      vertex -0.996203 6.92875 0
      vertex -0.655714 5.93893 5
    endloop
  endfacet
  facet normal 0 0.980963 0.194195
    outer loop
      vertex -0.655714 5.93893 5
      vertex -0.996203 6.92875 0
      vertex -0.853889 5.93893 5
    endloop
  endfacet
  facet normal 0.892314 0.40751 0.194195
    outer loop
      vertex 5.88877 3.78448 0
      vertex 5.04752 3.24384 5
      vertex 6.71645 1.97213 0
    endloop
  endfacet
  facet normal 0.970978 0.139605 0.194195
    outer loop
      vertex 6.71645 1.97213 0
      vertex 5.75696 1.69039 5
      vertex 6 0 5
    endloop
  endfacet
  facet normal -0.970978 -0.139606 0.194196
    outer loop
      vertex -6 0 5
      vertex -7 0 0
      vertex -6.71645 -1.97213 0
    endloop
  endfacet
  facet normal -0.530348 -0.825239 0.194196
    outer loop
      vertex -3.92916 -4.5345 5
      vertex -4.58402 -5.29025 0
      vertex -2.49249 -5.45779 5
    endloop
  endfacet
  facet normal -0.27635 -0.941231 0.194203
    outer loop
      vertex -0.996203 -6.92875 0
      vertex -2.44542 -5.47161 5
      vertex -2.49249 -5.45779 5
    endloop
  endfacet
  facet normal -0.276374 -0.941226 0.194194
    outer loop
      vertex -2.44542 -5.47161 5
      vertex -0.996203 -6.92875 0
      vertex -2.09631 -5.57412 5
    endloop
  endfacet
  facet normal -0.276371 -0.941227 0.194195
    outer loop
      vertex -2.09631 -5.57412 5
      vertex -0.996203 -6.92875 0
      vertex -0.853889 -5.93893 5
    endloop
  endfacet
  facet normal 0 -0.980963 0.194195
    outer loop
      vertex -0.996203 -6.92875 0
      vertex -0.655714 -5.93893 5
      vertex -0.853889 -5.93893 5
    endloop
  endfacet
  facet normal 0 -0.980963 0.194195
    outer loop
      vertex -0.655714 -5.93893 5
      vertex -0.996203 -6.92875 0
      vertex -0.00577253 -5.93893 5
    endloop
  endfacet
  facet normal 0 -0.980963 0.194195
    outer loop
      vertex 0.996203 -6.92875 0
      vertex -0.00577253 -5.93893 5
      vertex -0.996203 -6.92875 0
    endloop
  endfacet
  facet normal 0 -0.980963 0.194195
    outer loop
      vertex -0.00577253 -5.93893 5
      vertex 0.996203 -6.92875 0
      vertex 0.853889 -5.93893 5
    endloop
  endfacet
  facet normal -0.892313 -0.407511 0.194196
    outer loop
      vertex -6.71645 -1.97213 0
      vertex -5.43445 -2.39658 5
      vertex -5.75696 -1.69039 5
    endloop
  endfacet
  facet normal -0.892317 -0.407502 0.194197
    outer loop
      vertex -6.71645 -1.97213 0
      vertex -5.15088 -3.01752 5
      vertex -5.43445 -2.39658 5
    endloop
  endfacet
  facet normal -0.892311 -0.407517 0.194192
    outer loop
      vertex -5.15088 -3.01752 5
      vertex -6.71645 -1.97213 0
      vertex -5.04752 -3.24384 5
    endloop
  endfacet
  facet normal -0.970979 -0.139601 0.194194
    outer loop
      vertex -6.71645 -1.97213 0
      vertex -5.91817 -0.569158 5
      vertex -6 0 5
    endloop
  endfacet
  facet normal -0.970978 -0.139607 0.194195
    outer loop
      vertex -5.91817 -0.569158 5
      vertex -6.71645 -1.97213 0
      vertex -5.81466 -1.28908 5
    endloop
  endfacet
  facet normal -0.970978 -0.139606 0.194195
    outer loop
      vertex -5.81466 -1.28908 5
      vertex -6.71645 -1.97213 0
      vertex -5.75696 -1.69039 5
    endloop
  endfacet
  facet normal -0.970978 0.139606 0.194195
    outer loop
      vertex -6.71645 1.97213 0
      vertex -5.81466 1.28908 5
      vertex -5.75696 1.69039 5
    endloop
  endfacet
  facet normal -0.970978 0.139607 0.194195
    outer loop
      vertex -6.71645 1.97213 0
      vertex -5.91817 0.569158 5
      vertex -5.81466 1.28908 5
    endloop
  endfacet
  facet normal -0.970979 0.139601 0.194194
    outer loop
      vertex -5.91817 0.569158 5
      vertex -6.71645 1.97213 0
      vertex -6 0 5
    endloop
  endfacet
  facet normal -0.970978 0.139606 0.194196
    outer loop
      vertex -6.71645 1.97213 0
      vertex -7 0 0
      vertex -6 0 5
    endloop
  endfacet
  facet normal -0.530348 0.825239 0.194196
    outer loop
      vertex -2.49249 5.45779 5
      vertex -4.58402 5.29025 0
      vertex -3.92916 4.5345 5
    endloop
  endfacet
  facet normal -0.741364 0.642392 0.194195
    outer loop
      vertex -5.88877 3.78448 0
      vertex -3.92916 4.5345 5
      vertex -4.58402 5.29025 0
    endloop
  endfacet
  facet normal -0.741371 0.642382 0.1942
    outer loop
      vertex -3.92916 4.5345 5
      vertex -5.88877 3.78448 0
      vertex -3.9936 4.46013 5
    endloop
  endfacet
  facet normal -0.741358 0.6424 0.194192
    outer loop
      vertex -3.9936 4.46013 5
      vertex -5.88877 3.78448 0
      vertex -4.33214 4.06944 5
    endloop
  endfacet
  facet normal -0.741365 0.642391 0.194195
    outer loop
      vertex -4.33214 4.06944 5
      vertex -5.88877 3.78448 0
      vertex -5.04752 3.24384 5
    endloop
  endfacet
  facet normal -0.530346 -0.82524 0.194195
    outer loop
      vertex -2.49249 -5.45779 5
      vertex -4.58402 -5.29025 0
      vertex -2.9079 -6.36742 0
    endloop
  endfacet
  facet normal -0.276372 -0.941226 0.194195
    outer loop
      vertex -2.49249 -5.45779 5
      vertex -2.9079 -6.36742 0
      vertex -0.996203 -6.92875 0
    endloop
  endfacet
  facet normal 0.276372 -0.941226 0.194195
    outer loop
      vertex 2.49249 -5.45779 5
      vertex 0.996203 -6.92875 0
      vertex 2.9079 -6.36742 0
    endloop
  endfacet
  facet normal 0.276376 -0.941225 0.194195
    outer loop
      vertex 0.996203 -6.92875 0
      vertex 1.19186 -5.83969 5
      vertex 0.853889 -5.93893 5
    endloop
  endfacet
  facet normal 0.276364 -0.941228 0.194196
    outer loop
      vertex 1.19186 -5.83969 5
      vertex 0.996203 -6.92875 0
      vertex 1.88139 -5.63723 5
    endloop
  endfacet
  facet normal 0.276376 -0.941225 0.194193
    outer loop
      vertex 1.88139 -5.63723 5
      vertex 0.996203 -6.92875 0
      vertex 2.49249 -5.45779 5
    endloop
  endfacet
  facet normal 0.530341 -0.825244 0.194192
    outer loop
      vertex 4.58402 -5.29025 0
      vertex 2.92685 -5.17865 5
      vertex 2.49249 -5.45779 5
    endloop
  endfacet
  facet normal 0.530353 -0.825235 0.194196
    outer loop
      vertex 2.92685 -5.17865 5
      vertex 4.58402 -5.29025 0
      vertex 3.54219 -4.78319 5
    endloop
  endfacet
  facet normal 0.530348 -0.825239 0.194196
    outer loop
      vertex 3.54219 -4.78319 5
      vertex 4.58402 -5.29025 0
      vertex 3.92916 -4.5345 5
    endloop
  endfacet
  facet normal 0.892314 -0.40751 0.194195
    outer loop
      vertex 6.71645 -1.97213 0
      vertex 5.04752 -3.24384 5
      vertex 5.88877 -3.78448 0
    endloop
  endfacet
  facet normal 0.892317 -0.407502 0.194196
    outer loop
      vertex 5.69545 -1.82508 5
      vertex 6.71645 -1.97213 0
      vertex 5.75696 -1.69039 5
    endloop
  endfacet
  facet normal 0.892312 -0.407514 0.194195
    outer loop
      vertex 5.44636 -2.3705 5
      vertex 6.71645 -1.97213 0
      vertex 5.69545 -1.82508 5
    endloop
  endfacet
  facet normal 0.892315 -0.407506 0.194197
    outer loop
      vertex 6.71645 -1.97213 0
      vertex 5.44636 -2.3705 5
      vertex 5.04752 -3.24384 5
    endloop
  endfacet
  facet normal 0.970978 -0.139605 0.194195
    outer loop
      vertex 6 0 5
      vertex 5.75696 -1.69039 5
      vertex 6.71645 -1.97213 0
    endloop
  endfacet
  facet normal 0.276372 0.941226 0.194195
    outer loop
      vertex 2.9079 6.36742 0
      vertex 0.996203 6.92875 0
      vertex 2.49249 5.45779 5
    endloop
  endfacet
  facet normal 0.530346 0.82524 0.194195
    outer loop
      vertex 2.9079 6.36742 0
      vertex 2.49249 5.45779 5
      vertex 4.58402 5.29025 0
    endloop
  endfacet
  facet normal -0.741365 -0.642391 0.194195
    outer loop
      vertex -5.88877 -3.78448 0
      vertex -4.33214 -4.06944 5
      vertex -5.04752 -3.24384 5
    endloop
  endfacet
  facet normal -0.741358 -0.6424 0.194192
    outer loop
      vertex -5.88877 -3.78448 0
      vertex -3.9936 -4.46013 5
      vertex -4.33214 -4.06944 5
    endloop
  endfacet
  facet normal -0.741371 -0.642382 0.1942
    outer loop
      vertex -5.88877 -3.78448 0
      vertex -3.92916 -4.5345 5
      vertex -3.9936 -4.46013 5
    endloop
  endfacet
  facet normal -0.741364 -0.642392 0.194195
    outer loop
      vertex -3.92916 -4.5345 5
      vertex -5.88877 -3.78448 0
      vertex -4.58402 -5.29025 0
    endloop
  endfacet
  facet normal -0.892314 0.40751 0.194195
    outer loop
      vertex -5.88877 3.78448 0
      vertex -6.71645 1.97213 0
      vertex -5.04752 3.24384 5
    endloop
  endfacet
  facet normal -0.892311 0.407517 0.194192
    outer loop
      vertex -6.71645 1.97213 0
      vertex -5.15088 3.01752 5
      vertex -5.04752 3.24384 5
    endloop
  endfacet
  facet normal -0.892317 0.407502 0.194197
    outer loop
      vertex -5.15088 3.01752 5
      vertex -6.71645 1.97213 0
      vertex -5.43445 2.39658 5
    endloop
  endfacet
  facet normal -0.892313 0.407511 0.194196
    outer loop
      vertex -5.43445 2.39658 5
      vertex -6.71645 1.97213 0
      vertex -5.75696 1.69039 5
    endloop
  endfacet
  facet normal 0.276376 0.941225 0.194193
    outer loop
      vertex 0.996203 6.92875 0
      vertex 1.88139 5.63723 5
      vertex 2.49249 5.45779 5
    endloop
  endfacet
  facet normal 0.276364 0.941228 0.194196
    outer loop
      vertex 1.88139 5.63723 5
      vertex 0.996203 6.92875 0
      vertex 1.19186 5.83969 5
    endloop
  endfacet
  facet normal 0.276376 0.941225 0.194195
    outer loop
      vertex 1.19186 5.83969 5
      vertex 0.996203 6.92875 0
      vertex 0.853889 5.93893 5
    endloop
  endfacet
  facet normal -0.892314 -0.40751 0.194195
    outer loop
      vertex -5.04752 -3.24384 5
      vertex -6.71645 -1.97213 0
      vertex -5.88877 -3.78448 0
    endloop
  endfacet
  facet normal 0.957675 0.159805 0.239419
    outer loop
      vertex 6 0 5
      vertex 4.72909 1.6235 9
      vertex 5 0 9
    endloop
  endfacet
  facet normal 0.957668 0.159845 0.239418
    outer loop
      vertex 4.72909 1.6235 9
      vertex 5.69545 1.82508 5
      vertex 5.6749 1.9482 5
    endloop
  endfacet
  facet normal 0.957675 0.159807 0.239418
    outer loop
      vertex 5.69545 1.82508 5
      vertex 4.72909 1.6235 9
      vertex 6 0 5
    endloop
  endfacet
  facet normal 0.657585 0.714325 0.239419
    outer loop
      vertex 3.54219 4.78319 5
      vertex 3.68636 3.3098 9
      vertex 3.9457 3.07106 9
    endloop
  endfacet
  facet normal 0.657589 0.714322 0.239417
    outer loop
      vertex 3.68636 3.3098 9
      vertex 3.54219 4.78319 5
      vertex 3.19128 3.76556 9
    endloop
  endfacet
  facet normal 0.657577 0.714333 0.239419
    outer loop
      vertex 4.38973 4.00297 5
      vertex 3.9457 3.07106 9
      vertex 4.73484 3.68528 5
    endloop
  endfacet
  facet normal 0.657586 0.714325 0.239419
    outer loop
      vertex 3.54219 4.78319 5
      vertex 3.9457 3.07106 9
      vertex 4.38973 4.00297 5
    endloop
  endfacet
  facet normal 0.657588 0.714323 0.239418
    outer loop
      vertex 3.19128 3.76556 9
      vertex 3.54219 4.78319 5
      vertex 3.28169 5.023 5
    endloop
  endfacet
  facet normal 0.65758 0.71433 0.23942
    outer loop
      vertex 3.19128 3.76556 9
      vertex 3.28169 5.023 5
      vertex 2.73474 4.18583 9
    endloop
  endfacet
  facet normal 0.390008 0.889141 0.239421
    outer loop
      vertex 1.47291 5.8164 5
      vertex 2.23275 4.40602 9
      vertex 2.73474 4.18583 9
    endloop
  endfacet
  facet normal 0.390025 0.889135 0.239415
    outer loop
      vertex 2.23275 4.40602 9
      vertex 1.47291 5.8164 5
      vertex 1.60766 4.68022 9
    endloop
  endfacet
  facet normal 0.390004 0.889143 0.239418
    outer loop
      vertex 1.60766 4.68022 9
      vertex 1.47291 5.8164 5
      vertex 1.22743 4.847 9
    endloop
  endfacet
  facet normal 0.0801775 -0.9676 0.23942
    outer loop
      vertex -0.495476 -5.97951 5
      vertex -0.182031 -4.96379 9
      vertex -0.412896 -4.98292 9
    endloop
  endfacet
  facet normal 0.080167 -0.967601 0.239421
    outer loop
      vertex -0.182031 -4.96379 9
      vertex -0.495476 -5.97951 5
      vertex 0.441978 -4.91209 9
    endloop
  endfacet
  facet normal 0.0801845 -0.9676 0.239417
    outer loop
      vertex 0.441978 -4.91209 9
      vertex -0.495476 -5.97951 5
      vertex 1.22743 -4.847 9
    endloop
  endfacet
  facet normal 0.853894 -0.46211 0.239417
    outer loop
      vertex 4.72909 -1.6235 9
      vertex 5.44636 -2.3705 5
      vertex 5.6749 -1.9482 5
    endloop
  endfacet
  facet normal 0.853896 -0.462105 0.239417
    outer loop
      vertex 4.72909 -1.6235 9
      vertex 4.85099 -3.47065 5
      vertex 5.44636 -2.3705 5
    endloop
  endfacet
  facet normal 0.8539 -0.4621 0.239414
    outer loop
      vertex 4.85099 -3.47065 5
      vertex 4.72909 -1.6235 9
      vertex 4.73484 -3.68528 5
    endloop
  endfacet
  facet normal 0.390018 0.889137 0.23942
    outer loop
      vertex 2.92685 5.17865 5
      vertex 2.73474 4.18583 9
      vertex 3.28169 5.023 5
    endloop
  endfacet
  facet normal 0.390012 0.889139 0.23942
    outer loop
      vertex 1.88139 5.63723 5
      vertex 2.73474 4.18583 9
      vertex 2.92685 5.17865 5
    endloop
  endfacet
  facet normal 0.390001 0.889143 0.239424
    outer loop
      vertex 2.73474 4.18583 9
      vertex 1.88139 5.63723 5
      vertex 1.47291 5.8164 5
    endloop
  endfacet
  facet normal 0.8539 0.4621 0.239414
    outer loop
      vertex 4.72909 1.6235 9
      vertex 4.85099 3.47065 5
      vertex 4.73484 3.68528 5
    endloop
  endfacet
  facet normal 0.853896 0.462105 0.239417
    outer loop
      vertex 4.85099 3.47065 5
      vertex 4.72909 1.6235 9
      vertex 5.44636 2.3705 5
    endloop
  endfacet
  facet normal 0.853894 0.46211 0.239417
    outer loop
      vertex 5.44636 2.3705 5
      vertex 4.72909 1.6235 9
      vertex 5.6749 1.9482 5
    endloop
  endfacet
  facet normal -0.766186 0.596354 0.239418
    outer loop
      vertex -4.33214 4.06944 5
      vertex -3.38641 3.67862 9
      vertex -4.06369 4.41434 5
    endloop
  endfacet
  facet normal -0.76619 0.596348 0.239418
    outer loop
      vertex -5.15088 3.01752 5
      vertex -3.38641 3.67862 9
      vertex -4.33214 4.06944 5
    endloop
  endfacet
  facet normal -0.7662 0.596333 0.239425
    outer loop
      vertex -3.38641 3.67862 9
      vertex -5.15088 3.01752 5
      vertex -5.27684 2.85568 5
    endloop
  endfacet
  facet normal 0.0801845 0.9676 0.239417
    outer loop
      vertex -0.495476 5.97951 5
      vertex 0.441978 4.91209 9
      vertex 1.22743 4.847 9
    endloop
  endfacet
  facet normal 0.080167 0.967601 0.239421
    outer loop
      vertex 0.441978 4.91209 9
      vertex -0.495476 5.97951 5
      vertex -0.182031 4.96379 9
    endloop
  endfacet
  facet normal 0.0801775 0.9676 0.23942
    outer loop
      vertex -0.182031 4.96379 9
      vertex -0.495476 5.97951 5
      vertex -0.412896 4.98292 9
    endloop
  endfacet
  facet normal -0.918313 0.315243 0.239424
    outer loop
      vertex -5.91817 0.987567 5
      vertex -4.492 2.10408 9
      vertex -4.39737 2.37974 9
    endloop
  endfacet
  facet normal -0.918309 0.315257 0.239419
    outer loop
      vertex -4.492 2.10408 9
      vertex -5.91817 0.987567 5
      vertex -4.70473 1.48442 9
    endloop
  endfacet
  facet normal -0.918308 0.315262 0.239418
    outer loop
      vertex -4.70473 1.48442 9
      vertex -5.91817 0.987567 5
      vertex -4.93181 0.822972 9
    endloop
  endfacet
  facet normal -0.531024 -0.81283 0.239417
    outer loop
      vertex -3.9936 -4.46013 5
      vertex -3.38641 -3.67862 9
      vertex -4.06369 -4.41434 5
    endloop
  endfacet
  facet normal -0.531042 -0.812818 0.239417
    outer loop
      vertex -2.44542 -5.47161 5
      vertex -3.38641 -3.67862 9
      vertex -3.9936 -4.46013 5
    endloop
  endfacet
  facet normal -0.531041 -0.812819 0.239418
    outer loop
      vertex -3.38641 -3.67862 9
      vertex -2.44542 -5.47161 5
      vertex -2.41017 -5.49464 5
    endloop
  endfacet
  facet normal -0.7662 -0.596333 0.239425
    outer loop
      vertex -5.15088 -3.01752 5
      vertex -3.38641 -3.67862 9
      vertex -5.27684 -2.85568 5
    endloop
  endfacet
  facet normal -0.76619 -0.596348 0.239418
    outer loop
      vertex -4.33214 -4.06944 5
      vertex -3.38641 -3.67862 9
      vertex -5.15088 -3.01752 5
    endloop
  endfacet
  facet normal -0.766186 -0.596354 0.239418
    outer loop
      vertex -3.38641 -3.67862 9
      vertex -4.33214 -4.06944 5
      vertex -4.06369 -4.41434 5
    endloop
  endfacet
  facet normal -0.918309 -0.315257 0.239418
    outer loop
      vertex -5.81466 -1.28908 5
      vertex -4.39737 -2.37974 9
      vertex -5.91817 -0.987567 5
    endloop
  endfacet
  facet normal -0.918309 -0.31526 0.239417
    outer loop
      vertex -5.43445 -2.39658 5
      vertex -4.39737 -2.37974 9
      vertex -5.81466 -1.28908 5
    endloop
  endfacet
  facet normal -0.918309 -0.315258 0.239417
    outer loop
      vertex -4.39737 -2.37974 9
      vertex -5.43445 -2.39658 5
      vertex -5.27684 -2.85568 5
    endloop
  endfacet
  facet normal -0.238346 -0.941207 0.239418
    outer loop
      vertex -2.09631 -5.57412 5
      vertex -2.00848 -4.57887 9
      vertex -2.41017 -5.49464 5
    endloop
  endfacet
  facet normal -0.238347 -0.941207 0.239417
    outer loop
      vertex -0.655714 -5.93893 5
      vertex -2.00848 -4.57887 9
      vertex -2.09631 -5.57412 5
    endloop
  endfacet
  facet normal -0.238359 -0.941205 0.239413
    outer loop
      vertex -2.00848 -4.57887 9
      vertex -0.655714 -5.93893 5
      vertex -0.495476 -5.97951 5
    endloop
  endfacet
  facet normal 0.390001 -0.889143 0.239424
    outer loop
      vertex 1.88139 -5.63723 5
      vertex 2.73474 -4.18583 9
      vertex 1.47291 -5.8164 5
    endloop
  endfacet
  facet normal 0.390012 -0.889139 0.23942
    outer loop
      vertex 2.92685 -5.17865 5
      vertex 2.73474 -4.18583 9
      vertex 1.88139 -5.63723 5
    endloop
  endfacet
  facet normal 0.390018 -0.889137 0.23942
    outer loop
      vertex 2.73474 -4.18583 9
      vertex 2.92685 -5.17865 5
      vertex 3.28169 -5.023 5
    endloop
  endfacet
  facet normal 0.957675 -0.159807 0.239418
    outer loop
      vertex 4.72909 -1.6235 9
      vertex 5.69545 -1.82508 5
      vertex 6 0 5
    endloop
  endfacet
  facet normal 0.957668 -0.159845 0.239418
    outer loop
      vertex 5.69545 -1.82508 5
      vertex 4.72909 -1.6235 9
      vertex 5.6749 -1.9482 5
    endloop
  endfacet
  facet normal 0.957675 -0.159805 0.239419
    outer loop
      vertex 5 0 9
      vertex 4.72909 -1.6235 9
      vertex 6 0 5
    endloop
  endfacet
  facet normal 0.0801829 0.9676 0.239419
    outer loop
      vertex 1.19186 5.83969 5
      vertex 1.22743 4.847 9
      vertex 1.47291 5.8164 5
    endloop
  endfacet
  facet normal 0.0801787 0.9676 0.239419
    outer loop
      vertex -0.00577253 5.93893 5
      vertex 1.22743 4.847 9
      vertex 1.19186 5.83969 5
    endloop
  endfacet
  facet normal 0.0801816 0.9676 0.239418
    outer loop
      vertex 1.22743 4.847 9
      vertex -0.00577253 5.93893 5
      vertex -0.495476 5.97951 5
    endloop
  endfacet
  facet normal -0.531043 0.812818 0.239417
    outer loop
      vertex -2.41017 5.49464 5
      vertex -3.38641 3.67862 9
      vertex -2.00848 4.57887 9
    endloop
  endfacet
  facet normal -0.766206 0.596324 0.23943
    outer loop
      vertex -5.27684 2.85568 5
      vertex -3.45686 3.5881 9
      vertex -3.38641 3.67862 9
    endloop
  endfacet
  facet normal -0.766192 0.596345 0.23942
    outer loop
      vertex -3.45686 3.5881 9
      vertex -5.27684 2.85568 5
      vertex -3.76457 3.19275 9
    endloop
  endfacet
  facet normal -0.766186 0.596355 0.239417
    outer loop
      vertex -3.76457 3.19275 9
      vertex -5.27684 2.85568 5
      vertex -4.39737 2.37974 9
    endloop
  endfacet
  facet normal -0.918309 0.315258 0.239417
    outer loop
      vertex -5.43445 2.39658 5
      vertex -4.39737 2.37974 9
      vertex -5.27684 2.85568 5
    endloop
  endfacet
  facet normal -0.918309 0.31526 0.239417
    outer loop
      vertex -5.81466 1.28908 5
      vertex -4.39737 2.37974 9
      vertex -5.43445 2.39658 5
    endloop
  endfacet
  facet normal -0.918309 0.315257 0.239418
    outer loop
      vertex -4.39737 2.37974 9
      vertex -5.81466 1.28908 5
      vertex -5.91817 0.987567 5
    endloop
  endfacet
  facet normal -0.238359 0.941205 0.239413
    outer loop
      vertex -0.655714 5.93893 5
      vertex -2.00848 4.57887 9
      vertex -0.495476 5.97951 5
    endloop
  endfacet
  facet normal -0.238347 0.941207 0.239417
    outer loop
      vertex -2.09631 5.57412 5
      vertex -2.00848 4.57887 9
      vertex -0.655714 5.93893 5
    endloop
  endfacet
  facet normal -0.238346 0.941207 0.239418
    outer loop
      vertex -2.00848 4.57887 9
      vertex -2.09631 5.57412 5
      vertex -2.41017 5.49464 5
    endloop
  endfacet
  facet normal -0.970917 0 0.239418
    outer loop
      vertex -5.91817 0.569158 5
      vertex -4.93181 0.822972 9
      vertex -5.91817 0.987567 5
    endloop
  endfacet
  facet normal -0.970917 0 0.239418
    outer loop
      vertex -5.91817 0.569158 5
      vertex -4.93181 0.342836 9
      vertex -4.93181 0.822972 9
    endloop
  endfacet
  facet normal -0.970917 0 0.239418
    outer loop
      vertex -5.91817 0.569158 5
      vertex -4.93181 -0.342836 9
      vertex -4.93181 0.342836 9
    endloop
  endfacet
  facet normal -0.970917 0 0.239418
    outer loop
      vertex -5.91817 -0.569158 5
      vertex -4.93181 -0.342836 9
      vertex -5.91817 0.569158 5
    endloop
  endfacet
  facet normal -0.970917 0 0.239418
    outer loop
      vertex -5.91817 -0.569158 5
      vertex -4.93181 -0.822972 9
      vertex -4.93181 -0.342836 9
    endloop
  endfacet
  facet normal -0.970917 0 0.239418
    outer loop
      vertex -4.93181 -0.822972 9
      vertex -5.91817 -0.569158 5
      vertex -5.91817 -0.987567 5
    endloop
  endfacet
  facet normal -0.766186 -0.596355 0.239417
    outer loop
      vertex -5.27684 -2.85568 5
      vertex -3.76457 -3.19275 9
      vertex -4.39737 -2.37974 9
    endloop
  endfacet
  facet normal -0.766192 -0.596345 0.23942
    outer loop
      vertex -5.27684 -2.85568 5
      vertex -3.45686 -3.5881 9
      vertex -3.76457 -3.19275 9
    endloop
  endfacet
  facet normal -0.766206 -0.596324 0.23943
    outer loop
      vertex -3.45686 -3.5881 9
      vertex -5.27684 -2.85568 5
      vertex -3.38641 -3.67862 9
    endloop
  endfacet
  facet normal 0.0801816 -0.9676 0.239418
    outer loop
      vertex -0.00577253 -5.93893 5
      vertex 1.22743 -4.847 9
      vertex -0.495476 -5.97951 5
    endloop
  endfacet
  facet normal 0.0801787 -0.9676 0.239419
    outer loop
      vertex 1.19186 -5.83969 5
      vertex 1.22743 -4.847 9
      vertex -0.00577253 -5.93893 5
    endloop
  endfacet
  facet normal 0.0801829 -0.9676 0.239419
    outer loop
      vertex 1.22743 -4.847 9
      vertex 1.19186 -5.83969 5
      vertex 1.47291 -5.8164 5
    endloop
  endfacet
  facet normal -0.238195 -0.941228 0.239483
    outer loop
      vertex -0.495476 -5.97951 5
      vertex -1.95308 -4.59289 9
      vertex -2.00848 -4.57887 9
    endloop
  endfacet
  facet normal -0.23837 -0.941203 0.23941
    outer loop
      vertex -1.95308 -4.59289 9
      vertex -0.495476 -5.97951 5
      vertex -1.61043 -4.67967 9
    endloop
  endfacet
  facet normal -0.238341 -0.941208 0.23942
    outer loop
      vertex -1.61043 -4.67967 9
      vertex -0.495476 -5.97951 5
      vertex -0.412896 -4.98292 9
    endloop
  endfacet
  facet normal 0.390004 -0.889143 0.239418
    outer loop
      vertex 1.47291 -5.8164 5
      vertex 1.60766 -4.68022 9
      vertex 1.22743 -4.847 9
    endloop
  endfacet
  facet normal 0.390025 -0.889135 0.239415
    outer loop
      vertex 1.60766 -4.68022 9
      vertex 1.47291 -5.8164 5
      vertex 2.23275 -4.40602 9
    endloop
  endfacet
  facet normal 0.390008 -0.889141 0.239421
    outer loop
      vertex 2.23275 -4.40602 9
      vertex 1.47291 -5.8164 5
      vertex 2.73474 -4.18583 9
    endloop
  endfacet
  facet normal -0.531043 -0.812818 0.239417
    outer loop
      vertex -2.00848 -4.57887 9
      vertex -3.38641 -3.67862 9
      vertex -2.41017 -5.49464 5
    endloop
  endfacet
  facet normal 0.65758 -0.71433 0.23942
    outer loop
      vertex 3.28169 -5.023 5
      vertex 3.19128 -3.76556 9
      vertex 2.73474 -4.18583 9
    endloop
  endfacet
  facet normal 0.657588 -0.714323 0.239418
    outer loop
      vertex 3.54219 -4.78319 5
      vertex 3.19128 -3.76556 9
      vertex 3.28169 -5.023 5
    endloop
  endfacet
  facet normal 0.657589 -0.714322 0.239417
    outer loop
      vertex 3.19128 -3.76556 9
      vertex 3.54219 -4.78319 5
      vertex 3.68636 -3.3098 9
    endloop
  endfacet
  facet normal 0.657585 -0.714325 0.239419
    outer loop
      vertex 3.68636 -3.3098 9
      vertex 3.54219 -4.78319 5
      vertex 3.9457 -3.07106 9
    endloop
  endfacet
  facet normal 0.657586 -0.714325 0.239419
    outer loop
      vertex 4.38973 -4.00297 5
      vertex 3.9457 -3.07106 9
      vertex 3.54219 -4.78319 5
    endloop
  endfacet
  facet normal 0.657577 -0.714333 0.239419
    outer loop
      vertex 3.9457 -3.07106 9
      vertex 4.38973 -4.00297 5
      vertex 4.73484 -3.68528 5
    endloop
  endfacet
  facet normal 0.853894 -0.462108 0.23942
    outer loop
      vertex 4.73484 -3.68528 5
      vertex 4.64683 -1.77549 9
      vertex 4.37103 -2.28512 9
    endloop
  endfacet
  facet normal 0.853895 -0.462106 0.239419
    outer loop
      vertex 4.73484 -3.68528 5
      vertex 4.37103 -2.28512 9
      vertex 3.9457 -3.07106 9
    endloop
  endfacet
  facet normal 0.853876 -0.462134 0.239432
    outer loop
      vertex 4.64683 -1.77549 9
      vertex 4.73484 -3.68528 5
      vertex 4.72909 -1.6235 9
    endloop
  endfacet
  facet normal 0.853895 0.462106 0.239419
    outer loop
      vertex 4.37103 2.28512 9
      vertex 4.73484 3.68528 5
      vertex 3.9457 3.07106 9
    endloop
  endfacet
  facet normal 0.853894 0.462108 0.23942
    outer loop
      vertex 4.64683 1.77549 9
      vertex 4.73484 3.68528 5
      vertex 4.37103 2.28512 9
    endloop
  endfacet
  facet normal 0.853876 0.462134 0.239432
    outer loop
      vertex 4.73484 3.68528 5
      vertex 4.64683 1.77549 9
      vertex 4.72909 1.6235 9
    endloop
  endfacet
  facet normal -0.238341 0.941208 0.23942
    outer loop
      vertex -0.495476 5.97951 5
      vertex -1.61043 4.67967 9
      vertex -0.412896 4.98292 9
    endloop
  endfacet
  facet normal -0.23837 0.941203 0.23941
    outer loop
      vertex -1.61043 4.67967 9
      vertex -0.495476 5.97951 5
      vertex -1.95308 4.59289 9
    endloop
  endfacet
  facet normal -0.238195 0.941228 0.239483
    outer loop
      vertex -1.95308 4.59289 9
      vertex -0.495476 5.97951 5
      vertex -2.00848 4.57887 9
    endloop
  endfacet
  facet normal -0.531041 0.812819 0.239418
    outer loop
      vertex -2.44542 5.47161 5
      vertex -3.38641 3.67862 9
      vertex -2.41017 5.49464 5
    endloop
  endfacet
  facet normal -0.531042 0.812818 0.239417
    outer loop
      vertex -3.9936 4.46013 5
      vertex -3.38641 3.67862 9
      vertex -2.44542 5.47161 5
    endloop
  endfacet
  facet normal -0.531024 0.81283 0.239417
    outer loop
      vertex -3.38641 3.67862 9
      vertex -3.9936 4.46013 5
      vertex -4.06369 4.41434 5
    endloop
  endfacet
  facet normal -0.918308 -0.315262 0.239418
    outer loop
      vertex -5.91817 -0.987567 5
      vertex -4.70473 -1.48442 9
      vertex -4.93181 -0.822972 9
    endloop
  endfacet
  facet normal -0.918309 -0.315257 0.239419
    outer loop
      vertex -5.91817 -0.987567 5
      vertex -4.492 -2.10408 9
      vertex -4.70473 -1.48442 9
    endloop
  endfacet
  facet normal -0.918313 -0.315243 0.239424
    outer loop
      vertex -4.492 -2.10408 9
      vertex -5.91817 -0.987567 5
      vertex -4.39737 -2.37974 9
    endloop
  endfacet
  facet normal -0 -0 -1
    outer loop
      vertex 4.6194 1.91342 9
      vertex 4.64683 1.77549 9
      vertex 4.37103 2.28512 9
    endloop
  endfacet
  facet normal 0 -0 -1
    outer loop
      vertex -4.93181 0.342836 9
      vertex -4.93181 -0.342836 9
      vertex -5 0 9
    endloop
  endfacet
  facet normal -0 -0 -1
    outer loop
      vertex 1.91342 4.6194 9
      vertex 2.23275 4.40602 9
      vertex 1.60766 4.68022 9
    endloop
  endfacet
  facet normal 0 0 -1
    outer loop
      vertex 0.441978 -4.91209 9
      vertex 0 -5 9
      vertex -0.182031 -4.96379 9
    endloop
  endfacet
  facet normal 0 0 -1
    outer loop
      vertex -4.492 -2.10408 9
      vertex -4.6194 -1.91342 9
      vertex -4.70473 -1.48442 9
    endloop
  endfacet
  facet normal 0 0 -1
    outer loop
      vertex 2.23275 -4.40602 9
      vertex 1.91342 -4.6194 9
      vertex 1.60766 -4.68022 9
    endloop
  endfacet
  facet normal 0 0 -1
    outer loop
      vertex 4.64683 -1.77549 9
      vertex 4.6194 -1.91342 9
      vertex 4.37103 -2.28512 9
    endloop
  endfacet
  facet normal 0 0 -1
    outer loop
      vertex 3.68636 -3.3098 9
      vertex 3.53553 -3.53553 9
      vertex 3.19128 -3.76556 9
    endloop
  endfacet
  facet normal -0 -0 -1
    outer loop
      vertex 3.53553 3.53553 9
      vertex 3.68636 3.3098 9
      vertex 3.19128 3.76556 9
    endloop
  endfacet
  facet normal 0 -0 -1
    outer loop
      vertex -1.91342 4.6194 9
      vertex -1.61043 4.67967 9
      vertex -1.95308 4.59289 9
    endloop
  endfacet
  facet normal 0 0 1
    outer loop
      vertex 5 0 9
      vertex 4.64683 -1.77549 9
      vertex 4.72909 -1.6235 9
    endloop
  endfacet
  facet normal 0 0 1
    outer loop
      vertex 4.72909 1.6235 9
      vertex 4.64683 1.77549 9
      vertex 5 0 9
    endloop
  endfacet
  facet normal 0 -0 -1
    outer loop
      vertex 0 5 9
      vertex 0.441978 4.91209 9
      vertex -0.182031 4.96379 9
    endloop
  endfacet
  facet normal 0 -0 -1
    outer loop
      vertex -4.6194 1.91342 9
      vertex -4.492 2.10408 9
      vertex -4.70473 1.48442 9
    endloop
  endfacet
  facet normal 0 0 -1
    outer loop
      vertex -1.61043 -4.67967 9
      vertex -1.91342 -4.6194 9
      vertex -1.95308 -4.59289 9
    endloop
  endfacet
  facet normal 0 0 -1
    outer loop
      vertex -3.45686 -3.5881 9
      vertex -3.53553 -3.53553 9
      vertex -3.76457 -3.19275 9
    endloop
  endfacet
  facet normal 0 -0 -1
    outer loop
      vertex -3.53553 3.53553 9
      vertex -3.45686 3.5881 9
      vertex -3.76457 3.19275 9
    endloop
  endfacet
  facet normal 0 0 1
    outer loop
      vertex 4.37103 -2.28512 9
      vertex 3.68636 -3.3098 9
      vertex 3.9457 -3.07106 9
    endloop
  endfacet
  facet normal 0 0 1
    outer loop
      vertex 1.60766 -4.68022 9
      vertex 0.441978 -4.91209 9
      vertex 1.22743 -4.847 9
    endloop
  endfacet
  facet normal 0 0 1
    outer loop
      vertex -4.93181 -0.342836 9
      vertex -4.93181 -0.822972 9
      vertex -4.70473 -1.48442 9
    endloop
  endfacet
  facet normal -0 0 1
    outer loop
      vertex -4.93181 0.822972 9
      vertex -4.93181 0.342836 9
      vertex -4.70473 1.48442 9
    endloop
  endfacet
  facet normal 0 0 1
    outer loop
      vertex -0.412896 4.98292 9
      vertex -1.61043 4.67967 9
      vertex -0.182031 4.96379 9
    endloop
  endfacet
  facet normal 0 0 1
    outer loop
      vertex 1.22743 4.847 9
      vertex 0.441978 4.91209 9
      vertex 1.60766 4.68022 9
    endloop
  endfacet
  facet normal 0 0 1
    outer loop
      vertex -1.95308 -4.59289 9
      vertex -3.38641 -3.67862 9
      vertex -2.00848 -4.57887 9
    endloop
  endfacet
  facet normal -0 -0 1
    outer loop
      vertex -3.38641 -3.67862 9
      vertex -1.95308 -4.59289 9
      vertex -3.45686 -3.5881 9
    endloop
  endfacet
  facet normal 0 0 1
    outer loop
      vertex -0.182031 -4.96379 9
      vertex -1.61043 -4.67967 9
      vertex -0.412896 -4.98292 9
    endloop
  endfacet
  facet normal 0 0 1
    outer loop
      vertex 3.19128 -3.76556 9
      vertex 2.23275 -4.40602 9
      vertex 2.73474 -4.18583 9
    endloop
  endfacet
  facet normal 0 0 1
    outer loop
      vertex 2.73474 4.18583 9
      vertex 2.23275 4.40602 9
      vertex 3.19128 3.76556 9
    endloop
  endfacet
  facet normal 0 0 1
    outer loop
      vertex 3.9457 3.07106 9
      vertex 3.68636 3.3098 9
      vertex 4.37103 2.28512 9
    endloop
  endfacet
  facet normal 0 0 1
    outer loop
      vertex -3.38641 3.67862 9
      vertex -1.95308 4.59289 9
      vertex -2.00848 4.57887 9
    endloop
  endfacet
  facet normal 0 0 1
    outer loop
      vertex -1.95308 4.59289 9
      vertex -3.38641 3.67862 9
      vertex -3.45686 3.5881 9
    endloop
  endfacet
  facet normal -0 0 1
    outer loop
      vertex -4.39737 2.37974 9
      vertex -4.492 2.10408 9
      vertex -3.76457 3.19275 9
    endloop
  endfacet
  facet normal 0 0 1
    outer loop
      vertex -3.76457 -3.19275 9
      vertex -4.492 -2.10408 9
      vertex -4.39737 -2.37974 9
    endloop
  endfacet
  facet normal 0.979333 0.194799 0.0544078
    outer loop
      vertex 5 0 9
      vertex 4.10613 1.70082 19
      vertex 4.44444 0 19
    endloop
  endfacet
  facet normal 0.979341 0.19476 0.0544072
    outer loop
      vertex 4.10613 1.70082 19
      vertex 4.64683 1.77549 9
      vertex 4.6194 1.91342 9
    endloop
  endfacet
  facet normal 0.979332 0.194803 0.0544071
    outer loop
      vertex 4.64683 1.77549 9
      vertex 4.10613 1.70082 19
      vertex 5 0 9
    endloop
  endfacet
  facet normal -0.979333 0.194799 0.0544078
    outer loop
      vertex -4.10613 1.70082 19
      vertex -5 0 9
      vertex -4.44444 0 19
    endloop
  endfacet
  facet normal 0.830235 -0.554751 0.0544079
    outer loop
      vertex 3.53553 -3.53553 9
      vertex 4.03036 -1.81421 19
      vertex 3.69453 -2.31681 19
    endloop
  endfacet
  facet normal 0.830244 -0.554739 0.0544063
    outer loop
      vertex 3.53553 -3.53553 9
      vertex 3.69453 -2.31681 19
      vertex 3.1427 -3.1427 19
    endloop
  endfacet
  facet normal 0.83022 -0.554774 0.0544125
    outer loop
      vertex 4.03036 -1.81421 19
      vertex 3.53553 -3.53553 9
      vertex 4.10613 -1.70082 19
    endloop
  endfacet
  facet normal 0.830244 0.554739 0.0544063
    outer loop
      vertex 3.69453 2.31681 19
      vertex 3.53553 3.53553 9
      vertex 3.1427 3.1427 19
    endloop
  endfacet
  facet normal 0.830235 0.554751 0.0544079
    outer loop
      vertex 4.03036 1.81421 19
      vertex 3.53553 3.53553 9
      vertex 3.69453 2.31681 19
    endloop
  endfacet
  facet normal 0.83022 0.554774 0.0544125
    outer loop
      vertex 3.53553 3.53553 9
      vertex 4.03036 1.81421 19
      vertex 4.10613 1.70082 19
    endloop
  endfacet
  facet normal 0.830235 0.554752 0.0544078
    outer loop
      vertex 4.10613 1.70082 19
      vertex 3.68636 3.3098 9
      vertex 3.53553 3.53553 9
    endloop
  endfacet
  facet normal 0.830238 0.554748 0.0544069
    outer loop
      vertex 3.68636 3.3098 9
      vertex 4.10613 1.70082 19
      vertex 4.37103 2.28512 9
    endloop
  endfacet
  facet normal 0.83023 0.55476 0.0544074
    outer loop
      vertex 4.37103 2.28512 9
      vertex 4.10613 1.70082 19
      vertex 4.6194 1.91342 9
    endloop
  endfacet
  facet normal -0.554745 0.83024 0.0544061
    outer loop
      vertex -3.53553 3.53553 9
      vertex -2.32202 3.69106 19
      vertex -1.70082 4.10613 19
    endloop
  endfacet
  facet normal -0.554755 0.830233 0.0544075
    outer loop
      vertex -2.32202 3.69106 19
      vertex -3.53553 3.53553 9
      vertex -2.91411 3.29543 19
    endloop
  endfacet
  facet normal -0.554725 0.830253 0.0544061
    outer loop
      vertex -2.91411 3.29543 19
      vertex -3.53553 3.53553 9
      vertex -3.1427 3.1427 19
    endloop
  endfacet
  facet normal -0.194792 -0.979334 0.0544091
    outer loop
      vertex 0 -5 9
      vertex -1.29072 -4.1877 19
      vertex -1.70082 -4.10613 19
    endloop
  endfacet
  facet normal -0.194803 -0.979332 0.0544076
    outer loop
      vertex -1.29072 -4.1877 19
      vertex 0 -5 9
      vertex -0.560202 -4.33301 19
    endloop
  endfacet
  facet normal -0.194799 -0.979333 0.0544078
    outer loop
      vertex -0.560202 -4.33301 19
      vertex 0 -5 9
      vertex 0 -4.44444 19
    endloop
  endfacet
  facet normal 0.83023 -0.55476 0.0544074
    outer loop
      vertex 4.10613 -1.70082 19
      vertex 4.37103 -2.28512 9
      vertex 4.6194 -1.91342 9
    endloop
  endfacet
  facet normal 0.830238 -0.554748 0.0544069
    outer loop
      vertex 4.10613 -1.70082 19
      vertex 3.68636 -3.3098 9
      vertex 4.37103 -2.28512 9
    endloop
  endfacet
  facet normal 0.830235 -0.554752 0.0544078
    outer loop
      vertex 3.68636 -3.3098 9
      vertex 4.10613 -1.70082 19
      vertex 3.53553 -3.53553 9
    endloop
  endfacet
  facet normal 0.194803 0.979332 0.0544077
    outer loop
      vertex 1.60766 4.68022 9
      vertex 1.70082 4.10613 19
      vertex 1.91342 4.6194 9
    endloop
  endfacet
  facet normal 0.194803 0.979332 0.0544077
    outer loop
      vertex 0.441978 4.91209 9
      vertex 1.70082 4.10613 19
      vertex 1.60766 4.68022 9
    endloop
  endfacet
  facet normal 0.194791 0.979335 0.0544093
    outer loop
      vertex 1.70082 4.10613 19
      vertex 0.441978 4.91209 9
      vertex 0 5 9
    endloop
  endfacet
  facet normal 0.554763 0.830227 0.0544102
    outer loop
      vertex 3.19128 3.76556 9
      vertex 1.70082 4.10613 19
      vertex 3.53553 3.53553 9
    endloop
  endfacet
  facet normal 0.554742 0.830242 0.0544065
    outer loop
      vertex 2.23275 4.40602 9
      vertex 1.70082 4.10613 19
      vertex 3.19128 3.76556 9
    endloop
  endfacet
  facet normal 0.554766 0.830225 0.0544073
    outer loop
      vertex 1.70082 4.10613 19
      vertex 2.23275 4.40602 9
      vertex 1.91342 4.6194 9
    endloop
  endfacet
  facet normal -0.979332 -0.194805 0.0544072
    outer loop
      vertex -4.10613 -1.70082 19
      vertex -4.93181 -0.342836 9
      vertex -4.70473 -1.48442 9
    endloop
  endfacet
  facet normal -0.979335 -0.194789 0.0544096
    outer loop
      vertex -4.93181 -0.342836 9
      vertex -4.10613 -1.70082 19
      vertex -5 0 9
    endloop
  endfacet
  facet normal -0.979334 -0.194794 0.0544076
    outer loop
      vertex -4.10613 -1.70082 19
      vertex -4.70473 -1.48442 9
      vertex -4.6194 -1.91342 9
    endloop
  endfacet
  facet normal -0.83022 -0.554774 0.0544125
    outer loop
      vertex -3.53553 -3.53553 9
      vertex -4.03036 -1.81421 19
      vertex -4.10613 -1.70082 19
    endloop
  endfacet
  facet normal -0.830235 -0.554751 0.0544079
    outer loop
      vertex -4.03036 -1.81421 19
      vertex -3.53553 -3.53553 9
      vertex -3.69453 -2.31681 19
    endloop
  endfacet
  facet normal -0.830244 -0.554739 0.0544063
    outer loop
      vertex -3.69453 -2.31681 19
      vertex -3.53553 -3.53553 9
      vertex -3.1427 -3.1427 19
    endloop
  endfacet
  facet normal -0.830228 -0.554763 0.0544074
    outer loop
      vertex -4.492 -2.10408 9
      vertex -4.10613 -1.70082 19
      vertex -4.6194 -1.91342 9
    endloop
  endfacet
  facet normal -0.830237 -0.554749 0.0544072
    outer loop
      vertex -3.76457 -3.19275 9
      vertex -4.10613 -1.70082 19
      vertex -4.492 -2.10408 9
    endloop
  endfacet
  facet normal -0.830236 -0.55475 0.0544073
    outer loop
      vertex -4.10613 -1.70082 19
      vertex -3.76457 -3.19275 9
      vertex -3.53553 -3.53553 9
    endloop
  endfacet
  facet normal 0.194791 -0.979335 0.0544093
    outer loop
      vertex 0.441978 -4.91209 9
      vertex 1.70082 -4.10613 19
      vertex 0 -5 9
    endloop
  endfacet
  facet normal 0.194803 -0.979332 0.0544077
    outer loop
      vertex 1.60766 -4.68022 9
      vertex 1.70082 -4.10613 19
      vertex 0.441978 -4.91209 9
    endloop
  endfacet
  facet normal 0.194803 -0.979332 0.0544077
    outer loop
      vertex 1.70082 -4.10613 19
      vertex 1.60766 -4.68022 9
      vertex 1.91342 -4.6194 9
    endloop
  endfacet
  facet normal 0.554766 -0.830225 0.0544073
    outer loop
      vertex 2.23275 -4.40602 9
      vertex 1.70082 -4.10613 19
      vertex 1.91342 -4.6194 9
    endloop
  endfacet
  facet normal 0.554742 -0.830242 0.0544065
    outer loop
      vertex 3.19128 -3.76556 9
      vertex 1.70082 -4.10613 19
      vertex 2.23275 -4.40602 9
    endloop
  endfacet
  facet normal 0.554763 -0.830227 0.0544102
    outer loop
      vertex 1.70082 -4.10613 19
      vertex 3.19128 -3.76556 9
      vertex 3.53553 -3.53553 9
    endloop
  endfacet
  facet normal 0.979332 -0.194803 0.0544071
    outer loop
      vertex 4.10613 -1.70082 19
      vertex 4.64683 -1.77549 9
      vertex 5 0 9
    endloop
  endfacet
  facet normal 0.979341 -0.19476 0.0544072
    outer loop
      vertex 4.64683 -1.77549 9
      vertex 4.10613 -1.70082 19
      vertex 4.6194 -1.91342 9
    endloop
  endfacet
  facet normal 0.979333 -0.194799 0.0544078
    outer loop
      vertex 4.44444 0 19
      vertex 4.10613 -1.70082 19
      vertex 5 0 9
    endloop
  endfacet
  facet normal -0.194799 0.979333 0.0544078
    outer loop
      vertex 0 5 9
      vertex -0.560202 4.33301 19
      vertex 0 4.44444 19
    endloop
  endfacet
  facet normal -0.194803 0.979332 0.0544076
    outer loop
      vertex -0.560202 4.33301 19
      vertex 0 5 9
      vertex -1.29072 4.1877 19
    endloop
  endfacet
  facet normal -0.194792 0.979334 0.0544091
    outer loop
      vertex -1.29072 4.1877 19
      vertex 0 5 9
      vertex -1.70082 4.10613 19
    endloop
  endfacet
  facet normal -0 -0 -1
    outer loop
      vertex 4.00431 1.92837 19
      vertex 4.03036 1.81421 19
      vertex 3.69453 2.31681 19
    endloop
  endfacet
  facet normal 0 0 -1
    outer loop
      vertex -0.560202 -4.33301 19
      vertex -0.988981 -4.33301 19
      vertex -1.29072 -4.1877 19
    endloop
  endfacet
  facet normal 0 0 -1
    outer loop
      vertex 2.91411 -3.29543 19
      vertex 2.77107 -3.47481 19
      vertex 2.32202 -3.69106 19
    endloop
  endfacet
  facet normal 0 -0 -1
    outer loop
      vertex -0.988981 4.33301 19
      vertex -0.560202 4.33301 19
      vertex -1.29072 4.1877 19
    endloop
  endfacet
  facet normal 0 -0 -1
    outer loop
      vertex -4.00431 1.92837 19
      vertex -3.69453 2.31681 19
      vertex -4.03036 1.81421 19
    endloop
  endfacet
  facet normal 0 -0 -1
    outer loop
      vertex -2.77107 3.47481 19
      vertex -2.32202 3.69106 19
      vertex -2.91411 3.29543 19
    endloop
  endfacet
  facet normal 0 0 -1
    outer loop
      vertex -2.32202 -3.69106 19
      vertex -2.77107 -3.47481 19
      vertex -2.91411 -3.29543 19
    endloop
  endfacet
  facet normal 0 0 -1
    outer loop
      vertex 1.29072 -4.1877 19
      vertex 0.988981 -4.33301 19
      vertex 0.560202 -4.33301 19
    endloop
  endfacet
  facet normal 0 0 -1
    outer loop
      vertex 4.03036 -1.81421 19
      vertex 4.00431 -1.92837 19
      vertex 3.69453 -2.31681 19
    endloop
  endfacet
  facet normal 0 0 1
    outer loop
      vertex 4.44444 0 19
      vertex 4.03036 -1.81421 19
      vertex 4.10613 -1.70082 19
    endloop
  endfacet
  facet normal 0 0 1
    outer loop
      vertex 4.10613 1.70082 19
      vertex 4.03036 1.81421 19
      vertex 4.44444 0 19
    endloop
  endfacet
  facet normal -0 -0 -1
    outer loop
      vertex 2.77107 3.47481 19
      vertex 2.91411 3.29543 19
      vertex 2.32202 3.69106 19
    endloop
  endfacet
  facet normal -0 -0 -1
    outer loop
      vertex 0.988981 4.33301 19
      vertex 1.29072 4.1877 19
      vertex 0.560202 4.33301 19
    endloop
  endfacet
  facet normal 0 0 1
    outer loop
      vertex -4.03036 -1.81421 19
      vertex -4.44444 0 19
      vertex -4.10613 -1.70082 19
    endloop
  endfacet
  facet normal -0 0 1
    outer loop
      vertex -4.10613 1.70082 19
      vertex -4.44444 0 19
      vertex -4.03036 1.81421 19
    endloop
  endfacet
  facet normal 0 0 -1
    outer loop
      vertex -3.69453 -2.31681 19
      vertex -4.00431 -1.92837 19
      vertex -4.03036 -1.81421 19
    endloop
  endfacet
  facet normal 0 0 1
    outer loop
      vertex 3.69453 -2.31681 19
      vertex 2.91411 -3.29543 19
      vertex 3.1427 -3.1427 19
    endloop
  endfacet
  facet normal 0 0 1
    outer loop
      vertex 3.1427 3.1427 19
      vertex 2.91411 3.29543 19
      vertex 3.69453 2.31681 19
    endloop
  endfacet
  facet normal -0 0 1
    outer loop
      vertex -3.1427 3.1427 19
      vertex -3.69453 2.31681 19
      vertex -2.91411 3.29543 19
    endloop
  endfacet
  facet normal -0 0 1
    outer loop
      vertex -1.70082 4.10613 19
      vertex -2.32202 3.69106 19
      vertex -1.29072 4.1877 19
    endloop
  endfacet
  facet normal 0 0 1
    outer loop
      vertex -1.29072 -4.1877 19
      vertex -2.32202 -3.69106 19
      vertex -1.70082 -4.10613 19
    endloop
  endfacet
  facet normal 0 0 1
    outer loop
      vertex 1.70082 4.10613 19
      vertex 1.29072 4.1877 19
      vertex 2.32202 3.69106 19
    endloop
  endfacet
  facet normal 0 0 1
    outer loop
      vertex -2.91411 -3.29543 19
      vertex -3.69453 -2.31681 19
      vertex -3.1427 -3.1427 19
    endloop
  endfacet
  facet normal 0 0 1
    outer loop
      vertex 0.560202 -4.33301 19
      vertex -0.560202 -4.33301 19
      vertex 0 -4.44444 19
    endloop
  endfacet
  facet normal 0 0 1
    outer loop
      vertex 2.32202 -3.69106 19
      vertex 1.29072 -4.1877 19
      vertex 1.70082 -4.10613 19
    endloop
  endfacet
  facet normal 0 0 1
    outer loop
      vertex 0 4.44444 19
      vertex -0.560202 4.33301 19
      vertex 0.560202 4.33301 19
    endloop
  endfacet
  facet normal -0.554893 0.830141 0.0544057
    outer loop
      vertex -1.95308 4.59289 9
      vertex -1.70082 4.10613 19
      vertex -1.91342 4.6194 9
    endloop
  endfacet
  facet normal -0.554746 0.830239 0.0544067
    outer loop
      vertex -3.45686 3.5881 9
      vertex -1.70082 4.10613 19
      vertex -1.95308 4.59289 9
    endloop
  endfacet
  facet normal -0.554779 0.830216 0.0544137
    outer loop
      vertex -1.70082 4.10613 19
      vertex -3.45686 3.5881 9
      vertex -3.53553 3.53553 9
    endloop
  endfacet
  facet normal -0.194811 0.979331 0.0544057
    outer loop
      vertex -0.182031 4.96379 9
      vertex -1.70082 4.10613 19
      vertex 0 5 9
    endloop
  endfacet
  facet normal -0.194797 0.979333 0.0544079
    outer loop
      vertex -1.61043 4.67967 9
      vertex -1.70082 4.10613 19
      vertex -0.182031 4.96379 9
    endloop
  endfacet
  facet normal -0.194806 0.979332 0.0544077
    outer loop
      vertex -1.70082 4.10613 19
      vertex -1.61043 4.67967 9
      vertex -1.91342 4.6194 9
    endloop
  endfacet
  facet normal -0.554725 -0.830253 0.0544061
    outer loop
      vertex -3.53553 -3.53553 9
      vertex -2.91411 -3.29543 19
      vertex -3.1427 -3.1427 19
    endloop
  endfacet
  facet normal -0.554755 -0.830233 0.0544075
    outer loop
      vertex -2.91411 -3.29543 19
      vertex -3.53553 -3.53553 9
      vertex -2.32202 -3.69106 19
    endloop
  endfacet
  facet normal -0.554745 -0.83024 0.0544061
    outer loop
      vertex -2.32202 -3.69106 19
      vertex -3.53553 -3.53553 9
      vertex -1.70082 -4.10613 19
    endloop
  endfacet
  facet normal -0.979333 -0.194799 0.0544078
    outer loop
      vertex -4.44444 0 19
      vertex -5 0 9
      vertex -4.10613 -1.70082 19
    endloop
  endfacet
  facet normal 0.194799 -0.979333 0.0544078
    outer loop
      vertex 0 -5 9
      vertex 0.560202 -4.33301 19
      vertex 0 -4.44444 19
    endloop
  endfacet
  facet normal 0.194803 -0.979332 0.0544076
    outer loop
      vertex 0.560202 -4.33301 19
      vertex 0 -5 9
      vertex 1.29072 -4.1877 19
    endloop
  endfacet
  facet normal 0.194792 -0.979334 0.0544091
    outer loop
      vertex 1.29072 -4.1877 19
      vertex 0 -5 9
      vertex 1.70082 -4.10613 19
    endloop
  endfacet
  facet normal 0.554725 0.830253 0.0544061
    outer loop
      vertex 3.53553 3.53553 9
      vertex 2.91411 3.29543 19
      vertex 3.1427 3.1427 19
    endloop
  endfacet
  facet normal 0.554755 0.830233 0.0544075
    outer loop
      vertex 2.91411 3.29543 19
      vertex 3.53553 3.53553 9
      vertex 2.32202 3.69106 19
    endloop
  endfacet
  facet normal 0.554745 0.83024 0.0544061
    outer loop
      vertex 2.32202 3.69106 19
      vertex 3.53553 3.53553 9
      vertex 1.70082 4.10613 19
    endloop
  endfacet
  facet normal 0.194792 0.979334 0.0544091
    outer loop
      vertex 0 5 9
      vertex 1.29072 4.1877 19
      vertex 1.70082 4.10613 19
    endloop
  endfacet
  facet normal 0.194803 0.979332 0.0544076
    outer loop
      vertex 1.29072 4.1877 19
      vertex 0 5 9
      vertex 0.560202 4.33301 19
    endloop
  endfacet
  facet normal 0.194799 0.979333 0.0544078
    outer loop
      vertex 0.560202 4.33301 19
      vertex 0 5 9
      vertex 0 4.44444 19
    endloop
  endfacet
  facet normal -0.830237 0.554749 0.0544072
    outer loop
      vertex -4.10613 1.70082 19
      vertex -3.76457 3.19275 9
      vertex -4.492 2.10408 9
    endloop
  endfacet
  facet normal -0.830228 0.554763 0.0544074
    outer loop
      vertex -4.10613 1.70082 19
      vertex -4.492 2.10408 9
      vertex -4.6194 1.91342 9
    endloop
  endfacet
  facet normal -0.830236 0.55475 0.0544073
    outer loop
      vertex -3.76457 3.19275 9
      vertex -4.10613 1.70082 19
      vertex -3.53553 3.53553 9
    endloop
  endfacet
  facet normal -0.979334 0.194794 0.0544076
    outer loop
      vertex -4.70473 1.48442 9
      vertex -4.10613 1.70082 19
      vertex -4.6194 1.91342 9
    endloop
  endfacet
  facet normal -0.979332 0.194805 0.0544072
    outer loop
      vertex -4.93181 0.342836 9
      vertex -4.10613 1.70082 19
      vertex -4.70473 1.48442 9
    endloop
  endfacet
  facet normal -0.979335 0.194789 0.0544096
    outer loop
      vertex -4.10613 1.70082 19
      vertex -4.93181 0.342836 9
      vertex -5 0 9
    endloop
  endfacet
  facet normal -0.554779 -0.830216 0.0544137
    outer loop
      vertex -3.45686 -3.5881 9
      vertex -1.70082 -4.10613 19
      vertex -3.53553 -3.53553 9
    endloop
  endfacet
  facet normal -0.554746 -0.830239 0.0544067
    outer loop
      vertex -1.95308 -4.59289 9
      vertex -1.70082 -4.10613 19
      vertex -3.45686 -3.5881 9
    endloop
  endfacet
  facet normal -0.554893 -0.830141 0.0544057
    outer loop
      vertex -1.70082 -4.10613 19
      vertex -1.95308 -4.59289 9
      vertex -1.91342 -4.6194 9
    endloop
  endfacet
  facet normal -0.194806 -0.979332 0.0544077
    outer loop
      vertex -1.61043 -4.67967 9
      vertex -1.70082 -4.10613 19
      vertex -1.91342 -4.6194 9
    endloop
  endfacet
  facet normal -0.194797 -0.979333 0.0544079
    outer loop
      vertex -0.182031 -4.96379 9
      vertex -1.70082 -4.10613 19
      vertex -1.61043 -4.67967 9
    endloop
  endfacet
  facet normal -0.194811 -0.979331 0.0544057
    outer loop
      vertex -1.70082 -4.10613 19
      vertex -0.182031 -4.96379 9
      vertex 0 -5 9
    endloop
  endfacet
  facet normal 0.554745 -0.83024 0.0544061
    outer loop
      vertex 3.53553 -3.53553 9
      vertex 2.32202 -3.69106 19
      vertex 1.70082 -4.10613 19
    endloop
  endfacet
  facet normal 0.554755 -0.830233 0.0544075
    outer loop
      vertex 2.32202 -3.69106 19
      vertex 3.53553 -3.53553 9
      vertex 2.91411 -3.29543 19
    endloop
  endfacet
  facet normal 0.554725 -0.830253 0.0544061
    outer loop
      vertex 2.91411 -3.29543 19
      vertex 3.53553 -3.53553 9
      vertex 3.1427 -3.1427 19
    endloop
  endfacet
  facet normal -0.830244 0.554739 0.0544063
    outer loop
      vertex -3.53553 3.53553 9
      vertex -3.69453 2.31681 19
      vertex -3.1427 3.1427 19
    endloop
  endfacet
  facet normal -0.830235 0.554751 0.0544079
    outer loop
      vertex -3.53553 3.53553 9
      vertex -4.03036 1.81421 19
      vertex -3.69453 2.31681 19
    endloop
  endfacet
  facet normal -0.83022 0.554774 0.0544125
    outer loop
      vertex -4.03036 1.81421 19
      vertex -3.53553 3.53553 9
      vertex -4.10613 1.70082 19
    endloop
  endfacet
  facet normal 0.973513 0.222145 0.0540716
    outer loop
      vertex 4 0 27
      vertex 4.03036 1.81421 19
      vertex 4.00431 1.92837 19
    endloop
  endfacet
  facet normal 0.973501 0.222194 0.0540829
    outer loop
      vertex 4.03036 1.81421 19
      vertex 4 0 27
      vertex 4.44444 0 19
    endloop
  endfacet
  facet normal 0 -0.998536 0.0540832
    outer loop
      vertex -0.560202 -4.33301 19
      vertex -0.890083 -3.89971 27
      vertex -0.988981 -4.33301 19
    endloop
  endfacet
  facet normal 0 -0.998536 0.0540832
    outer loop
      vertex -0.890083 -3.89971 27
      vertex -0.560202 -4.33301 19
      vertex 0.890083 -3.89971 27
    endloop
  endfacet
  facet normal 0 -0.998536 0.0540832
    outer loop
      vertex 0.560202 -4.33301 19
      vertex 0.890083 -3.89971 27
      vertex -0.560202 -4.33301 19
    endloop
  endfacet
  facet normal 0 -0.998536 0.0540832
    outer loop
      vertex 0.890083 -3.89971 27
      vertex 0.560202 -4.33301 19
      vertex 0.988981 -4.33301 19
    endloop
  endfacet
  facet normal 0.78071 0.622549 0.0540754
    outer loop
      vertex 3.60388 1.73553 27
      vertex 2.91411 3.29543 19
      vertex 2.77107 3.47481 19
    endloop
  endfacet
  facet normal 0.780689 0.622576 0.0540825
    outer loop
      vertex 2.91411 3.29543 19
      vertex 3.60388 1.73553 27
      vertex 3.69453 2.31681 19
    endloop
  endfacet
  facet normal 0.780678 0.622589 0.0540834
    outer loop
      vertex 3.69453 2.31681 19
      vertex 3.60388 1.73553 27
      vertex 4.00431 1.92837 19
    endloop
  endfacet
  facet normal -0.433247 -0.899651 0.0540838
    outer loop
      vertex -2.32202 -3.69106 19
      vertex -0.890083 -3.89971 27
      vertex -2.77107 -3.47481 19
    endloop
  endfacet
  facet normal -0.433243 -0.899653 0.054083
    outer loop
      vertex -1.29072 -4.1877 19
      vertex -0.890083 -3.89971 27
      vertex -2.32202 -3.69106 19
    endloop
  endfacet
  facet normal -0.433249 -0.89965 0.0540832
    outer loop
      vertex -0.890083 -3.89971 27
      vertex -1.29072 -4.1877 19
      vertex -0.988981 -4.33301 19
    endloop
  endfacet
  facet normal 0.780678 -0.622589 0.0540834
    outer loop
      vertex 3.60388 -1.73553 27
      vertex 3.69453 -2.31681 19
      vertex 4.00431 -1.92837 19
    endloop
  endfacet
  facet normal 0.780689 -0.622576 0.0540825
    outer loop
      vertex 3.60388 -1.73553 27
      vertex 2.91411 -3.29543 19
      vertex 3.69453 -2.31681 19
    endloop
  endfacet
  facet normal 0.78071 -0.622549 0.0540754
    outer loop
      vertex 2.91411 -3.29543 19
      vertex 3.60388 -1.73553 27
      vertex 2.77107 -3.47481 19
    endloop
  endfacet
  facet normal -0.433249 0.89965 0.0540832
    outer loop
      vertex -1.29072 4.1877 19
      vertex -0.890083 3.89971 27
      vertex -0.988981 4.33301 19
    endloop
  endfacet
  facet normal -0.433243 0.899653 0.054083
    outer loop
      vertex -2.32202 3.69106 19
      vertex -0.890083 3.89971 27
      vertex -1.29072 4.1877 19
    endloop
  endfacet
  facet normal -0.433247 0.899651 0.0540838
    outer loop
      vertex -0.890083 3.89971 27
      vertex -2.32202 3.69106 19
      vertex -2.77107 3.47481 19
    endloop
  endfacet
  facet normal 0.780688 0.622576 0.0540837
    outer loop
      vertex 2.77107 3.47481 19
      vertex 2.49396 3.12733 27
      vertex 3.60388 1.73553 27
    endloop
  endfacet
  facet normal 0.973501 0.222193 0.0540834
    outer loop
      vertex 4.00431 1.92837 19
      vertex 3.60388 1.73553 27
      vertex 4 0 27
    endloop
  endfacet
  facet normal -0.780689 0.622576 0.0540825
    outer loop
      vertex -3.60388 1.73553 27
      vertex -2.91411 3.29543 19
      vertex -3.69453 2.31681 19
    endloop
  endfacet
  facet normal -0.780678 0.622589 0.0540834
    outer loop
      vertex -3.60388 1.73553 27
      vertex -3.69453 2.31681 19
      vertex -4.00431 1.92837 19
    endloop
  endfacet
  facet normal -0.78071 0.622549 0.0540754
    outer loop
      vertex -2.91411 3.29543 19
      vertex -3.60388 1.73553 27
      vertex -2.77107 3.47481 19
    endloop
  endfacet
  facet normal 0 0 1
    outer loop
      vertex 3.60388 1.73553 27
      vertex 3.60388 -1.73553 27
      vertex 4 0 27
    endloop
  endfacet
  facet normal 0 0 1
    outer loop
      vertex 2.49396 3.12733 27
      vertex 3.60388 -1.73553 27
      vertex 3.60388 1.73553 27
    endloop
  endfacet
  facet normal 0 0 1
    outer loop
      vertex 2.49396 3.12733 27
      vertex 2.49396 -3.12733 27
      vertex 3.60388 -1.73553 27
    endloop
  endfacet
  facet normal 0 0 1
    outer loop
      vertex 0.890083 3.89971 27
      vertex 2.49396 -3.12733 27
      vertex 2.49396 3.12733 27
    endloop
  endfacet
  facet normal 0 0 1
    outer loop
      vertex 0.890083 3.89971 27
      vertex 0.890083 -3.89971 27
      vertex 2.49396 -3.12733 27
    endloop
  endfacet
  facet normal -0 0 1
    outer loop
      vertex -0.890083 3.89971 27
      vertex 0.890083 -3.89971 27
      vertex 0.890083 3.89971 27
    endloop
  endfacet
  facet normal 0 0 1
    outer loop
      vertex -0.890083 3.89971 27
      vertex -0.890083 -3.89971 27
      vertex 0.890083 -3.89971 27
    endloop
  endfacet
  facet normal -0 0 1
    outer loop
      vertex -2.49396 3.12733 27
      vertex -0.890083 -3.89971 27
      vertex -0.890083 3.89971 27
    endloop
  endfacet
  facet normal 0 0 1
    outer loop
      vertex -2.49396 3.12733 27
      vertex -2.49396 -3.12733 27
      vertex -0.890083 -3.89971 27
    endloop
  endfacet
  facet normal -0 0 1
    outer loop
      vertex -3.60388 1.73553 27
      vertex -2.49396 -3.12733 27
      vertex -2.49396 3.12733 27
    endloop
  endfacet
  facet normal 0 0 1
    outer loop
      vertex -3.60388 1.73553 27
      vertex -3.60388 -1.73553 27
      vertex -2.49396 -3.12733 27
    endloop
  endfacet
  facet normal 0 -0 1
    outer loop
      vertex -3.60388 -1.73553 27
      vertex -3.60388 1.73553 27
      vertex -4 0 27
    endloop
  endfacet
  facet normal -0.780688 -0.622576 0.0540837
    outer loop
      vertex -2.49396 -3.12733 27
      vertex -3.60388 -1.73553 27
      vertex -2.77107 -3.47481 19
    endloop
  endfacet
  facet normal 0.433246 -0.899652 0.0540835
    outer loop
      vertex 2.49396 -3.12733 27
      vertex 0.890083 -3.89971 27
      vertex 2.77107 -3.47481 19
    endloop
  endfacet
  facet normal 0.973501 -0.222194 0.0540829
    outer loop
      vertex 4 0 27
      vertex 4.03036 -1.81421 19
      vertex 4.44444 0 19
    endloop
  endfacet
  facet normal 0.973513 -0.222145 0.0540716
    outer loop
      vertex 4.03036 -1.81421 19
      vertex 4 0 27
      vertex 4.00431 -1.92837 19
    endloop
  endfacet
  facet normal -0 0.998536 0.0540832
    outer loop
      vertex 0.560202 4.33301 19
      vertex 0.890083 3.89971 27
      vertex 0.988981 4.33301 19
    endloop
  endfacet
  facet normal 0 0.998536 0.0540832
    outer loop
      vertex 0.890083 3.89971 27
      vertex 0.560202 4.33301 19
      vertex -0.890083 3.89971 27
    endloop
  endfacet
  facet normal -0 0.998536 0.0540832
    outer loop
      vertex -0.560202 4.33301 19
      vertex -0.890083 3.89971 27
      vertex 0.560202 4.33301 19
    endloop
  endfacet
  facet normal 0 0.998536 0.0540832
    outer loop
      vertex -0.890083 3.89971 27
      vertex -0.560202 4.33301 19
      vertex -0.988981 4.33301 19
    endloop
  endfacet
  facet normal -0.973501 -0.222194 0.0540829
    outer loop
      vertex -4.03036 -1.81421 19
      vertex -4 0 27
      vertex -4.44444 0 19
    endloop
  endfacet
  facet normal -0.973513 -0.222145 0.0540716
    outer loop
      vertex -4 0 27
      vertex -4.03036 -1.81421 19
      vertex -4.00431 -1.92837 19
    endloop
  endfacet
  facet normal -0.433246 -0.899652 0.0540835
    outer loop
      vertex -2.49396 -3.12733 27
      vertex -2.77107 -3.47481 19
      vertex -0.890083 -3.89971 27
    endloop
  endfacet
  facet normal 0.433249 -0.89965 0.0540832
    outer loop
      vertex 1.29072 -4.1877 19
      vertex 0.890083 -3.89971 27
      vertex 0.988981 -4.33301 19
    endloop
  endfacet
  facet normal 0.433243 -0.899653 0.054083
    outer loop
      vertex 2.32202 -3.69106 19
      vertex 0.890083 -3.89971 27
      vertex 1.29072 -4.1877 19
    endloop
  endfacet
  facet normal 0.433247 -0.899651 0.0540838
    outer loop
      vertex 0.890083 -3.89971 27
      vertex 2.32202 -3.69106 19
      vertex 2.77107 -3.47481 19
    endloop
  endfacet
  facet normal 0.973501 -0.222193 0.0540834
    outer loop
      vertex 4 0 27
      vertex 3.60388 -1.73553 27
      vertex 4.00431 -1.92837 19
    endloop
  endfacet
  facet normal 0.433246 0.899652 0.0540835
    outer loop
      vertex 2.77107 3.47481 19
      vertex 0.890083 3.89971 27
      vertex 2.49396 3.12733 27
    endloop
  endfacet
  facet normal 0.433247 0.899651 0.0540838
    outer loop
      vertex 2.32202 3.69106 19
      vertex 0.890083 3.89971 27
      vertex 2.77107 3.47481 19
    endloop
  endfacet
  facet normal 0.433243 0.899653 0.054083
    outer loop
      vertex 1.29072 4.1877 19
      vertex 0.890083 3.89971 27
      vertex 2.32202 3.69106 19
    endloop
  endfacet
  facet normal 0.433249 0.89965 0.0540832
    outer loop
      vertex 0.890083 3.89971 27
      vertex 1.29072 4.1877 19
      vertex 0.988981 4.33301 19
    endloop
  endfacet
  facet normal -0.973501 0.222194 0.0540829
    outer loop
      vertex -4 0 27
      vertex -4.03036 1.81421 19
      vertex -4.44444 0 19
    endloop
  endfacet
  facet normal -0.973513 0.222145 0.0540716
    outer loop
      vertex -4.03036 1.81421 19
      vertex -4 0 27
      vertex -4.00431 1.92837 19
    endloop
  endfacet
  facet normal -0.973501 0.222193 0.0540834
    outer loop
      vertex -3.60388 1.73553 27
      vertex -4.00431 1.92837 19
      vertex -4 0 27
    endloop
  endfacet
  facet normal -0.433246 0.899652 0.0540835
    outer loop
      vertex -0.890083 3.89971 27
      vertex -2.77107 3.47481 19
      vertex -2.49396 3.12733 27
    endloop
  endfacet
  facet normal -0.780688 0.622576 0.0540837
    outer loop
      vertex -2.77107 3.47481 19
      vertex -3.60388 1.73553 27
      vertex -2.49396 3.12733 27
    endloop
  endfacet
  facet normal -0.973501 -0.222193 0.0540834
    outer loop
      vertex -4 0 27
      vertex -4.00431 -1.92837 19
      vertex -3.60388 -1.73553 27
    endloop
  endfacet
  facet normal -0.780678 -0.622589 0.0540834
    outer loop
      vertex -3.69453 -2.31681 19
      vertex -3.60388 -1.73553 27
      vertex -4.00431 -1.92837 19
    endloop
  endfacet
  facet normal -0.780689 -0.622576 0.0540825
    outer loop
      vertex -2.91411 -3.29543 19
      vertex -3.60388 -1.73553 27
      vertex -3.69453 -2.31681 19
    endloop
  endfacet
  facet normal -0.78071 -0.622549 0.0540754
    outer loop
      vertex -3.60388 -1.73553 27
      vertex -2.91411 -3.29543 19
      vertex -2.77107 -3.47481 19
    endloop
  endfacet
  facet normal 0.780688 -0.622576 0.0540837
    outer loop
      vertex 3.60388 -1.73553 27
      vertex 2.49396 -3.12733 27
      vertex 2.77107 -3.47481 19
    endloop
  endfacet
endsolid OpenSCAD_Model
