solid OpenSCAD_Model
  facet normal 0.887122 0.127549 0.443561
    outer loop
      vertex 6.71645 1.97213 0
      vertex 4 0 6
      vertex 7 0 0
    endloop
  endfacet
  facet normal -0 -0 -1
    outer loop
      vertex 3.54182 1.85889 6
      vertex 3.58653 1.67751 6
      vertex 3.46313 1.94772 6
    endloop
  endfacet
  facet normal 0 -0 -1
    outer loop
      vertex -1.41842 3.74006 6
      vertex -1.24354 3.7613 6
      vertex -1.49435 3.68766 6
    endloop
  endfacet
  facet normal 0 0 -1
    outer loop
      vertex 2.36651 -3.18555 6
      vertex 2.27226 -3.29193 6
      vertex 2.09833 -3.3579 6
    endloop
  endfacet
  facet normal -0 0 -1
    outer loop
      vertex 0.512598 -3.95929 6
      vertex 0.482146 -3.97083 6
      vertex 0.387032 -3.95929 6
    endloop
  endfacet
  facet normal -0 -0 -1
    outer loop
      vertex 2.27226 3.29193 6
      vertex 2.36651 3.18555 6
      vertex 2.09833 3.3579 6
    endloop
  endfacet
  facet normal 0 -0 -1
    outer loop
      vertex -2.99404 2.65249 6
      vertex -2.86079 2.74447 6
      vertex -3.07631 2.49575 6
    endloop
  endfacet
  facet normal 0 0 -1
    outer loop
      vertex 3.58653 -1.67751 6
      vertex 3.54182 -1.85889 6
      vertex 3.46313 -1.94772 6
    endloop
  endfacet
  facet normal 0 0 1
    outer loop
      vertex 4 0 6
      vertex 3.58653 -1.67751 6
      vertex 3.83797 -1.12693 6
    endloop
  endfacet
  facet normal 0 0 1
    outer loop
      vertex 3.83797 1.12693 6
      vertex 3.58653 1.67751 6
      vertex 4 0 6
    endloop
  endfacet
  facet normal 0 -0 -1
    outer loop
      vertex 0.482146 3.97083 6
      vertex 0.512598 3.95929 6
      vertex 0.387032 3.95929 6
    endloop
  endfacet
  facet normal 0 0 -1
    outer loop
      vertex -3.88377 0.957262 6
      vertex -3.85429 1.01342 6
      vertex -3.88377 0.808416 6
    endloop
  endfacet
  facet normal 0 0 -1
    outer loop
      vertex -3.88377 -0.808416 6
      vertex -3.85429 -1.01342 6
      vertex -3.88377 -0.957262 6
    endloop
  endfacet
  facet normal 0 0 -1
    outer loop
      vertex -1.24354 -3.7613 6
      vertex -1.41842 -3.74006 6
      vertex -1.49435 -3.68766 6
    endloop
  endfacet
  facet normal 0 0 -1
    outer loop
      vertex -2.86079 -2.74447 6
      vertex -2.99404 -2.65249 6
      vertex -3.07631 -2.49575 6
    endloop
  endfacet
  facet normal -0 0 1
    outer loop
      vertex 0.512598 3.95929 6
      vertex 1.66166 3.63853 6
      vertex 0.569259 3.95929 6
    endloop
  endfacet
  facet normal 0 0 1
    outer loop
      vertex 1.66166 3.63853 6
      vertex 0.512598 3.95929 6
      vertex 2.09833 3.3579 6
    endloop
  endfacet
  facet normal 0 0 1
    outer loop
      vertex 0.512598 -3.95929 6
      vertex 1.66166 -3.63853 6
      vertex 2.09833 -3.3579 6
    endloop
  endfacet
  facet normal 0 0 1
    outer loop
      vertex 1.66166 -3.63853 6
      vertex 0.512598 -3.95929 6
      vertex 0.569259 -3.95929 6
    endloop
  endfacet
  facet normal 0 0 1
    outer loop
      vertex -3.85429 1.01342 6
      vertex -3.36501 2.16256 6
      vertex -3.83797 1.12693 6
    endloop
  endfacet
  facet normal -0 0 1
    outer loop
      vertex -3.36501 2.16256 6
      vertex -3.85429 1.01342 6
      vertex -3.07631 2.49575 6
    endloop
  endfacet
  facet normal 0 0 1
    outer loop
      vertex -2.61944 3.023 6
      vertex -1.49435 3.68766 6
      vertex -1.66166 3.63853 6
    endloop
  endfacet
  facet normal 0 0 1
    outer loop
      vertex -1.49435 3.68766 6
      vertex -2.61944 3.023 6
      vertex -2.86079 2.74447 6
    endloop
  endfacet
  facet normal -0 0 1
    outer loop
      vertex -0.569259 3.95929 6
      vertex -1.24354 3.7613 6
      vertex 0.387032 3.95929 6
    endloop
  endfacet
  facet normal 0 0 1
    outer loop
      vertex -3.85429 -1.01342 6
      vertex -3.36501 -2.16256 6
      vertex -3.07631 -2.49575 6
    endloop
  endfacet
  facet normal 0 0 1
    outer loop
      vertex -3.36501 -2.16256 6
      vertex -3.85429 -1.01342 6
      vertex -3.83797 -1.12693 6
    endloop
  endfacet
  facet normal 0 0 1
    outer loop
      vertex -3.88377 0.808416 6
      vertex -4 0 6
      vertex -3.88377 -0.808416 6
    endloop
  endfacet
  facet normal 0 0 1
    outer loop
      vertex -1.49435 -3.68766 6
      vertex -2.61944 -3.023 6
      vertex -1.66166 -3.63853 6
    endloop
  endfacet
  facet normal -0 -0 1
    outer loop
      vertex -2.61944 -3.023 6
      vertex -1.49435 -3.68766 6
      vertex -2.86079 -2.74447 6
    endloop
  endfacet
  facet normal 0 0 1
    outer loop
      vertex 3.46313 -1.94772 6
      vertex 2.61944 -3.023 6
      vertex 3.36501 -2.16256 6
    endloop
  endfacet
  facet normal 0 -0 1
    outer loop
      vertex 2.61944 -3.023 6
      vertex 3.46313 -1.94772 6
      vertex 2.36651 -3.18555 6
    endloop
  endfacet
  facet normal 0 0 1
    outer loop
      vertex 2.61944 3.023 6
      vertex 3.46313 1.94772 6
      vertex 3.36501 2.16256 6
    endloop
  endfacet
  facet normal 0 0 1
    outer loop
      vertex 3.46313 1.94772 6
      vertex 2.61944 3.023 6
      vertex 2.36651 3.18555 6
    endloop
  endfacet
  facet normal 0 0 1
    outer loop
      vertex 0.387032 -3.95929 6
      vertex -1.24354 -3.7613 6
      vertex -0.569259 -3.95929 6
    endloop
  endfacet
  facet normal 0.815251 0.372316 0.443561
    outer loop
      vertex 5.88877 3.78448 0
      vertex 3.36501 2.16256 6
      vertex 6.71645 1.97213 0
    endloop
  endfacet
  facet normal -0.815251 -0.372316 0.443561
    outer loop
      vertex -3.36501 -2.16256 6
      vertex -6.71645 -1.97213 0
      vertex -5.88877 -3.78448 0
    endloop
  endfacet
  facet normal 0 0.896244 0.44356
    outer loop
      vertex 0.996203 6.92875 0
      vertex 0.512598 3.95929 6
      vertex 0.569259 3.95929 6
    endloop
  endfacet
  facet normal 0 0.896244 0.44356
    outer loop
      vertex 0.512598 3.95929 6
      vertex 0.996203 6.92875 0
      vertex 0.387032 3.95929 6
    endloop
  endfacet
  facet normal -0 0.896244 0.44356
    outer loop
      vertex -0.996203 6.92875 0
      vertex 0.387032 3.95929 6
      vertex 0.996203 6.92875 0
    endloop
  endfacet
  facet normal 0 0.896244 0.44356
    outer loop
      vertex 0.387032 3.95929 6
      vertex -0.996203 6.92875 0
      vertex -0.569259 3.95929 6
    endloop
  endfacet
  facet normal 0.252503 -0.85994 0.44356
    outer loop
      vertex 1.66166 -3.63853 6
      vertex 0.569259 -3.95929 6
      vertex 0.996203 -6.92875 0
    endloop
  endfacet
  facet normal 0 -0.896244 0.44356
    outer loop
      vertex -0.996203 -6.92875 0
      vertex 0.387032 -3.95929 6
      vertex -0.569259 -3.95929 6
    endloop
  endfacet
  facet normal 0 -0.896244 0.44356
    outer loop
      vertex 0.996203 -6.92875 0
      vertex 0.387032 -3.95929 6
      vertex -0.996203 -6.92875 0
    endloop
  endfacet
  facet normal 0 -0.896244 0.44356
    outer loop
      vertex 0.387032 -3.95929 6
      vertex 0.996203 -6.92875 0
      vertex 0.512598 -3.95929 6
    endloop
  endfacet
  facet normal 0 -0.896244 0.44356
    outer loop
      vertex 0.512598 -3.95929 6
      vertex 0.996203 -6.92875 0
      vertex 0.569259 -3.95929 6
    endloop
  endfacet
  facet normal 0.677338 0.586913 0.443561
    outer loop
      vertex 4.58402 5.29025 0
      vertex 3.36501 2.16256 6
      vertex 5.88877 3.78448 0
    endloop
  endfacet
  facet normal 0.887122 -0.127549 0.443561
    outer loop
      vertex 7 0 0
      vertex 4 0 6
      vertex 6.71645 -1.97213 0
    endloop
  endfacet
  facet normal 0.815246 0.372332 0.443557
    outer loop
      vertex 3.46313 1.94772 6
      vertex 6.71645 1.97213 0
      vertex 3.36501 2.16256 6
    endloop
  endfacet
  facet normal 0.815253 0.372311 0.443561
    outer loop
      vertex 3.58653 1.67751 6
      vertex 6.71645 1.97213 0
      vertex 3.46313 1.94772 6
    endloop
  endfacet
  facet normal 0.815253 0.372311 0.443561
    outer loop
      vertex 6.71645 1.97213 0
      vertex 3.58653 1.67751 6
      vertex 3.83797 1.12693 6
    endloop
  endfacet
  facet normal 0.252503 0.85994 0.44356
    outer loop
      vertex 0.996203 6.92875 0
      vertex 0.569259 3.95929 6
      vertex 1.66166 3.63853 6
    endloop
  endfacet
  facet normal -0.677338 0.586913 0.443561
    outer loop
      vertex -4.58402 5.29025 0
      vertex -5.88877 3.78448 0
      vertex -3.36501 2.16256 6
    endloop
  endfacet
  facet normal -0.252505 0.859939 0.44356
    outer loop
      vertex -0.996203 6.92875 0
      vertex -1.24354 3.7613 6
      vertex -0.569259 3.95929 6
    endloop
  endfacet
  facet normal -0.252487 0.859943 0.443563
    outer loop
      vertex -1.24354 3.7613 6
      vertex -0.996203 6.92875 0
      vertex -1.49435 3.68766 6
    endloop
  endfacet
  facet normal -0.252518 0.859937 0.443557
    outer loop
      vertex -1.49435 3.68766 6
      vertex -0.996203 6.92875 0
      vertex -1.66166 3.63853 6
    endloop
  endfacet
  facet normal -0.815251 0.372316 0.443561
    outer loop
      vertex -3.36501 2.16256 6
      vertex -6.71645 1.97213 0
      vertex -3.83797 1.12693 6
    endloop
  endfacet
  facet normal -0.887122 0.127549 0.443561
    outer loop
      vertex -6.71645 1.97213 0
      vertex -7 0 0
      vertex -4 0 6
    endloop
  endfacet
  facet normal 0 0 -1
    outer loop
      vertex 6.71645 -1.97213 0
      vertex 6.71645 1.97213 0
      vertex 7 0 0
    endloop
  endfacet
  facet normal 0 0 -1
    outer loop
      vertex 5.88877 -3.78448 0
      vertex 6.71645 1.97213 0
      vertex 6.71645 -1.97213 0
    endloop
  endfacet
  facet normal 0 0 -1
    outer loop
      vertex 5.88877 -3.78448 0
      vertex 5.88877 3.78448 0
      vertex 6.71645 1.97213 0
    endloop
  endfacet
  facet normal 0 0 -1
    outer loop
      vertex 4.58402 -5.29025 0
      vertex 5.88877 3.78448 0
      vertex 5.88877 -3.78448 0
    endloop
  endfacet
  facet normal 0 0 -1
    outer loop
      vertex 4.58402 -5.29025 0
      vertex 4.58402 5.29025 0
      vertex 5.88877 3.78448 0
    endloop
  endfacet
  facet normal 0 0 -1
    outer loop
      vertex 2.9079 -6.36742 0
      vertex 4.58402 5.29025 0
      vertex 4.58402 -5.29025 0
    endloop
  endfacet
  facet normal 0 0 -1
    outer loop
      vertex 2.9079 -6.36742 0
      vertex 2.9079 6.36742 0
      vertex 4.58402 5.29025 0
    endloop
  endfacet
  facet normal 0 0 -1
    outer loop
      vertex 0.996203 -6.92875 0
      vertex 2.9079 6.36742 0
      vertex 2.9079 -6.36742 0
    endloop
  endfacet
  facet normal 0 0 -1
    outer loop
      vertex 0.996203 -6.92875 0
      vertex 0.996203 6.92875 0
      vertex 2.9079 6.36742 0
    endloop
  endfacet
  facet normal 0 0 -1
    outer loop
      vertex -0.996203 -6.92875 0
      vertex 0.996203 6.92875 0
      vertex 0.996203 -6.92875 0
    endloop
  endfacet
  facet normal 0 0 -1
    outer loop
      vertex -0.996203 -6.92875 0
      vertex -0.996203 6.92875 0
      vertex 0.996203 6.92875 0
    endloop
  endfacet
  facet normal 0 0 -1
    outer loop
      vertex -2.9079 -6.36742 0
      vertex -0.996203 6.92875 0
      vertex -0.996203 -6.92875 0
    endloop
  endfacet
  facet normal 0 0 -1
    outer loop
      vertex -2.9079 -6.36742 0
      vertex -2.9079 6.36742 0
      vertex -0.996203 6.92875 0
    endloop
  endfacet
  facet normal 0 0 -1
    outer loop
      vertex -4.58402 -5.29025 0
      vertex -2.9079 6.36742 0
      vertex -2.9079 -6.36742 0
    endloop
  endfacet
  facet normal 0 0 -1
    outer loop
      vertex -4.58402 -5.29025 0
      vertex -4.58402 5.29025 0
      vertex -2.9079 6.36742 0
    endloop
  endfacet
  facet normal 0 0 -1
    outer loop
      vertex -5.88877 -3.78448 0
      vertex -4.58402 5.29025 0
      vertex -4.58402 -5.29025 0
    endloop
  endfacet
  facet normal 0 0 -1
    outer loop
      vertex -5.88877 -3.78448 0
      vertex -5.88877 3.78448 0
      vertex -4.58402 5.29025 0
    endloop
  endfacet
  facet normal 0 0 -1
    outer loop
      vertex -6.71645 -1.97213 0
      vertex -5.88877 3.78448 0
      vertex -5.88877 -3.78448 0
    endloop
  endfacet
  facet normal 0 0 -1
    outer loop
      vertex -6.71645 -1.97213 0
      vertex -6.71645 1.97213 0
      vertex -5.88877 3.78448 0
    endloop
  endfacet
  facet normal 0 -0 -1
    outer loop
      vertex -6.71645 1.97213 0
      vertex -6.71645 -1.97213 0
      vertex -7 0 0
    endloop
  endfacet
  facet normal 0.677338 -0.586913 0.443561
    outer loop
      vertex 3.36501 -2.16256 6
      vertex 2.61944 -3.023 6
      vertex 4.58402 -5.29025 0
    endloop
  endfacet
  facet normal 0.677338 -0.586913 0.443561
    outer loop
      vertex 5.88877 -3.78448 0
      vertex 3.36501 -2.16256 6
      vertex 4.58402 -5.29025 0
    endloop
  endfacet
  facet normal 0.48455 0.753966 0.443561
    outer loop
      vertex 4.58402 5.29025 0
      vertex 2.36651 3.18555 6
      vertex 2.61944 3.023 6
    endloop
  endfacet
  facet normal 0.484549 0.753967 0.443561
    outer loop
      vertex 2.36651 3.18555 6
      vertex 4.58402 5.29025 0
      vertex 2.09833 3.3579 6
    endloop
  endfacet
  facet normal 0.484545 0.753969 0.44356
    outer loop
      vertex 2.09833 3.3579 6
      vertex 4.58402 5.29025 0
      vertex 1.66166 3.63853 6
    endloop
  endfacet
  facet normal 0.887121 0.12755 0.443561
    outer loop
      vertex 6.71645 1.97213 0
      vertex 3.83797 1.12693 6
      vertex 4 0 6
    endloop
  endfacet
  facet normal -0.815251 0.372316 0.443561
    outer loop
      vertex -5.88877 3.78448 0
      vertex -6.71645 1.97213 0
      vertex -3.36501 2.16256 6
    endloop
  endfacet
  facet normal -0.484544 0.75397 0.44356
    outer loop
      vertex -2.9079 6.36742 0
      vertex -4.58402 5.29025 0
      vertex -1.66166 3.63853 6
    endloop
  endfacet
  facet normal -0.252503 0.85994 0.44356
    outer loop
      vertex -0.996203 6.92875 0
      vertex -2.9079 6.36742 0
      vertex -1.66166 3.63853 6
    endloop
  endfacet
  facet normal -0.484547 0.753968 0.443561
    outer loop
      vertex -1.66166 3.63853 6
      vertex -4.58402 5.29025 0
      vertex -2.61944 3.023 6
    endloop
  endfacet
  facet normal -0.677333 0.586918 0.443561
    outer loop
      vertex -4.58402 5.29025 0
      vertex -2.86079 2.74447 6
      vertex -2.61944 3.023 6
    endloop
  endfacet
  facet normal -0.677332 0.58692 0.443561
    outer loop
      vertex -4.58402 5.29025 0
      vertex -3.07631 2.49575 6
      vertex -2.86079 2.74447 6
    endloop
  endfacet
  facet normal -0.677348 0.586904 0.443558
    outer loop
      vertex -3.07631 2.49575 6
      vertex -4.58402 5.29025 0
      vertex -3.36501 2.16256 6
    endloop
  endfacet
  facet normal -0.815251 -0.372316 0.443561
    outer loop
      vertex -3.83797 -1.12693 6
      vertex -6.71645 -1.97213 0
      vertex -3.36501 -2.16256 6
    endloop
  endfacet
  facet normal -0.887122 0.127547 0.443561
    outer loop
      vertex -6.71645 1.97213 0
      vertex -3.85429 1.01342 6
      vertex -3.83797 1.12693 6
    endloop
  endfacet
  facet normal -0.887118 0.127569 0.443563
    outer loop
      vertex -6.71645 1.97213 0
      vertex -3.88377 0.808416 6
      vertex -3.85429 1.01342 6
    endloop
  endfacet
  facet normal -0.887123 0.127546 0.44356
    outer loop
      vertex -3.88377 0.808416 6
      vertex -6.71645 1.97213 0
      vertex -4 0 6
    endloop
  endfacet
  facet normal -0.887123 -0.127546 0.44356
    outer loop
      vertex -6.71645 -1.97213 0
      vertex -3.88377 -0.808416 6
      vertex -4 0 6
    endloop
  endfacet
  facet normal -0.887118 -0.127569 0.443563
    outer loop
      vertex -3.88377 -0.808416 6
      vertex -6.71645 -1.97213 0
      vertex -3.85429 -1.01342 6
    endloop
  endfacet
  facet normal -0.887122 -0.127547 0.443561
    outer loop
      vertex -3.85429 -1.01342 6
      vertex -6.71645 -1.97213 0
      vertex -3.83797 -1.12693 6
    endloop
  endfacet
  facet normal -0.887122 -0.127549 0.443561
    outer loop
      vertex -4 0 6
      vertex -7 0 0
      vertex -6.71645 -1.97213 0
    endloop
  endfacet
  facet normal -0.677348 -0.586904 0.443558
    outer loop
      vertex -4.58402 -5.29025 0
      vertex -3.07631 -2.49575 6
      vertex -3.36501 -2.16256 6
    endloop
  endfacet
  facet normal -0.677332 -0.58692 0.443561
    outer loop
      vertex -3.07631 -2.49575 6
      vertex -4.58402 -5.29025 0
      vertex -2.86079 -2.74447 6
    endloop
  endfacet
  facet normal -0.677333 -0.586918 0.443561
    outer loop
      vertex -2.86079 -2.74447 6
      vertex -4.58402 -5.29025 0
      vertex -2.61944 -3.023 6
    endloop
  endfacet
  facet normal -0.252503 -0.85994 0.44356
    outer loop
      vertex -1.66166 -3.63853 6
      vertex -2.9079 -6.36742 0
      vertex -0.996203 -6.92875 0
    endloop
  endfacet
  facet normal 0.815251 -0.372316 0.443561
    outer loop
      vertex 6.71645 -1.97213 0
      vertex 3.36501 -2.16256 6
      vertex 5.88877 -3.78448 0
    endloop
  endfacet
  facet normal 0.252503 0.85994 0.44356
    outer loop
      vertex 2.9079 6.36742 0
      vertex 0.996203 6.92875 0
      vertex 1.66166 3.63853 6
    endloop
  endfacet
  facet normal 0.484544 0.75397 0.44356
    outer loop
      vertex 2.9079 6.36742 0
      vertex 1.66166 3.63853 6
      vertex 4.58402 5.29025 0
    endloop
  endfacet
  facet normal 0.677338 0.586913 0.443561
    outer loop
      vertex 4.58402 5.29025 0
      vertex 2.61944 3.023 6
      vertex 3.36501 2.16256 6
    endloop
  endfacet
  facet normal -0.677338 -0.586913 0.443561
    outer loop
      vertex -3.36501 -2.16256 6
      vertex -5.88877 -3.78448 0
      vertex -4.58402 -5.29025 0
    endloop
  endfacet
  facet normal -0.252518 -0.859937 0.443557
    outer loop
      vertex -0.996203 -6.92875 0
      vertex -1.49435 -3.68766 6
      vertex -1.66166 -3.63853 6
    endloop
  endfacet
  facet normal -0.252487 -0.859943 0.443563
    outer loop
      vertex -1.49435 -3.68766 6
      vertex -0.996203 -6.92875 0
      vertex -1.24354 -3.7613 6
    endloop
  endfacet
  facet normal -0.252505 -0.859939 0.44356
    outer loop
      vertex -1.24354 -3.7613 6
      vertex -0.996203 -6.92875 0
      vertex -0.569259 -3.95929 6
    endloop
  endfacet
  facet normal -0.484547 -0.753968 0.443561
    outer loop
      vertex -2.61944 -3.023 6
      vertex -4.58402 -5.29025 0
      vertex -1.66166 -3.63853 6
    endloop
  endfacet
  facet normal -0.484544 -0.75397 0.44356
    outer loop
      vertex -1.66166 -3.63853 6
      vertex -4.58402 -5.29025 0
      vertex -2.9079 -6.36742 0
    endloop
  endfacet
  facet normal 0.252503 -0.85994 0.44356
    outer loop
      vertex 1.66166 -3.63853 6
      vertex 0.996203 -6.92875 0
      vertex 2.9079 -6.36742 0
    endloop
  endfacet
  facet normal 0.484544 -0.75397 0.44356
    outer loop
      vertex 4.58402 -5.29025 0
      vertex 1.66166 -3.63853 6
      vertex 2.9079 -6.36742 0
    endloop
  endfacet
  facet normal 0.815253 -0.372311 0.443561
    outer loop
      vertex 6.71645 -1.97213 0
      vertex 3.58653 -1.67751 6
      vertex 3.46313 -1.94772 6
    endloop
  endfacet
  facet normal 0.815253 -0.372311 0.443561
    outer loop
      vertex 3.58653 -1.67751 6
      vertex 6.71645 -1.97213 0
      vertex 3.83797 -1.12693 6
    endloop
  endfacet
  facet normal 0.815246 -0.372332 0.443557
    outer loop
      vertex 6.71645 -1.97213 0
      vertex 3.46313 -1.94772 6
      vertex 3.36501 -2.16256 6
    endloop
  endfacet
  facet normal 0.887121 -0.12755 0.443561
    outer loop
      vertex 4 0 6
      vertex 3.83797 -1.12693 6
      vertex 6.71645 -1.97213 0
    endloop
  endfacet
  facet normal 0.484545 -0.753969 0.44356
    outer loop
      vertex 4.58402 -5.29025 0
      vertex 2.09833 -3.3579 6
      vertex 1.66166 -3.63853 6
    endloop
  endfacet
  facet normal 0.484549 -0.753967 0.443561
    outer loop
      vertex 2.09833 -3.3579 6
      vertex 4.58402 -5.29025 0
      vertex 2.36651 -3.18555 6
    endloop
  endfacet
  facet normal 0.48455 -0.753966 0.443561
    outer loop
      vertex 2.36651 -3.18555 6
      vertex 4.58402 -5.29025 0
      vertex 2.61944 -3.023 6
    endloop
  endfacet
  facet normal 0.970937 0.239335 0
    outer loop
      vertex 3.54182 1.85889 18
      vertex 3.58653 1.67751 6
      vertex 3.54182 1.85889 6
    endloop
  endfacet
  facet normal 0.970941 0.239318 2.73501e-07
    outer loop
      vertex 4 0 18
      vertex 3.58653 1.67751 6
      vertex 3.54182 1.85889 18
    endloop
  endfacet
  facet normal 0.970942 0.239316 0
    outer loop
      vertex 3.58653 1.67751 6
      vertex 4 0 18
      vertex 4 0 6
    endloop
  endfacet
  facet normal -1 0 0
    outer loop
      vertex -3.88377 0.808416 6
      vertex -3.88377 0.957262 18
      vertex -3.88377 0.957262 6
    endloop
  endfacet
  facet normal -1 0 0
    outer loop
      vertex -3.88377 -0.808416 6
      vertex -3.88377 0.957262 18
      vertex -3.88377 0.808416 6
    endloop
  endfacet
  facet normal -1 0 0
    outer loop
      vertex -3.88377 -0.957262 18
      vertex -3.88377 -0.808416 6
      vertex -3.88377 -0.957262 6
    endloop
  endfacet
  facet normal -1 0 0
    outer loop
      vertex -3.88377 -0.808416 6
      vertex -3.88377 -0.957262 18
      vertex -3.88377 0.957262 18
    endloop
  endfacet
  facet normal -0.120445 0.99272 0
    outer loop
      vertex 0.387032 3.95929 6
      vertex 0.482146 3.97083 18
      vertex 0.482146 3.97083 6
    endloop
  endfacet
  facet normal -0.120536 0.992709 7.36742e-07
    outer loop
      vertex 0.482146 3.97083 18
      vertex 0.387032 3.95929 6
      vertex -1.41842 3.74006 18
    endloop
  endfacet
  facet normal -0.120538 0.992709 4.49407e-07
    outer loop
      vertex -1.24354 3.7613 6
      vertex -1.41842 3.74006 18
      vertex 0.387032 3.95929 6
    endloop
  endfacet
  facet normal -0.120569 0.992705 0
    outer loop
      vertex -1.41842 3.74006 18
      vertex -1.24354 3.7613 6
      vertex -1.41842 3.74006 6
    endloop
  endfacet
  facet normal 0.748491 0.663145 0
    outer loop
      vertex 2.27226 3.29193 18
      vertex 2.36651 3.18555 6
      vertex 2.27226 3.29193 6
    endloop
  endfacet
  facet normal 0.748511 0.663122 3.54851e-07
    outer loop
      vertex 2.27226 3.29193 18
      vertex 3.46313 1.94772 6
      vertex 2.36651 3.18555 6
    endloop
  endfacet
  facet normal 0.748511 0.663122 3.95974e-07
    outer loop
      vertex 3.54182 1.85889 18
      vertex 3.46313 1.94772 6
      vertex 2.27226 3.29193 18
    endloop
  endfacet
  facet normal 0.748538 0.663092 0
    outer loop
      vertex 3.46313 1.94772 6
      vertex 3.54182 1.85889 18
      vertex 3.54182 1.85889 6
    endloop
  endfacet
  facet normal -0.567986 0.823038 0
    outer loop
      vertex -1.49435 3.68766 6
      vertex -1.41842 3.74006 18
      vertex -1.41842 3.74006 6
    endloop
  endfacet
  facet normal -0.568064 0.822984 7.26992e-07
    outer loop
      vertex -1.41842 3.74006 18
      vertex -1.49435 3.68766 6
      vertex -2.99404 2.65249 18
    endloop
  endfacet
  facet normal -0.568067 0.822983 2.55152e-07
    outer loop
      vertex -2.86079 2.74447 6
      vertex -2.99404 2.65249 18
      vertex -1.49435 3.68766 6
    endloop
  endfacet
  facet normal -0.568082 0.822972 0
    outer loop
      vertex -2.99404 2.65249 18
      vertex -2.86079 2.74447 6
      vertex -2.99404 2.65249 6
    endloop
  endfacet
  facet normal 0.354365 -0.935107 0
    outer loop
      vertex 0.512598 -3.95929 6
      vertex 0.482146 -3.97083 18
      vertex 0.482146 -3.97083 6
    endloop
  endfacet
  facet normal 0.354605 -0.935016 6.96811e-07
    outer loop
      vertex 2.09833 -3.3579 6
      vertex 0.482146 -3.97083 18
      vertex 0.512598 -3.95929 6
    endloop
  endfacet
  facet normal 0.354605 -0.935016 5.54688e-07
    outer loop
      vertex 0.482146 -3.97083 18
      vertex 2.09833 -3.3579 6
      vertex 2.27226 -3.29193 18
    endloop
  endfacet
  facet normal 0.354638 -0.935004 0
    outer loop
      vertex 2.27226 -3.29193 18
      vertex 2.09833 -3.3579 6
      vertex 2.27226 -3.29193 6
    endloop
  endfacet
  facet normal 0.354638 0.935004 0
    outer loop
      vertex 2.09833 3.3579 6
      vertex 2.27226 3.29193 18
      vertex 2.27226 3.29193 6
    endloop
  endfacet
  facet normal 0.354605 0.935016 5.54688e-07
    outer loop
      vertex 2.27226 3.29193 18
      vertex 2.09833 3.3579 6
      vertex 0.482146 3.97083 18
    endloop
  endfacet
  facet normal 0.354605 0.935016 6.96811e-07
    outer loop
      vertex 0.512598 3.95929 6
      vertex 0.482146 3.97083 18
      vertex 2.09833 3.3579 6
    endloop
  endfacet
  facet normal 0.354365 0.935107 0
    outer loop
      vertex 0.482146 3.97083 18
      vertex 0.512598 3.95929 6
      vertex 0.482146 3.97083 6
    endloop
  endfacet
  facet normal -0.885441 0.464752 0
    outer loop
      vertex -3.07631 2.49575 6
      vertex -2.99404 2.65249 18
      vertex -2.99404 2.65249 6
    endloop
  endfacet
  facet normal -0.885458 0.46472 5.32824e-07
    outer loop
      vertex -3.85429 1.01342 6
      vertex -2.99404 2.65249 18
      vertex -3.07631 2.49575 6
    endloop
  endfacet
  facet normal -0.885417 0.464797 0
    outer loop
      vertex -3.88377 0.957262 18
      vertex -3.85429 1.01342 6
      vertex -3.88377 0.957262 6
    endloop
  endfacet
  facet normal -0.885455 0.464726 -4.29353e-07
    outer loop
      vertex -3.85429 1.01342 6
      vertex -3.88377 0.957262 18
      vertex -2.99404 2.65249 18
    endloop
  endfacet
  facet normal 0.748538 -0.663092 0
    outer loop
      vertex 3.54182 -1.85889 18
      vertex 3.46313 -1.94772 6
      vertex 3.54182 -1.85889 6
    endloop
  endfacet
  facet normal 0.748511 -0.663122 3.98691e-07
    outer loop
      vertex 3.54182 -1.85889 18
      vertex 2.36651 -3.18555 6
      vertex 3.46313 -1.94772 6
    endloop
  endfacet
  facet normal 0.748511 -0.663122 3.58105e-07
    outer loop
      vertex 2.27226 -3.29193 18
      vertex 2.36651 -3.18555 6
      vertex 3.54182 -1.85889 18
    endloop
  endfacet
  facet normal 0.748491 -0.663145 0
    outer loop
      vertex 2.36651 -3.18555 6
      vertex 2.27226 -3.29193 18
      vertex 2.27226 -3.29193 6
    endloop
  endfacet
  facet normal 0.970942 -0.239316 0
    outer loop
      vertex 4 0 18
      vertex 3.58653 -1.67751 6
      vertex 4 0 6
    endloop
  endfacet
  facet normal 0.970941 -0.239318 2.73501e-07
    outer loop
      vertex 3.54182 -1.85889 18
      vertex 3.58653 -1.67751 6
      vertex 4 0 18
    endloop
  endfacet
  facet normal 0.970937 -0.239335 0
    outer loop
      vertex 3.58653 -1.67751 6
      vertex 3.54182 -1.85889 18
      vertex 3.54182 -1.85889 6
    endloop
  endfacet
  facet normal -0.120569 -0.992705 0
    outer loop
      vertex -1.24354 -3.7613 6
      vertex -1.41842 -3.74006 18
      vertex -1.41842 -3.74006 6
    endloop
  endfacet
  facet normal -0.120536 -0.992709 4.77239e-07
    outer loop
      vertex -1.41842 -3.74006 18
      vertex -1.24354 -3.7613 6
      vertex 0.482146 -3.97083 18
    endloop
  endfacet
  facet normal -0.120538 -0.992709 7.51879e-07
    outer loop
      vertex 0.387032 -3.95929 6
      vertex 0.482146 -3.97083 18
      vertex -1.24354 -3.7613 6
    endloop
  endfacet
  facet normal -0.120445 -0.99272 -0
    outer loop
      vertex 0.482146 -3.97083 18
      vertex 0.387032 -3.95929 6
      vertex 0.482146 -3.97083 6
    endloop
  endfacet
  facet normal -0.568082 -0.822972 0
    outer loop
      vertex -2.86079 -2.74447 6
      vertex -2.99404 -2.65249 18
      vertex -2.99404 -2.65249 6
    endloop
  endfacet
  facet normal -0.568064 -0.822984 2.97076e-07
    outer loop
      vertex -2.99404 -2.65249 18
      vertex -2.86079 -2.74447 6
      vertex -1.41842 -3.74006 18
    endloop
  endfacet
  facet normal -0.568067 -0.822983 7.5088e-07
    outer loop
      vertex -1.49435 -3.68766 6
      vertex -1.41842 -3.74006 18
      vertex -2.86079 -2.74447 6
    endloop
  endfacet
  facet normal -0.567986 -0.823038 -0
    outer loop
      vertex -1.41842 -3.74006 18
      vertex -1.49435 -3.68766 6
      vertex -1.41842 -3.74006 6
    endloop
  endfacet
  facet normal -0.885417 -0.464797 0
    outer loop
      vertex -3.85429 -1.01342 6
      vertex -3.88377 -0.957262 18
      vertex -3.88377 -0.957262 6
    endloop
  endfacet
  facet normal -0.885458 -0.46472 -4.62321e-07
    outer loop
      vertex -3.07631 -2.49575 6
      vertex -3.88377 -0.957262 18
      vertex -3.85429 -1.01342 6
    endloop
  endfacet
  facet normal -0.885441 -0.464752 -0
    outer loop
      vertex -2.99404 -2.65249 18
      vertex -3.07631 -2.49575 6
      vertex -2.99404 -2.65249 6
    endloop
  endfacet
  facet normal -0.885455 -0.464726 4.40812e-07
    outer loop
      vertex -3.07631 -2.49575 6
      vertex -2.99404 -2.65249 18
      vertex -3.88377 -0.957262 18
    endloop
  endfacet
  facet normal 0 0 1
    outer loop
      vertex 3.54182 1.85889 18
      vertex 3.54182 -1.85889 18
      vertex 4 0 18
    endloop
  endfacet
  facet normal 0 0 1
    outer loop
      vertex 2.27226 3.29193 18
      vertex 3.54182 -1.85889 18
      vertex 3.54182 1.85889 18
    endloop
  endfacet
  facet normal 0 0 1
    outer loop
      vertex 2.27226 3.29193 18
      vertex 2.27226 -3.29193 18
      vertex 3.54182 -1.85889 18
    endloop
  endfacet
  facet normal 0 0 1
    outer loop
      vertex 0.482146 3.97083 18
      vertex 2.27226 -3.29193 18
      vertex 2.27226 3.29193 18
    endloop
  endfacet
  facet normal 0 0 1
    outer loop
      vertex 0.482146 3.97083 18
      vertex 0.482146 -3.97083 18
      vertex 2.27226 -3.29193 18
    endloop
  endfacet
  facet normal -0 0 1
    outer loop
      vertex -1.41842 3.74006 18
      vertex 0.482146 -3.97083 18
      vertex 0.482146 3.97083 18
    endloop
  endfacet
  facet normal 0 0 1
    outer loop
      vertex -1.41842 3.74006 18
      vertex -1.41842 -3.74006 18
      vertex 0.482146 -3.97083 18
    endloop
  endfacet
  facet normal -0 0 1
    outer loop
      vertex -2.99404 2.65249 18
      vertex -1.41842 -3.74006 18
      vertex -1.41842 3.74006 18
    endloop
  endfacet
  facet normal 0 0 1
    outer loop
      vertex -2.99404 2.65249 18
      vertex -2.99404 -2.65249 18
      vertex -1.41842 -3.74006 18
    endloop
  endfacet
  facet normal -0 0 1
    outer loop
      vertex -3.88377 0.957262 18
      vertex -2.99404 -2.65249 18
      vertex -2.99404 2.65249 18
    endloop
  endfacet
  facet normal 0 0 1
    outer loop
      vertex -2.99404 -2.65249 18
      vertex -3.88377 0.957262 18
      vertex -3.88377 -0.957262 18
    endloop
  endfacet
endsolid OpenSCAD_Model
