solid OpenSCAD_Model
  facet normal 0.775993 0.111571 0.620795
    outer loop
      vertex 6.71645 1.97213 0
      vertex 3 0 5
      vertex 7 0 0
    endloop
  endfacet
  facet normal -0.775993 -0.111571 0.620795
    outer loop
      vertex -3 0 5
      vertex -7 0 0
      vertex -6.71645 -1.97213 0
    endloop
  endfacet
  facet normal -0.775993 0.111571 0.620795
    outer loop
      vertex -6.71645 1.97213 0
      vertex -7 0 0
      vertex -3 0 5
    endloop
  endfacet
  facet normal 0 0.783973 0.620795
    outer loop
      vertex 0.996203 6.92875 0
      vertex 0.379925 2.96946 5
      vertex 0.426944 2.96946 5
    endloop
  endfacet
  facet normal 0 0.783973 0.620795
    outer loop
      vertex 0.379925 2.96946 5
      vertex 0.996203 6.92875 0
      vertex -0.379925 2.96946 5
    endloop
  endfacet
  facet normal -0 0.783973 0.620795
    outer loop
      vertex -0.996203 6.92875 0
      vertex -0.379925 2.96946 5
      vertex 0.996203 6.92875 0
    endloop
  endfacet
  facet normal 0 0.783973 0.620795
    outer loop
      vertex -0.379925 2.96946 5
      vertex -0.996203 6.92875 0
      vertex -0.426944 2.96946 5
    endloop
  endfacet
  facet normal 0.592489 -0.513392 0.620794
    outer loop
      vertex 2.47865 -1.67398 5
      vertex 5.88877 -3.78448 0
      vertex 2.52376 -1.62192 5
    endloop
  endfacet
  facet normal 0.592489 -0.513392 0.620794
    outer loop
      vertex 5.88877 -3.78448 0
      vertex 2.47865 -1.67398 5
      vertex 4.58402 -5.29025 0
    endloop
  endfacet
  facet normal 0.592488 -0.513393 0.620795
    outer loop
      vertex 1.98028 -2.24913 5
      vertex 4.58402 -5.29025 0
      vertex 2.47865 -1.67398 5
    endloop
  endfacet
  facet normal 0.592506 -0.513374 0.620793
    outer loop
      vertex 4.58402 -5.29025 0
      vertex 1.98028 -2.24913 5
      vertex 1.96458 -2.26725 5
    endloop
  endfacet
  facet normal -0.423846 0.659522 0.620794
    outer loop
      vertex -2.9079 6.36742 0
      vertex -4.58402 5.29025 0
      vertex -1.24624 2.7289 5
    endloop
  endfacet
  facet normal 0.592489 0.513392 0.620794
    outer loop
      vertex 2.47865 1.67398 5
      vertex 5.88877 3.78448 0
      vertex 4.58402 5.29025 0
    endloop
  endfacet
  facet normal 0.592489 0.513392 0.620794
    outer loop
      vertex 5.88877 3.78448 0
      vertex 2.47865 1.67398 5
      vertex 2.52376 1.62192 5
    endloop
  endfacet
  facet normal 0.592488 0.513393 0.620795
    outer loop
      vertex 4.58402 5.29025 0
      vertex 1.98028 2.24913 5
      vertex 2.47865 1.67398 5
    endloop
  endfacet
  facet normal 0.592506 0.513374 0.620793
    outer loop
      vertex 1.98028 2.24913 5
      vertex 4.58402 5.29025 0
      vertex 1.96458 2.26725 5
    endloop
  endfacet
  facet normal 0.775993 -0.111571 0.620795
    outer loop
      vertex 7 0 0
      vertex 3 0 5
      vertex 6.71645 -1.97213 0
    endloop
  endfacet
  facet normal -0.776001 0.111534 0.620792
    outer loop
      vertex -6.71645 1.97213 0
      vertex -2.89117 0.756906 5
      vertex -2.87848 0.845197 5
    endloop
  endfacet
  facet normal -0.775993 0.111574 0.620795
    outer loop
      vertex -2.89117 0.756906 5
      vertex -6.71645 1.97213 0
      vertex -3 0 5
    endloop
  endfacet
  facet normal -0.423891 0.659483 0.620804
    outer loop
      vertex -4.58402 5.29025 0
      vertex -1.3366 2.67082 5
      vertex -1.24624 2.7289 5
    endloop
  endfacet
  facet normal -0.423836 0.65953 0.620793
    outer loop
      vertex -1.3366 2.67082 5
      vertex -4.58402 5.29025 0
      vertex -1.88458 2.31867 5
    endloop
  endfacet
  facet normal -0.423888 0.659491 0.620798
    outer loop
      vertex -1.88458 2.31867 5
      vertex -4.58402 5.29025 0
      vertex -1.96458 2.26725 5
    endloop
  endfacet
  facet normal 0 0 -1
    outer loop
      vertex 6.71645 -1.97213 0
      vertex 6.71645 1.97213 0
      vertex 7 0 0
    endloop
  endfacet
  facet normal 0 0 -1
    outer loop
      vertex 5.88877 -3.78448 0
      vertex 6.71645 1.97213 0
      vertex 6.71645 -1.97213 0
    endloop
  endfacet
  facet normal 0 0 -1
    outer loop
      vertex 5.88877 -3.78448 0
      vertex 5.88877 3.78448 0
      vertex 6.71645 1.97213 0
    endloop
  endfacet
  facet normal 0 0 -1
    outer loop
      vertex 4.58402 -5.29025 0
      vertex 5.88877 3.78448 0
      vertex 5.88877 -3.78448 0
    endloop
  endfacet
  facet normal 0 0 -1
    outer loop
      vertex 4.58402 -5.29025 0
      vertex 4.58402 5.29025 0
      vertex 5.88877 3.78448 0
    endloop
  endfacet
  facet normal 0 0 -1
    outer loop
      vertex 2.9079 -6.36742 0
      vertex 4.58402 5.29025 0
      vertex 4.58402 -5.29025 0
    endloop
  endfacet
  facet normal 0 0 -1
    outer loop
      vertex 2.9079 -6.36742 0
      vertex 2.9079 6.36742 0
      vertex 4.58402 5.29025 0
    endloop
  endfacet
  facet normal 0 0 -1
    outer loop
      vertex 0.996203 -6.92875 0
      vertex 2.9079 6.36742 0
      vertex 2.9079 -6.36742 0
    endloop
  endfacet
  facet normal 0 0 -1
    outer loop
      vertex 0.996203 -6.92875 0
      vertex 0.996203 6.92875 0
      vertex 2.9079 6.36742 0
    endloop
  endfacet
  facet normal 0 0 -1
    outer loop
      vertex -0.996203 -6.92875 0
      vertex 0.996203 6.92875 0
      vertex 0.996203 -6.92875 0
    endloop
  endfacet
  facet normal 0 0 -1
    outer loop
      vertex -0.996203 -6.92875 0
      vertex -0.996203 6.92875 0
      vertex 0.996203 6.92875 0
    endloop
  endfacet
  facet normal 0 0 -1
    outer loop
      vertex -2.9079 -6.36742 0
      vertex -0.996203 6.92875 0
      vertex -0.996203 -6.92875 0
    endloop
  endfacet
  facet normal 0 0 -1
    outer loop
      vertex -2.9079 -6.36742 0
      vertex -2.9079 6.36742 0
      vertex -0.996203 6.92875 0
    endloop
  endfacet
  facet normal 0 0 -1
    outer loop
      vertex -4.58402 -5.29025 0
      vertex -2.9079 6.36742 0
      vertex -2.9079 -6.36742 0
    endloop
  endfacet
  facet normal 0 0 -1
    outer loop
      vertex -4.58402 -5.29025 0
      vertex -4.58402 5.29025 0
      vertex -2.9079 6.36742 0
    endloop
  endfacet
  facet normal 0 0 -1
    outer loop
      vertex -5.88877 -3.78448 0
      vertex -4.58402 5.29025 0
      vertex -4.58402 -5.29025 0
    endloop
  endfacet
  facet normal 0 0 -1
    outer loop
      vertex -5.88877 -3.78448 0
      vertex -5.88877 3.78448 0
      vertex -4.58402 5.29025 0
    endloop
  endfacet
  facet normal 0 0 -1
    outer loop
      vertex -6.71645 -1.97213 0
      vertex -5.88877 3.78448 0
      vertex -5.88877 -3.78448 0
    endloop
  endfacet
  facet normal 0 0 -1
    outer loop
      vertex -6.71645 -1.97213 0
      vertex -6.71645 1.97213 0
      vertex -5.88877 3.78448 0
    endloop
  endfacet
  facet normal 0 -0 -1
    outer loop
      vertex -6.71645 1.97213 0
      vertex -6.71645 -1.97213 0
      vertex -7 0 0
    endloop
  endfacet
  facet normal 0.423888 0.659491 0.620798
    outer loop
      vertex 4.58402 5.29025 0
      vertex 1.88458 2.31867 5
      vertex 1.96458 2.26725 5
    endloop
  endfacet
  facet normal 0.423836 0.65953 0.620793
    outer loop
      vertex 1.88458 2.31867 5
      vertex 4.58402 5.29025 0
      vertex 1.3366 2.67082 5
    endloop
  endfacet
  facet normal 0.423891 0.659483 0.620804
    outer loop
      vertex 1.3366 2.67082 5
      vertex 4.58402 5.29025 0
      vertex 1.24624 2.7289 5
    endloop
  endfacet
  facet normal 0.220873 0.752216 0.620795
    outer loop
      vertex 0.996203 6.92875 0
      vertex 0.426944 2.96946 5
      vertex 2.9079 6.36742 0
    endloop
  endfacet
  facet normal -0.220873 0.752216 0.620795
    outer loop
      vertex -0.996203 6.92875 0
      vertex -2.9079 6.36742 0
      vertex -0.426944 2.96946 5
    endloop
  endfacet
  facet normal 0.713127 -0.325674 0.620795
    outer loop
      vertex 6.71645 -1.97213 0
      vertex 2.82305 -0.966573 5
      vertex 2.58073 -1.49718 5
    endloop
  endfacet
  facet normal 0.713122 -0.32569 0.620792
    outer loop
      vertex 6.71645 -1.97213 0
      vertex 2.58073 -1.49718 5
      vertex 2.52376 -1.62192 5
    endloop
  endfacet
  facet normal 0.713128 -0.325671 0.620795
    outer loop
      vertex 2.82305 -0.966573 5
      vertex 6.71645 -1.97213 0
      vertex 2.87848 -0.845197 5
    endloop
  endfacet
  facet normal -0.592506 0.513374 0.620793
    outer loop
      vertex -4.58402 5.29025 0
      vertex -1.98028 2.24913 5
      vertex -1.96458 2.26725 5
    endloop
  endfacet
  facet normal -0.592488 0.513393 0.620795
    outer loop
      vertex -1.98028 2.24913 5
      vertex -4.58402 5.29025 0
      vertex -2.47865 1.67398 5
    endloop
  endfacet
  facet normal -0.592489 0.513392 0.620794
    outer loop
      vertex -5.88877 3.78448 0
      vertex -2.47865 1.67398 5
      vertex -4.58402 5.29025 0
    endloop
  endfacet
  facet normal -0.592489 0.513392 0.620794
    outer loop
      vertex -2.47865 1.67398 5
      vertex -5.88877 3.78448 0
      vertex -2.52376 1.62192 5
    endloop
  endfacet
  facet normal -0.775993 -0.111574 0.620795
    outer loop
      vertex -6.71645 -1.97213 0
      vertex -2.89117 -0.756906 5
      vertex -3 0 5
    endloop
  endfacet
  facet normal -0.776001 -0.111534 0.620792
    outer loop
      vertex -2.89117 -0.756906 5
      vertex -6.71645 -1.97213 0
      vertex -2.87848 -0.845197 5
    endloop
  endfacet
  facet normal -0.423846 -0.659522 0.620794
    outer loop
      vertex -1.24624 -2.7289 5
      vertex -4.58402 -5.29025 0
      vertex -2.9079 -6.36742 0
    endloop
  endfacet
  facet normal -0.220865 -0.752219 0.620794
    outer loop
      vertex -2.9079 -6.36742 0
      vertex -1.12857 -2.76345 5
      vertex -1.24624 -2.7289 5
    endloop
  endfacet
  facet normal -0.220872 -0.752217 0.620794
    outer loop
      vertex -1.12857 -2.76345 5
      vertex -2.9079 -6.36742 0
      vertex -0.550219 -2.93327 5
    endloop
  endfacet
  facet normal -0.220834 -0.752233 0.620788
    outer loop
      vertex -0.550219 -2.93327 5
      vertex -2.9079 -6.36742 0
      vertex -0.426944 -2.96946 5
    endloop
  endfacet
  facet normal -0.220873 -0.752216 0.620795
    outer loop
      vertex -0.426944 -2.96946 5
      vertex -2.9079 -6.36742 0
      vertex -0.996203 -6.92875 0
    endloop
  endfacet
  facet normal 0 -0.783973 0.620795
    outer loop
      vertex -0.996203 -6.92875 0
      vertex -0.379925 -2.96946 5
      vertex -0.426944 -2.96946 5
    endloop
  endfacet
  facet normal 0 -0.783973 0.620795
    outer loop
      vertex -0.379925 -2.96946 5
      vertex -0.996203 -6.92875 0
      vertex 0.379925 -2.96946 5
    endloop
  endfacet
  facet normal 0 -0.783973 0.620795
    outer loop
      vertex 0.996203 -6.92875 0
      vertex 0.379925 -2.96946 5
      vertex -0.996203 -6.92875 0
    endloop
  endfacet
  facet normal 0 -0.783973 0.620795
    outer loop
      vertex 0.379925 -2.96946 5
      vertex 0.996203 -6.92875 0
      vertex 0.426944 -2.96946 5
    endloop
  endfacet
  facet normal 0.220873 -0.752216 0.620795
    outer loop
      vertex 2.9079 -6.36742 0
      vertex 0.426944 -2.96946 5
      vertex 0.996203 -6.92875 0
    endloop
  endfacet
  facet normal 0.713126 -0.325677 0.620794
    outer loop
      vertex 6.71645 -1.97213 0
      vertex 2.52376 -1.62192 5
      vertex 5.88877 -3.78448 0
    endloop
  endfacet
  facet normal 0.713126 0.325677 0.620794
    outer loop
      vertex 5.88877 3.78448 0
      vertex 2.52376 1.62192 5
      vertex 6.71645 1.97213 0
    endloop
  endfacet
  facet normal 0.220865 0.752219 0.620794
    outer loop
      vertex 2.9079 6.36742 0
      vertex 1.12857 2.76345 5
      vertex 1.24624 2.7289 5
    endloop
  endfacet
  facet normal 0.220872 0.752217 0.620794
    outer loop
      vertex 1.12857 2.76345 5
      vertex 2.9079 6.36742 0
      vertex 0.550219 2.93327 5
    endloop
  endfacet
  facet normal 0.220834 0.752233 0.620788
    outer loop
      vertex 0.550219 2.93327 5
      vertex 2.9079 6.36742 0
      vertex 0.426944 2.96946 5
    endloop
  endfacet
  facet normal -0.220834 0.752233 0.620788
    outer loop
      vertex -2.9079 6.36742 0
      vertex -0.550219 2.93327 5
      vertex -0.426944 2.96946 5
    endloop
  endfacet
  facet normal -0.220872 0.752217 0.620794
    outer loop
      vertex -0.550219 2.93327 5
      vertex -2.9079 6.36742 0
      vertex -1.12857 2.76345 5
    endloop
  endfacet
  facet normal -0.220865 0.752219 0.620794
    outer loop
      vertex -1.12857 2.76345 5
      vertex -2.9079 6.36742 0
      vertex -1.24624 2.7289 5
    endloop
  endfacet
  facet normal -0.713126 0.325677 0.620794
    outer loop
      vertex -5.88877 3.78448 0
      vertex -6.71645 1.97213 0
      vertex -2.52376 1.62192 5
    endloop
  endfacet
  facet normal -0.713126 -0.325677 0.620794
    outer loop
      vertex -2.52376 -1.62192 5
      vertex -6.71645 -1.97213 0
      vertex -5.88877 -3.78448 0
    endloop
  endfacet
  facet normal -0.423888 -0.659491 0.620798
    outer loop
      vertex -4.58402 -5.29025 0
      vertex -1.88458 -2.31867 5
      vertex -1.96458 -2.26725 5
    endloop
  endfacet
  facet normal -0.423836 -0.65953 0.620793
    outer loop
      vertex -1.88458 -2.31867 5
      vertex -4.58402 -5.29025 0
      vertex -1.3366 -2.67082 5
    endloop
  endfacet
  facet normal -0.423891 -0.659483 0.620804
    outer loop
      vertex -1.3366 -2.67082 5
      vertex -4.58402 -5.29025 0
      vertex -1.24624 -2.7289 5
    endloop
  endfacet
  facet normal 0.220834 -0.752233 0.620788
    outer loop
      vertex 2.9079 -6.36742 0
      vertex 0.550219 -2.93327 5
      vertex 0.426944 -2.96946 5
    endloop
  endfacet
  facet normal 0.220872 -0.752217 0.620794
    outer loop
      vertex 0.550219 -2.93327 5
      vertex 2.9079 -6.36742 0
      vertex 1.12857 -2.76345 5
    endloop
  endfacet
  facet normal 0.220865 -0.752219 0.620794
    outer loop
      vertex 1.12857 -2.76345 5
      vertex 2.9079 -6.36742 0
      vertex 1.24624 -2.7289 5
    endloop
  endfacet
  facet normal 0.423846 -0.659522 0.620794
    outer loop
      vertex 4.58402 -5.29025 0
      vertex 1.24624 -2.7289 5
      vertex 2.9079 -6.36742 0
    endloop
  endfacet
  facet normal 0.776001 0.111534 0.620792
    outer loop
      vertex 2.89117 0.756906 5
      vertex 6.71645 1.97213 0
      vertex 2.87848 0.845197 5
    endloop
  endfacet
  facet normal 0.775993 0.111574 0.620795
    outer loop
      vertex 6.71645 1.97213 0
      vertex 2.89117 0.756906 5
      vertex 3 0 5
    endloop
  endfacet
  facet normal 0.713122 0.32569 0.620792
    outer loop
      vertex 2.58073 1.49718 5
      vertex 6.71645 1.97213 0
      vertex 2.52376 1.62192 5
    endloop
  endfacet
  facet normal 0.713127 0.325674 0.620795
    outer loop
      vertex 2.82305 0.966573 5
      vertex 6.71645 1.97213 0
      vertex 2.58073 1.49718 5
    endloop
  endfacet
  facet normal 0.713128 0.325671 0.620795
    outer loop
      vertex 6.71645 1.97213 0
      vertex 2.82305 0.966573 5
      vertex 2.87848 0.845197 5
    endloop
  endfacet
  facet normal 0.423846 0.659522 0.620794
    outer loop
      vertex 2.9079 6.36742 0
      vertex 1.24624 2.7289 5
      vertex 4.58402 5.29025 0
    endloop
  endfacet
  facet normal 0 0 1
    outer loop
      vertex 2.52376 1.62192 5
      vertex 2.47865 1.67398 5
      vertex 2.58073 1.49718 5
    endloop
  endfacet
  facet normal 0 0 -1
    outer loop
      vertex -2.89117 -0.756906 5
      vertex -2.93444 -0.623734 5
      vertex -3 0 5
    endloop
  endfacet
  facet normal 0 -0 -1
    outer loop
      vertex -2.93444 0.623734 5
      vertex -2.89117 0.756906 5
      vertex -3 0 5
    endloop
  endfacet
  facet normal 0 0 1
    outer loop
      vertex -0.379925 -2.96946 5
      vertex -0.550219 -2.93327 5
      vertex -0.426944 -2.96946 5
    endloop
  endfacet
  facet normal -0 0 1
    outer loop
      vertex -1.24624 2.7289 5
      vertex -1.3366 2.67082 5
      vertex -1.12857 2.76345 5
    endloop
  endfacet
  facet normal 0 0 1
    outer loop
      vertex 1.96458 2.26725 5
      vertex 1.88458 2.31867 5
      vertex 1.98028 2.24913 5
    endloop
  endfacet
  facet normal 0 0 1
    outer loop
      vertex 2.87848 0.845197 5
      vertex 2.82305 0.966573 5
      vertex 2.89117 0.756906 5
    endloop
  endfacet
  facet normal -0 0 1
    outer loop
      vertex -2.87848 0.845197 5
      vertex -2.89117 0.756906 5
      vertex -2.82305 0.966573 5
    endloop
  endfacet
  facet normal 0 0 1
    outer loop
      vertex -1.88458 -2.31867 5
      vertex -1.98028 -2.24913 5
      vertex -1.96458 -2.26725 5
    endloop
  endfacet
  facet normal 0 0 1
    outer loop
      vertex 1.24624 2.7289 5
      vertex 1.12857 2.76345 5
      vertex 1.3366 2.67082 5
    endloop
  endfacet
  facet normal -0 0 1
    outer loop
      vertex -0.426944 2.96946 5
      vertex -0.550219 2.93327 5
      vertex -0.379925 2.96946 5
    endloop
  endfacet
  facet normal 0 0 1
    outer loop
      vertex 2.89117 -0.756906 5
      vertex 2.82305 -0.966573 5
      vertex 2.87848 -0.845197 5
    endloop
  endfacet
  facet normal 0 0 1
    outer loop
      vertex 2.58073 -1.49718 5
      vertex 2.47865 -1.67398 5
      vertex 2.52376 -1.62192 5
    endloop
  endfacet
  facet normal -0 0 1
    outer loop
      vertex -1.96458 2.26725 5
      vertex -1.98028 2.24913 5
      vertex -1.88458 2.31867 5
    endloop
  endfacet
  facet normal 0 0 1
    outer loop
      vertex -2.82305 -0.966573 5
      vertex -2.89117 -0.756906 5
      vertex -2.87848 -0.845197 5
    endloop
  endfacet
  facet normal 0 0 1
    outer loop
      vertex -1.12857 -2.76345 5
      vertex -1.3366 -2.67082 5
      vertex -1.24624 -2.7289 5
    endloop
  endfacet
  facet normal 0 0 1
    outer loop
      vertex 0.550219 -2.93327 5
      vertex 0.379925 -2.96946 5
      vertex 0.426944 -2.96946 5
    endloop
  endfacet
  facet normal 0 0 1
    outer loop
      vertex 1.98028 -2.24913 5
      vertex 1.88458 -2.31867 5
      vertex 1.96458 -2.26725 5
    endloop
  endfacet
  facet normal 0 0 1
    outer loop
      vertex 0.426944 2.96946 5
      vertex 0.379925 2.96946 5
      vertex 0.550219 2.93327 5
    endloop
  endfacet
  facet normal -0 0 1
    outer loop
      vertex -2.52376 1.62192 5
      vertex -2.58073 1.49718 5
      vertex -2.47865 1.67398 5
    endloop
  endfacet
  facet normal 0 0 1
    outer loop
      vertex 1.3366 -2.67082 5
      vertex 1.12857 -2.76345 5
      vertex 1.24624 -2.7289 5
    endloop
  endfacet
  facet normal 0 0 -1
    outer loop
      vertex 3 0 5
      vertex 2.93444 -0.623734 5
      vertex 2.89117 -0.756906 5
    endloop
  endfacet
  facet normal -0 -0 -1
    outer loop
      vertex 2.93444 0.623734 5
      vertex 3 0 5
      vertex 2.89117 0.756906 5
    endloop
  endfacet
  facet normal 0 0 1
    outer loop
      vertex -2.47865 -1.67398 5
      vertex -2.58073 -1.49718 5
      vertex -2.52376 -1.62192 5
    endloop
  endfacet
  facet normal 0 0 -1
    outer loop
      vertex 1.12857 -2.76345 5
      vertex 0.927051 -2.85317 5
      vertex 0.550219 -2.93327 5
    endloop
  endfacet
  facet normal 0 0 -1
    outer loop
      vertex 1.88458 -2.31867 5
      vertex 1.5 -2.59808 5
      vertex 1.3366 -2.67082 5
    endloop
  endfacet
  facet normal 0 -0 -1
    outer loop
      vertex -1.5 2.59808 5
      vertex -1.3366 2.67082 5
      vertex -1.88458 2.31867 5
    endloop
  endfacet
  facet normal -0 -0 -1
    outer loop
      vertex 0.927051 2.85317 5
      vertex 1.12857 2.76345 5
      vertex 0.550219 2.93327 5
    endloop
  endfacet
  facet normal 0 0 -1
    outer loop
      vertex 2.82305 -0.966573 5
      vertex 2.74064 -1.22021 5
      vertex 2.58073 -1.49718 5
    endloop
  endfacet
  facet normal 0 0 -1
    outer loop
      vertex -2.42705 -1.76336 5
      vertex -1.98028 -2.24913 5
      vertex -2.00739 -2.22943 5
    endloop
  endfacet
  facet normal 0 0 -1
    outer loop
      vertex -1.98028 -2.24913 5
      vertex -2.42705 -1.76336 5
      vertex -2.47865 -1.67398 5
    endloop
  endfacet
  facet normal 0 0 -1
    outer loop
      vertex -0.550219 -2.93327 5
      vertex -0.927051 -2.85317 5
      vertex -1.12857 -2.76345 5
    endloop
  endfacet
  facet normal 0 0 -1
    outer loop
      vertex 0.379925 2.96946 5
      vertex -0.313585 2.98357 5
      vertex 0.313585 2.98357 5
    endloop
  endfacet
  facet normal 0 -0 -1
    outer loop
      vertex -0.313585 2.98357 5
      vertex 0.379925 2.96946 5
      vertex -0.379925 2.96946 5
    endloop
  endfacet
  facet normal 0 0 -1
    outer loop
      vertex 1.98028 -2.24913 5
      vertex 2.42705 -1.76336 5
      vertex 2.00739 -2.22943 5
    endloop
  endfacet
  facet normal -0 0 -1
    outer loop
      vertex 2.42705 -1.76336 5
      vertex 1.98028 -2.24913 5
      vertex 2.47865 -1.67398 5
    endloop
  endfacet
  facet normal 0 0 -1
    outer loop
      vertex -2.58073 -1.49718 5
      vertex -2.74064 -1.22021 5
      vertex -2.82305 -0.966573 5
    endloop
  endfacet
  facet normal 0 0 -1
    outer loop
      vertex -0.313585 -2.98357 5
      vertex 0.379925 -2.96946 5
      vertex 0.313585 -2.98357 5
    endloop
  endfacet
  facet normal -0 0 -1
    outer loop
      vertex 0.379925 -2.96946 5
      vertex -0.313585 -2.98357 5
      vertex -0.379925 -2.96946 5
    endloop
  endfacet
  facet normal 0 -0 -1
    outer loop
      vertex -0.927051 2.85317 5
      vertex -0.550219 2.93327 5
      vertex -1.12857 2.76345 5
    endloop
  endfacet
  facet normal 0 0 -1
    outer loop
      vertex 1.98028 2.24913 5
      vertex 2.42705 1.76336 5
      vertex 2.47865 1.67398 5
    endloop
  endfacet
  facet normal 0 0 -1
    outer loop
      vertex 2.42705 1.76336 5
      vertex 1.98028 2.24913 5
      vertex 2.00739 2.22943 5
    endloop
  endfacet
  facet normal 0 -0 -1
    outer loop
      vertex -2.74064 1.22021 5
      vertex -2.58073 1.49718 5
      vertex -2.82305 0.966573 5
    endloop
  endfacet
  facet normal 0 0 -1
    outer loop
      vertex -1.98028 2.24913 5
      vertex -2.42705 1.76336 5
      vertex -2.00739 2.22943 5
    endloop
  endfacet
  facet normal 0 -0 -1
    outer loop
      vertex -2.42705 1.76336 5
      vertex -1.98028 2.24913 5
      vertex -2.47865 1.67398 5
    endloop
  endfacet
  facet normal 0 0 -1
    outer loop
      vertex -1.3366 -2.67082 5
      vertex -1.5 -2.59808 5
      vertex -1.88458 -2.31867 5
    endloop
  endfacet
  facet normal -0 -0 -1
    outer loop
      vertex 1.5 2.59808 5
      vertex 1.88458 2.31867 5
      vertex 1.3366 2.67082 5
    endloop
  endfacet
  facet normal -0 -0 -1
    outer loop
      vertex 2.74064 1.22021 5
      vertex 2.82305 0.966573 5
      vertex 2.58073 1.49718 5
    endloop
  endfacet
  facet normal -0.713122 0.32569 0.620792
    outer loop
      vertex -6.71645 1.97213 0
      vertex -2.58073 1.49718 5
      vertex -2.52376 1.62192 5
    endloop
  endfacet
  facet normal -0.713127 0.325674 0.620795
    outer loop
      vertex -6.71645 1.97213 0
      vertex -2.82305 0.966573 5
      vertex -2.58073 1.49718 5
    endloop
  endfacet
  facet normal -0.713128 0.325671 0.620795
    outer loop
      vertex -2.82305 0.966573 5
      vertex -6.71645 1.97213 0
      vertex -2.87848 0.845197 5
    endloop
  endfacet
  facet normal -0.592488 -0.513393 0.620795
    outer loop
      vertex -4.58402 -5.29025 0
      vertex -1.98028 -2.24913 5
      vertex -2.47865 -1.67398 5
    endloop
  endfacet
  facet normal -0.592506 -0.513374 0.620793
    outer loop
      vertex -1.98028 -2.24913 5
      vertex -4.58402 -5.29025 0
      vertex -1.96458 -2.26725 5
    endloop
  endfacet
  facet normal -0.592489 -0.513392 0.620794
    outer loop
      vertex -5.88877 -3.78448 0
      vertex -2.47865 -1.67398 5
      vertex -2.52376 -1.62192 5
    endloop
  endfacet
  facet normal -0.592489 -0.513392 0.620794
    outer loop
      vertex -2.47865 -1.67398 5
      vertex -5.88877 -3.78448 0
      vertex -4.58402 -5.29025 0
    endloop
  endfacet
  facet normal 0.423891 -0.659483 0.620804
    outer loop
      vertex 4.58402 -5.29025 0
      vertex 1.3366 -2.67082 5
      vertex 1.24624 -2.7289 5
    endloop
  endfacet
  facet normal 0.423836 -0.65953 0.620793
    outer loop
      vertex 1.3366 -2.67082 5
      vertex 4.58402 -5.29025 0
      vertex 1.88458 -2.31867 5
    endloop
  endfacet
  facet normal 0.423888 -0.659491 0.620798
    outer loop
      vertex 1.88458 -2.31867 5
      vertex 4.58402 -5.29025 0
      vertex 1.96458 -2.26725 5
    endloop
  endfacet
  facet normal 0.776001 -0.111534 0.620792
    outer loop
      vertex 6.71645 -1.97213 0
      vertex 2.89117 -0.756906 5
      vertex 2.87848 -0.845197 5
    endloop
  endfacet
  facet normal 0.775993 -0.111574 0.620795
    outer loop
      vertex 2.89117 -0.756906 5
      vertex 6.71645 -1.97213 0
      vertex 3 0 5
    endloop
  endfacet
  facet normal -0.713128 -0.325671 0.620795
    outer loop
      vertex -6.71645 -1.97213 0
      vertex -2.82305 -0.966573 5
      vertex -2.87848 -0.845197 5
    endloop
  endfacet
  facet normal -0.713127 -0.325674 0.620795
    outer loop
      vertex -2.82305 -0.966573 5
      vertex -6.71645 -1.97213 0
      vertex -2.58073 -1.49718 5
    endloop
  endfacet
  facet normal -0.713122 -0.32569 0.620792
    outer loop
      vertex -2.58073 -1.49718 5
      vertex -6.71645 -1.97213 0
      vertex -2.52376 -1.62192 5
    endloop
  endfacet
  facet normal 0.103582 -0.487308 -0.867065
    outer loop
      vertex 1.04528 -9.94522 9
      vertex 0.927051 -2.85317 5
      vertex 3.09017 -9.51056 9
    endloop
  endfacet
  facet normal 0.495466 0.0520745 -0.867065
    outer loop
      vertex 10 0 9
      vertex 3 0 5
      vertex 9.78148 2.07912 9
    endloop
  endfacet
  facet normal 0.495465 0.0520778 -0.867065
    outer loop
      vertex 3 0 5
      vertex 2.93444 0.623734 5
      vertex 9.78148 2.07912 9
    endloop
  endfacet
  facet normal 0.473811 -0.153952 -0.867065
    outer loop
      vertex 9.13545 -4.06737 9
      vertex 2.93444 -0.623734 5
      vertex 9.78148 -2.07912 9
    endloop
  endfacet
  facet normal -0.43145 -0.249097 -0.867065
    outer loop
      vertex -8.09017 -5.87785 9
      vertex -9.13545 -4.06737 9
      vertex -2.42705 -1.76336 5
    endloop
  endfacet
  facet normal -0.43145 0.249097 -0.867065
    outer loop
      vertex -2.42705 1.76336 5
      vertex -9.13545 4.06737 9
      vertex -8.09017 5.87785 9
    endloop
  endfacet
  facet normal 0.43145 -0.249097 -0.867065
    outer loop
      vertex 8.09017 -5.87785 9
      vertex 2.42705 -1.76336 5
      vertex 9.13545 -4.06737 9
    endloop
  endfacet
  facet normal 0.103583 -0.487308 -0.867065
    outer loop
      vertex 1.04528 -9.94522 9
      vertex 0.550219 -2.93327 5
      vertex 0.927051 -2.85317 5
    endloop
  endfacet
  facet normal 0.103561 -0.48731 -0.867066
    outer loop
      vertex 1.04528 -9.94522 9
      vertex 0.379925 -2.96946 5
      vertex 0.550219 -2.93327 5
    endloop
  endfacet
  facet normal 0.103645 -0.4873 -0.867062
    outer loop
      vertex 0.379925 -2.96946 5
      vertex 1.04528 -9.94522 9
      vertex 0.313585 -2.98357 5
    endloop
  endfacet
  facet normal -0.103582 0.487308 -0.867065
    outer loop
      vertex -0.927051 2.85317 5
      vertex -3.09017 9.51056 9
      vertex -1.04528 9.94522 9
    endloop
  endfacet
  facet normal 0.473812 -0.15395 -0.867065
    outer loop
      vertex 9.13545 -4.06737 9
      vertex 2.89117 -0.756906 5
      vertex 2.93444 -0.623734 5
    endloop
  endfacet
  facet normal 0.473816 -0.153941 -0.867064
    outer loop
      vertex 9.13545 -4.06737 9
      vertex 2.82305 -0.966573 5
      vertex 2.89117 -0.756906 5
    endloop
  endfacet
  facet normal 0.473813 -0.153948 -0.867065
    outer loop
      vertex 2.82305 -0.966573 5
      vertex 9.13545 -4.06737 9
      vertex 2.74064 -1.22021 5
    endloop
  endfacet
  facet normal 0.495466 -0.0520745 -0.867065
    outer loop
      vertex 9.78148 -2.07912 9
      vertex 3 0 5
      vertex 10 0 9
    endloop
  endfacet
  facet normal 0.495465 -0.0520778 -0.867065
    outer loop
      vertex 9.78148 -2.07912 9
      vertex 2.93444 -0.623734 5
      vertex 3 0 5
    endloop
  endfacet
  facet normal 0.370232 -0.333357 -0.867065
    outer loop
      vertex 6.69131 -7.43145 9
      vertex 2.42705 -1.76336 5
      vertex 8.09017 -5.87785 9
    endloop
  endfacet
  facet normal 0 -0.498195 -0.867065
    outer loop
      vertex 1.04528 -9.94522 9
      vertex -0.313585 -2.98357 5
      vertex 0.313585 -2.98357 5
    endloop
  endfacet
  facet normal 0 -0.498195 -0.867065
    outer loop
      vertex -0.313585 -2.98357 5
      vertex 1.04528 -9.94522 9
      vertex -1.04528 -9.94522 9
    endloop
  endfacet
  facet normal -0.473816 -0.153941 -0.867064
    outer loop
      vertex -9.13545 -4.06737 9
      vertex -2.89117 -0.756906 5
      vertex -2.82305 -0.966573 5
    endloop
  endfacet
  facet normal -0.473812 -0.15395 -0.867065
    outer loop
      vertex -2.89117 -0.756906 5
      vertex -9.13545 -4.06737 9
      vertex -2.93444 -0.623734 5
    endloop
  endfacet
  facet normal -0.473813 -0.153948 -0.867065
    outer loop
      vertex -9.13545 -4.06737 9
      vertex -2.82305 -0.966573 5
      vertex -2.74064 -1.22021 5
    endloop
  endfacet
  facet normal 0.202634 0.455124 -0.867065
    outer loop
      vertex 5 8.66025 9
      vertex 0.927051 2.85317 5
      vertex 3.09017 9.51056 9
    endloop
  endfacet
  facet normal -0.495465 -0.0520778 -0.867065
    outer loop
      vertex -2.93444 -0.623734 5
      vertex -9.78148 -2.07912 9
      vertex -3 0 5
    endloop
  endfacet
  facet normal -0.202634 0.455124 -0.867065
    outer loop
      vertex -0.927051 2.85317 5
      vertex -5 8.66025 9
      vertex -3.09017 9.51056 9
    endloop
  endfacet
  facet normal 0.431449 -0.249099 -0.867065
    outer loop
      vertex 9.13545 -4.06737 9
      vertex 2.58073 -1.49718 5
      vertex 2.74064 -1.22021 5
    endloop
  endfacet
  facet normal 0.431446 -0.249106 -0.867064
    outer loop
      vertex 9.13545 -4.06737 9
      vertex 2.47865 -1.67398 5
      vertex 2.58073 -1.49718 5
    endloop
  endfacet
  facet normal 0.431455 -0.249084 -0.867066
    outer loop
      vertex 2.47865 -1.67398 5
      vertex 9.13545 -4.06737 9
      vertex 2.42705 -1.76336 5
    endloop
  endfacet
  facet normal 0.202611 -0.455137 -0.867064
    outer loop
      vertex 5 -8.66025 9
      vertex 1.3366 -2.67082 5
      vertex 1.5 -2.59808 5
    endloop
  endfacet
  facet normal 0.20265 -0.455115 -0.867066
    outer loop
      vertex 5 -8.66025 9
      vertex 1.12857 -2.76345 5
      vertex 1.3366 -2.67082 5
    endloop
  endfacet
  facet normal 0.202631 -0.455126 -0.867065
    outer loop
      vertex 1.12857 -2.76345 5
      vertex 5 -8.66025 9
      vertex 0.927051 -2.85317 5
    endloop
  endfacet
  facet normal 0.202634 -0.455124 -0.867065
    outer loop
      vertex 3.09017 -9.51056 9
      vertex 0.927051 -2.85317 5
      vertex 5 -8.66025 9
    endloop
  endfacet
  facet normal 0.29283 -0.403049 -0.867065
    outer loop
      vertex 5 -8.66025 9
      vertex 1.5 -2.59808 5
      vertex 6.69131 -7.43145 9
    endloop
  endfacet
  facet normal -0.473811 -0.153952 -0.867065
    outer loop
      vertex -9.13545 -4.06737 9
      vertex -9.78148 -2.07912 9
      vertex -2.93444 -0.623734 5
    endloop
  endfacet
  facet normal -0.370232 -0.333357 -0.867065
    outer loop
      vertex -6.69131 -7.43145 9
      vertex -8.09017 -5.87785 9
      vertex -2.42705 -1.76336 5
    endloop
  endfacet
  facet normal -0.103582 -0.487308 -0.867065
    outer loop
      vertex -1.04528 -9.94522 9
      vertex -3.09017 -9.51056 9
      vertex -0.927051 -2.85317 5
    endloop
  endfacet
  facet normal 0 0.498195 -0.867065
    outer loop
      vertex -0.313585 2.98357 5
      vertex 1.04528 9.94522 9
      vertex 0.313585 2.98357 5
    endloop
  endfacet
  facet normal 0 0.498195 -0.867065
    outer loop
      vertex 1.04528 9.94522 9
      vertex -0.313585 2.98357 5
      vertex -1.04528 9.94522 9
    endloop
  endfacet
  facet normal -0.495466 0.0520745 -0.867065
    outer loop
      vertex -3 0 5
      vertex -10 0 9
      vertex -9.78148 2.07912 9
    endloop
  endfacet
  facet normal -0.495465 0.0520778 -0.867065
    outer loop
      vertex -3 0 5
      vertex -9.78148 2.07912 9
      vertex -2.93444 0.623734 5
    endloop
  endfacet
  facet normal -0.29283 0.403049 -0.867065
    outer loop
      vertex -1.5 2.59808 5
      vertex -6.69131 7.43145 9
      vertex -5 8.66025 9
    endloop
  endfacet
  facet normal -0.202611 0.455137 -0.867064
    outer loop
      vertex -5 8.66025 9
      vertex -1.3366 2.67082 5
      vertex -1.5 2.59808 5
    endloop
  endfacet
  facet normal -0.202631 0.455126 -0.867065
    outer loop
      vertex -1.12857 2.76345 5
      vertex -5 8.66025 9
      vertex -0.927051 2.85317 5
    endloop
  endfacet
  facet normal -0.20265 0.455115 -0.867066
    outer loop
      vertex -1.3366 2.67082 5
      vertex -5 8.66025 9
      vertex -1.12857 2.76345 5
    endloop
  endfacet
  facet normal 0.370227 -0.333361 -0.867066
    outer loop
      vertex 6.69131 -7.43145 9
      vertex 2.00739 -2.22943 5
      vertex 2.42705 -1.76336 5
    endloop
  endfacet
  facet normal 0.292863 -0.403021 -0.867067
    outer loop
      vertex 6.69131 -7.43145 9
      vertex 1.98028 -2.24913 5
      vertex 2.00739 -2.22943 5
    endloop
  endfacet
  facet normal 0.292857 -0.403026 -0.867067
    outer loop
      vertex 6.69131 -7.43145 9
      vertex 1.88458 -2.31867 5
      vertex 1.98028 -2.24913 5
    endloop
  endfacet
  facet normal 0.292829 -0.40305 -0.867065
    outer loop
      vertex 1.88458 -2.31867 5
      vertex 6.69131 -7.43145 9
      vertex 1.5 -2.59808 5
    endloop
  endfacet
  facet normal -0.431446 -0.249106 -0.867064
    outer loop
      vertex -9.13545 -4.06737 9
      vertex -2.58073 -1.49718 5
      vertex -2.47865 -1.67398 5
    endloop
  endfacet
  facet normal -0.431449 -0.249099 -0.867065
    outer loop
      vertex -2.58073 -1.49718 5
      vertex -9.13545 -4.06737 9
      vertex -2.74064 -1.22021 5
    endloop
  endfacet
  facet normal -0.431455 -0.249084 -0.867066
    outer loop
      vertex -9.13545 -4.06737 9
      vertex -2.47865 -1.67398 5
      vertex -2.42705 -1.76336 5
    endloop
  endfacet
  facet normal -0.20265 -0.455115 -0.867066
    outer loop
      vertex -5 -8.66025 9
      vertex -1.3366 -2.67082 5
      vertex -1.12857 -2.76345 5
    endloop
  endfacet
  facet normal -0.202611 -0.455137 -0.867064
    outer loop
      vertex -1.3366 -2.67082 5
      vertex -5 -8.66025 9
      vertex -1.5 -2.59808 5
    endloop
  endfacet
  facet normal -0.202631 -0.455126 -0.867065
    outer loop
      vertex -5 -8.66025 9
      vertex -1.12857 -2.76345 5
      vertex -0.927051 -2.85317 5
    endloop
  endfacet
  facet normal -0.103561 -0.48731 -0.867066
    outer loop
      vertex -1.04528 -9.94522 9
      vertex -0.550219 -2.93327 5
      vertex -0.379925 -2.96946 5
    endloop
  endfacet
  facet normal -0.103645 -0.4873 -0.867062
    outer loop
      vertex -1.04528 -9.94522 9
      vertex -0.379925 -2.96946 5
      vertex -0.313585 -2.98357 5
    endloop
  endfacet
  facet normal -0.103583 -0.487308 -0.867065
    outer loop
      vertex -0.550219 -2.93327 5
      vertex -1.04528 -9.94522 9
      vertex -0.927051 -2.85317 5
    endloop
  endfacet
  facet normal -0.202634 -0.455124 -0.867065
    outer loop
      vertex -3.09017 -9.51056 9
      vertex -5 -8.66025 9
      vertex -0.927051 -2.85317 5
    endloop
  endfacet
  facet normal -0.103583 0.487308 -0.867065
    outer loop
      vertex -1.04528 9.94522 9
      vertex -0.550219 2.93327 5
      vertex -0.927051 2.85317 5
    endloop
  endfacet
  facet normal -0.103561 0.48731 -0.867066
    outer loop
      vertex -0.550219 2.93327 5
      vertex -1.04528 9.94522 9
      vertex -0.379925 2.96946 5
    endloop
  endfacet
  facet normal -0.103645 0.4873 -0.867062
    outer loop
      vertex -0.379925 2.96946 5
      vertex -1.04528 9.94522 9
      vertex -0.313585 2.98357 5
    endloop
  endfacet
  facet normal 0.473812 0.15395 -0.867065
    outer loop
      vertex 2.89117 0.756906 5
      vertex 9.13545 4.06737 9
      vertex 2.93444 0.623734 5
    endloop
  endfacet
  facet normal 0.473816 0.153941 -0.867064
    outer loop
      vertex 2.82305 0.966573 5
      vertex 9.13545 4.06737 9
      vertex 2.89117 0.756906 5
    endloop
  endfacet
  facet normal 0.473813 0.153948 -0.867065
    outer loop
      vertex 9.13545 4.06737 9
      vertex 2.82305 0.966573 5
      vertex 2.74064 1.22021 5
    endloop
  endfacet
  facet normal 0.473811 0.153952 -0.867065
    outer loop
      vertex 9.78148 2.07912 9
      vertex 2.93444 0.623734 5
      vertex 9.13545 4.06737 9
    endloop
  endfacet
  facet normal 0.43145 0.249097 -0.867065
    outer loop
      vertex 9.13545 4.06737 9
      vertex 2.42705 1.76336 5
      vertex 8.09017 5.87785 9
    endloop
  endfacet
  facet normal -0.495466 -0.0520745 -0.867065
    outer loop
      vertex -9.78148 -2.07912 9
      vertex -10 0 9
      vertex -3 0 5
    endloop
  endfacet
  facet normal -0.473811 0.153952 -0.867065
    outer loop
      vertex -2.93444 0.623734 5
      vertex -9.78148 2.07912 9
      vertex -9.13545 4.06737 9
    endloop
  endfacet
  facet normal -0.370227 0.333361 -0.867066
    outer loop
      vertex -2.42705 1.76336 5
      vertex -6.69131 7.43145 9
      vertex -2.00739 2.22943 5
    endloop
  endfacet
  facet normal -0.370232 0.333357 -0.867065
    outer loop
      vertex -2.42705 1.76336 5
      vertex -8.09017 5.87785 9
      vertex -6.69131 7.43145 9
    endloop
  endfacet
  facet normal -0.29283 -0.403049 -0.867065
    outer loop
      vertex -5 -8.66025 9
      vertex -6.69131 -7.43145 9
      vertex -1.5 -2.59808 5
    endloop
  endfacet
  facet normal 0.103583 0.487308 -0.867065
    outer loop
      vertex 0.550219 2.93327 5
      vertex 1.04528 9.94522 9
      vertex 0.927051 2.85317 5
    endloop
  endfacet
  facet normal 0.103561 0.48731 -0.867066
    outer loop
      vertex 0.379925 2.96946 5
      vertex 1.04528 9.94522 9
      vertex 0.550219 2.93327 5
    endloop
  endfacet
  facet normal 0.103645 0.4873 -0.867062
    outer loop
      vertex 1.04528 9.94522 9
      vertex 0.379925 2.96946 5
      vertex 0.313585 2.98357 5
    endloop
  endfacet
  facet normal 0.103582 0.487308 -0.867065
    outer loop
      vertex 3.09017 9.51056 9
      vertex 0.927051 2.85317 5
      vertex 1.04528 9.94522 9
    endloop
  endfacet
  facet normal 0.29283 0.403049 -0.867065
    outer loop
      vertex 6.69131 7.43145 9
      vertex 1.5 2.59808 5
      vertex 5 8.66025 9
    endloop
  endfacet
  facet normal 0.431449 0.249099 -0.867065
    outer loop
      vertex 2.58073 1.49718 5
      vertex 9.13545 4.06737 9
      vertex 2.74064 1.22021 5
    endloop
  endfacet
  facet normal 0.431446 0.249106 -0.867064
    outer loop
      vertex 2.47865 1.67398 5
      vertex 9.13545 4.06737 9
      vertex 2.58073 1.49718 5
    endloop
  endfacet
  facet normal 0.431455 0.249084 -0.867066
    outer loop
      vertex 9.13545 4.06737 9
      vertex 2.47865 1.67398 5
      vertex 2.42705 1.76336 5
    endloop
  endfacet
  facet normal -0.473812 0.15395 -0.867065
    outer loop
      vertex -9.13545 4.06737 9
      vertex -2.89117 0.756906 5
      vertex -2.93444 0.623734 5
    endloop
  endfacet
  facet normal -0.473813 0.153948 -0.867065
    outer loop
      vertex -2.82305 0.966573 5
      vertex -9.13545 4.06737 9
      vertex -2.74064 1.22021 5
    endloop
  endfacet
  facet normal -0.473816 0.153941 -0.867064
    outer loop
      vertex -2.89117 0.756906 5
      vertex -9.13545 4.06737 9
      vertex -2.82305 0.966573 5
    endloop
  endfacet
  facet normal -0.431449 0.249099 -0.867065
    outer loop
      vertex -9.13545 4.06737 9
      vertex -2.58073 1.49718 5
      vertex -2.74064 1.22021 5
    endloop
  endfacet
  facet normal -0.431455 0.249084 -0.867066
    outer loop
      vertex -2.47865 1.67398 5
      vertex -9.13545 4.06737 9
      vertex -2.42705 1.76336 5
    endloop
  endfacet
  facet normal -0.431446 0.249106 -0.867064
    outer loop
      vertex -2.58073 1.49718 5
      vertex -9.13545 4.06737 9
      vertex -2.47865 1.67398 5
    endloop
  endfacet
  facet normal -0.292863 0.403021 -0.867067
    outer loop
      vertex -6.69131 7.43145 9
      vertex -1.98028 2.24913 5
      vertex -2.00739 2.22943 5
    endloop
  endfacet
  facet normal -0.292829 0.40305 -0.867065
    outer loop
      vertex -1.88458 2.31867 5
      vertex -6.69131 7.43145 9
      vertex -1.5 2.59808 5
    endloop
  endfacet
  facet normal -0.292857 0.403026 -0.867067
    outer loop
      vertex -1.98028 2.24913 5
      vertex -6.69131 7.43145 9
      vertex -1.88458 2.31867 5
    endloop
  endfacet
  facet normal -0.292857 -0.403026 -0.867067
    outer loop
      vertex -6.69131 -7.43145 9
      vertex -1.98028 -2.24913 5
      vertex -1.88458 -2.31867 5
    endloop
  endfacet
  facet normal -0.292863 -0.403021 -0.867067
    outer loop
      vertex -1.98028 -2.24913 5
      vertex -6.69131 -7.43145 9
      vertex -2.00739 -2.22943 5
    endloop
  endfacet
  facet normal -0.292829 -0.40305 -0.867065
    outer loop
      vertex -6.69131 -7.43145 9
      vertex -1.88458 -2.31867 5
      vertex -1.5 -2.59808 5
    endloop
  endfacet
  facet normal -0.370227 -0.333361 -0.867066
    outer loop
      vertex -2.00739 -2.22943 5
      vertex -6.69131 -7.43145 9
      vertex -2.42705 -1.76336 5
    endloop
  endfacet
  facet normal 0.292863 0.403021 -0.867067
    outer loop
      vertex 1.98028 2.24913 5
      vertex 6.69131 7.43145 9
      vertex 2.00739 2.22943 5
    endloop
  endfacet
  facet normal 0.292857 0.403026 -0.867067
    outer loop
      vertex 1.88458 2.31867 5
      vertex 6.69131 7.43145 9
      vertex 1.98028 2.24913 5
    endloop
  endfacet
  facet normal 0.292829 0.40305 -0.867065
    outer loop
      vertex 6.69131 7.43145 9
      vertex 1.88458 2.31867 5
      vertex 1.5 2.59808 5
    endloop
  endfacet
  facet normal 0.202611 0.455137 -0.867064
    outer loop
      vertex 1.3366 2.67082 5
      vertex 5 8.66025 9
      vertex 1.5 2.59808 5
    endloop
  endfacet
  facet normal 0.20265 0.455115 -0.867066
    outer loop
      vertex 1.12857 2.76345 5
      vertex 5 8.66025 9
      vertex 1.3366 2.67082 5
    endloop
  endfacet
  facet normal 0.202631 0.455126 -0.867065
    outer loop
      vertex 5 8.66025 9
      vertex 1.12857 2.76345 5
      vertex 0.927051 2.85317 5
    endloop
  endfacet
  facet normal 0.370227 0.333361 -0.867066
    outer loop
      vertex 2.42705 1.76336 5
      vertex 2.00739 2.22943 5
      vertex 6.69131 7.43145 9
    endloop
  endfacet
  facet normal 0.370232 0.333357 -0.867065
    outer loop
      vertex 8.09017 5.87785 9
      vertex 2.42705 1.76336 5
      vertex 6.69131 7.43145 9
    endloop
  endfacet
  facet normal 0.962651 0.101183 0.251126
    outer loop
      vertex 10 0 9
      vertex 5.95394 1.26555 24
      vertex 6.08696 0 24
    endloop
  endfacet
  facet normal 0.962652 0.101177 0.251127
    outer loop
      vertex 9.78148 2.07912 9
      vertex 5.95394 1.26555 24
      vertex 10 0 9
    endloop
  endfacet
  facet normal -0.962651 -0.101183 0.251126
    outer loop
      vertex -6.08696 0 24
      vertex -10 0 9
      vertex -5.95394 -1.26555 24
    endloop
  endfacet
  facet normal 0.920577 0.299121 0.251127
    outer loop
      vertex 5.69227 2.0709 24
      vertex 9.13545 4.06737 9
      vertex 5.56071 2.47579 24
    endloop
  endfacet
  facet normal 0.920577 0.29912 0.251127
    outer loop
      vertex 5.82239 1.67044 24
      vertex 9.13545 4.06737 9
      vertex 5.69227 2.0709 24
    endloop
  endfacet
  facet normal 0.920584 0.299101 0.251125
    outer loop
      vertex 9.13545 4.06737 9
      vertex 5.82239 1.67044 24
      vertex 5.95394 1.26555 24
    endloop
  endfacet
  facet normal 0.568956 0.783087 0.251125
    outer loop
      vertex 5 8.66025 9
      vertex 3.72855 4.77373 24
      vertex 4.07297 4.52349 24
    endloop
  endfacet
  facet normal 0.568939 0.783099 0.251127
    outer loop
      vertex 3.72855 4.77373 24
      vertex 5 8.66025 9
      vertex 3.3879 5.02122 24
    endloop
  endfacet
  facet normal 0.568956 0.783087 0.251126
    outer loop
      vertex 3.3879 5.02122 24
      vertex 5 8.66025 9
      vertex 3.04348 5.27146 24
    endloop
  endfacet
  facet normal 0 -0.967954 0.251127
    outer loop
      vertex -1.04528 -9.94522 9
      vertex -0.210534 -6.05361 24
      vertex -0.63626 -6.05361 24
    endloop
  endfacet
  facet normal 0 -0.967954 0.251127
    outer loop
      vertex -0.210534 -6.05361 24
      vertex -1.04528 -9.94522 9
      vertex 0.210534 -6.05361 24
    endloop
  endfacet
  facet normal 0 -0.967954 0.251127
    outer loop
      vertex 1.04528 -9.94522 9
      vertex 0.210534 -6.05361 24
      vertex -1.04528 -9.94522 9
    endloop
  endfacet
  facet normal 0 -0.967954 0.251127
    outer loop
      vertex 0.210534 -6.05361 24
      vertex 1.04528 -9.94522 9
      vertex 0.63626 -6.05361 24
    endloop
  endfacet
  facet normal 0.838273 -0.483977 0.251126
    outer loop
      vertex 9.13545 -4.06737 9
      vertex 5.56071 -2.47579 24
      vertex 8.09017 -5.87785 9
    endloop
  endfacet
  facet normal -0.201248 0.946802 0.251127
    outer loop
      vertex -1.04528 9.94522 9
      vertex -1.88097 5.78904 24
      vertex -0.63626 6.05361 24
    endloop
  endfacet
  facet normal -0.962652 0.101177 0.251127
    outer loop
      vertex -9.78148 2.07912 9
      vertex -10 0 9
      vertex -5.95394 1.26555 24
    endloop
  endfacet
  facet normal -0.393702 0.88427 0.251126
    outer loop
      vertex -3.09017 9.51056 9
      vertex -5 8.66025 9
      vertex -1.88097 5.78904 24
    endloop
  endfacet
  facet normal -0.838273 -0.483977 0.251126
    outer loop
      vertex -5.56071 -2.47579 24
      vertex -9.13545 -4.06737 9
      vertex -8.09017 -5.87785 9
    endloop
  endfacet
  facet normal -0.920584 -0.299101 0.251125
    outer loop
      vertex -9.13545 -4.06737 9
      vertex -5.82239 -1.67044 24
      vertex -5.95394 -1.26555 24
    endloop
  endfacet
  facet normal -0.920577 -0.29912 0.251127
    outer loop
      vertex -5.82239 -1.67044 24
      vertex -9.13545 -4.06737 9
      vertex -5.69227 -2.0709 24
    endloop
  endfacet
  facet normal -0.920577 -0.299121 0.251127
    outer loop
      vertex -5.69227 -2.0709 24
      vertex -9.13545 -4.06737 9
      vertex -5.56071 -2.47579 24
    endloop
  endfacet
  facet normal 0.568947 -0.783093 0.251127
    outer loop
      vertex 6.69131 -7.43145 9
      vertex 4.07297 -4.52349 24
      vertex 5 -8.66025 9
    endloop
  endfacet
  facet normal 0.920578 -0.299118 0.251127
    outer loop
      vertex 9.78148 -2.07912 9
      vertex 5.95394 -1.26555 24
      vertex 9.13545 -4.06737 9
    endloop
  endfacet
  facet normal 0.838273 0.483977 0.251126
    outer loop
      vertex 8.09017 5.87785 9
      vertex 5.56071 2.47579 24
      vertex 9.13545 4.06737 9
    endloop
  endfacet
  facet normal 0.920578 0.299118 0.251127
    outer loop
      vertex 9.13545 4.06737 9
      vertex 5.95394 1.26555 24
      vertex 9.78148 2.07912 9
    endloop
  endfacet
  facet normal -0.962651 0.101183 0.251126
    outer loop
      vertex -5.95394 1.26555 24
      vertex -10 0 9
      vertex -6.08696 0 24
    endloop
  endfacet
  facet normal 0.719332 0.647686 0.251127
    outer loop
      vertex 8.09017 5.87785 9
      vertex 4.07297 4.52349 24
      vertex 4.92445 3.57782 24
    endloop
  endfacet
  facet normal 0.201248 0.946802 0.251127
    outer loop
      vertex 1.04528 9.94522 9
      vertex 0.63626 6.05361 24
      vertex 1.88097 5.78904 24
    endloop
  endfacet
  facet normal -0.920578 -0.299118 0.251127
    outer loop
      vertex -5.95394 -1.26555 24
      vertex -9.78148 -2.07912 9
      vertex -9.13545 -4.06737 9
    endloop
  endfacet
  facet normal -0.962652 -0.101177 0.251127
    outer loop
      vertex -5.95394 -1.26555 24
      vertex -10 0 9
      vertex -9.78148 -2.07912 9
    endloop
  endfacet
  facet normal -0.201251 -0.946802 0.251126
    outer loop
      vertex -1.88097 -5.78904 24
      vertex -3.09017 -9.51056 9
      vertex -1.04528 -9.94522 9
    endloop
  endfacet
  facet normal -0.568956 -0.783087 0.251125
    outer loop
      vertex -5 -8.66025 9
      vertex -3.72855 -4.77373 24
      vertex -4.07297 -4.52349 24
    endloop
  endfacet
  facet normal -0.568939 -0.783099 0.251127
    outer loop
      vertex -3.72855 -4.77373 24
      vertex -5 -8.66025 9
      vertex -3.3879 -5.02122 24
    endloop
  endfacet
  facet normal -0.568956 -0.783087 0.251126
    outer loop
      vertex -3.3879 -5.02122 24
      vertex -5 -8.66025 9
      vertex -3.04348 -5.27146 24
    endloop
  endfacet
  facet normal -0.719332 -0.647686 0.251127
    outer loop
      vertex -4.92445 -3.57782 24
      vertex -8.09017 -5.87785 9
      vertex -4.07297 -4.52349 24
    endloop
  endfacet
  facet normal 0.201248 -0.946802 0.251127
    outer loop
      vertex 1.88097 -5.78904 24
      vertex 0.63626 -6.05361 24
      vertex 1.04528 -9.94522 9
    endloop
  endfacet
  facet normal 0.201251 -0.946802 0.251126
    outer loop
      vertex 1.88097 -5.78904 24
      vertex 1.04528 -9.94522 9
      vertex 3.09017 -9.51056 9
    endloop
  endfacet
  facet normal 0.719332 -0.647686 0.251127
    outer loop
      vertex 4.92445 -3.57782 24
      vertex 4.07297 -4.52349 24
      vertex 8.09017 -5.87785 9
    endloop
  endfacet
  facet normal 0.719332 -0.647686 0.251127
    outer loop
      vertex 8.09017 -5.87785 9
      vertex 4.07297 -4.52349 24
      vertex 6.69131 -7.43145 9
    endloop
  endfacet
  facet normal 0.920577 -0.29912 0.251127
    outer loop
      vertex 9.13545 -4.06737 9
      vertex 5.82239 -1.67044 24
      vertex 5.69227 -2.0709 24
    endloop
  endfacet
  facet normal 0.920577 -0.299121 0.251127
    outer loop
      vertex 9.13545 -4.06737 9
      vertex 5.69227 -2.0709 24
      vertex 5.56071 -2.47579 24
    endloop
  endfacet
  facet normal 0.920584 -0.299101 0.251125
    outer loop
      vertex 5.82239 -1.67044 24
      vertex 9.13545 -4.06737 9
      vertex 5.95394 -1.26555 24
    endloop
  endfacet
  facet normal 0 0 1
    outer loop
      vertex 6.08696 0 24
      vertex 5.82239 -1.67044 24
      vertex 5.95394 -1.26555 24
    endloop
  endfacet
  facet normal 0 0 1
    outer loop
      vertex 5.95394 1.26555 24
      vertex 5.82239 1.67044 24
      vertex 6.08696 0 24
    endloop
  endfacet
  facet normal -0 -0 -1
    outer loop
      vertex 5.78904 1.88097 24
      vertex 5.82239 1.67044 24
      vertex 5.69227 2.0709 24
    endloop
  endfacet
  facet normal -0 0 -1
    outer loop
      vertex 0.210534 -6.05361 24
      vertex 0 -6.08696 24
      vertex -0.210534 -6.05361 24
    endloop
  endfacet
  facet normal 0 -0 -1
    outer loop
      vertex 0 6.08696 24
      vertex 0.210534 6.05361 24
      vertex -0.210534 6.05361 24
    endloop
  endfacet
  facet normal 0 0 1
    outer loop
      vertex 4.07297 4.52349 24
      vertex 3.72855 4.77373 24
      vertex 4.92445 3.57782 24
    endloop
  endfacet
  facet normal 0 0 1
    outer loop
      vertex 5.56071 2.47579 24
      vertex 4.92445 3.57782 24
      vertex 5.69227 2.0709 24
    endloop
  endfacet
  facet normal 0 0 1
    outer loop
      vertex -5.82239 -1.67044 24
      vertex -6.08696 0 24
      vertex -5.95394 -1.26555 24
    endloop
  endfacet
  facet normal -0 0 1
    outer loop
      vertex -5.95394 1.26555 24
      vertex -6.08696 0 24
      vertex -5.82239 1.67044 24
    endloop
  endfacet
  facet normal 0 0 1
    outer loop
      vertex 1.88097 -5.78904 24
      vertex 0.210534 -6.05361 24
      vertex 0.63626 -6.05361 24
    endloop
  endfacet
  facet normal 0 0 1
    outer loop
      vertex 3.3879 -5.02122 24
      vertex 1.88097 -5.78904 24
      vertex 3.04348 -5.27146 24
    endloop
  endfacet
  facet normal -0 0 1
    outer loop
      vertex -3.04348 5.27146 24
      vertex -3.3879 5.02122 24
      vertex -1.88097 5.78904 24
    endloop
  endfacet
  facet normal -0 0 1
    outer loop
      vertex -0.63626 6.05361 24
      vertex -1.88097 5.78904 24
      vertex -0.210534 6.05361 24
    endloop
  endfacet
  facet normal 0 0 1
    outer loop
      vertex 0.63626 6.05361 24
      vertex 0.210534 6.05361 24
      vertex 1.88097 5.78904 24
    endloop
  endfacet
  facet normal 0 0 1
    outer loop
      vertex 3.04348 5.27146 24
      vertex 1.88097 5.78904 24
      vertex 3.3879 5.02122 24
    endloop
  endfacet
  facet normal -0 0 1
    outer loop
      vertex -5.56071 2.47579 24
      vertex -5.69227 2.0709 24
      vertex -4.92445 3.57782 24
    endloop
  endfacet
  facet normal -0 0 1
    outer loop
      vertex -4.07297 4.52349 24
      vertex -4.92445 3.57782 24
      vertex -3.72855 4.77373 24
    endloop
  endfacet
  facet normal 0 -0 -1
    outer loop
      vertex -3.57782 4.92445 24
      vertex -3.3879 5.02122 24
      vertex -3.72855 4.77373 24
    endloop
  endfacet
  facet normal 0 -0 -1
    outer loop
      vertex -5.78904 1.88097 24
      vertex -5.69227 2.0709 24
      vertex -5.82239 1.67044 24
    endloop
  endfacet
  facet normal 0 0 1
    outer loop
      vertex -4.92445 -3.57782 24
      vertex -5.69227 -2.0709 24
      vertex -5.56071 -2.47579 24
    endloop
  endfacet
  facet normal 0 0 1
    outer loop
      vertex -3.72855 -4.77373 24
      vertex -4.92445 -3.57782 24
      vertex -4.07297 -4.52349 24
    endloop
  endfacet
  facet normal -0 -0 -1
    outer loop
      vertex 3.57782 4.92445 24
      vertex 3.72855 4.77373 24
      vertex 3.3879 5.02122 24
    endloop
  endfacet
  facet normal 0 0 1
    outer loop
      vertex 4.92445 -3.57782 24
      vertex 3.72855 -4.77373 24
      vertex 4.07297 -4.52349 24
    endloop
  endfacet
  facet normal 0 0 1
    outer loop
      vertex 5.69227 -2.0709 24
      vertex 4.92445 -3.57782 24
      vertex 5.56071 -2.47579 24
    endloop
  endfacet
  facet normal 0 0 -1
    outer loop
      vertex 3.72855 -4.77373 24
      vertex 3.57782 -4.92445 24
      vertex 3.3879 -5.02122 24
    endloop
  endfacet
  facet normal 0 0 1
    outer loop
      vertex -1.88097 -5.78904 24
      vertex -3.3879 -5.02122 24
      vertex -3.04348 -5.27146 24
    endloop
  endfacet
  facet normal 0 0 1
    outer loop
      vertex -0.210534 -6.05361 24
      vertex -1.88097 -5.78904 24
      vertex -0.63626 -6.05361 24
    endloop
  endfacet
  facet normal 0 0 -1
    outer loop
      vertex -3.3879 -5.02122 24
      vertex -3.57782 -4.92445 24
      vertex -3.72855 -4.77373 24
    endloop
  endfacet
  facet normal 0 0 -1
    outer loop
      vertex -5.69227 -2.0709 24
      vertex -5.78904 -1.88097 24
      vertex -5.82239 -1.67044 24
    endloop
  endfacet
  facet normal 0 0 -1
    outer loop
      vertex 5.82239 -1.67044 24
      vertex 5.78904 -1.88097 24
      vertex 5.69227 -2.0709 24
    endloop
  endfacet
  facet normal -0.920577 0.299121 0.251127
    outer loop
      vertex -9.13545 4.06737 9
      vertex -5.69227 2.0709 24
      vertex -5.56071 2.47579 24
    endloop
  endfacet
  facet normal -0.920577 0.29912 0.251127
    outer loop
      vertex -9.13545 4.06737 9
      vertex -5.82239 1.67044 24
      vertex -5.69227 2.0709 24
    endloop
  endfacet
  facet normal -0.920584 0.299101 0.251125
    outer loop
      vertex -5.82239 1.67044 24
      vertex -9.13545 4.06737 9
      vertex -5.95394 1.26555 24
    endloop
  endfacet
  facet normal -0.719332 0.647686 0.251127
    outer loop
      vertex -6.69131 7.43145 9
      vertex -8.09017 5.87785 9
      vertex -4.07297 4.52349 24
    endloop
  endfacet
  facet normal -0.201251 0.946802 0.251126
    outer loop
      vertex -1.04528 9.94522 9
      vertex -3.09017 9.51056 9
      vertex -1.88097 5.78904 24
    endloop
  endfacet
  facet normal 0.838272 0.483979 0.251127
    outer loop
      vertex 8.09017 5.87785 9
      vertex 4.92445 3.57782 24
      vertex 5.56071 2.47579 24
    endloop
  endfacet
  facet normal 0.719332 0.647686 0.251127
    outer loop
      vertex 6.69131 7.43145 9
      vertex 4.07297 4.52349 24
      vertex 8.09017 5.87785 9
    endloop
  endfacet
  facet normal 0.568947 0.783093 0.251127
    outer loop
      vertex 5 8.66025 9
      vertex 4.07297 4.52349 24
      vertex 6.69131 7.43145 9
    endloop
  endfacet
  facet normal 0.393702 0.88427 0.251126
    outer loop
      vertex 3.09017 9.51056 9
      vertex 1.88097 5.78904 24
      vertex 5 8.66025 9
    endloop
  endfacet
  facet normal 0 0.967954 0.251127
    outer loop
      vertex 1.04528 9.94522 9
      vertex 0.210534 6.05361 24
      vertex 0.63626 6.05361 24
    endloop
  endfacet
  facet normal 0 0.967954 0.251127
    outer loop
      vertex 0.210534 6.05361 24
      vertex 1.04528 9.94522 9
      vertex -0.210534 6.05361 24
    endloop
  endfacet
  facet normal -0 0.967954 0.251127
    outer loop
      vertex -1.04528 9.94522 9
      vertex -0.210534 6.05361 24
      vertex 1.04528 9.94522 9
    endloop
  endfacet
  facet normal 0 0.967954 0.251127
    outer loop
      vertex -0.210534 6.05361 24
      vertex -1.04528 9.94522 9
      vertex -0.63626 6.05361 24
    endloop
  endfacet
  facet normal -0.201248 -0.946802 0.251127
    outer loop
      vertex -0.63626 -6.05361 24
      vertex -1.88097 -5.78904 24
      vertex -1.04528 -9.94522 9
    endloop
  endfacet
  facet normal -0.838272 -0.483979 0.251127
    outer loop
      vertex -5.56071 -2.47579 24
      vertex -8.09017 -5.87785 9
      vertex -4.92445 -3.57782 24
    endloop
  endfacet
  facet normal 0.393702 -0.88427 0.251126
    outer loop
      vertex 5 -8.66025 9
      vertex 1.88097 -5.78904 24
      vertex 3.09017 -9.51056 9
    endloop
  endfacet
  facet normal 0.838272 -0.483979 0.251127
    outer loop
      vertex 5.56071 -2.47579 24
      vertex 4.92445 -3.57782 24
      vertex 8.09017 -5.87785 9
    endloop
  endfacet
  facet normal 0.962652 -0.101177 0.251127
    outer loop
      vertex 10 0 9
      vertex 5.95394 -1.26555 24
      vertex 9.78148 -2.07912 9
    endloop
  endfacet
  facet normal 0.962651 -0.101183 0.251126
    outer loop
      vertex 6.08696 0 24
      vertex 5.95394 -1.26555 24
      vertex 10 0 9
    endloop
  endfacet
  facet normal -0.920578 0.299118 0.251127
    outer loop
      vertex -9.13545 4.06737 9
      vertex -9.78148 2.07912 9
      vertex -5.95394 1.26555 24
    endloop
  endfacet
  facet normal -0.568947 0.783093 0.251127
    outer loop
      vertex -5 8.66025 9
      vertex -6.69131 7.43145 9
      vertex -4.07297 4.52349 24
    endloop
  endfacet
  facet normal -0.838273 0.483977 0.251126
    outer loop
      vertex -8.09017 5.87785 9
      vertex -9.13545 4.06737 9
      vertex -5.56071 2.47579 24
    endloop
  endfacet
  facet normal 0.393701 0.884271 0.251126
    outer loop
      vertex 5 8.66025 9
      vertex 1.88097 5.78904 24
      vertex 3.04348 5.27146 24
    endloop
  endfacet
  facet normal 0.201251 0.946802 0.251126
    outer loop
      vertex 3.09017 9.51056 9
      vertex 1.04528 9.94522 9
      vertex 1.88097 5.78904 24
    endloop
  endfacet
  facet normal -0.393702 -0.88427 0.251126
    outer loop
      vertex -1.88097 -5.78904 24
      vertex -5 -8.66025 9
      vertex -3.09017 -9.51056 9
    endloop
  endfacet
  facet normal -0.393701 -0.884271 0.251126
    outer loop
      vertex -3.04348 -5.27146 24
      vertex -5 -8.66025 9
      vertex -1.88097 -5.78904 24
    endloop
  endfacet
  facet normal -0.568947 -0.783093 0.251127
    outer loop
      vertex -4.07297 -4.52349 24
      vertex -6.69131 -7.43145 9
      vertex -5 -8.66025 9
    endloop
  endfacet
  facet normal -0.719332 -0.647686 0.251127
    outer loop
      vertex -4.07297 -4.52349 24
      vertex -8.09017 -5.87785 9
      vertex -6.69131 -7.43145 9
    endloop
  endfacet
  facet normal 0.393701 -0.884271 0.251126
    outer loop
      vertex 3.04348 -5.27146 24
      vertex 1.88097 -5.78904 24
      vertex 5 -8.66025 9
    endloop
  endfacet
  facet normal 0.568956 -0.783087 0.251126
    outer loop
      vertex 5 -8.66025 9
      vertex 3.3879 -5.02122 24
      vertex 3.04348 -5.27146 24
    endloop
  endfacet
  facet normal 0.568939 -0.783099 0.251127
    outer loop
      vertex 3.3879 -5.02122 24
      vertex 5 -8.66025 9
      vertex 3.72855 -4.77373 24
    endloop
  endfacet
  facet normal 0.568956 -0.783087 0.251125
    outer loop
      vertex 3.72855 -4.77373 24
      vertex 5 -8.66025 9
      vertex 4.07297 -4.52349 24
    endloop
  endfacet
  facet normal -0.568956 0.783087 0.251126
    outer loop
      vertex -5 8.66025 9
      vertex -3.3879 5.02122 24
      vertex -3.04348 5.27146 24
    endloop
  endfacet
  facet normal -0.568939 0.783099 0.251127
    outer loop
      vertex -3.3879 5.02122 24
      vertex -5 8.66025 9
      vertex -3.72855 4.77373 24
    endloop
  endfacet
  facet normal -0.568956 0.783087 0.251125
    outer loop
      vertex -3.72855 4.77373 24
      vertex -5 8.66025 9
      vertex -4.07297 4.52349 24
    endloop
  endfacet
  facet normal -0.393701 0.884271 0.251126
    outer loop
      vertex -1.88097 5.78904 24
      vertex -5 8.66025 9
      vertex -3.04348 5.27146 24
    endloop
  endfacet
  facet normal -0.719332 0.647686 0.251127
    outer loop
      vertex -4.07297 4.52349 24
      vertex -8.09017 5.87785 9
      vertex -4.92445 3.57782 24
    endloop
  endfacet
  facet normal -0.838272 0.483979 0.251127
    outer loop
      vertex -4.92445 3.57782 24
      vertex -8.09017 5.87785 9
      vertex -5.56071 2.47579 24
    endloop
  endfacet
  facet normal 0.956445 0.15151 0.249513
    outer loop
      vertex 4 0 32
      vertex 5.82239 1.67044 24
      vertex 5.78904 1.88097 24
    endloop
  endfacet
  facet normal 0.95645 0.151486 0.249509
    outer loop
      vertex 5.82239 1.67044 24
      vertex 4 0 32
      vertex 6.08696 0 24
    endloop
  endfacet
  facet normal 0 0 1
    outer loop
      vertex 3.80423 1.23607 32
      vertex 3.80423 -1.23607 32
      vertex 4 0 32
    endloop
  endfacet
  facet normal 0 0 1
    outer loop
      vertex 3.23607 2.35114 32
      vertex 3.80423 -1.23607 32
      vertex 3.80423 1.23607 32
    endloop
  endfacet
  facet normal 0 0 1
    outer loop
      vertex 3.23607 2.35114 32
      vertex 3.23607 -2.35114 32
      vertex 3.80423 -1.23607 32
    endloop
  endfacet
  facet normal 0 0 1
    outer loop
      vertex 2.35114 3.23607 32
      vertex 3.23607 -2.35114 32
      vertex 3.23607 2.35114 32
    endloop
  endfacet
  facet normal 0 0 1
    outer loop
      vertex 2.35114 3.23607 32
      vertex 2.35114 -3.23607 32
      vertex 3.23607 -2.35114 32
    endloop
  endfacet
  facet normal 0 0 1
    outer loop
      vertex 1.23607 3.80423 32
      vertex 2.35114 -3.23607 32
      vertex 2.35114 3.23607 32
    endloop
  endfacet
  facet normal 0 0 1
    outer loop
      vertex 1.23607 3.80423 32
      vertex 1.23607 -3.80423 32
      vertex 2.35114 -3.23607 32
    endloop
  endfacet
  facet normal 0 0 1
    outer loop
      vertex 0 4 32
      vertex 1.23607 -3.80423 32
      vertex 1.23607 3.80423 32
    endloop
  endfacet
  facet normal 0 0 1
    outer loop
      vertex 0 4 32
      vertex 0 -4 32
      vertex 1.23607 -3.80423 32
    endloop
  endfacet
  facet normal -0 0 1
    outer loop
      vertex -1.23607 3.80423 32
      vertex 0 -4 32
      vertex 0 4 32
    endloop
  endfacet
  facet normal 0 0 1
    outer loop
      vertex -1.23607 3.80423 32
      vertex -1.23607 -3.80423 32
      vertex 0 -4 32
    endloop
  endfacet
  facet normal -0 0 1
    outer loop
      vertex -2.35114 3.23607 32
      vertex -1.23607 -3.80423 32
      vertex -1.23607 3.80423 32
    endloop
  endfacet
  facet normal 0 0 1
    outer loop
      vertex -2.35114 3.23607 32
      vertex -2.35114 -3.23607 32
      vertex -1.23607 -3.80423 32
    endloop
  endfacet
  facet normal -0 0 1
    outer loop
      vertex -3.23607 2.35114 32
      vertex -2.35114 -3.23607 32
      vertex -2.35114 3.23607 32
    endloop
  endfacet
  facet normal 0 0 1
    outer loop
      vertex -3.23607 2.35114 32
      vertex -3.23607 -2.35114 32
      vertex -2.35114 -3.23607 32
    endloop
  endfacet
  facet normal -0 0 1
    outer loop
      vertex -3.80423 1.23607 32
      vertex -3.23607 -2.35114 32
      vertex -3.23607 2.35114 32
    endloop
  endfacet
  facet normal 0 0 1
    outer loop
      vertex -3.80423 1.23607 32
      vertex -3.80423 -1.23607 32
      vertex -3.23607 -2.35114 32
    endloop
  endfacet
  facet normal 0 -0 1
    outer loop
      vertex -3.80423 -1.23607 32
      vertex -3.80423 1.23607 32
      vertex -4 0 32
    endloop
  endfacet
  facet normal 0.862825 0.439635 0.249508
    outer loop
      vertex 3.23607 2.35114 32
      vertex 5.69227 2.0709 24
      vertex 4.92445 3.57782 24
    endloop
  endfacet
  facet normal 0.862833 0.439617 0.249512
    outer loop
      vertex 5.69227 2.0709 24
      vertex 3.23607 2.35114 32
      vertex 5.78904 1.88097 24
    endloop
  endfacet
  facet normal 0.151508 -0.956447 0.249508
    outer loop
      vertex 0.210534 -6.05361 24
      vertex 0 -4 32
      vertex 0 -6.08696 24
    endloop
  endfacet
  facet normal 0.151486 -0.95645 0.249509
    outer loop
      vertex 0 -4 32
      vertex 0.210534 -6.05361 24
      vertex 1.88097 -5.78904 24
    endloop
  endfacet
  facet normal -0.151508 0.956447 0.249508
    outer loop
      vertex -0.210534 6.05361 24
      vertex 0 4 32
      vertex 0 6.08696 24
    endloop
  endfacet
  facet normal -0.151486 0.95645 0.249509
    outer loop
      vertex 0 4 32
      vertex -0.210534 6.05361 24
      vertex -1.88097 5.78904 24
    endloop
  endfacet
  facet normal 0.151484 -0.956451 0.249508
    outer loop
      vertex 1.23607 -3.80423 32
      vertex 0 -4 32
      vertex 1.88097 -5.78904 24
    endloop
  endfacet
  facet normal -0.439632 0.862826 0.249508
    outer loop
      vertex -3.3879 5.02122 24
      vertex -2.35114 3.23607 32
      vertex -1.88097 5.78904 24
    endloop
  endfacet
  facet normal -0.439635 0.862825 0.249508
    outer loop
      vertex -2.35114 3.23607 32
      vertex -3.3879 5.02122 24
      vertex -3.57782 4.92445 24
    endloop
  endfacet
  facet normal 0.439635 0.862825 0.249508
    outer loop
      vertex 3.3879 5.02122 24
      vertex 2.35114 3.23607 32
      vertex 3.57782 4.92445 24
    endloop
  endfacet
  facet normal 0.439632 0.862826 0.249508
    outer loop
      vertex 2.35114 3.23607 32
      vertex 3.3879 5.02122 24
      vertex 1.88097 5.78904 24
    endloop
  endfacet
  facet normal 0.151484 0.956451 0.249508
    outer loop
      vertex 1.88097 5.78904 24
      vertex 0 4 32
      vertex 1.23607 3.80423 32
    endloop
  endfacet
  facet normal 0.95645 -0.151486 0.249509
    outer loop
      vertex 4 0 32
      vertex 5.82239 -1.67044 24
      vertex 6.08696 0 24
    endloop
  endfacet
  facet normal 0.956445 -0.15151 0.249513
    outer loop
      vertex 5.82239 -1.67044 24
      vertex 4 0 32
      vertex 5.78904 -1.88097 24
    endloop
  endfacet
  facet normal -0.862825 0.439635 0.249508
    outer loop
      vertex -5.69227 2.0709 24
      vertex -3.23607 2.35114 32
      vertex -4.92445 3.57782 24
    endloop
  endfacet
  facet normal -0.862833 0.439617 0.249512
    outer loop
      vertex -3.23607 2.35114 32
      vertex -5.69227 2.0709 24
      vertex -5.78904 1.88097 24
    endloop
  endfacet
  facet normal -0.684746 0.68474 0.249509
    outer loop
      vertex -2.35114 3.23607 32
      vertex -3.72855 4.77373 24
      vertex -4.92445 3.57782 24
    endloop
  endfacet
  facet normal -0.68472 0.684765 0.24951
    outer loop
      vertex -3.72855 4.77373 24
      vertex -2.35114 3.23607 32
      vertex -3.57782 4.92445 24
    endloop
  endfacet
  facet normal -0.684743 0.684743 0.249508
    outer loop
      vertex -2.35114 3.23607 32
      vertex -4.92445 3.57782 24
      vertex -3.23607 2.35114 32
    endloop
  endfacet
  facet normal -0.862825 0.439634 0.249508
    outer loop
      vertex -3.23607 2.35114 32
      vertex -5.78904 1.88097 24
      vertex -3.80423 1.23607 32
    endloop
  endfacet
  facet normal -0.95645 0.151486 0.249509
    outer loop
      vertex -4 0 32
      vertex -5.82239 1.67044 24
      vertex -6.08696 0 24
    endloop
  endfacet
  facet normal -0.956445 0.15151 0.249513
    outer loop
      vertex -5.82239 1.67044 24
      vertex -4 0 32
      vertex -5.78904 1.88097 24
    endloop
  endfacet
  facet normal -0.862833 -0.439617 0.249512
    outer loop
      vertex -5.69227 -2.0709 24
      vertex -3.23607 -2.35114 32
      vertex -5.78904 -1.88097 24
    endloop
  endfacet
  facet normal -0.862825 -0.439635 0.249508
    outer loop
      vertex -3.23607 -2.35114 32
      vertex -5.69227 -2.0709 24
      vertex -4.92445 -3.57782 24
    endloop
  endfacet
  facet normal 0.151486 0.95645 0.249509
    outer loop
      vertex 0.210534 6.05361 24
      vertex 0 4 32
      vertex 1.88097 5.78904 24
    endloop
  endfacet
  facet normal 0.151508 0.956447 0.249508
    outer loop
      vertex 0 4 32
      vertex 0.210534 6.05361 24
      vertex 0 6.08696 24
    endloop
  endfacet
  facet normal -0.439634 0.862825 0.249508
    outer loop
      vertex -1.88097 5.78904 24
      vertex -2.35114 3.23607 32
      vertex -1.23607 3.80423 32
    endloop
  endfacet
  facet normal 0.439634 -0.862825 0.249508
    outer loop
      vertex 2.35114 -3.23607 32
      vertex 1.23607 -3.80423 32
      vertex 1.88097 -5.78904 24
    endloop
  endfacet
  facet normal 0.439632 -0.862826 0.249508
    outer loop
      vertex 3.3879 -5.02122 24
      vertex 2.35114 -3.23607 32
      vertex 1.88097 -5.78904 24
    endloop
  endfacet
  facet normal 0.439635 -0.862825 0.249508
    outer loop
      vertex 2.35114 -3.23607 32
      vertex 3.3879 -5.02122 24
      vertex 3.57782 -4.92445 24
    endloop
  endfacet
  facet normal -0.956451 0.151484 0.249508
    outer loop
      vertex -3.80423 1.23607 32
      vertex -5.78904 1.88097 24
      vertex -4 0 32
    endloop
  endfacet
  facet normal -0.684743 -0.684743 0.249508
    outer loop
      vertex -4.92445 -3.57782 24
      vertex -2.35114 -3.23607 32
      vertex -3.23607 -2.35114 32
    endloop
  endfacet
  facet normal -0.684746 -0.68474 0.249509
    outer loop
      vertex -3.72855 -4.77373 24
      vertex -2.35114 -3.23607 32
      vertex -4.92445 -3.57782 24
    endloop
  endfacet
  facet normal -0.68472 -0.684765 0.24951
    outer loop
      vertex -2.35114 -3.23607 32
      vertex -3.72855 -4.77373 24
      vertex -3.57782 -4.92445 24
    endloop
  endfacet
  facet normal -0.95645 -0.151486 0.249509
    outer loop
      vertex -5.82239 -1.67044 24
      vertex -4 0 32
      vertex -6.08696 0 24
    endloop
  endfacet
  facet normal -0.956445 -0.15151 0.249513
    outer loop
      vertex -4 0 32
      vertex -5.82239 -1.67044 24
      vertex -5.78904 -1.88097 24
    endloop
  endfacet
  facet normal -0.151484 0.956451 0.249508
    outer loop
      vertex 0 4 32
      vertex -1.88097 5.78904 24
      vertex -1.23607 3.80423 32
    endloop
  endfacet
  facet normal 0.862825 0.439634 0.249508
    outer loop
      vertex 5.78904 1.88097 24
      vertex 3.23607 2.35114 32
      vertex 3.80423 1.23607 32
    endloop
  endfacet
  facet normal 0.68472 0.684765 0.24951
    outer loop
      vertex 2.35114 3.23607 32
      vertex 3.72855 4.77373 24
      vertex 3.57782 4.92445 24
    endloop
  endfacet
  facet normal 0.684746 0.68474 0.249509
    outer loop
      vertex 3.72855 4.77373 24
      vertex 2.35114 3.23607 32
      vertex 4.92445 3.57782 24
    endloop
  endfacet
  facet normal 0.684743 0.684743 0.249508
    outer loop
      vertex 4.92445 3.57782 24
      vertex 2.35114 3.23607 32
      vertex 3.23607 2.35114 32
    endloop
  endfacet
  facet normal 0.439634 0.862825 0.249508
    outer loop
      vertex 1.88097 5.78904 24
      vertex 1.23607 3.80423 32
      vertex 2.35114 3.23607 32
    endloop
  endfacet
  facet normal -0.151486 -0.95645 0.249509
    outer loop
      vertex -0.210534 -6.05361 24
      vertex 0 -4 32
      vertex -1.88097 -5.78904 24
    endloop
  endfacet
  facet normal -0.151508 -0.956447 0.249508
    outer loop
      vertex 0 -4 32
      vertex -0.210534 -6.05361 24
      vertex 0 -6.08696 24
    endloop
  endfacet
  facet normal -0.439635 -0.862825 0.249508
    outer loop
      vertex -3.3879 -5.02122 24
      vertex -2.35114 -3.23607 32
      vertex -3.57782 -4.92445 24
    endloop
  endfacet
  facet normal -0.439632 -0.862826 0.249508
    outer loop
      vertex -2.35114 -3.23607 32
      vertex -3.3879 -5.02122 24
      vertex -1.88097 -5.78904 24
    endloop
  endfacet
  facet normal -0.956451 -0.151484 0.249508
    outer loop
      vertex -4 0 32
      vertex -5.78904 -1.88097 24
      vertex -3.80423 -1.23607 32
    endloop
  endfacet
  facet normal -0.862825 -0.439634 0.249508
    outer loop
      vertex -3.80423 -1.23607 32
      vertex -5.78904 -1.88097 24
      vertex -3.23607 -2.35114 32
    endloop
  endfacet
  facet normal 0.956451 0.151484 0.249508
    outer loop
      vertex 5.78904 1.88097 24
      vertex 3.80423 1.23607 32
      vertex 4 0 32
    endloop
  endfacet
  facet normal 0.862825 -0.439634 0.249508
    outer loop
      vertex 3.80423 -1.23607 32
      vertex 3.23607 -2.35114 32
      vertex 5.78904 -1.88097 24
    endloop
  endfacet
  facet normal 0.956451 -0.151484 0.249508
    outer loop
      vertex 4 0 32
      vertex 3.80423 -1.23607 32
      vertex 5.78904 -1.88097 24
    endloop
  endfacet
  facet normal -0.151484 -0.956451 0.249508
    outer loop
      vertex -1.23607 -3.80423 32
      vertex -1.88097 -5.78904 24
      vertex 0 -4 32
    endloop
  endfacet
  facet normal 0.684743 -0.684743 0.249508
    outer loop
      vertex 2.35114 -3.23607 32
      vertex 4.92445 -3.57782 24
      vertex 3.23607 -2.35114 32
    endloop
  endfacet
  facet normal 0.684746 -0.68474 0.249509
    outer loop
      vertex 2.35114 -3.23607 32
      vertex 3.72855 -4.77373 24
      vertex 4.92445 -3.57782 24
    endloop
  endfacet
  facet normal 0.68472 -0.684765 0.24951
    outer loop
      vertex 3.72855 -4.77373 24
      vertex 2.35114 -3.23607 32
      vertex 3.57782 -4.92445 24
    endloop
  endfacet
  facet normal 0.862833 -0.439617 0.249512
    outer loop
      vertex 3.23607 -2.35114 32
      vertex 5.69227 -2.0709 24
      vertex 5.78904 -1.88097 24
    endloop
  endfacet
  facet normal 0.862825 -0.439635 0.249508
    outer loop
      vertex 5.69227 -2.0709 24
      vertex 3.23607 -2.35114 32
      vertex 4.92445 -3.57782 24
    endloop
  endfacet
  facet normal -0.439634 -0.862825 0.249508
    outer loop
      vertex -1.23607 -3.80423 32
      vertex -2.35114 -3.23607 32
      vertex -1.88097 -5.78904 24
    endloop
  endfacet
endsolid OpenSCAD_Model
