solid OpenSCAD_Model
  facet normal 0.775993 0.111571 0.620795
    outer loop
      vertex 6.71645 1.97213 0
      vertex 3 0 5
      vertex 7 0 0
    endloop
  endfacet
  facet normal 0.713126 0.325677 0.620794
    outer loop
      vertex 5.88877 3.78448 0
      vertex 2.52376 1.62192 5
      vertex 6.71645 1.97213 0
    endloop
  endfacet
  facet normal -0.220873 0.752216 0.620795
    outer loop
      vertex -0.996203 6.92875 0
      vertex -2.9079 6.36742 0
      vertex -0.426944 2.96946 5
    endloop
  endfacet
  facet normal 0.592489 0.513392 0.620794
    outer loop
      vertex 2.47865 1.67398 5
      vertex 5.88877 3.78448 0
      vertex 4.58402 5.29025 0
    endloop
  endfacet
  facet normal 0.592489 0.513392 0.620794
    outer loop
      vertex 5.88877 3.78448 0
      vertex 2.47865 1.67398 5
      vertex 2.52376 1.62192 5
    endloop
  endfacet
  facet normal 0.592488 0.513393 0.620795
    outer loop
      vertex 4.58402 5.29025 0
      vertex 1.98028 2.24913 5
      vertex 2.47865 1.67398 5
    endloop
  endfacet
  facet normal 0.592506 0.513374 0.620793
    outer loop
      vertex 1.98028 2.24913 5
      vertex 4.58402 5.29025 0
      vertex 1.96458 2.26725 5
    endloop
  endfacet
  facet normal 0.775993 -0.111571 0.620795
    outer loop
      vertex 7 0 0
      vertex 3 0 5
      vertex 6.71645 -1.97213 0
    endloop
  endfacet
  facet normal -0.592506 0.513374 0.620793
    outer loop
      vertex -4.58402 5.29025 0
      vertex -1.98028 2.24913 5
      vertex -1.96458 2.26725 5
    endloop
  endfacet
  facet normal -0.592488 0.513393 0.620795
    outer loop
      vertex -1.98028 2.24913 5
      vertex -4.58402 5.29025 0
      vertex -2.47865 1.67398 5
    endloop
  endfacet
  facet normal -0.592489 0.513392 0.620794
    outer loop
      vertex -5.88877 3.78448 0
      vertex -2.47865 1.67398 5
      vertex -4.58402 5.29025 0
    endloop
  endfacet
  facet normal -0.592489 0.513392 0.620794
    outer loop
      vertex -2.47865 1.67398 5
      vertex -5.88877 3.78448 0
      vertex -2.52376 1.62192 5
    endloop
  endfacet
  facet normal -0.220834 0.752233 0.620788
    outer loop
      vertex -2.9079 6.36742 0
      vertex -0.550219 2.93327 5
      vertex -0.426944 2.96946 5
    endloop
  endfacet
  facet normal -0.220872 0.752217 0.620794
    outer loop
      vertex -0.550219 2.93327 5
      vertex -2.9079 6.36742 0
      vertex -1.12857 2.76345 5
    endloop
  endfacet
  facet normal -0.220865 0.752219 0.620794
    outer loop
      vertex -1.12857 2.76345 5
      vertex -2.9079 6.36742 0
      vertex -1.24624 2.7289 5
    endloop
  endfacet
  facet normal -0.775993 0.111571 0.620795
    outer loop
      vertex -6.71645 1.97213 0
      vertex -7 0 0
      vertex -3 0 5
    endloop
  endfacet
  facet normal 0.220873 0.752216 0.620795
    outer loop
      vertex 0.996203 6.92875 0
      vertex 0.426944 2.96946 5
      vertex 2.9079 6.36742 0
    endloop
  endfacet
  facet normal 0 0.783973 0.620795
    outer loop
      vertex 0.996203 6.92875 0
      vertex 0.379925 2.96946 5
      vertex 0.426944 2.96946 5
    endloop
  endfacet
  facet normal 0 0.783973 0.620795
    outer loop
      vertex 0.379925 2.96946 5
      vertex 0.996203 6.92875 0
      vertex -0.379925 2.96946 5
    endloop
  endfacet
  facet normal -0 0.783973 0.620795
    outer loop
      vertex -0.996203 6.92875 0
      vertex -0.379925 2.96946 5
      vertex 0.996203 6.92875 0
    endloop
  endfacet
  facet normal 0 0.783973 0.620795
    outer loop
      vertex -0.379925 2.96946 5
      vertex -0.996203 6.92875 0
      vertex -0.426944 2.96946 5
    endloop
  endfacet
  facet normal 0.592489 -0.513392 0.620794
    outer loop
      vertex 2.47865 -1.67398 5
      vertex 5.88877 -3.78448 0
      vertex 2.52376 -1.62192 5
    endloop
  endfacet
  facet normal 0.592489 -0.513392 0.620794
    outer loop
      vertex 5.88877 -3.78448 0
      vertex 2.47865 -1.67398 5
      vertex 4.58402 -5.29025 0
    endloop
  endfacet
  facet normal 0.592488 -0.513393 0.620795
    outer loop
      vertex 1.98028 -2.24913 5
      vertex 4.58402 -5.29025 0
      vertex 2.47865 -1.67398 5
    endloop
  endfacet
  facet normal 0.592506 -0.513374 0.620793
    outer loop
      vertex 4.58402 -5.29025 0
      vertex 1.98028 -2.24913 5
      vertex 1.96458 -2.26725 5
    endloop
  endfacet
  facet normal -0.713126 0.325677 0.620794
    outer loop
      vertex -5.88877 3.78448 0
      vertex -6.71645 1.97213 0
      vertex -2.52376 1.62192 5
    endloop
  endfacet
  facet normal -0.423846 -0.659522 0.620794
    outer loop
      vertex -1.24624 -2.7289 5
      vertex -4.58402 -5.29025 0
      vertex -2.9079 -6.36742 0
    endloop
  endfacet
  facet normal 0 0 -1
    outer loop
      vertex 6.71645 -1.97213 0
      vertex 6.71645 1.97213 0
      vertex 7 0 0
    endloop
  endfacet
  facet normal 0 0 -1
    outer loop
      vertex 5.88877 -3.78448 0
      vertex 6.71645 1.97213 0
      vertex 6.71645 -1.97213 0
    endloop
  endfacet
  facet normal 0 0 -1
    outer loop
      vertex 5.88877 -3.78448 0
      vertex 5.88877 3.78448 0
      vertex 6.71645 1.97213 0
    endloop
  endfacet
  facet normal 0 0 -1
    outer loop
      vertex 4.58402 -5.29025 0
      vertex 5.88877 3.78448 0
      vertex 5.88877 -3.78448 0
    endloop
  endfacet
  facet normal 0 0 -1
    outer loop
      vertex 4.58402 -5.29025 0
      vertex 4.58402 5.29025 0
      vertex 5.88877 3.78448 0
    endloop
  endfacet
  facet normal 0 0 -1
    outer loop
      vertex 2.9079 -6.36742 0
      vertex 4.58402 5.29025 0
      vertex 4.58402 -5.29025 0
    endloop
  endfacet
  facet normal 0 0 -1
    outer loop
      vertex 2.9079 -6.36742 0
      vertex 2.9079 6.36742 0
      vertex 4.58402 5.29025 0
    endloop
  endfacet
  facet normal 0 0 -1
    outer loop
      vertex 0.996203 -6.92875 0
      vertex 2.9079 6.36742 0
      vertex 2.9079 -6.36742 0
    endloop
  endfacet
  facet normal 0 0 -1
    outer loop
      vertex 0.996203 -6.92875 0
      vertex 0.996203 6.92875 0
      vertex 2.9079 6.36742 0
    endloop
  endfacet
  facet normal 0 0 -1
    outer loop
      vertex -0.996203 -6.92875 0
      vertex 0.996203 6.92875 0
      vertex 0.996203 -6.92875 0
    endloop
  endfacet
  facet normal 0 0 -1
    outer loop
      vertex -0.996203 -6.92875 0
      vertex -0.996203 6.92875 0
      vertex 0.996203 6.92875 0
    endloop
  endfacet
  facet normal 0 0 -1
    outer loop
      vertex -2.9079 -6.36742 0
      vertex -0.996203 6.92875 0
      vertex -0.996203 -6.92875 0
    endloop
  endfacet
  facet normal 0 0 -1
    outer loop
      vertex -2.9079 -6.36742 0
      vertex -2.9079 6.36742 0
      vertex -0.996203 6.92875 0
    endloop
  endfacet
  facet normal 0 0 -1
    outer loop
      vertex -4.58402 -5.29025 0
      vertex -2.9079 6.36742 0
      vertex -2.9079 -6.36742 0
    endloop
  endfacet
  facet normal 0 0 -1
    outer loop
      vertex -4.58402 -5.29025 0
      vertex -4.58402 5.29025 0
      vertex -2.9079 6.36742 0
    endloop
  endfacet
  facet normal 0 0 -1
    outer loop
      vertex -5.88877 -3.78448 0
      vertex -4.58402 5.29025 0
      vertex -4.58402 -5.29025 0
    endloop
  endfacet
  facet normal 0 0 -1
    outer loop
      vertex -5.88877 -3.78448 0
      vertex -5.88877 3.78448 0
      vertex -4.58402 5.29025 0
    endloop
  endfacet
  facet normal 0 0 -1
    outer loop
      vertex -6.71645 -1.97213 0
      vertex -5.88877 3.78448 0
      vertex -5.88877 -3.78448 0
    endloop
  endfacet
  facet normal 0 0 -1
    outer loop
      vertex -6.71645 -1.97213 0
      vertex -6.71645 1.97213 0
      vertex -5.88877 3.78448 0
    endloop
  endfacet
  facet normal 0 -0 -1
    outer loop
      vertex -6.71645 1.97213 0
      vertex -6.71645 -1.97213 0
      vertex -7 0 0
    endloop
  endfacet
  facet normal -0.423888 -0.659491 0.620798
    outer loop
      vertex -4.58402 -5.29025 0
      vertex -1.88458 -2.31867 5
      vertex -1.96458 -2.26725 5
    endloop
  endfacet
  facet normal -0.423836 -0.65953 0.620793
    outer loop
      vertex -1.88458 -2.31867 5
      vertex -4.58402 -5.29025 0
      vertex -1.3366 -2.67082 5
    endloop
  endfacet
  facet normal -0.423891 -0.659483 0.620804
    outer loop
      vertex -1.3366 -2.67082 5
      vertex -4.58402 -5.29025 0
      vertex -1.24624 -2.7289 5
    endloop
  endfacet
  facet normal -0.220873 -0.752216 0.620795
    outer loop
      vertex -0.426944 -2.96946 5
      vertex -2.9079 -6.36742 0
      vertex -0.996203 -6.92875 0
    endloop
  endfacet
  facet normal 0.423891 -0.659483 0.620804
    outer loop
      vertex 4.58402 -5.29025 0
      vertex 1.3366 -2.67082 5
      vertex 1.24624 -2.7289 5
    endloop
  endfacet
  facet normal 0.423836 -0.65953 0.620793
    outer loop
      vertex 1.3366 -2.67082 5
      vertex 4.58402 -5.29025 0
      vertex 1.88458 -2.31867 5
    endloop
  endfacet
  facet normal 0.423888 -0.659491 0.620798
    outer loop
      vertex 1.88458 -2.31867 5
      vertex 4.58402 -5.29025 0
      vertex 1.96458 -2.26725 5
    endloop
  endfacet
  facet normal 0 -0.783973 0.620795
    outer loop
      vertex -0.996203 -6.92875 0
      vertex -0.379925 -2.96946 5
      vertex -0.426944 -2.96946 5
    endloop
  endfacet
  facet normal 0 -0.783973 0.620795
    outer loop
      vertex -0.379925 -2.96946 5
      vertex -0.996203 -6.92875 0
      vertex 0.379925 -2.96946 5
    endloop
  endfacet
  facet normal 0 -0.783973 0.620795
    outer loop
      vertex 0.996203 -6.92875 0
      vertex 0.379925 -2.96946 5
      vertex -0.996203 -6.92875 0
    endloop
  endfacet
  facet normal 0 -0.783973 0.620795
    outer loop
      vertex 0.379925 -2.96946 5
      vertex 0.996203 -6.92875 0
      vertex 0.426944 -2.96946 5
    endloop
  endfacet
  facet normal 0.713122 0.32569 0.620792
    outer loop
      vertex 2.58073 1.49718 5
      vertex 6.71645 1.97213 0
      vertex 2.52376 1.62192 5
    endloop
  endfacet
  facet normal 0.713127 0.325674 0.620795
    outer loop
      vertex 2.82305 0.966573 5
      vertex 6.71645 1.97213 0
      vertex 2.58073 1.49718 5
    endloop
  endfacet
  facet normal 0.713128 0.325671 0.620795
    outer loop
      vertex 6.71645 1.97213 0
      vertex 2.82305 0.966573 5
      vertex 2.87848 0.845197 5
    endloop
  endfacet
  facet normal 0.423888 0.659491 0.620798
    outer loop
      vertex 4.58402 5.29025 0
      vertex 1.88458 2.31867 5
      vertex 1.96458 2.26725 5
    endloop
  endfacet
  facet normal 0.423836 0.65953 0.620793
    outer loop
      vertex 1.88458 2.31867 5
      vertex 4.58402 5.29025 0
      vertex 1.3366 2.67082 5
    endloop
  endfacet
  facet normal 0.423891 0.659483 0.620804
    outer loop
      vertex 1.3366 2.67082 5
      vertex 4.58402 5.29025 0
      vertex 1.24624 2.7289 5
    endloop
  endfacet
  facet normal -0.423846 0.659522 0.620794
    outer loop
      vertex -2.9079 6.36742 0
      vertex -4.58402 5.29025 0
      vertex -1.24624 2.7289 5
    endloop
  endfacet
  facet normal -0.423891 0.659483 0.620804
    outer loop
      vertex -4.58402 5.29025 0
      vertex -1.3366 2.67082 5
      vertex -1.24624 2.7289 5
    endloop
  endfacet
  facet normal -0.423836 0.65953 0.620793
    outer loop
      vertex -1.3366 2.67082 5
      vertex -4.58402 5.29025 0
      vertex -1.88458 2.31867 5
    endloop
  endfacet
  facet normal -0.423888 0.659491 0.620798
    outer loop
      vertex -1.88458 2.31867 5
      vertex -4.58402 5.29025 0
      vertex -1.96458 2.26725 5
    endloop
  endfacet
  facet normal -0.776001 0.111534 0.620792
    outer loop
      vertex -6.71645 1.97213 0
      vertex -2.89117 0.756906 5
      vertex -2.87848 0.845197 5
    endloop
  endfacet
  facet normal -0.775993 0.111574 0.620795
    outer loop
      vertex -2.89117 0.756906 5
      vertex -6.71645 1.97213 0
      vertex -3 0 5
    endloop
  endfacet
  facet normal -0.713126 -0.325677 0.620794
    outer loop
      vertex -2.52376 -1.62192 5
      vertex -6.71645 -1.97213 0
      vertex -5.88877 -3.78448 0
    endloop
  endfacet
  facet normal -0.592488 -0.513393 0.620795
    outer loop
      vertex -4.58402 -5.29025 0
      vertex -1.98028 -2.24913 5
      vertex -2.47865 -1.67398 5
    endloop
  endfacet
  facet normal -0.592506 -0.513374 0.620793
    outer loop
      vertex -1.98028 -2.24913 5
      vertex -4.58402 -5.29025 0
      vertex -1.96458 -2.26725 5
    endloop
  endfacet
  facet normal -0.592489 -0.513392 0.620794
    outer loop
      vertex -5.88877 -3.78448 0
      vertex -2.47865 -1.67398 5
      vertex -2.52376 -1.62192 5
    endloop
  endfacet
  facet normal -0.592489 -0.513392 0.620794
    outer loop
      vertex -2.47865 -1.67398 5
      vertex -5.88877 -3.78448 0
      vertex -4.58402 -5.29025 0
    endloop
  endfacet
  facet normal -0.775993 -0.111574 0.620795
    outer loop
      vertex -6.71645 -1.97213 0
      vertex -2.89117 -0.756906 5
      vertex -3 0 5
    endloop
  endfacet
  facet normal -0.776001 -0.111534 0.620792
    outer loop
      vertex -2.89117 -0.756906 5
      vertex -6.71645 -1.97213 0
      vertex -2.87848 -0.845197 5
    endloop
  endfacet
  facet normal -0.775993 -0.111571 0.620795
    outer loop
      vertex -3 0 5
      vertex -7 0 0
      vertex -6.71645 -1.97213 0
    endloop
  endfacet
  facet normal -0.220865 -0.752219 0.620794
    outer loop
      vertex -2.9079 -6.36742 0
      vertex -1.12857 -2.76345 5
      vertex -1.24624 -2.7289 5
    endloop
  endfacet
  facet normal -0.220872 -0.752217 0.620794
    outer loop
      vertex -1.12857 -2.76345 5
      vertex -2.9079 -6.36742 0
      vertex -0.550219 -2.93327 5
    endloop
  endfacet
  facet normal -0.220834 -0.752233 0.620788
    outer loop
      vertex -0.550219 -2.93327 5
      vertex -2.9079 -6.36742 0
      vertex -0.426944 -2.96946 5
    endloop
  endfacet
  facet normal 0.220873 -0.752216 0.620795
    outer loop
      vertex 2.9079 -6.36742 0
      vertex 0.426944 -2.96946 5
      vertex 0.996203 -6.92875 0
    endloop
  endfacet
  facet normal 0.713126 -0.325677 0.620794
    outer loop
      vertex 6.71645 -1.97213 0
      vertex 2.52376 -1.62192 5
      vertex 5.88877 -3.78448 0
    endloop
  endfacet
  facet normal 0.776001 0.111534 0.620792
    outer loop
      vertex 2.89117 0.756906 5
      vertex 6.71645 1.97213 0
      vertex 2.87848 0.845197 5
    endloop
  endfacet
  facet normal 0.775993 0.111574 0.620795
    outer loop
      vertex 6.71645 1.97213 0
      vertex 2.89117 0.756906 5
      vertex 3 0 5
    endloop
  endfacet
  facet normal 0.220865 0.752219 0.620794
    outer loop
      vertex 2.9079 6.36742 0
      vertex 1.12857 2.76345 5
      vertex 1.24624 2.7289 5
    endloop
  endfacet
  facet normal 0.220872 0.752217 0.620794
    outer loop
      vertex 1.12857 2.76345 5
      vertex 2.9079 6.36742 0
      vertex 0.550219 2.93327 5
    endloop
  endfacet
  facet normal 0.220834 0.752233 0.620788
    outer loop
      vertex 0.550219 2.93327 5
      vertex 2.9079 6.36742 0
      vertex 0.426944 2.96946 5
    endloop
  endfacet
  facet normal 0.423846 0.659522 0.620794
    outer loop
      vertex 2.9079 6.36742 0
      vertex 1.24624 2.7289 5
      vertex 4.58402 5.29025 0
    endloop
  endfacet
  facet normal 0 0 1
    outer loop
      vertex -0.379925 -2.96946 5
      vertex -0.550219 -2.93327 5
      vertex -0.426944 -2.96946 5
    endloop
  endfacet
  facet normal 0 0 1
    outer loop
      vertex 1.3366 -2.67082 5
      vertex 1.12857 -2.76345 5
      vertex 1.24624 -2.7289 5
    endloop
  endfacet
  facet normal 0 0 1
    outer loop
      vertex 1.98028 -2.24913 5
      vertex 1.88458 -2.31867 5
      vertex 1.96458 -2.26725 5
    endloop
  endfacet
  facet normal -0 0 1
    outer loop
      vertex -0.426944 2.96946 5
      vertex -0.550219 2.93327 5
      vertex -0.379925 2.96946 5
    endloop
  endfacet
  facet normal 0 0 1
    outer loop
      vertex 1.96458 2.26725 5
      vertex 1.88458 2.31867 5
      vertex 1.98028 2.24913 5
    endloop
  endfacet
  facet normal -0 0 1
    outer loop
      vertex -1.96458 2.26725 5
      vertex -1.98028 2.24913 5
      vertex -1.88458 2.31867 5
    endloop
  endfacet
  facet normal -0 0 1
    outer loop
      vertex -1.24624 2.7289 5
      vertex -1.3366 2.67082 5
      vertex -1.12857 2.76345 5
    endloop
  endfacet
  facet normal 0 0 1
    outer loop
      vertex -1.88458 -2.31867 5
      vertex -1.98028 -2.24913 5
      vertex -1.96458 -2.26725 5
    endloop
  endfacet
  facet normal -0 0 1
    outer loop
      vertex -2.52376 1.62192 5
      vertex -2.58073 1.49718 5
      vertex -2.47865 1.67398 5
    endloop
  endfacet
  facet normal 0 0 1
    outer loop
      vertex -1.12857 -2.76345 5
      vertex -1.3366 -2.67082 5
      vertex -1.24624 -2.7289 5
    endloop
  endfacet
  facet normal 0 0 1
    outer loop
      vertex -2.47865 -1.67398 5
      vertex -2.58073 -1.49718 5
      vertex -2.52376 -1.62192 5
    endloop
  endfacet
  facet normal 0 0 -1
    outer loop
      vertex 3 0 5
      vertex 2.93444 -0.623734 5
      vertex 2.89117 -0.756906 5
    endloop
  endfacet
  facet normal -0 -0 -1
    outer loop
      vertex 2.93444 0.623734 5
      vertex 3 0 5
      vertex 2.89117 0.756906 5
    endloop
  endfacet
  facet normal 0 0 1
    outer loop
      vertex 2.52376 1.62192 5
      vertex 2.47865 1.67398 5
      vertex 2.58073 1.49718 5
    endloop
  endfacet
  facet normal 0 0 1
    outer loop
      vertex 2.87848 0.845197 5
      vertex 2.82305 0.966573 5
      vertex 2.89117 0.756906 5
    endloop
  endfacet
  facet normal 0 0 1
    outer loop
      vertex 0.426944 2.96946 5
      vertex 0.379925 2.96946 5
      vertex 0.550219 2.93327 5
    endloop
  endfacet
  facet normal 0 0 1
    outer loop
      vertex 1.24624 2.7289 5
      vertex 1.12857 2.76345 5
      vertex 1.3366 2.67082 5
    endloop
  endfacet
  facet normal -0 0 1
    outer loop
      vertex -2.87848 0.845197 5
      vertex -2.89117 0.756906 5
      vertex -2.82305 0.966573 5
    endloop
  endfacet
  facet normal 0 0 1
    outer loop
      vertex -2.82305 -0.966573 5
      vertex -2.89117 -0.756906 5
      vertex -2.87848 -0.845197 5
    endloop
  endfacet
  facet normal 0 0 -1
    outer loop
      vertex -2.89117 -0.756906 5
      vertex -2.93444 -0.623734 5
      vertex -3 0 5
    endloop
  endfacet
  facet normal 0 -0 -1
    outer loop
      vertex -2.93444 0.623734 5
      vertex -2.89117 0.756906 5
      vertex -3 0 5
    endloop
  endfacet
  facet normal 0 0 1
    outer loop
      vertex 0.550219 -2.93327 5
      vertex 0.379925 -2.96946 5
      vertex 0.426944 -2.96946 5
    endloop
  endfacet
  facet normal 0 0 1
    outer loop
      vertex 2.58073 -1.49718 5
      vertex 2.47865 -1.67398 5
      vertex 2.52376 -1.62192 5
    endloop
  endfacet
  facet normal 0 0 1
    outer loop
      vertex 2.89117 -0.756906 5
      vertex 2.82305 -0.966573 5
      vertex 2.87848 -0.845197 5
    endloop
  endfacet
  facet normal 0 0 -1
    outer loop
      vertex 1.88458 -2.31867 5
      vertex 1.5 -2.59808 5
      vertex 1.3366 -2.67082 5
    endloop
  endfacet
  facet normal 0 0 -1
    outer loop
      vertex -1.98028 2.24913 5
      vertex -2.42705 1.76336 5
      vertex -2.00739 2.22943 5
    endloop
  endfacet
  facet normal 0 -0 -1
    outer loop
      vertex -2.42705 1.76336 5
      vertex -1.98028 2.24913 5
      vertex -2.47865 1.67398 5
    endloop
  endfacet
  facet normal 0 0 -1
    outer loop
      vertex 2.82305 -0.966573 5
      vertex 2.74064 -1.22021 5
      vertex 2.58073 -1.49718 5
    endloop
  endfacet
  facet normal 0 0 -1
    outer loop
      vertex 1.12857 -2.76345 5
      vertex 0.927051 -2.85317 5
      vertex 0.550219 -2.93327 5
    endloop
  endfacet
  facet normal 0 0 -1
    outer loop
      vertex 1.98028 -2.24913 5
      vertex 2.42705 -1.76336 5
      vertex 2.00739 -2.22943 5
    endloop
  endfacet
  facet normal -0 0 -1
    outer loop
      vertex 2.42705 -1.76336 5
      vertex 1.98028 -2.24913 5
      vertex 2.47865 -1.67398 5
    endloop
  endfacet
  facet normal 0 0 -1
    outer loop
      vertex -2.42705 -1.76336 5
      vertex -1.98028 -2.24913 5
      vertex -2.00739 -2.22943 5
    endloop
  endfacet
  facet normal 0 0 -1
    outer loop
      vertex -1.98028 -2.24913 5
      vertex -2.42705 -1.76336 5
      vertex -2.47865 -1.67398 5
    endloop
  endfacet
  facet normal 0 0 -1
    outer loop
      vertex -1.3366 -2.67082 5
      vertex -1.5 -2.59808 5
      vertex -1.88458 -2.31867 5
    endloop
  endfacet
  facet normal 0 0 -1
    outer loop
      vertex 0.379925 2.96946 5
      vertex -0.313585 2.98357 5
      vertex 0.313585 2.98357 5
    endloop
  endfacet
  facet normal 0 -0 -1
    outer loop
      vertex -0.313585 2.98357 5
      vertex 0.379925 2.96946 5
      vertex -0.379925 2.96946 5
    endloop
  endfacet
  facet normal 0 -0 -1
    outer loop
      vertex -1.5 2.59808 5
      vertex -1.3366 2.67082 5
      vertex -1.88458 2.31867 5
    endloop
  endfacet
  facet normal 0 0 -1
    outer loop
      vertex -2.58073 -1.49718 5
      vertex -2.74064 -1.22021 5
      vertex -2.82305 -0.966573 5
    endloop
  endfacet
  facet normal 0 0 -1
    outer loop
      vertex -0.313585 -2.98357 5
      vertex 0.379925 -2.96946 5
      vertex 0.313585 -2.98357 5
    endloop
  endfacet
  facet normal -0 0 -1
    outer loop
      vertex 0.379925 -2.96946 5
      vertex -0.313585 -2.98357 5
      vertex -0.379925 -2.96946 5
    endloop
  endfacet
  facet normal 0 0 -1
    outer loop
      vertex -0.550219 -2.93327 5
      vertex -0.927051 -2.85317 5
      vertex -1.12857 -2.76345 5
    endloop
  endfacet
  facet normal 0 -0 -1
    outer loop
      vertex -0.927051 2.85317 5
      vertex -0.550219 2.93327 5
      vertex -1.12857 2.76345 5
    endloop
  endfacet
  facet normal 0 -0 -1
    outer loop
      vertex -2.74064 1.22021 5
      vertex -2.58073 1.49718 5
      vertex -2.82305 0.966573 5
    endloop
  endfacet
  facet normal -0 -0 -1
    outer loop
      vertex 2.74064 1.22021 5
      vertex 2.82305 0.966573 5
      vertex 2.58073 1.49718 5
    endloop
  endfacet
  facet normal 0 0 -1
    outer loop
      vertex 1.98028 2.24913 5
      vertex 2.42705 1.76336 5
      vertex 2.47865 1.67398 5
    endloop
  endfacet
  facet normal 0 0 -1
    outer loop
      vertex 2.42705 1.76336 5
      vertex 1.98028 2.24913 5
      vertex 2.00739 2.22943 5
    endloop
  endfacet
  facet normal -0 -0 -1
    outer loop
      vertex 1.5 2.59808 5
      vertex 1.88458 2.31867 5
      vertex 1.3366 2.67082 5
    endloop
  endfacet
  facet normal -0 -0 -1
    outer loop
      vertex 0.927051 2.85317 5
      vertex 1.12857 2.76345 5
      vertex 0.550219 2.93327 5
    endloop
  endfacet
  facet normal -0.713122 0.32569 0.620792
    outer loop
      vertex -6.71645 1.97213 0
      vertex -2.58073 1.49718 5
      vertex -2.52376 1.62192 5
    endloop
  endfacet
  facet normal -0.713127 0.325674 0.620795
    outer loop
      vertex -6.71645 1.97213 0
      vertex -2.82305 0.966573 5
      vertex -2.58073 1.49718 5
    endloop
  endfacet
  facet normal -0.713128 0.325671 0.620795
    outer loop
      vertex -2.82305 0.966573 5
      vertex -6.71645 1.97213 0
      vertex -2.87848 0.845197 5
    endloop
  endfacet
  facet normal -0.713128 -0.325671 0.620795
    outer loop
      vertex -6.71645 -1.97213 0
      vertex -2.82305 -0.966573 5
      vertex -2.87848 -0.845197 5
    endloop
  endfacet
  facet normal -0.713127 -0.325674 0.620795
    outer loop
      vertex -2.82305 -0.966573 5
      vertex -6.71645 -1.97213 0
      vertex -2.58073 -1.49718 5
    endloop
  endfacet
  facet normal -0.713122 -0.32569 0.620792
    outer loop
      vertex -2.58073 -1.49718 5
      vertex -6.71645 -1.97213 0
      vertex -2.52376 -1.62192 5
    endloop
  endfacet
  facet normal 0.220834 -0.752233 0.620788
    outer loop
      vertex 2.9079 -6.36742 0
      vertex 0.550219 -2.93327 5
      vertex 0.426944 -2.96946 5
    endloop
  endfacet
  facet normal 0.220872 -0.752217 0.620794
    outer loop
      vertex 0.550219 -2.93327 5
      vertex 2.9079 -6.36742 0
      vertex 1.12857 -2.76345 5
    endloop
  endfacet
  facet normal 0.220865 -0.752219 0.620794
    outer loop
      vertex 1.12857 -2.76345 5
      vertex 2.9079 -6.36742 0
      vertex 1.24624 -2.7289 5
    endloop
  endfacet
  facet normal 0.423846 -0.659522 0.620794
    outer loop
      vertex 4.58402 -5.29025 0
      vertex 1.24624 -2.7289 5
      vertex 2.9079 -6.36742 0
    endloop
  endfacet
  facet normal 0.713127 -0.325674 0.620795
    outer loop
      vertex 6.71645 -1.97213 0
      vertex 2.82305 -0.966573 5
      vertex 2.58073 -1.49718 5
    endloop
  endfacet
  facet normal 0.713122 -0.32569 0.620792
    outer loop
      vertex 6.71645 -1.97213 0
      vertex 2.58073 -1.49718 5
      vertex 2.52376 -1.62192 5
    endloop
  endfacet
  facet normal 0.713128 -0.325671 0.620795
    outer loop
      vertex 2.82305 -0.966573 5
      vertex 6.71645 -1.97213 0
      vertex 2.87848 -0.845197 5
    endloop
  endfacet
  facet normal 0.776001 -0.111534 0.620792
    outer loop
      vertex 6.71645 -1.97213 0
      vertex 2.89117 -0.756906 5
      vertex 2.87848 -0.845197 5
    endloop
  endfacet
  facet normal 0.775993 -0.111574 0.620795
    outer loop
      vertex 2.89117 -0.756906 5
      vertex 6.71645 -1.97213 0
      vertex 3 0 5
    endloop
  endfacet
  facet normal 0.0660754 -0.31085 -0.948159
    outer loop
      vertex 1.56793 -14.9178 9
      vertex 0.927051 -2.85317 5
      vertex 4.63525 -14.2658 9
    endloop
  endfacet
  facet normal 0.316053 0.0332199 -0.94816
    outer loop
      vertex 15 0 9
      vertex 3 0 5
      vertex 14.6722 3.11868 9
    endloop
  endfacet
  facet normal 0.316053 0.03322 -0.94816
    outer loop
      vertex 3 0 5
      vertex 2.93444 0.623734 5
      vertex 14.6722 3.11868 9
    endloop
  endfacet
  facet normal 0.302241 -0.098201 -0.94816
    outer loop
      vertex 13.7032 -6.10105 9
      vertex 2.93444 -0.623734 5
      vertex 14.6722 -3.11868 9
    endloop
  endfacet
  facet normal -0.275218 -0.158895 -0.94816
    outer loop
      vertex -12.1353 -8.81678 9
      vertex -13.7032 -6.10105 9
      vertex -2.42705 -1.76336 5
    endloop
  endfacet
  facet normal -0.275218 0.158895 -0.94816
    outer loop
      vertex -2.42705 1.76336 5
      vertex -13.7032 6.10105 9
      vertex -12.1353 8.81678 9
    endloop
  endfacet
  facet normal 0.236167 -0.212644 -0.94816
    outer loop
      vertex 10.037 -11.1472 9
      vertex 2.42705 -1.76336 5
      vertex 12.1353 -8.81678 9
    endloop
  endfacet
  facet normal 0.186792 -0.257102 -0.94816
    outer loop
      vertex 7.5 -12.9904 9
      vertex 1.5 -2.59808 5
      vertex 10.037 -11.1472 9
    endloop
  endfacet
  facet normal 0.129244 -0.290327 -0.948159
    outer loop
      vertex 7.5 -12.9904 9
      vertex 1.3366 -2.67082 5
      vertex 1.5 -2.59808 5
    endloop
  endfacet
  facet normal 0.129268 -0.290313 -0.94816
    outer loop
      vertex 7.5 -12.9904 9
      vertex 1.12857 -2.76345 5
      vertex 1.3366 -2.67082 5
    endloop
  endfacet
  facet normal 0.129256 -0.29032 -0.94816
    outer loop
      vertex 1.12857 -2.76345 5
      vertex 7.5 -12.9904 9
      vertex 0.927051 -2.85317 5
    endloop
  endfacet
  facet normal -0.0660754 0.31085 -0.948159
    outer loop
      vertex -0.927051 2.85317 5
      vertex -4.63525 14.2658 9
      vertex -1.56793 14.9178 9
    endloop
  endfacet
  facet normal 0.30224 -0.0982032 -0.94816
    outer loop
      vertex 13.7032 -6.10105 9
      vertex 2.89117 -0.756906 5
      vertex 2.93444 -0.623734 5
    endloop
  endfacet
  facet normal 0.302243 -0.0981975 -0.94816
    outer loop
      vertex 13.7032 -6.10105 9
      vertex 2.82305 -0.966573 5
      vertex 2.89117 -0.756906 5
    endloop
  endfacet
  facet normal 0.302241 -0.098202 -0.94816
    outer loop
      vertex 2.82305 -0.966573 5
      vertex 13.7032 -6.10105 9
      vertex 2.74064 -1.22021 5
    endloop
  endfacet
  facet normal 0.316053 -0.0332199 -0.94816
    outer loop
      vertex 14.6722 -3.11868 9
      vertex 3 0 5
      vertex 15 0 9
    endloop
  endfacet
  facet normal 0.316053 -0.03322 -0.94816
    outer loop
      vertex 14.6722 -3.11868 9
      vertex 2.93444 -0.623734 5
      vertex 3 0 5
    endloop
  endfacet
  facet normal 0.275218 -0.158895 -0.94816
    outer loop
      vertex 12.1353 -8.81678 9
      vertex 2.42705 -1.76336 5
      vertex 13.7032 -6.10105 9
    endloop
  endfacet
  facet normal -0.0660754 -0.31085 -0.948159
    outer loop
      vertex -1.56793 -14.9178 9
      vertex -4.63525 -14.2658 9
      vertex -0.927051 -2.85317 5
    endloop
  endfacet
  facet normal -0.302243 -0.0981975 -0.94816
    outer loop
      vertex -13.7032 -6.10105 9
      vertex -2.89117 -0.756906 5
      vertex -2.82305 -0.966573 5
    endloop
  endfacet
  facet normal -0.30224 -0.0982032 -0.94816
    outer loop
      vertex -2.89117 -0.756906 5
      vertex -13.7032 -6.10105 9
      vertex -2.93444 -0.623734 5
    endloop
  endfacet
  facet normal -0.302241 -0.098202 -0.94816
    outer loop
      vertex -13.7032 -6.10105 9
      vertex -2.82305 -0.966573 5
      vertex -2.74064 -1.22021 5
    endloop
  endfacet
  facet normal 0.129253 0.290322 -0.94816
    outer loop
      vertex 7.5 12.9904 9
      vertex 0.927051 2.85317 5
      vertex 4.63525 14.2658 9
    endloop
  endfacet
  facet normal -0.236167 0.212644 -0.94816
    outer loop
      vertex -2.42705 1.76336 5
      vertex -12.1353 8.81678 9
      vertex -10.037 11.1472 9
    endloop
  endfacet
  facet normal -0.316053 -0.03322 -0.94816
    outer loop
      vertex -2.93444 -0.623734 5
      vertex -14.6722 -3.11868 9
      vertex -3 0 5
    endloop
  endfacet
  facet normal -0.236164 0.212647 -0.94816
    outer loop
      vertex -2.42705 1.76336 5
      vertex -10.037 11.1472 9
      vertex -2.00739 2.22943 5
    endloop
  endfacet
  facet normal 0.275217 -0.158898 -0.94816
    outer loop
      vertex 13.7032 -6.10105 9
      vertex 2.58073 -1.49718 5
      vertex 2.74064 -1.22021 5
    endloop
  endfacet
  facet normal 0.275215 -0.158902 -0.94816
    outer loop
      vertex 13.7032 -6.10105 9
      vertex 2.47865 -1.67398 5
      vertex 2.58073 -1.49718 5
    endloop
  endfacet
  facet normal 0.275221 -0.158888 -0.94816
    outer loop
      vertex 2.47865 -1.67398 5
      vertex 13.7032 -6.10105 9
      vertex 2.42705 -1.76336 5
    endloop
  endfacet
  facet normal 0.129253 -0.290322 -0.94816
    outer loop
      vertex 4.63525 -14.2658 9
      vertex 0.927051 -2.85317 5
      vertex 7.5 -12.9904 9
    endloop
  endfacet
  facet normal 0.0660748 -0.31085 -0.948159
    outer loop
      vertex 1.56793 -14.9178 9
      vertex 0.550219 -2.93327 5
      vertex 0.927051 -2.85317 5
    endloop
  endfacet
  facet normal 0.0660606 -0.310852 -0.94816
    outer loop
      vertex 1.56793 -14.9178 9
      vertex 0.379925 -2.96946 5
      vertex 0.550219 -2.93327 5
    endloop
  endfacet
  facet normal 0.0661144 -0.310846 -0.948158
    outer loop
      vertex 0.379925 -2.96946 5
      vertex 1.56793 -14.9178 9
      vertex 0.313585 -2.98357 5
    endloop
  endfacet
  facet normal 0.236164 -0.212647 -0.94816
    outer loop
      vertex 10.037 -11.1472 9
      vertex 2.00739 -2.22943 5
      vertex 2.42705 -1.76336 5
    endloop
  endfacet
  facet normal 0.186814 -0.257082 -0.948161
    outer loop
      vertex 10.037 -11.1472 9
      vertex 1.98028 -2.24913 5
      vertex 2.00739 -2.22943 5
    endloop
  endfacet
  facet normal 0.18681 -0.257086 -0.948161
    outer loop
      vertex 10.037 -11.1472 9
      vertex 1.88458 -2.31867 5
      vertex 1.98028 -2.24913 5
    endloop
  endfacet
  facet normal 0.186793 -0.257101 -0.94816
    outer loop
      vertex 1.88458 -2.31867 5
      vertex 10.037 -11.1472 9
      vertex 1.5 -2.59808 5
    endloop
  endfacet
  facet normal -0.302241 -0.098201 -0.94816
    outer loop
      vertex -13.7032 -6.10105 9
      vertex -14.6722 -3.11868 9
      vertex -2.93444 -0.623734 5
    endloop
  endfacet
  facet normal -0.18681 -0.257086 -0.948161
    outer loop
      vertex -10.037 -11.1472 9
      vertex -1.98028 -2.24913 5
      vertex -1.88458 -2.31867 5
    endloop
  endfacet
  facet normal -0.186814 -0.257082 -0.948161
    outer loop
      vertex -1.98028 -2.24913 5
      vertex -10.037 -11.1472 9
      vertex -2.00739 -2.22943 5
    endloop
  endfacet
  facet normal -0.186793 -0.257101 -0.94816
    outer loop
      vertex -10.037 -11.1472 9
      vertex -1.88458 -2.31867 5
      vertex -1.5 -2.59808 5
    endloop
  endfacet
  facet normal -0.236167 -0.212644 -0.94816
    outer loop
      vertex -10.037 -11.1472 9
      vertex -12.1353 -8.81678 9
      vertex -2.42705 -1.76336 5
    endloop
  endfacet
  facet normal -0.129268 -0.290313 -0.94816
    outer loop
      vertex -7.5 -12.9904 9
      vertex -1.3366 -2.67082 5
      vertex -1.12857 -2.76345 5
    endloop
  endfacet
  facet normal -0.129244 -0.290327 -0.948159
    outer loop
      vertex -1.3366 -2.67082 5
      vertex -7.5 -12.9904 9
      vertex -1.5 -2.59808 5
    endloop
  endfacet
  facet normal -0.129256 -0.29032 -0.94816
    outer loop
      vertex -7.5 -12.9904 9
      vertex -1.12857 -2.76345 5
      vertex -0.927051 -2.85317 5
    endloop
  endfacet
  facet normal 0 0.317795 -0.948159
    outer loop
      vertex -0.313585 2.98357 5
      vertex 1.56793 14.9178 9
      vertex 0.313585 2.98357 5
    endloop
  endfacet
  facet normal 0 0.317795 -0.948159
    outer loop
      vertex 1.56793 14.9178 9
      vertex -0.313585 2.98357 5
      vertex -1.56793 14.9178 9
    endloop
  endfacet
  facet normal -0.316053 0.0332199 -0.94816
    outer loop
      vertex -3 0 5
      vertex -15 0 9
      vertex -14.6722 3.11868 9
    endloop
  endfacet
  facet normal -0.316053 0.03322 -0.94816
    outer loop
      vertex -3 0 5
      vertex -14.6722 3.11868 9
      vertex -2.93444 0.623734 5
    endloop
  endfacet
  facet normal -0.129244 0.290327 -0.948159
    outer loop
      vertex -7.5 12.9904 9
      vertex -1.3366 2.67082 5
      vertex -1.5 2.59808 5
    endloop
  endfacet
  facet normal -0.129256 0.29032 -0.94816
    outer loop
      vertex -1.12857 2.76345 5
      vertex -7.5 12.9904 9
      vertex -0.927051 2.85317 5
    endloop
  endfacet
  facet normal -0.129268 0.290313 -0.94816
    outer loop
      vertex -1.3366 2.67082 5
      vertex -7.5 12.9904 9
      vertex -1.12857 2.76345 5
    endloop
  endfacet
  facet normal -0.186792 0.257102 -0.94816
    outer loop
      vertex -1.5 2.59808 5
      vertex -10.037 11.1472 9
      vertex -7.5 12.9904 9
    endloop
  endfacet
  facet normal -0.275215 -0.158902 -0.94816
    outer loop
      vertex -13.7032 -6.10105 9
      vertex -2.58073 -1.49718 5
      vertex -2.47865 -1.67398 5
    endloop
  endfacet
  facet normal -0.275217 -0.158898 -0.94816
    outer loop
      vertex -2.58073 -1.49718 5
      vertex -13.7032 -6.10105 9
      vertex -2.74064 -1.22021 5
    endloop
  endfacet
  facet normal -0.275221 -0.158888 -0.94816
    outer loop
      vertex -13.7032 -6.10105 9
      vertex -2.47865 -1.67398 5
      vertex -2.42705 -1.76336 5
    endloop
  endfacet
  facet normal -0.236164 -0.212647 -0.94816
    outer loop
      vertex -2.00739 -2.22943 5
      vertex -10.037 -11.1472 9
      vertex -2.42705 -1.76336 5
    endloop
  endfacet
  facet normal -0.129253 -0.290322 -0.94816
    outer loop
      vertex -4.63525 -14.2658 9
      vertex -7.5 -12.9904 9
      vertex -0.927051 -2.85317 5
    endloop
  endfacet
  facet normal -0.186792 -0.257102 -0.94816
    outer loop
      vertex -7.5 -12.9904 9
      vertex -10.037 -11.1472 9
      vertex -1.5 -2.59808 5
    endloop
  endfacet
  facet normal -0.0660748 0.31085 -0.948159
    outer loop
      vertex -1.56793 14.9178 9
      vertex -0.550219 2.93327 5
      vertex -0.927051 2.85317 5
    endloop
  endfacet
  facet normal -0.0660606 0.310852 -0.94816
    outer loop
      vertex -0.550219 2.93327 5
      vertex -1.56793 14.9178 9
      vertex -0.379925 2.96946 5
    endloop
  endfacet
  facet normal -0.0661144 0.310846 -0.948158
    outer loop
      vertex -0.379925 2.96946 5
      vertex -1.56793 14.9178 9
      vertex -0.313585 2.98357 5
    endloop
  endfacet
  facet normal 0.30224 0.0982032 -0.94816
    outer loop
      vertex 2.89117 0.756906 5
      vertex 13.7032 6.10105 9
      vertex 2.93444 0.623734 5
    endloop
  endfacet
  facet normal 0.302243 0.0981975 -0.94816
    outer loop
      vertex 2.82305 0.966573 5
      vertex 13.7032 6.10105 9
      vertex 2.89117 0.756906 5
    endloop
  endfacet
  facet normal 0.302241 0.098202 -0.94816
    outer loop
      vertex 13.7032 6.10105 9
      vertex 2.82305 0.966573 5
      vertex 2.74064 1.22021 5
    endloop
  endfacet
  facet normal 0.302241 0.098201 -0.94816
    outer loop
      vertex 14.6722 3.11868 9
      vertex 2.93444 0.623734 5
      vertex 13.7032 6.10105 9
    endloop
  endfacet
  facet normal 0.275218 0.158895 -0.94816
    outer loop
      vertex 13.7032 6.10105 9
      vertex 2.42705 1.76336 5
      vertex 12.1353 8.81678 9
    endloop
  endfacet
  facet normal -0.316053 -0.0332199 -0.94816
    outer loop
      vertex -14.6722 -3.11868 9
      vertex -15 0 9
      vertex -3 0 5
    endloop
  endfacet
  facet normal -0.302241 0.098201 -0.94816
    outer loop
      vertex -2.93444 0.623734 5
      vertex -14.6722 3.11868 9
      vertex -13.7032 6.10105 9
    endloop
  endfacet
  facet normal -0.186814 0.257082 -0.948161
    outer loop
      vertex -10.037 11.1472 9
      vertex -1.98028 2.24913 5
      vertex -2.00739 2.22943 5
    endloop
  endfacet
  facet normal -0.186793 0.257101 -0.94816
    outer loop
      vertex -1.88458 2.31867 5
      vertex -10.037 11.1472 9
      vertex -1.5 2.59808 5
    endloop
  endfacet
  facet normal -0.18681 0.257086 -0.948161
    outer loop
      vertex -1.98028 2.24913 5
      vertex -10.037 11.1472 9
      vertex -1.88458 2.31867 5
    endloop
  endfacet
  facet normal -0.129253 0.290322 -0.94816
    outer loop
      vertex -0.927051 2.85317 5
      vertex -7.5 12.9904 9
      vertex -4.63525 14.2658 9
    endloop
  endfacet
  facet normal 0 -0.317795 -0.948159
    outer loop
      vertex 1.56793 -14.9178 9
      vertex -0.313585 -2.98357 5
      vertex 0.313585 -2.98357 5
    endloop
  endfacet
  facet normal 0 -0.317795 -0.948159
    outer loop
      vertex -0.313585 -2.98357 5
      vertex 1.56793 -14.9178 9
      vertex -1.56793 -14.9178 9
    endloop
  endfacet
  facet normal 0.0660748 0.31085 -0.948159
    outer loop
      vertex 0.550219 2.93327 5
      vertex 1.56793 14.9178 9
      vertex 0.927051 2.85317 5
    endloop
  endfacet
  facet normal 0.0660606 0.310852 -0.94816
    outer loop
      vertex 0.379925 2.96946 5
      vertex 1.56793 14.9178 9
      vertex 0.550219 2.93327 5
    endloop
  endfacet
  facet normal 0.0661144 0.310846 -0.948158
    outer loop
      vertex 1.56793 14.9178 9
      vertex 0.379925 2.96946 5
      vertex 0.313585 2.98357 5
    endloop
  endfacet
  facet normal 0.0660754 0.31085 -0.948159
    outer loop
      vertex 4.63525 14.2658 9
      vertex 0.927051 2.85317 5
      vertex 1.56793 14.9178 9
    endloop
  endfacet
  facet normal 0.236164 0.212647 -0.94816
    outer loop
      vertex 2.42705 1.76336 5
      vertex 2.00739 2.22943 5
      vertex 10.037 11.1472 9
    endloop
  endfacet
  facet normal 0.275217 0.158898 -0.94816
    outer loop
      vertex 2.58073 1.49718 5
      vertex 13.7032 6.10105 9
      vertex 2.74064 1.22021 5
    endloop
  endfacet
  facet normal 0.275215 0.158902 -0.94816
    outer loop
      vertex 2.47865 1.67398 5
      vertex 13.7032 6.10105 9
      vertex 2.58073 1.49718 5
    endloop
  endfacet
  facet normal 0.275221 0.158888 -0.94816
    outer loop
      vertex 13.7032 6.10105 9
      vertex 2.47865 1.67398 5
      vertex 2.42705 1.76336 5
    endloop
  endfacet
  facet normal -0.30224 0.0982032 -0.94816
    outer loop
      vertex -13.7032 6.10105 9
      vertex -2.89117 0.756906 5
      vertex -2.93444 0.623734 5
    endloop
  endfacet
  facet normal -0.302241 0.098202 -0.94816
    outer loop
      vertex -2.82305 0.966573 5
      vertex -13.7032 6.10105 9
      vertex -2.74064 1.22021 5
    endloop
  endfacet
  facet normal -0.302243 0.0981975 -0.94816
    outer loop
      vertex -2.89117 0.756906 5
      vertex -13.7032 6.10105 9
      vertex -2.82305 0.966573 5
    endloop
  endfacet
  facet normal -0.275217 0.158898 -0.94816
    outer loop
      vertex -13.7032 6.10105 9
      vertex -2.58073 1.49718 5
      vertex -2.74064 1.22021 5
    endloop
  endfacet
  facet normal -0.275221 0.158888 -0.94816
    outer loop
      vertex -2.47865 1.67398 5
      vertex -13.7032 6.10105 9
      vertex -2.42705 1.76336 5
    endloop
  endfacet
  facet normal -0.275215 0.158902 -0.94816
    outer loop
      vertex -2.58073 1.49718 5
      vertex -13.7032 6.10105 9
      vertex -2.47865 1.67398 5
    endloop
  endfacet
  facet normal -0.0660606 -0.310852 -0.94816
    outer loop
      vertex -1.56793 -14.9178 9
      vertex -0.550219 -2.93327 5
      vertex -0.379925 -2.96946 5
    endloop
  endfacet
  facet normal -0.0661144 -0.310846 -0.948158
    outer loop
      vertex -1.56793 -14.9178 9
      vertex -0.379925 -2.96946 5
      vertex -0.313585 -2.98357 5
    endloop
  endfacet
  facet normal -0.0660748 -0.31085 -0.948159
    outer loop
      vertex -0.550219 -2.93327 5
      vertex -1.56793 -14.9178 9
      vertex -0.927051 -2.85317 5
    endloop
  endfacet
  facet normal 0.186792 0.257102 -0.94816
    outer loop
      vertex 10.037 11.1472 9
      vertex 1.5 2.59808 5
      vertex 7.5 12.9904 9
    endloop
  endfacet
  facet normal 0.236167 0.212644 -0.94816
    outer loop
      vertex 12.1353 8.81678 9
      vertex 2.42705 1.76336 5
      vertex 10.037 11.1472 9
    endloop
  endfacet
  facet normal 0.129244 0.290327 -0.948159
    outer loop
      vertex 1.3366 2.67082 5
      vertex 7.5 12.9904 9
      vertex 1.5 2.59808 5
    endloop
  endfacet
  facet normal 0.129268 0.290313 -0.94816
    outer loop
      vertex 1.12857 2.76345 5
      vertex 7.5 12.9904 9
      vertex 1.3366 2.67082 5
    endloop
  endfacet
  facet normal 0.129256 0.29032 -0.94816
    outer loop
      vertex 7.5 12.9904 9
      vertex 1.12857 2.76345 5
      vertex 0.927051 2.85317 5
    endloop
  endfacet
  facet normal 0.186814 0.257082 -0.948161
    outer loop
      vertex 1.98028 2.24913 5
      vertex 10.037 11.1472 9
      vertex 2.00739 2.22943 5
    endloop
  endfacet
  facet normal 0.18681 0.257086 -0.948161
    outer loop
      vertex 1.88458 2.31867 5
      vertex 10.037 11.1472 9
      vertex 1.98028 2.24913 5
    endloop
  endfacet
  facet normal 0.186793 0.257101 -0.94816
    outer loop
      vertex 10.037 11.1472 9
      vertex 1.88458 2.31867 5
      vertex 1.5 2.59808 5
    endloop
  endfacet
  facet normal 0.849871 0.0893282 0.519365
    outer loop
      vertex 15 0 9
      vertex 8.69464 1.8481 19
      vertex 8.88889 0 19
    endloop
  endfacet
  facet normal 0.849871 0.0893287 0.519365
    outer loop
      vertex 14.6722 3.11868 9
      vertex 8.69464 1.8481 19
      vertex 15 0 9
    endloop
  endfacet
  facet normal -0.849871 -0.0893282 0.519365
    outer loop
      vertex -8.88889 0 19
      vertex -15 0 9
      vertex -8.69464 -1.8481 19
    endloop
  endfacet
  facet normal 0.812727 0.26407 0.519367
    outer loop
      vertex 8.47599 2.52104 19
      vertex 13.7032 6.10105 9
      vertex 8.1204 3.61544 19
    endloop
  endfacet
  facet normal 0.812725 0.264076 0.519368
    outer loop
      vertex 8.67323 1.91401 19
      vertex 13.7032 6.10105 9
      vertex 8.47599 2.52104 19
    endloop
  endfacet
  facet normal 0.812753 0.264012 0.519355
    outer loop
      vertex 13.7032 6.10105 9
      vertex 8.67323 1.91401 19
      vertex 8.69464 1.8481 19
    endloop
  endfacet
  facet normal 0.740066 0.42727 0.519367
    outer loop
      vertex 12.1353 8.81678 9
      vertex 8.1204 3.61544 19
      vertex 13.7032 6.10105 9
    endloop
  endfacet
  facet normal 0 -0.854553 0.519364
    outer loop
      vertex -1.56793 -14.9178 9
      vertex -0.432176 -8.84019 19
      vertex -0.929141 -8.84019 19
    endloop
  endfacet
  facet normal 0 -0.854553 0.519364
    outer loop
      vertex -0.432176 -8.84019 19
      vertex -1.56793 -14.9178 9
      vertex 0.432176 -8.84019 19
    endloop
  endfacet
  facet normal 0 -0.854553 0.519364
    outer loop
      vertex 1.56793 -14.9178 9
      vertex 0.432176 -8.84019 19
      vertex -1.56793 -14.9178 9
    endloop
  endfacet
  facet normal 0 -0.854553 0.519364
    outer loop
      vertex 0.432176 -8.84019 19
      vertex 1.56793 -14.9178 9
      vertex 0.929141 -8.84019 19
    endloop
  endfacet
  facet normal 0.740066 -0.42727 0.519367
    outer loop
      vertex 13.7032 -6.10105 9
      vertex 8.1204 -3.61544 19
      vertex 12.1353 -8.81678 9
    endloop
  endfacet
  facet normal -0.177659 0.835881 0.519365
    outer loop
      vertex -1.56793 14.9178 9
      vertex -1.48974 8.72104 19
      vertex -0.929141 8.84019 19
    endloop
  endfacet
  facet normal -0.177675 0.835879 0.519363
    outer loop
      vertex -1.48974 8.72104 19
      vertex -1.56793 14.9178 9
      vertex -2.33298 8.5418 19
    endloop
  endfacet
  facet normal -0.177663 0.83588 0.519365
    outer loop
      vertex -2.33298 8.5418 19
      vertex -1.56793 14.9178 9
      vertex -2.74682 8.45384 19
    endloop
  endfacet
  facet normal -0.849871 0.0893287 0.519365
    outer loop
      vertex -14.6722 3.11868 9
      vertex -15 0 9
      vertex -8.69464 1.8481 19
    endloop
  endfacet
  facet normal -0.347563 0.780681 0.519363
    outer loop
      vertex -4.63525 14.2658 9
      vertex -7.5 12.9904 9
      vertex -2.74682 8.45384 19
    endloop
  endfacet
  facet normal -0.812753 -0.264012 0.519355
    outer loop
      vertex -13.7032 -6.10105 9
      vertex -8.67323 -1.91401 19
      vertex -8.69464 -1.8481 19
    endloop
  endfacet
  facet normal -0.812725 -0.264076 0.519368
    outer loop
      vertex -8.67323 -1.91401 19
      vertex -13.7032 -6.10105 9
      vertex -8.47599 -2.52104 19
    endloop
  endfacet
  facet normal -0.812727 -0.26407 0.519367
    outer loop
      vertex -8.47599 -2.52104 19
      vertex -13.7032 -6.10105 9
      vertex -8.1204 -3.61544 19
    endloop
  endfacet
  facet normal -0.635056 -0.571804 0.519368
    outer loop
      vertex -12.1353 -8.81678 9
      vertex -7.0515 -5.37998 19
      vertex -7.19126 -5.22476 19
    endloop
  endfacet
  facet normal -0.635052 -0.571809 0.519367
    outer loop
      vertex -7.0515 -5.37998 19
      vertex -12.1353 -8.81678 9
      vertex -6.50666 -5.98508 19
    endloop
  endfacet
  facet normal -0.635058 -0.571803 0.519368
    outer loop
      vertex -6.50666 -5.98508 19
      vertex -12.1353 -8.81678 9
      vertex -5.94783 -6.60573 19
    endloop
  endfacet
  facet normal 0.502285 -0.691351 0.519368
    outer loop
      vertex 10.037 -11.1472 9
      vertex 5.94783 -6.60573 19
      vertex 7.5 -12.9904 9
    endloop
  endfacet
  facet normal 0.81273 -0.264064 0.519366
    outer loop
      vertex 14.6722 -3.11868 9
      vertex 8.69464 -1.8481 19
      vertex 13.7032 -6.10105 9
    endloop
  endfacet
  facet normal 0.347563 0.780681 0.519363
    outer loop
      vertex 4.63525 14.2658 9
      vertex 2.74682 8.45384 19
      vertex 7.5 12.9904 9
    endloop
  endfacet
  facet normal 0.81273 0.264064 0.519366
    outer loop
      vertex 13.7032 6.10105 9
      vertex 8.69464 1.8481 19
      vertex 14.6722 3.11868 9
    endloop
  endfacet
  facet normal -0.812727 0.26407 0.519367
    outer loop
      vertex -13.7032 6.10105 9
      vertex -8.47599 2.52104 19
      vertex -8.1204 3.61544 19
    endloop
  endfacet
  facet normal -0.812725 0.264076 0.519368
    outer loop
      vertex -13.7032 6.10105 9
      vertex -8.67323 1.91401 19
      vertex -8.47599 2.52104 19
    endloop
  endfacet
  facet normal -0.812753 0.264012 0.519355
    outer loop
      vertex -8.67323 1.91401 19
      vertex -13.7032 6.10105 9
      vertex -8.69464 1.8481 19
    endloop
  endfacet
  facet normal -0.81273 -0.264064 0.519366
    outer loop
      vertex -8.69464 -1.8481 19
      vertex -14.6722 -3.11868 9
      vertex -13.7032 -6.10105 9
    endloop
  endfacet
  facet normal -0.849871 -0.0893287 0.519365
    outer loop
      vertex -8.69464 -1.8481 19
      vertex -15 0 9
      vertex -14.6722 -3.11868 9
    endloop
  endfacet
  facet normal -0.177677 -0.835879 0.519363
    outer loop
      vertex -2.74682 -8.45384 19
      vertex -4.63525 -14.2658 9
      vertex -1.56793 -14.9178 9
    endloop
  endfacet
  facet normal -0.502282 -0.691353 0.519369
    outer loop
      vertex -7.5 -12.9904 9
      vertex -5.72178 -6.76996 19
      vertex -5.94783 -6.60573 19
    endloop
  endfacet
  facet normal -0.502297 -0.691344 0.519366
    outer loop
      vertex -5.72178 -6.76996 19
      vertex -7.5 -12.9904 9
      vertex -5.04187 -7.26395 19
    endloop
  endfacet
  facet normal -0.502286 -0.691351 0.519367
    outer loop
      vertex -5.04187 -7.26395 19
      vertex -7.5 -12.9904 9
      vertex -4.44444 -7.698 19
    endloop
  endfacet
  facet normal -0.635057 -0.571803 0.519368
    outer loop
      vertex -5.94783 -6.60573 19
      vertex -12.1353 -8.81678 9
      vertex -10.037 -11.1472 9
    endloop
  endfacet
  facet normal 0.177659 -0.835881 0.519365
    outer loop
      vertex 1.56793 -14.9178 9
      vertex 1.48974 -8.72104 19
      vertex 0.929141 -8.84019 19
    endloop
  endfacet
  facet normal 0.177675 -0.835879 0.519363
    outer loop
      vertex 1.48974 -8.72104 19
      vertex 1.56793 -14.9178 9
      vertex 2.33298 -8.5418 19
    endloop
  endfacet
  facet normal 0.177663 -0.83588 0.519365
    outer loop
      vertex 2.33298 -8.5418 19
      vertex 1.56793 -14.9178 9
      vertex 2.74682 -8.45384 19
    endloop
  endfacet
  facet normal 0.177677 -0.835879 0.519363
    outer loop
      vertex 2.74682 -8.45384 19
      vertex 1.56793 -14.9178 9
      vertex 4.63525 -14.2658 9
    endloop
  endfacet
  facet normal 0.502286 -0.691351 0.519367
    outer loop
      vertex 7.5 -12.9904 9
      vertex 5.04187 -7.26395 19
      vertex 4.44444 -7.698 19
    endloop
  endfacet
  facet normal 0.502297 -0.691344 0.519366
    outer loop
      vertex 5.04187 -7.26395 19
      vertex 7.5 -12.9904 9
      vertex 5.72178 -6.76996 19
    endloop
  endfacet
  facet normal 0.502282 -0.691353 0.519369
    outer loop
      vertex 5.72178 -6.76996 19
      vertex 7.5 -12.9904 9
      vertex 5.94783 -6.60573 19
    endloop
  endfacet
  facet normal 0.635052 -0.571809 0.519367
    outer loop
      vertex 12.1353 -8.81678 9
      vertex 7.0515 -5.37998 19
      vertex 6.50666 -5.98508 19
    endloop
  endfacet
  facet normal 0.635058 -0.571803 0.519368
    outer loop
      vertex 12.1353 -8.81678 9
      vertex 6.50666 -5.98508 19
      vertex 5.94783 -6.60573 19
    endloop
  endfacet
  facet normal 0.635056 -0.571804 0.519368
    outer loop
      vertex 7.0515 -5.37998 19
      vertex 12.1353 -8.81678 9
      vertex 7.19126 -5.22476 19
    endloop
  endfacet
  facet normal 0.635057 -0.571803 0.519368
    outer loop
      vertex 12.1353 -8.81678 9
      vertex 5.94783 -6.60573 19
      vertex 10.037 -11.1472 9
    endloop
  endfacet
  facet normal 0.812725 -0.264076 0.519368
    outer loop
      vertex 13.7032 -6.10105 9
      vertex 8.67323 -1.91401 19
      vertex 8.47599 -2.52104 19
    endloop
  endfacet
  facet normal 0.812727 -0.26407 0.519367
    outer loop
      vertex 13.7032 -6.10105 9
      vertex 8.47599 -2.52104 19
      vertex 8.1204 -3.61544 19
    endloop
  endfacet
  facet normal 0.812753 -0.264012 0.519355
    outer loop
      vertex 8.67323 -1.91401 19
      vertex 13.7032 -6.10105 9
      vertex 8.69464 -1.8481 19
    endloop
  endfacet
  facet normal 0 0 1
    outer loop
      vertex 8.88889 0 19
      vertex 8.67323 -1.91401 19
      vertex 8.69464 -1.8481 19
    endloop
  endfacet
  facet normal 0 0 1
    outer loop
      vertex 8.69464 1.8481 19
      vertex 8.67323 1.91401 19
      vertex 8.88889 0 19
    endloop
  endfacet
  facet normal -0 -0 -1
    outer loop
      vertex 8.66603 1.97796 19
      vertex 8.67323 1.91401 19
      vertex 8.47599 2.52104 19
    endloop
  endfacet
  facet normal -0 -0 -1
    outer loop
      vertex 8.00861 3.85674 19
      vertex 8.05096 3.73571 19
      vertex 7.6694 4.39659 19
    endloop
  endfacet
  facet normal -0 0 -1
    outer loop
      vertex 0.432176 -8.84019 19
      vertex 0 -8.88889 19
      vertex -0.432176 -8.84019 19
    endloop
  endfacet
  facet normal 0 0 -1
    outer loop
      vertex -7.6694 -4.39659 19
      vertex -8.00861 -3.85674 19
      vertex -8.05096 -3.73571 19
    endloop
  endfacet
  facet normal 0 0 -1
    outer loop
      vertex 5.72178 -6.76996 19
      vertex 5.54213 -6.94961 19
      vertex 5.04187 -7.26395 19
    endloop
  endfacet
  facet normal 0 -0 -1
    outer loop
      vertex 0 8.88889 19
      vertex 0.432176 8.84019 19
      vertex -0.432176 8.84019 19
    endloop
  endfacet
  facet normal 0 0 -1
    outer loop
      vertex -8.47599 -2.52104 19
      vertex -8.66603 -1.97796 19
      vertex -8.67323 -1.91401 19
    endloop
  endfacet
  facet normal 0 0 -1
    outer loop
      vertex 2.33298 -8.5418 19
      vertex 1.97796 -8.66603 19
      vertex 1.48974 -8.72104 19
    endloop
  endfacet
  facet normal 0 0 -1
    outer loop
      vertex 8.67323 -1.91401 19
      vertex 8.66603 -1.97796 19
      vertex 8.47599 -2.52104 19
    endloop
  endfacet
  facet normal 0 0 -1
    outer loop
      vertex 8.05096 -3.73571 19
      vertex 8.00861 -3.85674 19
      vertex 7.6694 -4.39659 19
    endloop
  endfacet
  facet normal -0 -0 -1
    outer loop
      vertex 5.54213 6.94961 19
      vertex 5.72178 6.76996 19
      vertex 5.04187 7.26395 19
    endloop
  endfacet
  facet normal 0 0 1
    outer loop
      vertex -8.67323 -1.91401 19
      vertex -8.88889 0 19
      vertex -8.69464 -1.8481 19
    endloop
  endfacet
  facet normal -0 0 1
    outer loop
      vertex -8.69464 1.8481 19
      vertex -8.88889 0 19
      vertex -8.67323 1.91401 19
    endloop
  endfacet
  facet normal 0 -0 -1
    outer loop
      vertex -1.97796 8.66603 19
      vertex -1.48974 8.72104 19
      vertex -2.33298 8.5418 19
    endloop
  endfacet
  facet normal 0 0 -1
    outer loop
      vertex -5.04187 -7.26395 19
      vertex -5.54213 -6.94961 19
      vertex -5.72178 -6.76996 19
    endloop
  endfacet
  facet normal 0 0 -1
    outer loop
      vertex -6.50666 -5.98508 19
      vertex -6.94961 -5.54213 19
      vertex -7.0515 -5.37998 19
    endloop
  endfacet
  facet normal 0 0 -1
    outer loop
      vertex 4.12405 -7.84065 19
      vertex 3.85674 -8.00861 19
      vertex 3.3432 -8.18831 19
    endloop
  endfacet
  facet normal -0 -0 -1
    outer loop
      vertex 6.94961 5.54213 19
      vertex 7.0515 5.37998 19
      vertex 6.50666 5.98508 19
    endloop
  endfacet
  facet normal 0 -0 -1
    outer loop
      vertex -8.66603 1.97796 19
      vertex -8.47599 2.52104 19
      vertex -8.67323 1.91401 19
    endloop
  endfacet
  facet normal 0 -0 -1
    outer loop
      vertex -8.00861 3.85674 19
      vertex -7.6694 4.39659 19
      vertex -8.05096 3.73571 19
    endloop
  endfacet
  facet normal 0 -0 -1
    outer loop
      vertex -6.94961 5.54213 19
      vertex -6.50666 5.98508 19
      vertex -7.0515 5.37998 19
    endloop
  endfacet
  facet normal -0 -0 -1
    outer loop
      vertex 3.85674 8.00861 19
      vertex 4.12405 7.84065 19
      vertex 3.3432 8.18831 19
    endloop
  endfacet
  facet normal -0 -0 -1
    outer loop
      vertex 1.97796 8.66603 19
      vertex 2.33298 8.5418 19
      vertex 1.48974 8.72104 19
    endloop
  endfacet
  facet normal 0 0 -1
    outer loop
      vertex -3.3432 -8.18831 19
      vertex -3.85674 -8.00861 19
      vertex -4.12405 -7.84065 19
    endloop
  endfacet
  facet normal 0 0 -1
    outer loop
      vertex -1.48974 -8.72104 19
      vertex -1.97796 -8.66603 19
      vertex -2.33298 -8.5418 19
    endloop
  endfacet
  facet normal 0 0 -1
    outer loop
      vertex 7.0515 -5.37998 19
      vertex 6.94961 -5.54213 19
      vertex 6.50666 -5.98508 19
    endloop
  endfacet
  facet normal 0 -0 -1
    outer loop
      vertex -3.85674 8.00861 19
      vertex -3.3432 8.18831 19
      vertex -4.12405 7.84065 19
    endloop
  endfacet
  facet normal 0 -0 -1
    outer loop
      vertex -5.54213 6.94961 19
      vertex -5.04187 7.26395 19
      vertex -5.72178 6.76996 19
    endloop
  endfacet
  facet normal 0 0 1
    outer loop
      vertex 6.50666 -5.98508 19
      vertex 5.72178 -6.76996 19
      vertex 5.94783 -6.60573 19
    endloop
  endfacet
  facet normal 0 0 1
    outer loop
      vertex 8.1204 3.61544 19
      vertex 8.05096 3.73571 19
      vertex 8.47599 2.52104 19
    endloop
  endfacet
  facet normal 0 0 1
    outer loop
      vertex -4.12405 -7.84065 19
      vertex -5.04187 -7.26395 19
      vertex -4.44444 -7.698 19
    endloop
  endfacet
  facet normal 0 0 1
    outer loop
      vertex -5.72178 -6.76996 19
      vertex -6.50666 -5.98508 19
      vertex -5.94783 -6.60573 19
    endloop
  endfacet
  facet normal 0 0 1
    outer loop
      vertex 5.04187 -7.26395 19
      vertex 4.12405 -7.84065 19
      vertex 4.44444 -7.698 19
    endloop
  endfacet
  facet normal 0 0 1
    outer loop
      vertex 7.6694 -4.39659 19
      vertex 7.0515 -5.37998 19
      vertex 7.19126 -5.22476 19
    endloop
  endfacet
  facet normal 0 0 1
    outer loop
      vertex 8.47599 -2.52104 19
      vertex 8.05096 -3.73571 19
      vertex 8.1204 -3.61544 19
    endloop
  endfacet
  facet normal -0 0 1
    outer loop
      vertex -7.19126 5.22476 19
      vertex -7.6694 4.39659 19
      vertex -7.0515 5.37998 19
    endloop
  endfacet
  facet normal -0 0 1
    outer loop
      vertex -5.94783 6.60573 19
      vertex -6.50666 5.98508 19
      vertex -5.72178 6.76996 19
    endloop
  endfacet
  facet normal -0 0 1
    outer loop
      vertex -8.1204 3.61544 19
      vertex -8.47599 2.52104 19
      vertex -8.05096 3.73571 19
    endloop
  endfacet
  facet normal -0 0 1
    outer loop
      vertex -2.74682 8.45384 19
      vertex -3.3432 8.18831 19
      vertex -2.33298 8.5418 19
    endloop
  endfacet
  facet normal 0 0 1
    outer loop
      vertex 7.19126 5.22476 19
      vertex 7.0515 5.37998 19
      vertex 7.6694 4.39659 19
    endloop
  endfacet
  facet normal 0 0 1
    outer loop
      vertex 5.94783 6.60573 19
      vertex 5.72178 6.76996 19
      vertex 6.50666 5.98508 19
    endloop
  endfacet
  facet normal 0 0 1
    outer loop
      vertex 4.44444 7.698 19
      vertex 4.12405 7.84065 19
      vertex 5.04187 7.26395 19
    endloop
  endfacet
  facet normal 0 0 1
    outer loop
      vertex -0.432176 -8.84019 19
      vertex -1.48974 -8.72104 19
      vertex -0.929141 -8.84019 19
    endloop
  endfacet
  facet normal 0 0 1
    outer loop
      vertex 1.48974 -8.72104 19
      vertex 0.432176 -8.84019 19
      vertex 0.929141 -8.84019 19
    endloop
  endfacet
  facet normal 0 0 1
    outer loop
      vertex -8.05096 -3.73571 19
      vertex -8.47599 -2.52104 19
      vertex -8.1204 -3.61544 19
    endloop
  endfacet
  facet normal 0 0 1
    outer loop
      vertex 3.3432 -8.18831 19
      vertex 2.33298 -8.5418 19
      vertex 2.74682 -8.45384 19
    endloop
  endfacet
  facet normal -0 0 1
    outer loop
      vertex -4.44444 7.698 19
      vertex -5.04187 7.26395 19
      vertex -4.12405 7.84065 19
    endloop
  endfacet
  facet normal -0 0 1
    outer loop
      vertex -0.929141 8.84019 19
      vertex -1.48974 8.72104 19
      vertex -0.432176 8.84019 19
    endloop
  endfacet
  facet normal 0 0 1
    outer loop
      vertex 0.929141 8.84019 19
      vertex 0.432176 8.84019 19
      vertex 1.48974 8.72104 19
    endloop
  endfacet
  facet normal 0 0 1
    outer loop
      vertex 2.74682 8.45384 19
      vertex 2.33298 8.5418 19
      vertex 3.3432 8.18831 19
    endloop
  endfacet
  facet normal 0 0 1
    outer loop
      vertex -2.33298 -8.5418 19
      vertex -3.3432 -8.18831 19
      vertex -2.74682 -8.45384 19
    endloop
  endfacet
  facet normal 0 0 1
    outer loop
      vertex -7.0515 -5.37998 19
      vertex -7.6694 -4.39659 19
      vertex -7.19126 -5.22476 19
    endloop
  endfacet
  facet normal -0.849871 0.0893282 0.519365
    outer loop
      vertex -8.69464 1.8481 19
      vertex -15 0 9
      vertex -8.88889 0 19
    endloop
  endfacet
  facet normal -0.740064 0.427273 0.519368
    outer loop
      vertex -12.1353 8.81678 9
      vertex -7.6694 4.39659 19
      vertex -7.19126 5.22476 19
    endloop
  endfacet
  facet normal -0.740062 0.427276 0.519368
    outer loop
      vertex -12.1353 8.81678 9
      vertex -8.05096 3.73571 19
      vertex -7.6694 4.39659 19
    endloop
  endfacet
  facet normal -0.740056 0.427284 0.51937
    outer loop
      vertex -8.05096 3.73571 19
      vertex -12.1353 8.81678 9
      vertex -8.1204 3.61544 19
    endloop
  endfacet
  facet normal -0.635057 0.571803 0.519368
    outer loop
      vertex -10.037 11.1472 9
      vertex -12.1353 8.81678 9
      vertex -5.94783 6.60573 19
    endloop
  endfacet
  facet normal -0.177677 0.835879 0.519363
    outer loop
      vertex -1.56793 14.9178 9
      vertex -4.63525 14.2658 9
      vertex -2.74682 8.45384 19
    endloop
  endfacet
  facet normal 0.740064 0.427273 0.519368
    outer loop
      vertex 7.6694 4.39659 19
      vertex 12.1353 8.81678 9
      vertex 7.19126 5.22476 19
    endloop
  endfacet
  facet normal 0.740062 0.427276 0.519368
    outer loop
      vertex 8.05096 3.73571 19
      vertex 12.1353 8.81678 9
      vertex 7.6694 4.39659 19
    endloop
  endfacet
  facet normal 0.740056 0.427284 0.51937
    outer loop
      vertex 12.1353 8.81678 9
      vertex 8.05096 3.73571 19
      vertex 8.1204 3.61544 19
    endloop
  endfacet
  facet normal 0.635058 0.571803 0.519368
    outer loop
      vertex 6.50666 5.98508 19
      vertex 12.1353 8.81678 9
      vertex 5.94783 6.60573 19
    endloop
  endfacet
  facet normal 0.635052 0.571809 0.519367
    outer loop
      vertex 7.0515 5.37998 19
      vertex 12.1353 8.81678 9
      vertex 6.50666 5.98508 19
    endloop
  endfacet
  facet normal 0.635056 0.571804 0.519368
    outer loop
      vertex 12.1353 8.81678 9
      vertex 7.0515 5.37998 19
      vertex 7.19126 5.22476 19
    endloop
  endfacet
  facet normal 0.635057 0.571803 0.519368
    outer loop
      vertex 10.037 11.1472 9
      vertex 5.94783 6.60573 19
      vertex 12.1353 8.81678 9
    endloop
  endfacet
  facet normal 0.347584 0.780668 0.519367
    outer loop
      vertex 7.5 12.9904 9
      vertex 4.12405 7.84065 19
      vertex 4.44444 7.698 19
    endloop
  endfacet
  facet normal 0.34758 0.78067 0.519367
    outer loop
      vertex 4.12405 7.84065 19
      vertex 7.5 12.9904 9
      vertex 3.3432 8.18831 19
    endloop
  endfacet
  facet normal 0.347582 0.780669 0.519367
    outer loop
      vertex 3.3432 8.18831 19
      vertex 7.5 12.9904 9
      vertex 2.74682 8.45384 19
    endloop
  endfacet
  facet normal 0 0.854553 0.519364
    outer loop
      vertex 1.56793 14.9178 9
      vertex 0.432176 8.84019 19
      vertex 0.929141 8.84019 19
    endloop
  endfacet
  facet normal 0 0.854553 0.519364
    outer loop
      vertex 0.432176 8.84019 19
      vertex 1.56793 14.9178 9
      vertex -0.432176 8.84019 19
    endloop
  endfacet
  facet normal -0 0.854553 0.519364
    outer loop
      vertex -1.56793 14.9178 9
      vertex -0.432176 8.84019 19
      vertex 1.56793 14.9178 9
    endloop
  endfacet
  facet normal 0 0.854553 0.519364
    outer loop
      vertex -0.432176 8.84019 19
      vertex -1.56793 14.9178 9
      vertex -0.929141 8.84019 19
    endloop
  endfacet
  facet normal 0.502282 0.691353 0.519369
    outer loop
      vertex 7.5 12.9904 9
      vertex 5.72178 6.76996 19
      vertex 5.94783 6.60573 19
    endloop
  endfacet
  facet normal 0.502297 0.691344 0.519366
    outer loop
      vertex 5.72178 6.76996 19
      vertex 7.5 12.9904 9
      vertex 5.04187 7.26395 19
    endloop
  endfacet
  facet normal 0.502286 0.691351 0.519367
    outer loop
      vertex 5.04187 7.26395 19
      vertex 7.5 12.9904 9
      vertex 4.44444 7.698 19
    endloop
  endfacet
  facet normal 0.502285 0.691351 0.519368
    outer loop
      vertex 7.5 12.9904 9
      vertex 5.94783 6.60573 19
      vertex 10.037 11.1472 9
    endloop
  endfacet
  facet normal -0.177663 -0.83588 0.519365
    outer loop
      vertex -1.56793 -14.9178 9
      vertex -2.33298 -8.5418 19
      vertex -2.74682 -8.45384 19
    endloop
  endfacet
  facet normal -0.177675 -0.835879 0.519363
    outer loop
      vertex -2.33298 -8.5418 19
      vertex -1.56793 -14.9178 9
      vertex -1.48974 -8.72104 19
    endloop
  endfacet
  facet normal -0.177659 -0.835881 0.519365
    outer loop
      vertex -1.48974 -8.72104 19
      vertex -1.56793 -14.9178 9
      vertex -0.929141 -8.84019 19
    endloop
  endfacet
  facet normal -0.502285 -0.691351 0.519368
    outer loop
      vertex -5.94783 -6.60573 19
      vertex -10.037 -11.1472 9
      vertex -7.5 -12.9904 9
    endloop
  endfacet
  facet normal -0.740066 -0.42727 0.519367
    outer loop
      vertex -8.1204 -3.61544 19
      vertex -13.7032 -6.10105 9
      vertex -12.1353 -8.81678 9
    endloop
  endfacet
  facet normal 0.347563 -0.780681 0.519363
    outer loop
      vertex 7.5 -12.9904 9
      vertex 2.74682 -8.45384 19
      vertex 4.63525 -14.2658 9
    endloop
  endfacet
  facet normal 0.740062 -0.427276 0.519368
    outer loop
      vertex 12.1353 -8.81678 9
      vertex 8.05096 -3.73571 19
      vertex 7.6694 -4.39659 19
    endloop
  endfacet
  facet normal 0.740064 -0.427273 0.519368
    outer loop
      vertex 12.1353 -8.81678 9
      vertex 7.6694 -4.39659 19
      vertex 7.19126 -5.22476 19
    endloop
  endfacet
  facet normal 0.740056 -0.427284 0.51937
    outer loop
      vertex 8.05096 -3.73571 19
      vertex 12.1353 -8.81678 9
      vertex 8.1204 -3.61544 19
    endloop
  endfacet
  facet normal 0.849871 -0.0893287 0.519365
    outer loop
      vertex 15 0 9
      vertex 8.69464 -1.8481 19
      vertex 14.6722 -3.11868 9
    endloop
  endfacet
  facet normal 0.849871 -0.0893282 0.519365
    outer loop
      vertex 8.88889 0 19
      vertex 8.69464 -1.8481 19
      vertex 15 0 9
    endloop
  endfacet
  facet normal -0.81273 0.264064 0.519366
    outer loop
      vertex -13.7032 6.10105 9
      vertex -14.6722 3.11868 9
      vertex -8.69464 1.8481 19
    endloop
  endfacet
  facet normal -0.502285 0.691351 0.519368
    outer loop
      vertex -7.5 12.9904 9
      vertex -10.037 11.1472 9
      vertex -5.94783 6.60573 19
    endloop
  endfacet
  facet normal -0.740066 0.42727 0.519367
    outer loop
      vertex -12.1353 8.81678 9
      vertex -13.7032 6.10105 9
      vertex -8.1204 3.61544 19
    endloop
  endfacet
  facet normal 0.177663 0.83588 0.519365
    outer loop
      vertex 1.56793 14.9178 9
      vertex 2.33298 8.5418 19
      vertex 2.74682 8.45384 19
    endloop
  endfacet
  facet normal 0.177675 0.835879 0.519363
    outer loop
      vertex 2.33298 8.5418 19
      vertex 1.56793 14.9178 9
      vertex 1.48974 8.72104 19
    endloop
  endfacet
  facet normal 0.177659 0.835881 0.519365
    outer loop
      vertex 1.48974 8.72104 19
      vertex 1.56793 14.9178 9
      vertex 0.929141 8.84019 19
    endloop
  endfacet
  facet normal 0.177677 0.835879 0.519363
    outer loop
      vertex 4.63525 14.2658 9
      vertex 1.56793 14.9178 9
      vertex 2.74682 8.45384 19
    endloop
  endfacet
  facet normal -0.347563 -0.780681 0.519363
    outer loop
      vertex -2.74682 -8.45384 19
      vertex -7.5 -12.9904 9
      vertex -4.63525 -14.2658 9
    endloop
  endfacet
  facet normal -0.347584 -0.780668 0.519367
    outer loop
      vertex -7.5 -12.9904 9
      vertex -4.12405 -7.84065 19
      vertex -4.44444 -7.698 19
    endloop
  endfacet
  facet normal -0.34758 -0.78067 0.519367
    outer loop
      vertex -4.12405 -7.84065 19
      vertex -7.5 -12.9904 9
      vertex -3.3432 -8.18831 19
    endloop
  endfacet
  facet normal -0.347582 -0.780669 0.519367
    outer loop
      vertex -3.3432 -8.18831 19
      vertex -7.5 -12.9904 9
      vertex -2.74682 -8.45384 19
    endloop
  endfacet
  facet normal -0.740056 -0.427284 0.51937
    outer loop
      vertex -12.1353 -8.81678 9
      vertex -8.05096 -3.73571 19
      vertex -8.1204 -3.61544 19
    endloop
  endfacet
  facet normal -0.740062 -0.427276 0.519368
    outer loop
      vertex -8.05096 -3.73571 19
      vertex -12.1353 -8.81678 9
      vertex -7.6694 -4.39659 19
    endloop
  endfacet
  facet normal -0.740064 -0.427273 0.519368
    outer loop
      vertex -7.6694 -4.39659 19
      vertex -12.1353 -8.81678 9
      vertex -7.19126 -5.22476 19
    endloop
  endfacet
  facet normal 0.347582 -0.780669 0.519367
    outer loop
      vertex 7.5 -12.9904 9
      vertex 3.3432 -8.18831 19
      vertex 2.74682 -8.45384 19
    endloop
  endfacet
  facet normal 0.34758 -0.78067 0.519367
    outer loop
      vertex 3.3432 -8.18831 19
      vertex 7.5 -12.9904 9
      vertex 4.12405 -7.84065 19
    endloop
  endfacet
  facet normal 0.347584 -0.780668 0.519367
    outer loop
      vertex 4.12405 -7.84065 19
      vertex 7.5 -12.9904 9
      vertex 4.44444 -7.698 19
    endloop
  endfacet
  facet normal -0.502286 0.691351 0.519367
    outer loop
      vertex -7.5 12.9904 9
      vertex -5.04187 7.26395 19
      vertex -4.44444 7.698 19
    endloop
  endfacet
  facet normal -0.502297 0.691344 0.519366
    outer loop
      vertex -5.04187 7.26395 19
      vertex -7.5 12.9904 9
      vertex -5.72178 6.76996 19
    endloop
  endfacet
  facet normal -0.502282 0.691353 0.519369
    outer loop
      vertex -5.72178 6.76996 19
      vertex -7.5 12.9904 9
      vertex -5.94783 6.60573 19
    endloop
  endfacet
  facet normal -0.347582 0.780669 0.519367
    outer loop
      vertex -7.5 12.9904 9
      vertex -3.3432 8.18831 19
      vertex -2.74682 8.45384 19
    endloop
  endfacet
  facet normal -0.34758 0.78067 0.519367
    outer loop
      vertex -3.3432 8.18831 19
      vertex -7.5 12.9904 9
      vertex -4.12405 7.84065 19
    endloop
  endfacet
  facet normal -0.347584 0.780668 0.519367
    outer loop
      vertex -4.12405 7.84065 19
      vertex -7.5 12.9904 9
      vertex -4.44444 7.698 19
    endloop
  endfacet
  facet normal -0.635058 0.571803 0.519368
    outer loop
      vertex -12.1353 8.81678 9
      vertex -6.50666 5.98508 19
      vertex -5.94783 6.60573 19
    endloop
  endfacet
  facet normal -0.635052 0.571809 0.519367
    outer loop
      vertex -12.1353 8.81678 9
      vertex -7.0515 5.37998 19
      vertex -6.50666 5.98508 19
    endloop
  endfacet
  facet normal -0.635056 0.571804 0.519368
    outer loop
      vertex -7.0515 5.37998 19
      vertex -12.1353 8.81678 9
      vertex -7.19126 5.22476 19
    endloop
  endfacet
  facet normal 0.849365 0.0957021 0.519057
    outer loop
      vertex 8.88889 0 19
      vertex 3.89971 0.890083 27
      vertex 4 0 27
    endloop
  endfacet
  facet normal 0.849375 0.0956294 0.519053
    outer loop
      vertex 3.89971 0.890083 27
      vertex 8.67323 1.91401 19
      vertex 8.66603 1.97796 19
    endloop
  endfacet
  facet normal 0.849365 0.0957018 0.519057
    outer loop
      vertex 8.67323 1.91401 19
      vertex 3.89971 0.890083 27
      vertex 8.88889 0 19
    endloop
  endfacet
  facet normal -0.849365 -0.0957021 0.519057
    outer loop
      vertex -4 0 27
      vertex -8.88889 0 19
      vertex -3.89971 -0.890083 27
    endloop
  endfacet
  facet normal -0.0957021 -0.849365 0.519057
    outer loop
      vertex 0 -4 27
      vertex -0.890083 -3.89971 27
      vertex 0 -8.88889 19
    endloop
  endfacet
  facet normal 0.806776 0.282299 0.519056
    outer loop
      vertex 8.00861 3.85674 19
      vertex 3.60388 1.73553 27
      vertex 3.89971 0.890083 27
    endloop
  endfacet
  facet normal 0.806775 0.282301 0.519056
    outer loop
      vertex 3.89971 0.890083 27
      vertex 8.05096 3.73571 19
      vertex 8.00861 3.85674 19
    endloop
  endfacet
  facet normal 0.806775 0.282302 0.519056
    outer loop
      vertex 8.05096 3.73571 19
      vertex 3.89971 0.890083 27
      vertex 8.47599 2.52104 19
    endloop
  endfacet
  facet normal 0.806771 0.282313 0.519056
    outer loop
      vertex 8.47599 2.52104 19
      vertex 3.89971 0.890083 27
      vertex 8.66603 1.97796 19
    endloop
  endfacet
  facet normal -0.0957021 0.849365 0.519057
    outer loop
      vertex 0 8.88889 19
      vertex -0.890083 3.89971 27
      vertex 0 4 27
    endloop
  endfacet
  facet normal -0.723729 -0.454749 0.519056
    outer loop
      vertex -7.6694 -4.39659 19
      vertex -3.60388 -1.73553 27
      vertex -8.00861 -3.85674 19
    endloop
  endfacet
  facet normal -0.723731 -0.454747 0.519056
    outer loop
      vertex -7.0515 -5.37998 19
      vertex -3.60388 -1.73553 27
      vertex -7.6694 -4.39659 19
    endloop
  endfacet
  facet normal -0.723719 -0.454763 0.519058
    outer loop
      vertex -3.60388 -1.73553 27
      vertex -7.0515 -5.37998 19
      vertex -6.94961 -5.54213 19
    endloop
  endfacet
  facet normal -0.806776 -0.282299 0.519056
    outer loop
      vertex -3.89971 -0.890083 27
      vertex -8.00861 -3.85674 19
      vertex -3.60388 -1.73553 27
    endloop
  endfacet
  facet normal 0.454747 -0.723731 0.519056
    outer loop
      vertex 2.49396 -3.12733 27
      vertex 1.73553 -3.60388 27
      vertex 5.54213 -6.94961 19
    endloop
  endfacet
  facet normal 0.806771 -0.282313 0.519056
    outer loop
      vertex 3.89971 -0.890083 27
      vertex 8.47599 -2.52104 19
      vertex 8.66603 -1.97796 19
    endloop
  endfacet
  facet normal 0.806775 -0.282302 0.519056
    outer loop
      vertex 3.89971 -0.890083 27
      vertex 8.05096 -3.73571 19
      vertex 8.47599 -2.52104 19
    endloop
  endfacet
  facet normal 0.806775 -0.282301 0.519056
    outer loop
      vertex 8.05096 -3.73571 19
      vertex 3.89971 -0.890083 27
      vertex 8.00861 -3.85674 19
    endloop
  endfacet
  facet normal 0.454747 0.723731 0.519056
    outer loop
      vertex 5.54213 6.94961 19
      vertex 1.73553 3.60388 27
      vertex 2.49396 3.12733 27
    endloop
  endfacet
  facet normal 0.723719 0.454763 0.519058
    outer loop
      vertex 3.60388 1.73553 27
      vertex 7.0515 5.37998 19
      vertex 6.94961 5.54213 19
    endloop
  endfacet
  facet normal 0.723731 0.454747 0.519056
    outer loop
      vertex 7.0515 5.37998 19
      vertex 3.60388 1.73553 27
      vertex 7.6694 4.39659 19
    endloop
  endfacet
  facet normal 0.723729 0.454749 0.519056
    outer loop
      vertex 7.6694 4.39659 19
      vertex 3.60388 1.73553 27
      vertex 8.00861 3.85674 19
    endloop
  endfacet
  facet normal -0.282299 0.806776 0.519056
    outer loop
      vertex -0.890083 3.89971 27
      vertex -3.85674 8.00861 19
      vertex -1.73553 3.60388 27
    endloop
  endfacet
  facet normal -0.849375 0.0956294 0.519053
    outer loop
      vertex -8.67323 1.91401 19
      vertex -3.89971 0.890083 27
      vertex -8.66603 1.97796 19
    endloop
  endfacet
  facet normal -0.849365 0.0957018 0.519057
    outer loop
      vertex -3.89971 0.890083 27
      vertex -8.67323 1.91401 19
      vertex -8.88889 0 19
    endloop
  endfacet
  facet normal -0.604393 0.604393 0.519056
    outer loop
      vertex -2.49396 3.12733 27
      vertex -5.72178 6.76996 19
      vertex -6.50666 5.98508 19
    endloop
  endfacet
  facet normal -0.604393 0.604393 0.519056
    outer loop
      vertex -2.49396 3.12733 27
      vertex -6.50666 5.98508 19
      vertex -6.94961 5.54213 19
    endloop
  endfacet
  facet normal -0.604393 0.604393 0.519056
    outer loop
      vertex -5.72178 6.76996 19
      vertex -2.49396 3.12733 27
      vertex -5.54213 6.94961 19
    endloop
  endfacet
  facet normal -0.604393 0.604393 0.519056
    outer loop
      vertex -2.49396 3.12733 27
      vertex -6.94961 5.54213 19
      vertex -3.12733 2.49396 27
    endloop
  endfacet
  facet normal 0.454755 0.723725 0.519057
    outer loop
      vertex 5.04187 7.26395 19
      vertex 1.73553 3.60388 27
      vertex 5.54213 6.94961 19
    endloop
  endfacet
  facet normal 0.454747 0.723731 0.519056
    outer loop
      vertex 4.12405 7.84065 19
      vertex 1.73553 3.60388 27
      vertex 5.04187 7.26395 19
    endloop
  endfacet
  facet normal 0.454745 0.723731 0.519056
    outer loop
      vertex 1.73553 3.60388 27
      vertex 4.12405 7.84065 19
      vertex 3.85674 8.00861 19
    endloop
  endfacet
  facet normal 0.0957021 0.849365 0.519057
    outer loop
      vertex 0 8.88889 19
      vertex 0 4 27
      vertex 0.890083 3.89971 27
    endloop
  endfacet
  facet normal -0.806771 -0.282313 0.519056
    outer loop
      vertex -8.47599 -2.52104 19
      vertex -3.89971 -0.890083 27
      vertex -8.66603 -1.97796 19
    endloop
  endfacet
  facet normal -0.806775 -0.282302 0.519056
    outer loop
      vertex -8.05096 -3.73571 19
      vertex -3.89971 -0.890083 27
      vertex -8.47599 -2.52104 19
    endloop
  endfacet
  facet normal -0.806775 -0.282301 0.519056
    outer loop
      vertex -3.89971 -0.890083 27
      vertex -8.05096 -3.73571 19
      vertex -8.00861 -3.85674 19
    endloop
  endfacet
  facet normal -0.849365 -0.0957018 0.519057
    outer loop
      vertex -8.67323 -1.91401 19
      vertex -3.89971 -0.890083 27
      vertex -8.88889 0 19
    endloop
  endfacet
  facet normal -0.849375 -0.0956294 0.519053
    outer loop
      vertex -3.89971 -0.890083 27
      vertex -8.67323 -1.91401 19
      vertex -8.66603 -1.97796 19
    endloop
  endfacet
  facet normal -0.604393 -0.604393 0.519056
    outer loop
      vertex -6.94961 -5.54213 19
      vertex -2.49396 -3.12733 27
      vertex -3.12733 -2.49396 27
    endloop
  endfacet
  facet normal -0.604393 -0.604393 0.519056
    outer loop
      vertex -6.50666 -5.98508 19
      vertex -2.49396 -3.12733 27
      vertex -6.94961 -5.54213 19
    endloop
  endfacet
  facet normal -0.604393 -0.604393 0.519056
    outer loop
      vertex -5.72178 -6.76996 19
      vertex -2.49396 -3.12733 27
      vertex -6.50666 -5.98508 19
    endloop
  endfacet
  facet normal -0.604393 -0.604393 0.519056
    outer loop
      vertex -2.49396 -3.12733 27
      vertex -5.72178 -6.76996 19
      vertex -5.54213 -6.94961 19
    endloop
  endfacet
  facet normal 0.0957112 -0.849365 0.519055
    outer loop
      vertex 0.432176 -8.84019 19
      vertex 0.890083 -3.89971 27
      vertex 0 -8.88889 19
    endloop
  endfacet
  facet normal 0.0956935 -0.849366 0.519057
    outer loop
      vertex 1.48974 -8.72104 19
      vertex 0.890083 -3.89971 27
      vertex 0.432176 -8.84019 19
    endloop
  endfacet
  facet normal 0.0957019 -0.849365 0.519057
    outer loop
      vertex 0.890083 -3.89971 27
      vertex 1.48974 -8.72104 19
      vertex 1.97796 -8.66603 19
    endloop
  endfacet
  facet normal 0.282299 -0.806776 0.519056
    outer loop
      vertex 1.73553 -3.60388 27
      vertex 0.890083 -3.89971 27
      vertex 3.85674 -8.00861 19
    endloop
  endfacet
  facet normal 0.282309 -0.806772 0.519057
    outer loop
      vertex 2.33298 -8.5418 19
      vertex 0.890083 -3.89971 27
      vertex 1.97796 -8.66603 19
    endloop
  endfacet
  facet normal 0.282302 -0.806775 0.519057
    outer loop
      vertex 3.3432 -8.18831 19
      vertex 0.890083 -3.89971 27
      vertex 2.33298 -8.5418 19
    endloop
  endfacet
  facet normal 0.282309 -0.806772 0.519057
    outer loop
      vertex 0.890083 -3.89971 27
      vertex 3.3432 -8.18831 19
      vertex 3.85674 -8.00861 19
    endloop
  endfacet
  facet normal 0.454745 -0.723731 0.519056
    outer loop
      vertex 4.12405 -7.84065 19
      vertex 1.73553 -3.60388 27
      vertex 3.85674 -8.00861 19
    endloop
  endfacet
  facet normal 0.454747 -0.723731 0.519056
    outer loop
      vertex 5.04187 -7.26395 19
      vertex 1.73553 -3.60388 27
      vertex 4.12405 -7.84065 19
    endloop
  endfacet
  facet normal 0.454755 -0.723725 0.519057
    outer loop
      vertex 1.73553 -3.60388 27
      vertex 5.04187 -7.26395 19
      vertex 5.54213 -6.94961 19
    endloop
  endfacet
  facet normal 0.806776 -0.282299 0.519056
    outer loop
      vertex 3.89971 -0.890083 27
      vertex 3.60388 -1.73553 27
      vertex 8.00861 -3.85674 19
    endloop
  endfacet
  facet normal 0.849365 -0.0957018 0.519057
    outer loop
      vertex 3.89971 -0.890083 27
      vertex 8.67323 -1.91401 19
      vertex 8.88889 0 19
    endloop
  endfacet
  facet normal 0.849375 -0.0956294 0.519053
    outer loop
      vertex 8.67323 -1.91401 19
      vertex 3.89971 -0.890083 27
      vertex 8.66603 -1.97796 19
    endloop
  endfacet
  facet normal 0.849365 -0.0957021 0.519057
    outer loop
      vertex 4 0 27
      vertex 3.89971 -0.890083 27
      vertex 8.88889 0 19
    endloop
  endfacet
  facet normal 0.604393 0.604393 0.519056
    outer loop
      vertex 2.49396 3.12733 27
      vertex 5.72178 6.76996 19
      vertex 5.54213 6.94961 19
    endloop
  endfacet
  facet normal 0.604393 0.604393 0.519056
    outer loop
      vertex 5.72178 6.76996 19
      vertex 2.49396 3.12733 27
      vertex 6.50666 5.98508 19
    endloop
  endfacet
  facet normal 0.604393 0.604393 0.519056
    outer loop
      vertex 6.50666 5.98508 19
      vertex 2.49396 3.12733 27
      vertex 6.94961 5.54213 19
    endloop
  endfacet
  facet normal 0.604393 0.604393 0.519056
    outer loop
      vertex 6.94961 5.54213 19
      vertex 2.49396 3.12733 27
      vertex 3.12733 2.49396 27
    endloop
  endfacet
  facet normal 0 0 1
    outer loop
      vertex 3.89971 0.890083 27
      vertex 3.89971 -0.890083 27
      vertex 4 0 27
    endloop
  endfacet
  facet normal 0 0 1
    outer loop
      vertex 3.60388 1.73553 27
      vertex 3.89971 -0.890083 27
      vertex 3.89971 0.890083 27
    endloop
  endfacet
  facet normal 0 0 1
    outer loop
      vertex 3.60388 1.73553 27
      vertex 3.60388 -1.73553 27
      vertex 3.89971 -0.890083 27
    endloop
  endfacet
  facet normal 0 0 1
    outer loop
      vertex 3.12733 2.49396 27
      vertex 3.60388 -1.73553 27
      vertex 3.60388 1.73553 27
    endloop
  endfacet
  facet normal 0 0 1
    outer loop
      vertex 3.12733 2.49396 27
      vertex 3.12733 -2.49396 27
      vertex 3.60388 -1.73553 27
    endloop
  endfacet
  facet normal 0 0 1
    outer loop
      vertex 2.49396 3.12733 27
      vertex 3.12733 -2.49396 27
      vertex 3.12733 2.49396 27
    endloop
  endfacet
  facet normal 0 0 1
    outer loop
      vertex 2.49396 3.12733 27
      vertex 2.49396 -3.12733 27
      vertex 3.12733 -2.49396 27
    endloop
  endfacet
  facet normal 0 0 1
    outer loop
      vertex 1.73553 3.60388 27
      vertex 2.49396 -3.12733 27
      vertex 2.49396 3.12733 27
    endloop
  endfacet
  facet normal 0 0 1
    outer loop
      vertex 1.73553 3.60388 27
      vertex 1.73553 -3.60388 27
      vertex 2.49396 -3.12733 27
    endloop
  endfacet
  facet normal 0 0 1
    outer loop
      vertex 0.890083 3.89971 27
      vertex 1.73553 -3.60388 27
      vertex 1.73553 3.60388 27
    endloop
  endfacet
  facet normal 0 0 1
    outer loop
      vertex 0.890083 3.89971 27
      vertex 0.890083 -3.89971 27
      vertex 1.73553 -3.60388 27
    endloop
  endfacet
  facet normal 0 0 1
    outer loop
      vertex 0 4 27
      vertex 0.890083 -3.89971 27
      vertex 0.890083 3.89971 27
    endloop
  endfacet
  facet normal 0 0 1
    outer loop
      vertex 0 4 27
      vertex 0 -4 27
      vertex 0.890083 -3.89971 27
    endloop
  endfacet
  facet normal -0 0 1
    outer loop
      vertex -0.890083 3.89971 27
      vertex 0 -4 27
      vertex 0 4 27
    endloop
  endfacet
  facet normal 0 0 1
    outer loop
      vertex -0.890083 3.89971 27
      vertex -0.890083 -3.89971 27
      vertex 0 -4 27
    endloop
  endfacet
  facet normal -0 0 1
    outer loop
      vertex -1.73553 3.60388 27
      vertex -0.890083 -3.89971 27
      vertex -0.890083 3.89971 27
    endloop
  endfacet
  facet normal 0 0 1
    outer loop
      vertex -1.73553 3.60388 27
      vertex -1.73553 -3.60388 27
      vertex -0.890083 -3.89971 27
    endloop
  endfacet
  facet normal -0 0 1
    outer loop
      vertex -2.49396 3.12733 27
      vertex -1.73553 -3.60388 27
      vertex -1.73553 3.60388 27
    endloop
  endfacet
  facet normal 0 0 1
    outer loop
      vertex -2.49396 3.12733 27
      vertex -2.49396 -3.12733 27
      vertex -1.73553 -3.60388 27
    endloop
  endfacet
  facet normal -0 0 1
    outer loop
      vertex -3.12733 2.49396 27
      vertex -2.49396 -3.12733 27
      vertex -2.49396 3.12733 27
    endloop
  endfacet
  facet normal 0 0 1
    outer loop
      vertex -3.12733 2.49396 27
      vertex -3.12733 -2.49396 27
      vertex -2.49396 -3.12733 27
    endloop
  endfacet
  facet normal -0 0 1
    outer loop
      vertex -3.60388 1.73553 27
      vertex -3.12733 -2.49396 27
      vertex -3.12733 2.49396 27
    endloop
  endfacet
  facet normal 0 0 1
    outer loop
      vertex -3.60388 1.73553 27
      vertex -3.60388 -1.73553 27
      vertex -3.12733 -2.49396 27
    endloop
  endfacet
  facet normal -0 0 1
    outer loop
      vertex -3.89971 0.890083 27
      vertex -3.60388 -1.73553 27
      vertex -3.60388 1.73553 27
    endloop
  endfacet
  facet normal 0 0 1
    outer loop
      vertex -3.89971 0.890083 27
      vertex -3.89971 -0.890083 27
      vertex -3.60388 -1.73553 27
    endloop
  endfacet
  facet normal 0 -0 1
    outer loop
      vertex -3.89971 -0.890083 27
      vertex -3.89971 0.890083 27
      vertex -4 0 27
    endloop
  endfacet
  facet normal -0.849365 0.0957021 0.519057
    outer loop
      vertex -3.89971 0.890083 27
      vertex -8.88889 0 19
      vertex -4 0 27
    endloop
  endfacet
  facet normal -0.723731 0.454747 0.519056
    outer loop
      vertex -3.60388 1.73553 27
      vertex -7.0515 5.37998 19
      vertex -7.6694 4.39659 19
    endloop
  endfacet
  facet normal -0.723729 0.454749 0.519056
    outer loop
      vertex -3.60388 1.73553 27
      vertex -7.6694 4.39659 19
      vertex -8.00861 3.85674 19
    endloop
  endfacet
  facet normal -0.723719 0.454763 0.519058
    outer loop
      vertex -7.0515 5.37998 19
      vertex -3.60388 1.73553 27
      vertex -6.94961 5.54213 19
    endloop
  endfacet
  facet normal -0.806776 0.282299 0.519056
    outer loop
      vertex -3.60388 1.73553 27
      vertex -8.00861 3.85674 19
      vertex -3.89971 0.890083 27
    endloop
  endfacet
  facet normal -0.282309 0.806772 0.519057
    outer loop
      vertex -2.33298 8.5418 19
      vertex -0.890083 3.89971 27
      vertex -1.97796 8.66603 19
    endloop
  endfacet
  facet normal -0.282302 0.806775 0.519057
    outer loop
      vertex -3.3432 8.18831 19
      vertex -0.890083 3.89971 27
      vertex -2.33298 8.5418 19
    endloop
  endfacet
  facet normal -0.282309 0.806772 0.519057
    outer loop
      vertex -0.890083 3.89971 27
      vertex -3.3432 8.18831 19
      vertex -3.85674 8.00861 19
    endloop
  endfacet
  facet normal -0.0957112 0.849365 0.519055
    outer loop
      vertex -0.432176 8.84019 19
      vertex -0.890083 3.89971 27
      vertex 0 8.88889 19
    endloop
  endfacet
  facet normal -0.0956935 0.849366 0.519057
    outer loop
      vertex -1.48974 8.72104 19
      vertex -0.890083 3.89971 27
      vertex -0.432176 8.84019 19
    endloop
  endfacet
  facet normal -0.0957019 0.849365 0.519057
    outer loop
      vertex -0.890083 3.89971 27
      vertex -1.48974 8.72104 19
      vertex -1.97796 8.66603 19
    endloop
  endfacet
  facet normal 0.282299 0.806776 0.519056
    outer loop
      vertex 3.85674 8.00861 19
      vertex 0.890083 3.89971 27
      vertex 1.73553 3.60388 27
    endloop
  endfacet
  facet normal -0.454755 -0.723725 0.519057
    outer loop
      vertex -5.04187 -7.26395 19
      vertex -1.73553 -3.60388 27
      vertex -5.54213 -6.94961 19
    endloop
  endfacet
  facet normal -0.454747 -0.723731 0.519056
    outer loop
      vertex -4.12405 -7.84065 19
      vertex -1.73553 -3.60388 27
      vertex -5.04187 -7.26395 19
    endloop
  endfacet
  facet normal -0.454745 -0.723731 0.519056
    outer loop
      vertex -1.73553 -3.60388 27
      vertex -4.12405 -7.84065 19
      vertex -3.85674 -8.00861 19
    endloop
  endfacet
  facet normal -0.282299 -0.806776 0.519056
    outer loop
      vertex -1.73553 -3.60388 27
      vertex -3.85674 -8.00861 19
      vertex -0.890083 -3.89971 27
    endloop
  endfacet
  facet normal -0.454747 -0.723731 0.519056
    outer loop
      vertex -2.49396 -3.12733 27
      vertex -5.54213 -6.94961 19
      vertex -1.73553 -3.60388 27
    endloop
  endfacet
  facet normal -0.723731 -0.454747 0.519056
    outer loop
      vertex -3.60388 -1.73553 27
      vertex -6.94961 -5.54213 19
      vertex -3.12733 -2.49396 27
    endloop
  endfacet
  facet normal 0.0957021 -0.849365 0.519057
    outer loop
      vertex 0 -4 27
      vertex 0 -8.88889 19
      vertex 0.890083 -3.89971 27
    endloop
  endfacet
  facet normal 0.604393 -0.604393 0.519056
    outer loop
      vertex 2.49396 -3.12733 27
      vertex 6.94961 -5.54213 19
      vertex 3.12733 -2.49396 27
    endloop
  endfacet
  facet normal 0.604393 -0.604393 0.519056
    outer loop
      vertex 2.49396 -3.12733 27
      vertex 6.50666 -5.98508 19
      vertex 6.94961 -5.54213 19
    endloop
  endfacet
  facet normal 0.604393 -0.604393 0.519056
    outer loop
      vertex 2.49396 -3.12733 27
      vertex 5.72178 -6.76996 19
      vertex 6.50666 -5.98508 19
    endloop
  endfacet
  facet normal 0.604393 -0.604393 0.519056
    outer loop
      vertex 5.72178 -6.76996 19
      vertex 2.49396 -3.12733 27
      vertex 5.54213 -6.94961 19
    endloop
  endfacet
  facet normal 0.723729 -0.454749 0.519056
    outer loop
      vertex 3.60388 -1.73553 27
      vertex 7.6694 -4.39659 19
      vertex 8.00861 -3.85674 19
    endloop
  endfacet
  facet normal 0.723731 -0.454747 0.519056
    outer loop
      vertex 3.60388 -1.73553 27
      vertex 7.0515 -5.37998 19
      vertex 7.6694 -4.39659 19
    endloop
  endfacet
  facet normal 0.723719 -0.454763 0.519058
    outer loop
      vertex 7.0515 -5.37998 19
      vertex 3.60388 -1.73553 27
      vertex 6.94961 -5.54213 19
    endloop
  endfacet
  facet normal 0.723731 0.454747 0.519056
    outer loop
      vertex 6.94961 5.54213 19
      vertex 3.12733 2.49396 27
      vertex 3.60388 1.73553 27
    endloop
  endfacet
  facet normal -0.806775 0.282302 0.519056
    outer loop
      vertex -3.89971 0.890083 27
      vertex -8.05096 3.73571 19
      vertex -8.47599 2.52104 19
    endloop
  endfacet
  facet normal -0.806771 0.282313 0.519056
    outer loop
      vertex -3.89971 0.890083 27
      vertex -8.47599 2.52104 19
      vertex -8.66603 1.97796 19
    endloop
  endfacet
  facet normal -0.806775 0.282301 0.519056
    outer loop
      vertex -8.05096 3.73571 19
      vertex -3.89971 0.890083 27
      vertex -8.00861 3.85674 19
    endloop
  endfacet
  facet normal -0.723731 0.454747 0.519056
    outer loop
      vertex -3.12733 2.49396 27
      vertex -6.94961 5.54213 19
      vertex -3.60388 1.73553 27
    endloop
  endfacet
  facet normal 0.282309 0.806772 0.519057
    outer loop
      vertex 3.3432 8.18831 19
      vertex 0.890083 3.89971 27
      vertex 3.85674 8.00861 19
    endloop
  endfacet
  facet normal 0.282302 0.806775 0.519057
    outer loop
      vertex 2.33298 8.5418 19
      vertex 0.890083 3.89971 27
      vertex 3.3432 8.18831 19
    endloop
  endfacet
  facet normal 0.282309 0.806772 0.519057
    outer loop
      vertex 0.890083 3.89971 27
      vertex 2.33298 8.5418 19
      vertex 1.97796 8.66603 19
    endloop
  endfacet
  facet normal 0.0957019 0.849365 0.519057
    outer loop
      vertex 1.48974 8.72104 19
      vertex 0.890083 3.89971 27
      vertex 1.97796 8.66603 19
    endloop
  endfacet
  facet normal 0.0956935 0.849366 0.519057
    outer loop
      vertex 0.432176 8.84019 19
      vertex 0.890083 3.89971 27
      vertex 1.48974 8.72104 19
    endloop
  endfacet
  facet normal 0.0957112 0.849365 0.519055
    outer loop
      vertex 0.890083 3.89971 27
      vertex 0.432176 8.84019 19
      vertex 0 8.88889 19
    endloop
  endfacet
  facet normal -0.282309 -0.806772 0.519057
    outer loop
      vertex -3.3432 -8.18831 19
      vertex -0.890083 -3.89971 27
      vertex -3.85674 -8.00861 19
    endloop
  endfacet
  facet normal -0.282302 -0.806775 0.519057
    outer loop
      vertex -2.33298 -8.5418 19
      vertex -0.890083 -3.89971 27
      vertex -3.3432 -8.18831 19
    endloop
  endfacet
  facet normal -0.282309 -0.806772 0.519057
    outer loop
      vertex -0.890083 -3.89971 27
      vertex -2.33298 -8.5418 19
      vertex -1.97796 -8.66603 19
    endloop
  endfacet
  facet normal -0.0957019 -0.849365 0.519057
    outer loop
      vertex -1.48974 -8.72104 19
      vertex -0.890083 -3.89971 27
      vertex -1.97796 -8.66603 19
    endloop
  endfacet
  facet normal -0.0956935 -0.849366 0.519057
    outer loop
      vertex -0.432176 -8.84019 19
      vertex -0.890083 -3.89971 27
      vertex -1.48974 -8.72104 19
    endloop
  endfacet
  facet normal -0.0957112 -0.849365 0.519055
    outer loop
      vertex -0.890083 -3.89971 27
      vertex -0.432176 -8.84019 19
      vertex 0 -8.88889 19
    endloop
  endfacet
  facet normal 0.723731 -0.454747 0.519056
    outer loop
      vertex 3.60388 -1.73553 27
      vertex 3.12733 -2.49396 27
      vertex 6.94961 -5.54213 19
    endloop
  endfacet
  facet normal -0.454745 0.723731 0.519056
    outer loop
      vertex -4.12405 7.84065 19
      vertex -1.73553 3.60388 27
      vertex -3.85674 8.00861 19
    endloop
  endfacet
  facet normal -0.454747 0.723731 0.519056
    outer loop
      vertex -5.04187 7.26395 19
      vertex -1.73553 3.60388 27
      vertex -4.12405 7.84065 19
    endloop
  endfacet
  facet normal -0.454755 0.723725 0.519057
    outer loop
      vertex -1.73553 3.60388 27
      vertex -5.04187 7.26395 19
      vertex -5.54213 6.94961 19
    endloop
  endfacet
  facet normal -0.454747 0.723731 0.519056
    outer loop
      vertex -1.73553 3.60388 27
      vertex -5.54213 6.94961 19
      vertex -2.49396 3.12733 27
    endloop
  endfacet
endsolid OpenSCAD_Model
