solid OpenSCAD_Model
  facet normal 0.775993 0.111571 0.620795
    outer loop
      vertex 6.71645 1.97213 0
      vertex 3 0 5
      vertex 7 0 0
    endloop
  endfacet
  facet normal -0.775993 -0.111571 0.620795
    outer loop
      vertex -3 0 5
      vertex -7 0 0
      vertex -6.71645 -1.97213 0
    endloop
  endfacet
  facet normal -0.775993 0.111571 0.620795
    outer loop
      vertex -6.71645 1.97213 0
      vertex -7 0 0
      vertex -3 0 5
    endloop
  endfacet
  facet normal 0 0.783973 0.620795
    outer loop
      vertex 0.996203 6.92875 0
      vertex 0.321836 2.96946 5
      vertex 0.426944 2.96946 5
    endloop
  endfacet
  facet normal 0 0.783973 0.620795
    outer loop
      vertex 0.321836 2.96946 5
      vertex 0.996203 6.92875 0
      vertex -0.319619 2.96946 5
    endloop
  endfacet
  facet normal -0 0.783973 0.620795
    outer loop
      vertex -0.996203 6.92875 0
      vertex -0.319619 2.96946 5
      vertex 0.996203 6.92875 0
    endloop
  endfacet
  facet normal 0 0.783973 0.620795
    outer loop
      vertex -0.319619 2.96946 5
      vertex -0.996203 6.92875 0
      vertex -0.426944 2.96946 5
    endloop
  endfacet
  facet normal 0.592505 -0.513372 0.620796
    outer loop
      vertex 2.46161 -1.69365 5
      vertex 5.88877 -3.78448 0
      vertex 2.52376 -1.62192 5
    endloop
  endfacet
  facet normal 0.592489 -0.513392 0.620794
    outer loop
      vertex 5.88877 -3.78448 0
      vertex 2.46161 -1.69365 5
      vertex 4.58402 -5.29025 0
    endloop
  endfacet
  facet normal 0.592482 -0.513398 0.620796
    outer loop
      vertex 2.00965 -2.21523 5
      vertex 4.58402 -5.29025 0
      vertex 2.46161 -1.69365 5
    endloop
  endfacet
  facet normal 0.592521 -0.513359 0.620791
    outer loop
      vertex 4.58402 -5.29025 0
      vertex 2.00965 -2.21523 5
      vertex 1.96458 -2.26725 5
    endloop
  endfacet
  facet normal -0.423846 0.659522 0.620794
    outer loop
      vertex -2.9079 6.36742 0
      vertex -4.58402 5.29025 0
      vertex -1.24624 2.7289 5
    endloop
  endfacet
  facet normal 0.592489 0.513392 0.620794
    outer loop
      vertex 2.46161 1.69365 5
      vertex 5.88877 3.78448 0
      vertex 4.58402 5.29025 0
    endloop
  endfacet
  facet normal 0.592505 0.513372 0.620796
    outer loop
      vertex 5.88877 3.78448 0
      vertex 2.46161 1.69365 5
      vertex 2.52376 1.62192 5
    endloop
  endfacet
  facet normal 0.592482 0.513398 0.620796
    outer loop
      vertex 4.58402 5.29025 0
      vertex 2.00965 2.21523 5
      vertex 2.46161 1.69365 5
    endloop
  endfacet
  facet normal 0.592521 0.513359 0.620791
    outer loop
      vertex 2.00965 2.21523 5
      vertex 4.58402 5.29025 0
      vertex 1.96458 2.26725 5
    endloop
  endfacet
  facet normal 0.775993 -0.111571 0.620795
    outer loop
      vertex 7 0 0
      vertex 3 0 5
      vertex 6.71645 -1.97213 0
    endloop
  endfacet
  facet normal -0.775996 0.11156 0.620794
    outer loop
      vertex -6.71645 1.97213 0
      vertex -2.89865 0.704897 5
      vertex -2.87848 0.845197 5
    endloop
  endfacet
  facet normal -0.775994 0.111568 0.620795
    outer loop
      vertex -6.71645 1.97213 0
      vertex -2.98241 0.122317 5
      vertex -2.89865 0.704897 5
    endloop
  endfacet
  facet normal -0.775987 0.111592 0.620799
    outer loop
      vertex -2.98241 0.122317 5
      vertex -6.71645 1.97213 0
      vertex -3 0 5
    endloop
  endfacet
  facet normal -0.423858 0.659512 0.620797
    outer loop
      vertex -4.58402 5.29025 0
      vertex -1.3705 2.64904 5
      vertex -1.24624 2.7289 5
    endloop
  endfacet
  facet normal -0.423846 0.659522 0.620794
    outer loop
      vertex -1.3705 2.64904 5
      vertex -4.58402 5.29025 0
      vertex -1.8539 2.33838 5
    endloop
  endfacet
  facet normal -0.423849 0.659519 0.620795
    outer loop
      vertex -1.8539 2.33838 5
      vertex -4.58402 5.29025 0
      vertex -1.96458 2.26725 5
    endloop
  endfacet
  facet normal 0 0 -1
    outer loop
      vertex 6.71645 -1.97213 0
      vertex 6.71645 1.97213 0
      vertex 7 0 0
    endloop
  endfacet
  facet normal 0 0 -1
    outer loop
      vertex 5.88877 -3.78448 0
      vertex 6.71645 1.97213 0
      vertex 6.71645 -1.97213 0
    endloop
  endfacet
  facet normal 0 0 -1
    outer loop
      vertex 5.88877 -3.78448 0
      vertex 5.88877 3.78448 0
      vertex 6.71645 1.97213 0
    endloop
  endfacet
  facet normal 0 0 -1
    outer loop
      vertex 4.58402 -5.29025 0
      vertex 5.88877 3.78448 0
      vertex 5.88877 -3.78448 0
    endloop
  endfacet
  facet normal 0 0 -1
    outer loop
      vertex 4.58402 -5.29025 0
      vertex 4.58402 5.29025 0
      vertex 5.88877 3.78448 0
    endloop
  endfacet
  facet normal 0 0 -1
    outer loop
      vertex 2.9079 -6.36742 0
      vertex 4.58402 5.29025 0
      vertex 4.58402 -5.29025 0
    endloop
  endfacet
  facet normal 0 0 -1
    outer loop
      vertex 2.9079 -6.36742 0
      vertex 2.9079 6.36742 0
      vertex 4.58402 5.29025 0
    endloop
  endfacet
  facet normal 0 0 -1
    outer loop
      vertex 0.996203 -6.92875 0
      vertex 2.9079 6.36742 0
      vertex 2.9079 -6.36742 0
    endloop
  endfacet
  facet normal 0 0 -1
    outer loop
      vertex 0.996203 -6.92875 0
      vertex 0.996203 6.92875 0
      vertex 2.9079 6.36742 0
    endloop
  endfacet
  facet normal 0 0 -1
    outer loop
      vertex -0.996203 -6.92875 0
      vertex 0.996203 6.92875 0
      vertex 0.996203 -6.92875 0
    endloop
  endfacet
  facet normal 0 0 -1
    outer loop
      vertex -0.996203 -6.92875 0
      vertex -0.996203 6.92875 0
      vertex 0.996203 6.92875 0
    endloop
  endfacet
  facet normal 0 0 -1
    outer loop
      vertex -2.9079 -6.36742 0
      vertex -0.996203 6.92875 0
      vertex -0.996203 -6.92875 0
    endloop
  endfacet
  facet normal 0 0 -1
    outer loop
      vertex -2.9079 -6.36742 0
      vertex -2.9079 6.36742 0
      vertex -0.996203 6.92875 0
    endloop
  endfacet
  facet normal 0 0 -1
    outer loop
      vertex -4.58402 -5.29025 0
      vertex -2.9079 6.36742 0
      vertex -2.9079 -6.36742 0
    endloop
  endfacet
  facet normal 0 0 -1
    outer loop
      vertex -4.58402 -5.29025 0
      vertex -4.58402 5.29025 0
      vertex -2.9079 6.36742 0
    endloop
  endfacet
  facet normal 0 0 -1
    outer loop
      vertex -5.88877 -3.78448 0
      vertex -4.58402 5.29025 0
      vertex -4.58402 -5.29025 0
    endloop
  endfacet
  facet normal 0 0 -1
    outer loop
      vertex -5.88877 -3.78448 0
      vertex -5.88877 3.78448 0
      vertex -4.58402 5.29025 0
    endloop
  endfacet
  facet normal 0 0 -1
    outer loop
      vertex -6.71645 -1.97213 0
      vertex -5.88877 3.78448 0
      vertex -5.88877 -3.78448 0
    endloop
  endfacet
  facet normal 0 0 -1
    outer loop
      vertex -6.71645 -1.97213 0
      vertex -6.71645 1.97213 0
      vertex -5.88877 3.78448 0
    endloop
  endfacet
  facet normal 0 -0 -1
    outer loop
      vertex -6.71645 1.97213 0
      vertex -6.71645 -1.97213 0
      vertex -7 0 0
    endloop
  endfacet
  facet normal 0.424026 0.659391 0.62081
    outer loop
      vertex 4.58402 5.29025 0
      vertex 1.95385 2.27415 5
      vertex 1.96458 2.26725 5
    endloop
  endfacet
  facet normal 0.423844 0.659524 0.620794
    outer loop
      vertex 1.95385 2.27415 5
      vertex 4.58402 5.29025 0
      vertex 1.30773 2.68938 5
    endloop
  endfacet
  facet normal 0.423867 0.659504 0.620799
    outer loop
      vertex 1.30773 2.68938 5
      vertex 4.58402 5.29025 0
      vertex 1.24624 2.7289 5
    endloop
  endfacet
  facet normal 0.220873 0.752216 0.620795
    outer loop
      vertex 0.996203 6.92875 0
      vertex 0.426944 2.96946 5
      vertex 2.9079 6.36742 0
    endloop
  endfacet
  facet normal -0.220873 0.752216 0.620795
    outer loop
      vertex -0.996203 6.92875 0
      vertex -2.9079 6.36742 0
      vertex -0.426944 2.96946 5
    endloop
  endfacet
  facet normal 0.713127 -0.325673 0.620795
    outer loop
      vertex 6.71645 -1.97213 0
      vertex 2.81707 -0.979658 5
      vertex 2.58359 -1.49091 5
    endloop
  endfacet
  facet normal 0.713127 -0.325673 0.620795
    outer loop
      vertex 6.71645 -1.97213 0
      vertex 2.58359 -1.49091 5
      vertex 2.52376 -1.62192 5
    endloop
  endfacet
  facet normal 0.713121 -0.325691 0.620793
    outer loop
      vertex 2.81707 -0.979658 5
      vertex 6.71645 -1.97213 0
      vertex 2.87848 -0.845197 5
    endloop
  endfacet
  facet normal -0.592483 0.513398 0.620795
    outer loop
      vertex -4.58402 5.29025 0
      vertex -2.03969 2.18057 5
      vertex -1.96458 2.26725 5
    endloop
  endfacet
  facet normal -0.592488 0.513392 0.620794
    outer loop
      vertex -2.03969 2.18057 5
      vertex -4.58402 5.29025 0
      vertex -2.439 1.71974 5
    endloop
  endfacet
  facet normal -0.592489 0.513392 0.620794
    outer loop
      vertex -5.88877 3.78448 0
      vertex -2.439 1.71974 5
      vertex -4.58402 5.29025 0
    endloop
  endfacet
  facet normal -0.592492 0.513388 0.620795
    outer loop
      vertex -2.439 1.71974 5
      vertex -5.88877 3.78448 0
      vertex -2.52376 1.62192 5
    endloop
  endfacet
  facet normal -0.775987 -0.111592 0.620799
    outer loop
      vertex -6.71645 -1.97213 0
      vertex -2.98241 -0.122317 5
      vertex -3 0 5
    endloop
  endfacet
  facet normal -0.775994 -0.111568 0.620795
    outer loop
      vertex -2.98241 -0.122317 5
      vertex -6.71645 -1.97213 0
      vertex -2.89865 -0.704897 5
    endloop
  endfacet
  facet normal -0.775996 -0.11156 0.620794
    outer loop
      vertex -2.89865 -0.704897 5
      vertex -6.71645 -1.97213 0
      vertex -2.87848 -0.845197 5
    endloop
  endfacet
  facet normal -0.423846 -0.659522 0.620794
    outer loop
      vertex -1.24624 -2.7289 5
      vertex -4.58402 -5.29025 0
      vertex -2.9079 -6.36742 0
    endloop
  endfacet
  facet normal -0.220866 -0.752219 0.620794
    outer loop
      vertex -2.9079 -6.36742 0
      vertex -1.18715 -2.74625 5
      vertex -1.24624 -2.7289 5
    endloop
  endfacet
  facet normal -0.220871 -0.752217 0.620794
    outer loop
      vertex -1.18715 -2.74625 5
      vertex -2.9079 -6.36742 0
      vertex -0.45125 -2.96233 5
    endloop
  endfacet
  facet normal -0.220683 -0.752302 0.620759
    outer loop
      vertex -0.45125 -2.96233 5
      vertex -2.9079 -6.36742 0
      vertex -0.426944 -2.96946 5
    endloop
  endfacet
  facet normal -0.220873 -0.752216 0.620795
    outer loop
      vertex -0.426944 -2.96946 5
      vertex -2.9079 -6.36742 0
      vertex -0.996203 -6.92875 0
    endloop
  endfacet
  facet normal 0 -0.783973 0.620795
    outer loop
      vertex -0.996203 -6.92875 0
      vertex -0.319619 -2.96946 5
      vertex -0.426944 -2.96946 5
    endloop
  endfacet
  facet normal 0 -0.783973 0.620795
    outer loop
      vertex -0.319619 -2.96946 5
      vertex -0.996203 -6.92875 0
      vertex 0.321836 -2.96946 5
    endloop
  endfacet
  facet normal 0 -0.783973 0.620795
    outer loop
      vertex 0.996203 -6.92875 0
      vertex 0.321836 -2.96946 5
      vertex -0.996203 -6.92875 0
    endloop
  endfacet
  facet normal 0 -0.783973 0.620795
    outer loop
      vertex 0.321836 -2.96946 5
      vertex 0.996203 -6.92875 0
      vertex 0.426944 -2.96946 5
    endloop
  endfacet
  facet normal 0.220873 -0.752216 0.620795
    outer loop
      vertex 2.9079 -6.36742 0
      vertex 0.426944 -2.96946 5
      vertex 0.996203 -6.92875 0
    endloop
  endfacet
  facet normal 0.713126 -0.325677 0.620794
    outer loop
      vertex 6.71645 -1.97213 0
      vertex 2.52376 -1.62192 5
      vertex 5.88877 -3.78448 0
    endloop
  endfacet
  facet normal 0.713126 0.325677 0.620794
    outer loop
      vertex 5.88877 3.78448 0
      vertex 2.52376 1.62192 5
      vertex 6.71645 1.97213 0
    endloop
  endfacet
  facet normal 0.220847 0.752226 0.620792
    outer loop
      vertex 2.9079 6.36742 0
      vertex 1.10298 2.77096 5
      vertex 1.24624 2.7289 5
    endloop
  endfacet
  facet normal 0.220873 0.752216 0.620795
    outer loop
      vertex 1.10298 2.77096 5
      vertex 2.9079 6.36742 0
      vertex 0.559814 2.93045 5
    endloop
  endfacet
  facet normal 0.22085 0.752226 0.620791
    outer loop
      vertex 0.559814 2.93045 5
      vertex 2.9079 6.36742 0
      vertex 0.426944 2.96946 5
    endloop
  endfacet
  facet normal -0.220683 0.752302 0.620759
    outer loop
      vertex -2.9079 6.36742 0
      vertex -0.45125 2.96233 5
      vertex -0.426944 2.96946 5
    endloop
  endfacet
  facet normal -0.220871 0.752217 0.620794
    outer loop
      vertex -0.45125 2.96233 5
      vertex -2.9079 6.36742 0
      vertex -1.18715 2.74625 5
    endloop
  endfacet
  facet normal -0.220866 0.752219 0.620794
    outer loop
      vertex -1.18715 2.74625 5
      vertex -2.9079 6.36742 0
      vertex -1.24624 2.7289 5
    endloop
  endfacet
  facet normal -0.713126 0.325677 0.620794
    outer loop
      vertex -5.88877 3.78448 0
      vertex -6.71645 1.97213 0
      vertex -2.52376 1.62192 5
    endloop
  endfacet
  facet normal -0.713126 -0.325677 0.620794
    outer loop
      vertex -2.52376 -1.62192 5
      vertex -6.71645 -1.97213 0
      vertex -5.88877 -3.78448 0
    endloop
  endfacet
  facet normal -0.423849 -0.659519 0.620795
    outer loop
      vertex -4.58402 -5.29025 0
      vertex -1.8539 -2.33838 5
      vertex -1.96458 -2.26725 5
    endloop
  endfacet
  facet normal -0.423846 -0.659522 0.620794
    outer loop
      vertex -1.8539 -2.33838 5
      vertex -4.58402 -5.29025 0
      vertex -1.3705 -2.64904 5
    endloop
  endfacet
  facet normal -0.423858 -0.659512 0.620797
    outer loop
      vertex -1.3705 -2.64904 5
      vertex -4.58402 -5.29025 0
      vertex -1.24624 -2.7289 5
    endloop
  endfacet
  facet normal 0.22085 -0.752226 0.620791
    outer loop
      vertex 2.9079 -6.36742 0
      vertex 0.559814 -2.93045 5
      vertex 0.426944 -2.96946 5
    endloop
  endfacet
  facet normal 0.220873 -0.752216 0.620795
    outer loop
      vertex 0.559814 -2.93045 5
      vertex 2.9079 -6.36742 0
      vertex 1.10298 -2.77096 5
    endloop
  endfacet
  facet normal 0.220847 -0.752226 0.620792
    outer loop
      vertex 1.10298 -2.77096 5
      vertex 2.9079 -6.36742 0
      vertex 1.24624 -2.7289 5
    endloop
  endfacet
  facet normal 0.423846 -0.659522 0.620794
    outer loop
      vertex 4.58402 -5.29025 0
      vertex 1.24624 -2.7289 5
      vertex 2.9079 -6.36742 0
    endloop
  endfacet
  facet normal 0.776002 0.111526 0.620791
    outer loop
      vertex 2.89046 0.76184 5
      vertex 6.71645 1.97213 0
      vertex 2.87848 0.845197 5
    endloop
  endfacet
  facet normal 0.775992 0.111575 0.620795
    outer loop
      vertex 6.71645 1.97213 0
      vertex 2.89046 0.76184 5
      vertex 3 0 5
    endloop
  endfacet
  facet normal 0.713127 0.325673 0.620795
    outer loop
      vertex 2.58359 1.49091 5
      vertex 6.71645 1.97213 0
      vertex 2.52376 1.62192 5
    endloop
  endfacet
  facet normal 0.713127 0.325673 0.620795
    outer loop
      vertex 2.81707 0.979658 5
      vertex 6.71645 1.97213 0
      vertex 2.58359 1.49091 5
    endloop
  endfacet
  facet normal 0.713121 0.325691 0.620793
    outer loop
      vertex 6.71645 1.97213 0
      vertex 2.81707 0.979658 5
      vertex 2.87848 0.845197 5
    endloop
  endfacet
  facet normal 0.423846 0.659522 0.620794
    outer loop
      vertex 2.9079 6.36742 0
      vertex 1.24624 2.7289 5
      vertex 4.58402 5.29025 0
    endloop
  endfacet
  facet normal 0 0 1
    outer loop
      vertex 2.52376 1.62192 5
      vertex 2.46161 1.69365 5
      vertex 2.58359 1.49091 5
    endloop
  endfacet
  facet normal 0 0 1
    outer loop
      vertex -2.98241 0.122317 5
      vertex -3 0 5
      vertex -2.98241 -0.122317 5
    endloop
  endfacet
  facet normal 0 0 1
    outer loop
      vertex -0.319619 -2.96946 5
      vertex -0.45125 -2.96233 5
      vertex -0.426944 -2.96946 5
    endloop
  endfacet
  facet normal -0 0 1
    outer loop
      vertex -1.24624 2.7289 5
      vertex -1.3705 2.64904 5
      vertex -1.18715 2.74625 5
    endloop
  endfacet
  facet normal 0 0 1
    outer loop
      vertex 1.96458 2.26725 5
      vertex 1.95385 2.27415 5
      vertex 2.00965 2.21523 5
    endloop
  endfacet
  facet normal 0 0 1
    outer loop
      vertex 2.87848 0.845197 5
      vertex 2.81707 0.979658 5
      vertex 2.89046 0.76184 5
    endloop
  endfacet
  facet normal -0 0 1
    outer loop
      vertex -2.87848 0.845197 5
      vertex -2.89865 0.704897 5
      vertex -2.8578 0.890469 5
    endloop
  endfacet
  facet normal 0 0 1
    outer loop
      vertex -1.8539 -2.33838 5
      vertex -2.03969 -2.18057 5
      vertex -1.96458 -2.26725 5
    endloop
  endfacet
  facet normal 0 0 1
    outer loop
      vertex 1.24624 2.7289 5
      vertex 1.10298 2.77096 5
      vertex 1.30773 2.68938 5
    endloop
  endfacet
  facet normal -0 0 1
    outer loop
      vertex -0.426944 2.96946 5
      vertex -0.45125 2.96233 5
      vertex -0.319619 2.96946 5
    endloop
  endfacet
  facet normal 0 0 1
    outer loop
      vertex 2.89046 -0.76184 5
      vertex 2.81707 -0.979658 5
      vertex 2.87848 -0.845197 5
    endloop
  endfacet
  facet normal 0 0 1
    outer loop
      vertex 2.58359 -1.49091 5
      vertex 2.46161 -1.69365 5
      vertex 2.52376 -1.62192 5
    endloop
  endfacet
  facet normal -0 0 1
    outer loop
      vertex -1.96458 2.26725 5
      vertex -2.03969 2.18057 5
      vertex -1.8539 2.33838 5
    endloop
  endfacet
  facet normal 0 0 1
    outer loop
      vertex -2.8578 -0.890469 5
      vertex -2.89865 -0.704897 5
      vertex -2.87848 -0.845197 5
    endloop
  endfacet
  facet normal 0 0 1
    outer loop
      vertex -1.18715 -2.74625 5
      vertex -1.3705 -2.64904 5
      vertex -1.24624 -2.7289 5
    endloop
  endfacet
  facet normal 0 0 1
    outer loop
      vertex 0.559814 -2.93045 5
      vertex 0.321836 -2.96946 5
      vertex 0.426944 -2.96946 5
    endloop
  endfacet
  facet normal 0 0 1
    outer loop
      vertex 2.00965 -2.21523 5
      vertex 1.95385 -2.27415 5
      vertex 1.96458 -2.26725 5
    endloop
  endfacet
  facet normal 0 0 1
    outer loop
      vertex 0.426944 2.96946 5
      vertex 0.321836 2.96946 5
      vertex 0.559814 2.93045 5
    endloop
  endfacet
  facet normal -0 0 1
    outer loop
      vertex -2.52376 1.62192 5
      vertex -2.53941 1.58765 5
      vertex -2.439 1.71974 5
    endloop
  endfacet
  facet normal 0 0 1
    outer loop
      vertex 1.30773 -2.68938 5
      vertex 1.10298 -2.77096 5
      vertex 1.24624 -2.7289 5
    endloop
  endfacet
  facet normal 0 0 -1
    outer loop
      vertex 3 0 5
      vertex 2.92986 -0.644911 5
      vertex 2.89046 -0.76184 5
    endloop
  endfacet
  facet normal -0 -0 -1
    outer loop
      vertex 2.92986 0.644911 5
      vertex 3 0 5
      vertex 2.89046 0.76184 5
    endloop
  endfacet
  facet normal 0 0 1
    outer loop
      vertex -2.439 -1.71974 5
      vertex -2.53941 -1.58765 5
      vertex -2.52376 -1.62192 5
    endloop
  endfacet
  facet normal 0 0 -1
    outer loop
      vertex 2.81707 -0.979658 5
      vertex 2.72273 -1.25967 5
      vertex 2.58359 -1.49091 5
    endloop
  endfacet
  facet normal 0 0 -1
    outer loop
      vertex 1.10298 -2.77096 5
      vertex 0.802585 -2.89065 5
      vertex 0.559814 -2.93045 5
    endloop
  endfacet
  facet normal 0 0 -1
    outer loop
      vertex 2.46161 -1.69365 5
      vertex 2.38828 -1.81552 5
      vertex 2.00965 -2.21523 5
    endloop
  endfacet
  facet normal 0 0 -1
    outer loop
      vertex 1.40522 -2.65054 5
      vertex 1.95385 -2.27415 5
      vertex 1.94216 -2.28649 5
    endloop
  endfacet
  facet normal 0 0 -1
    outer loop
      vertex 1.95385 -2.27415 5
      vertex 1.40522 -2.65054 5
      vertex 1.30773 -2.68938 5
    endloop
  endfacet
  facet normal 0 0 -1
    outer loop
      vertex -1.3705 -2.64904 5
      vertex -1.68356 -2.48307 5
      vertex -1.8539 -2.33838 5
    endloop
  endfacet
  facet normal 0 0 -1
    outer loop
      vertex -1.11041 -2.78693 5
      vertex -0.45125 -2.96233 5
      vertex -0.485346 -2.96048 5
    endloop
  endfacet
  facet normal 0 0 -1
    outer loop
      vertex -0.45125 -2.96233 5
      vertex -1.11041 -2.78693 5
      vertex -1.18715 -2.74625 5
    endloop
  endfacet
  facet normal 0 0 -1
    outer loop
      vertex -2.84296 -0.957904 5
      vertex -2.53941 -1.58765 5
      vertex -2.57057 -1.54666 5
    endloop
  endfacet
  facet normal 0 0 -1
    outer loop
      vertex -2.53941 -1.58765 5
      vertex -2.84296 -0.957904 5
      vertex -2.8578 -0.890469 5
    endloop
  endfacet
  facet normal 0 0 -1
    outer loop
      vertex -2.03969 -2.18057 5
      vertex -2.17799 -2.0631 5
      vertex -2.439 -1.71974 5
    endloop
  endfacet
  facet normal 0 0 -1
    outer loop
      vertex 1.95385 2.27415 5
      vertex 1.40522 2.65054 5
      vertex 1.94216 2.28649 5
    endloop
  endfacet
  facet normal -0 -0 -1
    outer loop
      vertex 1.40522 2.65054 5
      vertex 1.95385 2.27415 5
      vertex 1.30773 2.68938 5
    endloop
  endfacet
  facet normal -0 -0 -1
    outer loop
      vertex 2.38828 1.81552 5
      vertex 2.46161 1.69365 5
      vertex 2.00965 2.21523 5
    endloop
  endfacet
  facet normal -0 -0 -1
    outer loop
      vertex 2.72273 1.25967 5
      vertex 2.81707 0.979658 5
      vertex 2.58359 1.49091 5
    endloop
  endfacet
  facet normal -0 0 -1
    outer loop
      vertex 0.321836 -2.96946 5
      vertex 0.162416 -2.9956 5
      vertex -0.319619 -2.96946 5
    endloop
  endfacet
  facet normal 0 0 -1
    outer loop
      vertex -0.45125 2.96233 5
      vertex -1.11041 2.78693 5
      vertex -0.485346 2.96048 5
    endloop
  endfacet
  facet normal 0 -0 -1
    outer loop
      vertex -1.11041 2.78693 5
      vertex -0.45125 2.96233 5
      vertex -1.18715 2.74625 5
    endloop
  endfacet
  facet normal 0 0 -1
    outer loop
      vertex -2.53941 1.58765 5
      vertex -2.84296 0.957904 5
      vertex -2.57057 1.54666 5
    endloop
  endfacet
  facet normal 0 -0 -1
    outer loop
      vertex -2.84296 0.957904 5
      vertex -2.53941 1.58765 5
      vertex -2.8578 0.890469 5
    endloop
  endfacet
  facet normal 0 0 -1
    outer loop
      vertex -2.98241 0.324357 5
      vertex -2.89865 0.704897 5
      vertex -2.98241 0.122317 5
    endloop
  endfacet
  facet normal 0 0 -1
    outer loop
      vertex -2.98241 -0.122317 5
      vertex -2.89865 -0.704897 5
      vertex -2.98241 -0.324357 5
    endloop
  endfacet
  facet normal -0 -0 -1
    outer loop
      vertex 0.802585 2.89065 5
      vertex 1.10298 2.77096 5
      vertex 0.559814 2.93045 5
    endloop
  endfacet
  facet normal 0 -0 -1
    outer loop
      vertex -1.68356 2.48307 5
      vertex -1.3705 2.64904 5
      vertex -1.8539 2.33838 5
    endloop
  endfacet
  facet normal 0 -0 -1
    outer loop
      vertex -2.17799 2.0631 5
      vertex -2.03969 2.18057 5
      vertex -2.439 1.71974 5
    endloop
  endfacet
  facet normal 0 -0 -1
    outer loop
      vertex 0.162416 2.9956 5
      vertex 0.321836 2.96946 5
      vertex -0.319619 2.96946 5
    endloop
  endfacet
  facet normal -0.71313 0.325663 0.620797
    outer loop
      vertex -6.71645 1.97213 0
      vertex -2.53941 1.58765 5
      vertex -2.52376 1.62192 5
    endloop
  endfacet
  facet normal -0.713127 0.325672 0.620795
    outer loop
      vertex -6.71645 1.97213 0
      vertex -2.8578 0.890469 5
      vertex -2.53941 1.58765 5
    endloop
  endfacet
  facet normal -0.713101 0.325741 0.62079
    outer loop
      vertex -2.8578 0.890469 5
      vertex -6.71645 1.97213 0
      vertex -2.87848 0.845197 5
    endloop
  endfacet
  facet normal -0.592488 -0.513392 0.620794
    outer loop
      vertex -4.58402 -5.29025 0
      vertex -2.03969 -2.18057 5
      vertex -2.439 -1.71974 5
    endloop
  endfacet
  facet normal -0.592483 -0.513398 0.620795
    outer loop
      vertex -2.03969 -2.18057 5
      vertex -4.58402 -5.29025 0
      vertex -1.96458 -2.26725 5
    endloop
  endfacet
  facet normal -0.592492 -0.513388 0.620795
    outer loop
      vertex -5.88877 -3.78448 0
      vertex -2.439 -1.71974 5
      vertex -2.52376 -1.62192 5
    endloop
  endfacet
  facet normal -0.592489 -0.513392 0.620794
    outer loop
      vertex -2.439 -1.71974 5
      vertex -5.88877 -3.78448 0
      vertex -4.58402 -5.29025 0
    endloop
  endfacet
  facet normal 0.423867 -0.659504 0.620799
    outer loop
      vertex 4.58402 -5.29025 0
      vertex 1.30773 -2.68938 5
      vertex 1.24624 -2.7289 5
    endloop
  endfacet
  facet normal 0.423844 -0.659524 0.620794
    outer loop
      vertex 1.30773 -2.68938 5
      vertex 4.58402 -5.29025 0
      vertex 1.95385 -2.27415 5
    endloop
  endfacet
  facet normal 0.424026 -0.659391 0.62081
    outer loop
      vertex 1.95385 -2.27415 5
      vertex 4.58402 -5.29025 0
      vertex 1.96458 -2.26725 5
    endloop
  endfacet
  facet normal 0.776002 -0.111526 0.620791
    outer loop
      vertex 6.71645 -1.97213 0
      vertex 2.89046 -0.76184 5
      vertex 2.87848 -0.845197 5
    endloop
  endfacet
  facet normal 0.775992 -0.111575 0.620795
    outer loop
      vertex 2.89046 -0.76184 5
      vertex 6.71645 -1.97213 0
      vertex 3 0 5
    endloop
  endfacet
  facet normal -0.713101 -0.325741 0.62079
    outer loop
      vertex -6.71645 -1.97213 0
      vertex -2.8578 -0.890469 5
      vertex -2.87848 -0.845197 5
    endloop
  endfacet
  facet normal -0.713127 -0.325672 0.620795
    outer loop
      vertex -2.8578 -0.890469 5
      vertex -6.71645 -1.97213 0
      vertex -2.53941 -1.58765 5
    endloop
  endfacet
  facet normal -0.71313 -0.325663 0.620797
    outer loop
      vertex -2.53941 -1.58765 5
      vertex -6.71645 -1.97213 0
      vertex -2.52376 -1.62192 5
    endloop
  endfacet
  facet normal 0.553694 -0.0602193 -0.83054
    outer loop
      vertex 8.78958 -1.93473 9
      vertex 2.92986 -0.644911 5
      vertex 3 0 5
    endloop
  endfacet
  facet normal 0.553694 0.0602194 -0.83054
    outer loop
      vertex 9 0 9
      vertex 3 0 5
      vertex 8.78958 1.93473 9
    endloop
  endfacet
  facet normal 0.553694 0.0602193 -0.83054
    outer loop
      vertex 3 0 5
      vertex 2.92986 0.644911 5
      vertex 8.78958 1.93473 9
    endloop
  endfacet
  facet normal 0.0901058 0.549621 -0.83054
    outer loop
      vertex 0.802585 2.89065 5
      vertex 0.487249 8.9868 9
      vertex 2.40775 8.67195 9
    endloop
  endfacet
  facet normal 0.0901058 -0.549621 -0.83054
    outer loop
      vertex 2.40775 -8.67195 9
      vertex 0.487249 -8.9868 9
      vertex 0.802585 -2.89065 5
    endloop
  endfacet
  facet normal 0.527804 0.177836 -0.83054
    outer loop
      vertex 8.78958 1.93473 9
      vertex 2.92986 0.644911 5
      vertex 8.16818 3.779 9
    endloop
  endfacet
  facet normal 0.20615 -0.517402 -0.83054
    outer loop
      vertex 2.40775 -8.67195 9
      vertex 0.802585 -2.89065 5
      vertex 4.21568 -7.95161 9
    endloop
  endfacet
  facet normal -0.149003 -0.536657 -0.83054
    outer loop
      vertex -1.45604 -8.88144 9
      vertex -3.33124 -8.36079 9
      vertex -1.11041 -2.78693 5
    endloop
  endfacet
  facet normal -0.443392 -0.337056 -0.83054
    outer loop
      vertex -6.53396 -6.18929 9
      vertex -7.71171 -4.63998 9
      vertex -2.57057 -1.54666 5
    endloop
  endfacet
  facet normal -0.543939 -0.119701 -0.830543
    outer loop
      vertex -8.94724 -0.973071 9
      vertex -2.8578 -0.890469 5
      vertex -2.84296 -0.957904 5
    endloop
  endfacet
  facet normal -0.543936 -0.119737 -0.83054
    outer loop
      vertex -2.8578 -0.890469 5
      vertex -8.94724 -0.973071 9
      vertex -2.89865 -0.704897 5
    endloop
  endfacet
  facet normal -0.543938 -0.119725 -0.830541
    outer loop
      vertex -2.89865 -0.704897 5
      vertex -8.94724 -0.973071 9
      vertex -2.98241 -0.324357 5
    endloop
  endfacet
  facet normal 0.404347 0.383022 -0.83054
    outer loop
      vertex 2.00965 2.21523 5
      vertex 7.16484 5.44657 9
      vertex 2.38828 1.81552 5
    endloop
  endfacet
  facet normal 0.404349 0.38302 -0.830541
    outer loop
      vertex 7.16484 5.44657 9
      vertex 2.00965 2.21523 5
      vertex 5.82648 6.85946 9
    endloop
  endfacet
  facet normal 0.404394 0.38298 -0.830537
    outer loop
      vertex 1.95385 2.27415 5
      vertex 5.82648 6.85946 9
      vertex 2.00965 2.21523 5
    endloop
  endfacet
  facet normal 0.404333 0.383035 -0.830541
    outer loop
      vertex 5.82648 6.85946 9
      vertex 1.95385 2.27415 5
      vertex 1.94216 2.28649 5
    endloop
  endfacet
  facet normal 0.527804 -0.177836 -0.83054
    outer loop
      vertex 8.16818 -3.779 9
      vertex 2.92986 -0.644911 5
      vertex 8.78958 -1.93473 9
    endloop
  endfacet
  facet normal 0.553694 -0.0602194 -0.83054
    outer loop
      vertex 8.78958 -1.93473 9
      vertex 3 0 5
      vertex 9 0 9
    endloop
  endfacet
  facet normal 0.477228 -0.287154 -0.830539
    outer loop
      vertex 8.16818 -3.779 9
      vertex 2.58359 -1.49091 5
      vertex 2.72273 -1.25967 5
    endloop
  endfacet
  facet normal 0.477238 -0.287134 -0.830541
    outer loop
      vertex 8.16818 -3.779 9
      vertex 2.46161 -1.69365 5
      vertex 2.58359 -1.49091 5
    endloop
  endfacet
  facet normal 0.47723 -0.287152 -0.830539
    outer loop
      vertex 2.46161 -1.69365 5
      vertex 8.16818 -3.779 9
      vertex 2.38828 -1.81552 5
    endloop
  endfacet
  facet normal 0.477234 -0.287141 -0.83054
    outer loop
      vertex 7.16484 -5.44657 9
      vertex 2.38828 -1.81552 5
      vertex 8.16818 -3.779 9
    endloop
  endfacet
  facet normal 0.404349 -0.38302 -0.830541
    outer loop
      vertex 2.00965 -2.21523 5
      vertex 7.16484 -5.44657 9
      vertex 5.82648 -6.85946 9
    endloop
  endfacet
  facet normal 0.404347 -0.383022 -0.83054
    outer loop
      vertex 7.16484 -5.44657 9
      vertex 2.00965 -2.21523 5
      vertex 2.38828 -1.81552 5
    endloop
  endfacet
  facet normal 0.404394 -0.38298 -0.830537
    outer loop
      vertex 5.82648 -6.85946 9
      vertex 1.95385 -2.27415 5
      vertex 2.00965 -2.21523 5
    endloop
  endfacet
  facet normal 0.404333 -0.383035 -0.830541
    outer loop
      vertex 1.95385 -2.27415 5
      vertex 5.82648 -6.85946 9
      vertex 1.94216 -2.28649 5
    endloop
  endfacet
  facet normal 0.312558 -0.460988 -0.83054
    outer loop
      vertex 4.21568 -7.95161 9
      vertex 1.94216 -2.28649 5
      vertex 5.82648 -6.85946 9
    endloop
  endfacet
  facet normal -0.360565 -0.424494 -0.83054
    outer loop
      vertex -5.05068 -7.4492 9
      vertex -2.03969 -2.18057 5
      vertex -1.8539 -2.33838 5
    endloop
  endfacet
  facet normal -0.36057 -0.424491 -0.83054
    outer loop
      vertex -5.05068 -7.4492 9
      vertex -1.8539 -2.33838 5
      vertex -1.68356 -2.48307 5
    endloop
  endfacet
  facet normal -0.360561 -0.424497 -0.830541
    outer loop
      vertex -2.03969 -2.18057 5
      vertex -5.05068 -7.4492 9
      vertex -2.17799 -2.0631 5
    endloop
  endfacet
  facet normal -0.260861 -0.492096 -0.830537
    outer loop
      vertex -5.05068 -7.4492 9
      vertex -1.18715 -2.74625 5
      vertex -1.11041 -2.78693 5
    endloop
  endfacet
  facet normal -0.260892 -0.492074 -0.830541
    outer loop
      vertex -1.18715 -2.74625 5
      vertex -5.05068 -7.4492 9
      vertex -1.3705 -2.64904 5
    endloop
  endfacet
  facet normal -0.26088 -0.492083 -0.83054
    outer loop
      vertex -1.3705 -2.64904 5
      vertex -5.05068 -7.4492 9
      vertex -1.68356 -2.48307 5
    endloop
  endfacet
  facet normal -0.260884 -0.492079 -0.83054
    outer loop
      vertex -3.33124 -8.36079 9
      vertex -5.05068 -7.4492 9
      vertex -1.11041 -2.78693 5
    endloop
  endfacet
  facet normal 0.0901052 -0.549621 -0.83054
    outer loop
      vertex 0.487249 -8.9868 9
      vertex 0.559814 -2.93045 5
      vertex 0.802585 -2.89065 5
    endloop
  endfacet
  facet normal 0.0900955 -0.549622 -0.830541
    outer loop
      vertex 0.487249 -8.9868 9
      vertex 0.321836 -2.96946 5
      vertex 0.559814 -2.93045 5
    endloop
  endfacet
  facet normal 0.0901209 -0.54962 -0.83054
    outer loop
      vertex 0.321836 -2.96946 5
      vertex 0.487249 -8.9868 9
      vertex 0.162416 -2.9956 5
    endloop
  endfacet
  facet normal -0.443395 -0.337053 -0.83054
    outer loop
      vertex -6.53396 -6.18929 9
      vertex -2.53941 -1.58765 5
      vertex -2.439 -1.71974 5
    endloop
  endfacet
  facet normal -0.443389 -0.337058 -0.830541
    outer loop
      vertex -2.53941 -1.58765 5
      vertex -6.53396 -6.18929 9
      vertex -2.57057 -1.54666 5
    endloop
  endfacet
  facet normal -0.443395 -0.337053 -0.83054
    outer loop
      vertex -6.53396 -6.18929 9
      vertex -2.439 -1.71974 5
      vertex -2.17799 -2.0631 5
    endloop
  endfacet
  facet normal -0.505481 -0.233862 -0.83054
    outer loop
      vertex -7.71171 -4.63998 9
      vertex -8.52888 -2.87371 9
      vertex -2.84296 -0.957904 5
    endloop
  endfacet
  facet normal -0.543937 -0.119729 -0.83054
    outer loop
      vertex -8.52888 -2.87371 9
      vertex -8.94724 -0.973071 9
      vertex -2.84296 -0.957904 5
    endloop
  endfacet
  facet normal -0.360568 0.424493 -0.83054
    outer loop
      vertex -2.17799 2.0631 5
      vertex -6.53396 6.18929 9
      vertex -5.05068 7.4492 9
    endloop
  endfacet
  facet normal -0.543937 0.119729 -0.83054
    outer loop
      vertex -2.84296 0.957904 5
      vertex -8.94724 0.973071 9
      vertex -8.52888 2.87371 9
    endloop
  endfacet
  facet normal 0.477234 0.287141 -0.83054
    outer loop
      vertex 8.16818 3.779 9
      vertex 2.38828 1.81552 5
      vertex 7.16484 5.44657 9
    endloop
  endfacet
  facet normal 0.527799 -0.177845 -0.830541
    outer loop
      vertex 8.16818 -3.779 9
      vertex 2.89046 -0.76184 5
      vertex 2.92986 -0.644911 5
    endloop
  endfacet
  facet normal 0.527805 -0.177835 -0.83054
    outer loop
      vertex 8.16818 -3.779 9
      vertex 2.81707 -0.979658 5
      vertex 2.89046 -0.76184 5
    endloop
  endfacet
  facet normal 0.527809 -0.177826 -0.83054
    outer loop
      vertex 2.81707 -0.979658 5
      vertex 8.16818 -3.779 9
      vertex 2.72273 -1.25967 5
    endloop
  endfacet
  facet normal 0.312555 -0.46099 -0.830541
    outer loop
      vertex 4.21568 -7.95161 9
      vertex 1.40522 -2.65054 5
      vertex 1.94216 -2.28649 5
    endloop
  endfacet
  facet normal 0.206136 -0.517409 -0.83054
    outer loop
      vertex 4.21568 -7.95161 9
      vertex 1.30773 -2.68938 5
      vertex 1.40522 -2.65054 5
    endloop
  endfacet
  facet normal 0.206152 -0.517401 -0.830541
    outer loop
      vertex 4.21568 -7.95161 9
      vertex 1.10298 -2.77096 5
      vertex 1.30773 -2.68938 5
    endloop
  endfacet
  facet normal 0.206154 -0.5174 -0.830541
    outer loop
      vertex 1.10298 -2.77096 5
      vertex 4.21568 -7.95161 9
      vertex 0.802585 -2.89065 5
    endloop
  endfacet
  facet normal -0.0301525 -0.556142 -0.83054
    outer loop
      vertex 0.487249 -8.9868 9
      vertex -1.45604 -8.88144 9
      vertex 0.162416 -2.9956 5
    endloop
  endfacet
  facet normal -0.360568 -0.424493 -0.83054
    outer loop
      vertex -5.05068 -7.4492 9
      vertex -6.53396 -6.18929 9
      vertex -2.17799 -2.0631 5
    endloop
  endfacet
  facet normal -0.505481 -0.233863 -0.83054
    outer loop
      vertex -2.57057 -1.54666 5
      vertex -7.71171 -4.63998 9
      vertex -2.84296 -0.957904 5
    endloop
  endfacet
  facet normal -0.149003 0.536657 -0.83054
    outer loop
      vertex -1.11041 2.78693 5
      vertex -3.33124 8.36079 9
      vertex -1.45604 8.88144 9
    endloop
  endfacet
  facet normal -0.505481 0.233863 -0.83054
    outer loop
      vertex -2.84296 0.957904 5
      vertex -7.71171 4.63998 9
      vertex -2.57057 1.54666 5
    endloop
  endfacet
  facet normal 0.20615 0.517402 -0.83054
    outer loop
      vertex 4.21568 7.95161 9
      vertex 0.802585 2.89065 5
      vertex 2.40775 8.67195 9
    endloop
  endfacet
  facet normal -0.0301525 0.556142 -0.83054
    outer loop
      vertex 0.162416 2.9956 5
      vertex -1.45604 8.88144 9
      vertex 0.487249 8.9868 9
    endloop
  endfacet
  facet normal 0.0901052 0.549621 -0.83054
    outer loop
      vertex 0.559814 2.93045 5
      vertex 0.487249 8.9868 9
      vertex 0.802585 2.89065 5
    endloop
  endfacet
  facet normal 0.0900955 0.549622 -0.830541
    outer loop
      vertex 0.321836 2.96946 5
      vertex 0.487249 8.9868 9
      vertex 0.559814 2.93045 5
    endloop
  endfacet
  facet normal 0.0901209 0.54962 -0.83054
    outer loop
      vertex 0.487249 8.9868 9
      vertex 0.321836 2.96946 5
      vertex 0.162416 2.9956 5
    endloop
  endfacet
  facet normal 0.206136 0.517409 -0.83054
    outer loop
      vertex 1.30773 2.68938 5
      vertex 4.21568 7.95161 9
      vertex 1.40522 2.65054 5
    endloop
  endfacet
  facet normal 0.206152 0.517401 -0.830541
    outer loop
      vertex 1.10298 2.77096 5
      vertex 4.21568 7.95161 9
      vertex 1.30773 2.68938 5
    endloop
  endfacet
  facet normal 0.206154 0.5174 -0.830541
    outer loop
      vertex 4.21568 7.95161 9
      vertex 1.10298 2.77096 5
      vertex 0.802585 2.89065 5
    endloop
  endfacet
  facet normal 0.312558 0.460988 -0.83054
    outer loop
      vertex 5.82648 6.85946 9
      vertex 1.94216 2.28649 5
      vertex 4.21568 7.95161 9
    endloop
  endfacet
  facet normal 0.477228 0.287154 -0.830539
    outer loop
      vertex 2.58359 1.49091 5
      vertex 8.16818 3.779 9
      vertex 2.72273 1.25967 5
    endloop
  endfacet
  facet normal 0.477238 0.287134 -0.830541
    outer loop
      vertex 2.46161 1.69365 5
      vertex 8.16818 3.779 9
      vertex 2.58359 1.49091 5
    endloop
  endfacet
  facet normal 0.47723 0.287152 -0.830539
    outer loop
      vertex 8.16818 3.779 9
      vertex 2.46161 1.69365 5
      vertex 2.38828 1.81552 5
    endloop
  endfacet
  facet normal 0.527799 0.177845 -0.830541
    outer loop
      vertex 2.89046 0.76184 5
      vertex 8.16818 3.779 9
      vertex 2.92986 0.644911 5
    endloop
  endfacet
  facet normal 0.527805 0.177835 -0.83054
    outer loop
      vertex 2.81707 0.979658 5
      vertex 8.16818 3.779 9
      vertex 2.89046 0.76184 5
    endloop
  endfacet
  facet normal 0.527809 0.177826 -0.83054
    outer loop
      vertex 8.16818 3.779 9
      vertex 2.81707 0.979658 5
      vertex 2.72273 1.25967 5
    endloop
  endfacet
  facet normal -0.0301586 -0.55614 -0.830541
    outer loop
      vertex -1.45604 -8.88144 9
      vertex -0.319619 -2.96946 5
      vertex 0.162416 -2.9956 5
    endloop
  endfacet
  facet normal -0.0301753 -0.556139 -0.830542
    outer loop
      vertex -0.45125 -2.96233 5
      vertex -1.45604 -8.88144 9
      vertex -0.485346 -2.96048 5
    endloop
  endfacet
  facet normal -0.0301245 -0.556146 -0.830539
    outer loop
      vertex -0.319619 -2.96946 5
      vertex -1.45604 -8.88144 9
      vertex -0.45125 -2.96233 5
    endloop
  endfacet
  facet normal -0.149004 -0.536657 -0.83054
    outer loop
      vertex -0.485346 -2.96048 5
      vertex -1.45604 -8.88144 9
      vertex -1.11041 -2.78693 5
    endloop
  endfacet
  facet normal -0.260884 0.492079 -0.83054
    outer loop
      vertex -1.11041 2.78693 5
      vertex -5.05068 7.4492 9
      vertex -3.33124 8.36079 9
    endloop
  endfacet
  facet normal -0.360561 0.424497 -0.830541
    outer loop
      vertex -5.05068 7.4492 9
      vertex -2.03969 2.18057 5
      vertex -2.17799 2.0631 5
    endloop
  endfacet
  facet normal -0.360565 0.424494 -0.83054
    outer loop
      vertex -2.03969 2.18057 5
      vertex -5.05068 7.4492 9
      vertex -1.8539 2.33838 5
    endloop
  endfacet
  facet normal -0.36057 0.424491 -0.83054
    outer loop
      vertex -1.8539 2.33838 5
      vertex -5.05068 7.4492 9
      vertex -1.68356 2.48307 5
    endloop
  endfacet
  facet normal -0.505481 0.233862 -0.83054
    outer loop
      vertex -2.84296 0.957904 5
      vertex -8.52888 2.87371 9
      vertex -7.71171 4.63998 9
    endloop
  endfacet
  facet normal -0.543936 0.119737 -0.83054
    outer loop
      vertex -8.94724 0.973071 9
      vertex -2.8578 0.890469 5
      vertex -2.89865 0.704897 5
    endloop
  endfacet
  facet normal -0.543938 0.119725 -0.830541
    outer loop
      vertex -8.94724 0.973071 9
      vertex -2.89865 0.704897 5
      vertex -2.98241 0.324357 5
    endloop
  endfacet
  facet normal -0.543939 0.119701 -0.830543
    outer loop
      vertex -2.8578 0.890469 5
      vertex -8.94724 0.973071 9
      vertex -2.84296 0.957904 5
    endloop
  endfacet
  facet normal -0.556958 0 -0.83054
    outer loop
      vertex -8.94724 -0.973071 9
      vertex -2.98241 -0.122317 5
      vertex -2.98241 -0.324357 5
    endloop
  endfacet
  facet normal -0.556958 0 -0.83054
    outer loop
      vertex -2.98241 -0.122317 5
      vertex -8.94724 -0.973071 9
      vertex -2.98241 0.122317 5
    endloop
  endfacet
  facet normal -0.556958 -0 -0.83054
    outer loop
      vertex -8.94724 0.973071 9
      vertex -2.98241 0.122317 5
      vertex -8.94724 -0.973071 9
    endloop
  endfacet
  facet normal -0.556958 0 -0.83054
    outer loop
      vertex -2.98241 0.122317 5
      vertex -8.94724 0.973071 9
      vertex -2.98241 0.324357 5
    endloop
  endfacet
  facet normal -0.0301245 0.556146 -0.830539
    outer loop
      vertex -1.45604 8.88144 9
      vertex -0.319619 2.96946 5
      vertex -0.45125 2.96233 5
    endloop
  endfacet
  facet normal -0.0301586 0.55614 -0.830541
    outer loop
      vertex -0.319619 2.96946 5
      vertex -1.45604 8.88144 9
      vertex 0.162416 2.9956 5
    endloop
  endfacet
  facet normal -0.0301753 0.556139 -0.830542
    outer loop
      vertex -1.45604 8.88144 9
      vertex -0.45125 2.96233 5
      vertex -0.485346 2.96048 5
    endloop
  endfacet
  facet normal 0.312555 0.46099 -0.830541
    outer loop
      vertex 1.94216 2.28649 5
      vertex 1.40522 2.65054 5
      vertex 4.21568 7.95161 9
    endloop
  endfacet
  facet normal -0.260892 0.492074 -0.830541
    outer loop
      vertex -5.05068 7.4492 9
      vertex -1.18715 2.74625 5
      vertex -1.3705 2.64904 5
    endloop
  endfacet
  facet normal -0.26088 0.492083 -0.83054
    outer loop
      vertex -5.05068 7.4492 9
      vertex -1.3705 2.64904 5
      vertex -1.68356 2.48307 5
    endloop
  endfacet
  facet normal -0.260861 0.492096 -0.830537
    outer loop
      vertex -1.18715 2.74625 5
      vertex -5.05068 7.4492 9
      vertex -1.11041 2.78693 5
    endloop
  endfacet
  facet normal -0.443392 0.337056 -0.83054
    outer loop
      vertex -2.57057 1.54666 5
      vertex -7.71171 4.63998 9
      vertex -6.53396 6.18929 9
    endloop
  endfacet
  facet normal -0.443389 0.337058 -0.830541
    outer loop
      vertex -6.53396 6.18929 9
      vertex -2.53941 1.58765 5
      vertex -2.57057 1.54666 5
    endloop
  endfacet
  facet normal -0.443395 0.337053 -0.83054
    outer loop
      vertex -2.439 1.71974 5
      vertex -6.53396 6.18929 9
      vertex -2.17799 2.0631 5
    endloop
  endfacet
  facet normal -0.443395 0.337053 -0.83054
    outer loop
      vertex -2.53941 1.58765 5
      vertex -6.53396 6.18929 9
      vertex -2.439 1.71974 5
    endloop
  endfacet
  facet normal -0.149004 0.536657 -0.83054
    outer loop
      vertex -1.11041 2.78693 5
      vertex -1.45604 8.88144 9
      vertex -0.485346 2.96048 5
    endloop
  endfacet
  facet normal 0.971704 0.105681 0.21124
    outer loop
      vertex 9 0 9
      vertex 5.60495 1.23374 24
      vertex 5.73913 0 24
    endloop
  endfacet
  facet normal 0.971704 0.105682 0.21124
    outer loop
      vertex 8.78958 1.93473 9
      vertex 5.60495 1.23374 24
      vertex 9 0 9
    endloop
  endfacet
  facet normal 0.837521 -0.503921 0.211241
    outer loop
      vertex 5.20869 -2.4098 24
      vertex 4.56888 -3.47317 24
      vertex 7.16484 -5.44657 9
    endloop
  endfacet
  facet normal 0.92627 0.312093 0.21124
    outer loop
      vertex 8.16818 3.779 9
      vertex 5.20869 2.4098 24
      vertex 8.78958 1.93473 9
    endloop
  endfacet
  facet normal 0.158129 -0.964558 0.21124
    outer loop
      vertex 0.487249 -8.9868 9
      vertex 1.25057 -5.57663 24
      vertex 0.31071 -5.73071 24
    endloop
  endfacet
  facet normal 0.158118 -0.96456 0.211241
    outer loop
      vertex 1.25057 -5.57663 24
      vertex 0.487249 -8.9868 9
      vertex 1.4556 -5.54302 24
    endloop
  endfacet
  facet normal 0.15814 -0.964557 0.211239
    outer loop
      vertex 1.4556 -5.54302 24
      vertex 0.487249 -8.9868 9
      vertex 1.53538 -5.52994 24
    endloop
  endfacet
  facet normal 0.837522 -0.503919 0.21124
    outer loop
      vertex 8.16818 -3.779 9
      vertex 5.20869 -2.4098 24
      vertex 7.16484 -5.44657 9
    endloop
  endfacet
  facet normal -0.261493 0.941806 0.21124
    outer loop
      vertex -1.45604 8.88144 9
      vertex -3.33124 8.36079 9
      vertex -0.928488 5.66353 24
    endloop
  endfacet
  facet normal 0.837521 0.503921 0.211241
    outer loop
      vertex 7.16484 5.44657 9
      vertex 4.56888 3.47317 24
      vertex 5.20869 2.4098 24
    endloop
  endfacet
  facet normal -0.977434 0 0.21124
    outer loop
      vertex -8.94724 0.973071 9
      vertex -5.70549 -0.620509 24
      vertex -5.70549 0.620509 24
    endloop
  endfacet
  facet normal -0.977434 0 0.21124
    outer loop
      vertex -5.70549 -0.620509 24
      vertex -8.94724 0.973071 9
      vertex -8.94724 -0.973071 9
    endloop
  endfacet
  facet normal -0.457839 0.863575 0.21124
    outer loop
      vertex -3.33124 8.36079 9
      vertex -5.05068 7.4492 9
      vertex -2.12427 5.33152 24
    endloop
  endfacet
  facet normal -0.632772 -0.744968 0.21124
    outer loop
      vertex -6.53396 -6.18929 9
      vertex -3.97462 -4.10985 24
      vertex -4.16658 -3.9468 24
    endloop
  endfacet
  facet normal -0.632779 -0.744962 0.21124
    outer loop
      vertex -3.97462 -4.10985 24
      vertex -6.53396 -6.18929 9
      vertex -3.69246 -4.34952 24
    endloop
  endfacet
  facet normal -0.632777 -0.744964 0.21124
    outer loop
      vertex -3.69246 -4.34952 24
      vertex -6.53396 -6.18929 9
      vertex -3.22073 -4.75021 24
    endloop
  endfacet
  facet normal -0.954583 -0.210118 0.21124
    outer loop
      vertex -5.70549 -0.620509 24
      vertex -8.94724 -0.973071 9
      vertex -8.52888 -2.87371 9
    endloop
  endfacet
  facet normal -0.887094 -0.410417 0.21124
    outer loop
      vertex -4.91761 -2.95883 24
      vertex -8.52888 -2.87371 9
      vertex -7.71171 -4.63998 9
    endloop
  endfacet
  facet normal 0.158131 -0.964558 0.21124
    outer loop
      vertex 1.53538 -5.52994 24
      vertex 0.487249 -8.9868 9
      vertex 2.40775 -8.67195 9
    endloop
  endfacet
  facet normal 0.926273 -0.312083 0.21124
    outer loop
      vertex 5.46291 -1.65532 24
      vertex 8.78958 -1.93473 9
      vertex 5.60495 -1.23374 24
    endloop
  endfacet
  facet normal 0.926268 -0.312098 0.211239
    outer loop
      vertex 5.33436 -2.03684 24
      vertex 8.78958 -1.93473 9
      vertex 5.46291 -1.65532 24
    endloop
  endfacet
  facet normal 0.926265 -0.312108 0.211239
    outer loop
      vertex 8.78958 -1.93473 9
      vertex 5.33436 -2.03684 24
      vertex 5.20869 -2.4098 24
    endloop
  endfacet
  facet normal 0.361783 0.908015 0.21124
    outer loop
      vertex 2.40775 8.67195 9
      vertex 1.53538 5.52994 24
      vertex 4.21568 7.95161 9
    endloop
  endfacet
  facet normal -0.0529162 -0.976001 0.21124
    outer loop
      vertex -0.928488 -5.66353 24
      vertex -1.45604 -8.88144 9
      vertex 0.487249 -8.9868 9
    endloop
  endfacet
  facet normal -0.261493 -0.941806 0.21124
    outer loop
      vertex -2.12427 -5.33152 24
      vertex -3.33124 -8.36079 9
      vertex -0.928488 -5.66353 24
    endloop
  endfacet
  facet normal -0.632778 -0.744963 0.21124
    outer loop
      vertex -3.22073 -4.75021 24
      vertex -6.53396 -6.18929 9
      vertex -5.05068 -7.4492 9
    endloop
  endfacet
  facet normal 0 0 1
    outer loop
      vertex 5.73913 0 24
      vertex 5.46291 -1.65532 24
      vertex 5.60495 -1.23374 24
    endloop
  endfacet
  facet normal 0 0 1
    outer loop
      vertex 5.60495 1.23374 24
      vertex 5.46291 1.65532 24
      vertex 5.73913 0 24
    endloop
  endfacet
  facet normal -0 -0 -1
    outer loop
      vertex 5.42817 1.86349 24
      vertex 5.46291 1.65532 24
      vertex 5.33436 2.03684 24
    endloop
  endfacet
  facet normal -0 -0 -1
    outer loop
      vertex 1.40887 5.56351 24
      vertex 1.4556 5.54302 24
      vertex 1.25057 5.57663 24
    endloop
  endfacet
  facet normal -0 0 -1
    outer loop
      vertex -0.245183 -5.70057 24
      vertex -0.473933 -5.71953 24
      vertex -0.631495 -5.67963 24
    endloop
  endfacet
  facet normal 0 0 -1
    outer loop
      vertex 1.4556 -5.54302 24
      vertex 1.40887 -5.56351 24
      vertex 1.25057 -5.57663 24
    endloop
  endfacet
  facet normal 0 -0 -1
    outer loop
      vertex -0.473933 5.71953 24
      vertex -0.245183 5.70057 24
      vertex -0.631495 5.67963 24
    endloop
  endfacet
  facet normal -0 -0 -1
    outer loop
      vertex 4.52898 3.52505 24
      vertex 4.54129 3.5023 24
      vertex 4.45682 3.59147 24
    endloop
  endfacet
  facet normal -0 -0 -1
    outer loop
      vertex 3.13901 4.80461 24
      vertex 3.30241 4.65418 24
      vertex 2.97344 4.87723 24
    endloop
  endfacet
  facet normal 0 0 -1
    outer loop
      vertex 3.30241 -4.65418 24
      vertex 3.13901 -4.80461 24
      vertex 2.97344 -4.87723 24
    endloop
  endfacet
  facet normal 0 0 -1
    outer loop
      vertex -5.66086 -0.823274 24
      vertex -5.58641 -1.16148 24
      vertex -5.66086 -0.94463 24
    endloop
  endfacet
  facet normal 0 -0 -1
    outer loop
      vertex -2.30538 5.25574 24
      vertex -2.23228 5.27425 24
      vertex -2.46974 5.14836 24
    endloop
  endfacet
  facet normal 0 -0 -1
    outer loop
      vertex -5.04741 2.73152 24
      vertex -4.98667 2.80956 24
      vertex -5.11828 2.5251 24
    endloop
  endfacet
  facet normal 0 -0 -1
    outer loop
      vertex -3.88701 4.22241 24
      vertex -3.69246 4.34952 24
      vertex -3.97462 4.10985 24
    endloop
  endfacet
  facet normal 0 0 -1
    outer loop
      vertex -5.66086 0.94463 24
      vertex -5.58641 1.16148 24
      vertex -5.66086 0.823274 24
    endloop
  endfacet
  facet normal 0 0 -1
    outer loop
      vertex -3.69246 -4.34952 24
      vertex -3.88701 -4.22241 24
      vertex -3.97462 -4.10985 24
    endloop
  endfacet
  facet normal 0 0 -1
    outer loop
      vertex -4.98667 -2.80956 24
      vertex -5.04741 -2.73152 24
      vertex -5.11828 -2.5251 24
    endloop
  endfacet
  facet normal 0 0 -1
    outer loop
      vertex -2.23228 -5.27425 24
      vertex -2.30538 -5.25574 24
      vertex -2.46974 -5.14836 24
    endloop
  endfacet
  facet normal 0 0 -1
    outer loop
      vertex 4.54129 -3.5023 24
      vertex 4.52898 -3.52505 24
      vertex 4.45682 -3.59147 24
    endloop
  endfacet
  facet normal 0 0 -1
    outer loop
      vertex 5.46291 -1.65532 24
      vertex 5.42817 -1.86349 24
      vertex 5.33436 -2.03684 24
    endloop
  endfacet
  facet normal 0 0 1
    outer loop
      vertex -4.98667 -2.80956 24
      vertex -4.16658 -3.9468 24
      vertex -3.97462 -4.10985 24
    endloop
  endfacet
  facet normal 0 0 1
    outer loop
      vertex -4.16658 -3.9468 24
      vertex -4.98667 -2.80956 24
      vertex -4.91761 -2.95883 24
    endloop
  endfacet
  facet normal 0 0 1
    outer loop
      vertex 4.54129 -3.5023 24
      vertex 5.20869 -2.4098 24
      vertex 5.33436 -2.03684 24
    endloop
  endfacet
  facet normal 0 0 1
    outer loop
      vertex 5.20869 -2.4098 24
      vertex 4.54129 -3.5023 24
      vertex 4.56888 -3.47317 24
    endloop
  endfacet
  facet normal 0 0 1
    outer loop
      vertex 4.54129 3.5023 24
      vertex 5.20869 2.4098 24
      vertex 4.56888 3.47317 24
    endloop
  endfacet
  facet normal 0 0 1
    outer loop
      vertex 5.20869 2.4098 24
      vertex 4.54129 3.5023 24
      vertex 5.33436 2.03684 24
    endloop
  endfacet
  facet normal 0 0 1
    outer loop
      vertex 1.25057 -5.57663 24
      vertex -0.245183 -5.70057 24
      vertex 0.31071 -5.73071 24
    endloop
  endfacet
  facet normal 0 0 1
    outer loop
      vertex 4.45682 -3.59147 24
      vertex 3.30241 -4.65418 24
      vertex 3.71543 -4.37415 24
    endloop
  endfacet
  facet normal 0 0 1
    outer loop
      vertex -2.23228 -5.27425 24
      vertex -0.928488 -5.66353 24
      vertex -0.631495 -5.67963 24
    endloop
  endfacet
  facet normal 0 0 1
    outer loop
      vertex -0.928488 -5.66353 24
      vertex -2.23228 -5.27425 24
      vertex -2.12427 -5.33152 24
    endloop
  endfacet
  facet normal 0 0 1
    outer loop
      vertex 1.4556 -5.54302 24
      vertex 2.68826 -5.07059 24
      vertex 2.97344 -4.87723 24
    endloop
  endfacet
  facet normal 0 0 1
    outer loop
      vertex 2.68826 -5.07059 24
      vertex 1.4556 -5.54302 24
      vertex 1.53538 -5.52994 24
    endloop
  endfacet
  facet normal -0 0 1
    outer loop
      vertex -5.70549 0.620509 24
      vertex -5.66086 -0.823274 24
      vertex -5.66086 0.823274 24
    endloop
  endfacet
  facet normal 0 0 1
    outer loop
      vertex -5.66086 -0.823274 24
      vertex -5.70549 0.620509 24
      vertex -5.70549 -0.620509 24
    endloop
  endfacet
  facet normal 0 0 1
    outer loop
      vertex 3.71543 4.37415 24
      vertex 3.30241 4.65418 24
      vertex 4.45682 3.59147 24
    endloop
  endfacet
  facet normal 0 0 1
    outer loop
      vertex 1.4556 5.54302 24
      vertex 2.68826 5.07059 24
      vertex 1.53538 5.52994 24
    endloop
  endfacet
  facet normal 0 0 1
    outer loop
      vertex 2.68826 5.07059 24
      vertex 1.4556 5.54302 24
      vertex 2.97344 4.87723 24
    endloop
  endfacet
  facet normal 0 0 1
    outer loop
      vertex -4.98667 2.80956 24
      vertex -4.16658 3.9468 24
      vertex -4.91761 2.95883 24
    endloop
  endfacet
  facet normal -0 0 1
    outer loop
      vertex -4.16658 3.9468 24
      vertex -4.98667 2.80956 24
      vertex -3.97462 4.10985 24
    endloop
  endfacet
  facet normal -0 0 1
    outer loop
      vertex -5.4387 1.83251 24
      vertex -5.58641 1.16148 24
      vertex -5.11828 2.5251 24
    endloop
  endfacet
  facet normal -0 0 1
    outer loop
      vertex -3.22073 4.75021 24
      vertex -3.69246 4.34952 24
      vertex -2.46974 5.14836 24
    endloop
  endfacet
  facet normal 0 0 1
    outer loop
      vertex -2.23228 5.27425 24
      vertex -0.928488 5.66353 24
      vertex -2.12427 5.33152 24
    endloop
  endfacet
  facet normal -0 0 1
    outer loop
      vertex -0.928488 5.66353 24
      vertex -2.23228 5.27425 24
      vertex -0.631495 5.67963 24
    endloop
  endfacet
  facet normal 0 0 1
    outer loop
      vertex 0.31071 5.73071 24
      vertex -0.245183 5.70057 24
      vertex 1.25057 5.57663 24
    endloop
  endfacet
  facet normal 0 0 1
    outer loop
      vertex -2.46974 -5.14836 24
      vertex -3.69246 -4.34952 24
      vertex -3.22073 -4.75021 24
    endloop
  endfacet
  facet normal 0 0 1
    outer loop
      vertex -5.11828 -2.5251 24
      vertex -5.58641 -1.16148 24
      vertex -5.4387 -1.83251 24
    endloop
  endfacet
  facet normal 0.361783 -0.908015 0.21124
    outer loop
      vertex 4.21568 -7.95161 9
      vertex 1.53538 -5.52994 24
      vertex 2.40775 -8.67195 9
    endloop
  endfacet
  facet normal 0.361786 -0.908013 0.21124
    outer loop
      vertex 2.68826 -5.07059 24
      vertex 1.53538 -5.52994 24
      vertex 4.21568 -7.95161 9
    endloop
  endfacet
  facet normal 0.548524 -0.809011 0.21124
    outer loop
      vertex 5.82648 -6.85946 9
      vertex 3.71543 -4.37415 24
      vertex 4.21568 -7.95161 9
    endloop
  endfacet
  facet normal 0 0 -1
    outer loop
      vertex 4.45682 -3.59147 24
      vertex 4.56888 -3.47317 24
      vertex 4.54129 -3.5023 24
    endloop
  endfacet
  facet normal 0.709614 -0.672179 0.211241
    outer loop
      vertex 7.16484 -5.44657 9
      vertex 4.45682 -3.59147 24
      vertex 3.71543 -4.37415 24
    endloop
  endfacet
  facet normal 0.709612 -0.672182 0.211241
    outer loop
      vertex 4.45682 -3.59147 24
      vertex 7.16484 -5.44657 9
      vertex 4.56888 -3.47317 24
    endloop
  endfacet
  facet normal 0.709613 -0.672181 0.21124
    outer loop
      vertex 7.16484 -5.44657 9
      vertex 3.71543 -4.37415 24
      vertex 5.82648 -6.85946 9
    endloop
  endfacet
  facet normal 0.92627 -0.312093 0.21124
    outer loop
      vertex 8.78958 -1.93473 9
      vertex 5.20869 -2.4098 24
      vertex 8.16818 -3.779 9
    endloop
  endfacet
  facet normal -0.261493 0.941806 0.21124
    outer loop
      vertex -0.928488 5.66353 24
      vertex -3.33124 8.36079 9
      vertex -2.12427 5.33152 24
    endloop
  endfacet
  facet normal 0.926265 0.312108 0.211239
    outer loop
      vertex 5.33436 2.03684 24
      vertex 8.78958 1.93473 9
      vertex 5.20869 2.4098 24
    endloop
  endfacet
  facet normal 0.926268 0.312098 0.211239
    outer loop
      vertex 5.46291 1.65532 24
      vertex 8.78958 1.93473 9
      vertex 5.33436 2.03684 24
    endloop
  endfacet
  facet normal 0.926273 0.312083 0.21124
    outer loop
      vertex 8.78958 1.93473 9
      vertex 5.46291 1.65532 24
      vertex 5.60495 1.23374 24
    endloop
  endfacet
  facet normal 0.837522 0.503919 0.21124
    outer loop
      vertex 7.16484 5.44657 9
      vertex 5.20869 2.4098 24
      vertex 8.16818 3.779 9
    endloop
  endfacet
  facet normal 0.709614 0.672179 0.211241
    outer loop
      vertex 4.45682 3.59147 24
      vertex 7.16484 5.44657 9
      vertex 3.71543 4.37415 24
    endloop
  endfacet
  facet normal 0.709598 0.672196 0.21124
    outer loop
      vertex 4.54129 3.5023 24
      vertex 7.16484 5.44657 9
      vertex 4.45682 3.59147 24
    endloop
  endfacet
  facet normal 0.709654 0.672137 0.211242
    outer loop
      vertex 7.16484 5.44657 9
      vertex 4.54129 3.5023 24
      vertex 4.56888 3.47317 24
    endloop
  endfacet
  facet normal 0.709613 0.672181 0.21124
    outer loop
      vertex 5.82648 6.85946 9
      vertex 3.71543 4.37415 24
      vertex 7.16484 5.44657 9
    endloop
  endfacet
  facet normal 0.361786 0.908013 0.21124
    outer loop
      vertex 4.21568 7.95161 9
      vertex 1.53538 5.52994 24
      vertex 2.68826 5.07059 24
    endloop
  endfacet
  facet normal -0.0529178 0.976001 0.21124
    outer loop
      vertex 0.487249 8.9868 9
      vertex -0.245183 5.70057 24
      vertex 0.31071 5.73071 24
    endloop
  endfacet
  facet normal -0.052904 0.976001 0.211241
    outer loop
      vertex -0.245183 5.70057 24
      vertex 0.487249 8.9868 9
      vertex -0.631495 5.67963 24
    endloop
  endfacet
  facet normal -0.052909 0.976001 0.211241
    outer loop
      vertex -0.631495 5.67963 24
      vertex 0.487249 8.9868 9
      vertex -0.928488 5.66353 24
    endloop
  endfacet
  facet normal 0.548517 0.809015 0.211241
    outer loop
      vertex 4.21568 7.95161 9
      vertex 3.30241 4.65418 24
      vertex 3.71543 4.37415 24
    endloop
  endfacet
  facet normal 0.548528 0.809008 0.21124
    outer loop
      vertex 3.30241 4.65418 24
      vertex 4.21568 7.95161 9
      vertex 2.97344 4.87723 24
    endloop
  endfacet
  facet normal 0.54853 0.809007 0.21124
    outer loop
      vertex 2.97344 4.87723 24
      vertex 4.21568 7.95161 9
      vertex 2.68826 5.07059 24
    endloop
  endfacet
  facet normal 0.548524 0.809011 0.21124
    outer loop
      vertex 4.21568 7.95161 9
      vertex 3.71543 4.37415 24
      vertex 5.82648 6.85946 9
    endloop
  endfacet
  facet normal -0.052909 -0.976001 0.211241
    outer loop
      vertex 0.487249 -8.9868 9
      vertex -0.631495 -5.67963 24
      vertex -0.928488 -5.66353 24
    endloop
  endfacet
  facet normal -0.052904 -0.976001 0.211241
    outer loop
      vertex -0.631495 -5.67963 24
      vertex 0.487249 -8.9868 9
      vertex -0.245183 -5.70057 24
    endloop
  endfacet
  facet normal -0.0529178 -0.976001 0.21124
    outer loop
      vertex -0.245183 -5.70057 24
      vertex 0.487249 -8.9868 9
      vertex 0.31071 -5.73071 24
    endloop
  endfacet
  facet normal -0.261493 -0.941806 0.21124
    outer loop
      vertex -0.928488 -5.66353 24
      vertex -3.33124 -8.36079 9
      vertex -1.45604 -8.88144 9
    endloop
  endfacet
  facet normal -0.77813 -0.591516 0.21124
    outer loop
      vertex -4.91761 -2.95883 24
      vertex -7.71171 -4.63998 9
      vertex -6.53396 -6.18929 9
    endloop
  endfacet
  facet normal -0.778131 -0.591515 0.21124
    outer loop
      vertex -4.91761 -2.95883 24
      vertex -6.53396 -6.18929 9
      vertex -4.16658 -3.9468 24
    endloop
  endfacet
  facet normal 0.54853 -0.809007 0.21124
    outer loop
      vertex 4.21568 -7.95161 9
      vertex 2.97344 -4.87723 24
      vertex 2.68826 -5.07059 24
    endloop
  endfacet
  facet normal 0.548528 -0.809008 0.21124
    outer loop
      vertex 2.97344 -4.87723 24
      vertex 4.21568 -7.95161 9
      vertex 3.30241 -4.65418 24
    endloop
  endfacet
  facet normal 0.548517 -0.809015 0.211241
    outer loop
      vertex 3.30241 -4.65418 24
      vertex 4.21568 -7.95161 9
      vertex 3.71543 -4.37415 24
    endloop
  endfacet
  facet normal 0.971704 -0.105682 0.21124
    outer loop
      vertex 9 0 9
      vertex 5.60495 -1.23374 24
      vertex 8.78958 -1.93473 9
    endloop
  endfacet
  facet normal 0.971704 -0.105681 0.21124
    outer loop
      vertex 5.73913 0 24
      vertex 5.60495 -1.23374 24
      vertex 9 0 9
    endloop
  endfacet
  facet normal -0.954583 0.210118 0.21124
    outer loop
      vertex -8.52888 2.87371 9
      vertex -8.94724 0.973071 9
      vertex -5.70549 0.620509 24
    endloop
  endfacet
  facet normal -0.778131 0.591515 0.21124
    outer loop
      vertex -4.16658 3.9468 24
      vertex -6.53396 6.18929 9
      vertex -4.91761 2.95883 24
    endloop
  endfacet
  facet normal -0.887094 0.410417 0.21124
    outer loop
      vertex -7.71171 4.63998 9
      vertex -8.52888 2.87371 9
      vertex -4.91761 2.95883 24
    endloop
  endfacet
  facet normal -0.77813 0.591516 0.21124
    outer loop
      vertex -6.53396 6.18929 9
      vertex -7.71171 4.63998 9
      vertex -4.91761 2.95883 24
    endloop
  endfacet
  facet normal -0.887094 0.410416 0.21124
    outer loop
      vertex -8.52888 2.87371 9
      vertex -4.98667 2.80956 24
      vertex -4.91761 2.95883 24
    endloop
  endfacet
  facet normal -0.88709 0.410426 0.211239
    outer loop
      vertex -8.52888 2.87371 9
      vertex -5.11828 2.5251 24
      vertex -4.98667 2.80956 24
    endloop
  endfacet
  facet normal -0.887098 0.410407 0.211241
    outer loop
      vertex -5.11828 2.5251 24
      vertex -8.52888 2.87371 9
      vertex -5.4387 1.83251 24
    endloop
  endfacet
  facet normal -0.954581 0.210126 0.211241
    outer loop
      vertex -8.52888 2.87371 9
      vertex -5.58641 1.16148 24
      vertex -5.4387 1.83251 24
    endloop
  endfacet
  facet normal -0.954579 0.210133 0.211241
    outer loop
      vertex -8.52888 2.87371 9
      vertex -5.66086 0.823274 24
      vertex -5.58641 1.16148 24
    endloop
  endfacet
  facet normal -0.954584 0.210111 0.211239
    outer loop
      vertex -5.66086 0.823274 24
      vertex -8.52888 2.87371 9
      vertex -5.70549 0.620509 24
    endloop
  endfacet
  facet normal -0.45788 0.863552 0.211245
    outer loop
      vertex -5.05068 7.4492 9
      vertex -2.23228 5.27425 24
      vertex -2.12427 5.33152 24
    endloop
  endfacet
  facet normal -0.457829 0.86358 0.211239
    outer loop
      vertex -2.23228 5.27425 24
      vertex -5.05068 7.4492 9
      vertex -2.46974 5.14836 24
    endloop
  endfacet
  facet normal -0.457839 0.863575 0.21124
    outer loop
      vertex -2.46974 5.14836 24
      vertex -5.05068 7.4492 9
      vertex -3.22073 4.75021 24
    endloop
  endfacet
  facet normal 0.15814 0.964557 0.211239
    outer loop
      vertex 0.487249 8.9868 9
      vertex 1.4556 5.54302 24
      vertex 1.53538 5.52994 24
    endloop
  endfacet
  facet normal 0.158118 0.96456 0.211241
    outer loop
      vertex 1.4556 5.54302 24
      vertex 0.487249 8.9868 9
      vertex 1.25057 5.57663 24
    endloop
  endfacet
  facet normal 0.158129 0.964558 0.21124
    outer loop
      vertex 1.25057 5.57663 24
      vertex 0.487249 8.9868 9
      vertex 0.31071 5.73071 24
    endloop
  endfacet
  facet normal 0.158131 0.964558 0.21124
    outer loop
      vertex 2.40775 8.67195 9
      vertex 0.487249 8.9868 9
      vertex 1.53538 5.52994 24
    endloop
  endfacet
  facet normal -0.0529162 0.976001 0.21124
    outer loop
      vertex 0.487249 8.9868 9
      vertex -1.45604 8.88144 9
      vertex -0.928488 5.66353 24
    endloop
  endfacet
  facet normal -0.457839 -0.863575 0.21124
    outer loop
      vertex -5.05068 -7.4492 9
      vertex -2.46974 -5.14836 24
      vertex -3.22073 -4.75021 24
    endloop
  endfacet
  facet normal -0.457829 -0.86358 0.211239
    outer loop
      vertex -2.46974 -5.14836 24
      vertex -5.05068 -7.4492 9
      vertex -2.23228 -5.27425 24
    endloop
  endfacet
  facet normal -0.45788 -0.863552 0.211245
    outer loop
      vertex -2.23228 -5.27425 24
      vertex -5.05068 -7.4492 9
      vertex -2.12427 -5.33152 24
    endloop
  endfacet
  facet normal -0.457839 -0.863575 0.21124
    outer loop
      vertex -2.12427 -5.33152 24
      vertex -5.05068 -7.4492 9
      vertex -3.33124 -8.36079 9
    endloop
  endfacet
  facet normal -0.954584 -0.210111 0.211239
    outer loop
      vertex -8.52888 -2.87371 9
      vertex -5.66086 -0.823274 24
      vertex -5.70549 -0.620509 24
    endloop
  endfacet
  facet normal -0.954579 -0.210133 0.211241
    outer loop
      vertex -5.66086 -0.823274 24
      vertex -8.52888 -2.87371 9
      vertex -5.58641 -1.16148 24
    endloop
  endfacet
  facet normal -0.954581 -0.210126 0.211241
    outer loop
      vertex -5.58641 -1.16148 24
      vertex -8.52888 -2.87371 9
      vertex -5.4387 -1.83251 24
    endloop
  endfacet
  facet normal -0.887098 -0.410407 0.211241
    outer loop
      vertex -8.52888 -2.87371 9
      vertex -5.11828 -2.5251 24
      vertex -5.4387 -1.83251 24
    endloop
  endfacet
  facet normal -0.88709 -0.410426 0.211239
    outer loop
      vertex -5.11828 -2.5251 24
      vertex -8.52888 -2.87371 9
      vertex -4.98667 -2.80956 24
    endloop
  endfacet
  facet normal -0.887094 -0.410416 0.21124
    outer loop
      vertex -4.98667 -2.80956 24
      vertex -8.52888 -2.87371 9
      vertex -4.91761 -2.95883 24
    endloop
  endfacet
  facet normal -0.632778 0.744963 0.21124
    outer loop
      vertex -5.05068 7.4492 9
      vertex -6.53396 6.18929 9
      vertex -3.22073 4.75021 24
    endloop
  endfacet
  facet normal -0.632777 0.744964 0.21124
    outer loop
      vertex -6.53396 6.18929 9
      vertex -3.69246 4.34952 24
      vertex -3.22073 4.75021 24
    endloop
  endfacet
  facet normal -0.632779 0.744962 0.21124
    outer loop
      vertex -3.69246 4.34952 24
      vertex -6.53396 6.18929 9
      vertex -3.97462 4.10985 24
    endloop
  endfacet
  facet normal -0.632772 0.744968 0.21124
    outer loop
      vertex -3.97462 4.10985 24
      vertex -6.53396 6.18929 9
      vertex -4.16658 3.9468 24
    endloop
  endfacet
  facet normal 0.964436 0.160948 0.209663
    outer loop
      vertex 4 0 32
      vertex 5.46291 1.65532 24
      vertex 5.42817 1.86349 24
    endloop
  endfacet
  facet normal 0.964439 0.160934 0.209661
    outer loop
      vertex 5.46291 1.65532 24
      vertex 4 0 32
      vertex 5.73913 0 24
    endloop
  endfacet
  facet normal 0 0 1
    outer loop
      vertex 3.78327 1.2988 32
      vertex 3.78327 -1.2988 32
      vertex 4 0 32
    endloop
  endfacet
  facet normal 0 0 1
    outer loop
      vertex 3.15656 2.45685 32
      vertex 3.78327 -1.2988 32
      vertex 3.78327 1.2988 32
    endloop
  endfacet
  facet normal 0 0 1
    outer loop
      vertex 3.15656 2.45685 32
      vertex 3.15656 -2.45685 32
      vertex 3.78327 -1.2988 32
    endloop
  endfacet
  facet normal 0 0 1
    outer loop
      vertex 2.18779 3.34867 32
      vertex 3.15656 -2.45685 32
      vertex 3.15656 2.45685 32
    endloop
  endfacet
  facet normal 0 0 1
    outer loop
      vertex 2.18779 3.34867 32
      vertex 2.18779 -3.34867 32
      vertex 3.15656 -2.45685 32
    endloop
  endfacet
  facet normal 0 0 1
    outer loop
      vertex 0.981941 3.8776 32
      vertex 2.18779 -3.34867 32
      vertex 2.18779 3.34867 32
    endloop
  endfacet
  facet normal 0 0 1
    outer loop
      vertex 0.981941 3.8776 32
      vertex 0.981941 -3.8776 32
      vertex 2.18779 -3.34867 32
    endloop
  endfacet
  facet normal 0 0 1
    outer loop
      vertex -0.330317 3.98634 32
      vertex 0.981941 -3.8776 32
      vertex 0.981941 3.8776 32
    endloop
  endfacet
  facet normal 0 0 1
    outer loop
      vertex -0.330317 3.98634 32
      vertex -0.330317 -3.98634 32
      vertex 0.981941 -3.8776 32
    endloop
  endfacet
  facet normal -0 0 1
    outer loop
      vertex -1.60678 3.66309 32
      vertex -0.330317 -3.98634 32
      vertex -0.330317 3.98634 32
    endloop
  endfacet
  facet normal 0 0 1
    outer loop
      vertex -1.60678 3.66309 32
      vertex -1.60678 -3.66309 32
      vertex -0.330317 -3.98634 32
    endloop
  endfacet
  facet normal -0 0 1
    outer loop
      vertex -2.70913 2.94289 32
      vertex -1.60678 -3.66309 32
      vertex -1.60678 3.66309 32
    endloop
  endfacet
  facet normal 0 0 1
    outer loop
      vertex -2.70913 2.94289 32
      vertex -2.70913 -2.94289 32
      vertex -1.60678 -3.66309 32
    endloop
  endfacet
  facet normal -0 0 1
    outer loop
      vertex -3.51789 1.90379 32
      vertex -2.70913 -2.94289 32
      vertex -2.70913 2.94289 32
    endloop
  endfacet
  facet normal 0 0 1
    outer loop
      vertex -3.51789 1.90379 32
      vertex -3.51789 -1.90379 32
      vertex -2.70913 -2.94289 32
    endloop
  endfacet
  facet normal -0 0 1
    outer loop
      vertex -3.94545 0.658378 32
      vertex -3.51789 -1.90379 32
      vertex -3.51789 1.90379 32
    endloop
  endfacet
  facet normal 0 0 1
    outer loop
      vertex -3.51789 -1.90379 32
      vertex -3.94545 0.658378 32
      vertex -3.94545 -0.658378 32
    endloop
  endfacet
  facet normal 0.859955 0.465321 0.20965
    outer loop
      vertex 3.78327 1.2988 32
      vertex 4.54129 3.5023 24
      vertex 4.52898 3.52505 24
    endloop
  endfacet
  facet normal 0.859926 0.46537 0.209661
    outer loop
      vertex 4.54129 3.5023 24
      vertex 3.78327 1.2988 32
      vertex 5.33436 2.03684 24
    endloop
  endfacet
  facet normal 0.859932 0.46536 0.209661
    outer loop
      vertex 5.33436 2.03684 24
      vertex 3.78327 1.2988 32
      vertex 5.42817 1.86349 24
    endloop
  endfacet
  facet normal 0.0807616 0.974433 0.209661
    outer loop
      vertex 1.25057 5.57663 24
      vertex 0.981941 3.8776 32
      vertex 1.40887 5.56351 24
    endloop
  endfacet
  facet normal 0.0807429 0.974435 0.20966
    outer loop
      vertex -0.245183 5.70057 24
      vertex 0.981941 3.8776 32
      vertex 1.25057 5.57663 24
    endloop
  endfacet
  facet normal 0.0807662 0.974434 0.209657
    outer loop
      vertex 0.981941 3.8776 32
      vertex -0.245183 5.70057 24
      vertex -0.473933 5.71953 24
    endloop
  endfacet
  facet normal 0.0807463 -0.974434 0.20966
    outer loop
      vertex -0.330317 -3.98634 32
      vertex -0.473933 -5.71953 24
      vertex 0.981941 -3.8776 32
    endloop
  endfacet
  facet normal 0.662186 0.719412 0.209659
    outer loop
      vertex 4.45682 3.59147 24
      vertex 3.15656 2.45685 32
      vertex 4.52898 3.52505 24
    endloop
  endfacet
  facet normal 0.662229 0.719372 0.20966
    outer loop
      vertex 3.30241 4.65418 24
      vertex 3.15656 2.45685 32
      vertex 4.45682 3.59147 24
    endloop
  endfacet
  facet normal 0.662252 0.719351 0.209655
    outer loop
      vertex 3.15656 2.45685 32
      vertex 3.30241 4.65418 24
      vertex 3.13901 4.80461 24
    endloop
  endfacet
  facet normal 0.392765 0.895421 0.209661
    outer loop
      vertex 3.13901 4.80461 24
      vertex 0.981941 3.8776 32
      vertex 2.18779 3.34867 32
    endloop
  endfacet
  facet normal 0.662252 -0.719351 0.209655
    outer loop
      vertex 3.30241 -4.65418 24
      vertex 3.15656 -2.45685 32
      vertex 3.13901 -4.80461 24
    endloop
  endfacet
  facet normal 0.662229 -0.719372 0.20966
    outer loop
      vertex 4.45682 -3.59147 24
      vertex 3.15656 -2.45685 32
      vertex 3.30241 -4.65418 24
    endloop
  endfacet
  facet normal 0.662186 -0.719412 0.209659
    outer loop
      vertex 3.15656 -2.45685 32
      vertex 4.45682 -3.59147 24
      vertex 4.52898 -3.52505 24
    endloop
  endfacet
  facet normal 0.392742 0.895432 0.209656
    outer loop
      vertex 2.97344 4.87723 24
      vertex 0.981941 3.8776 32
      vertex 3.13901 4.80461 24
    endloop
  endfacet
  facet normal 0.392769 0.895419 0.209661
    outer loop
      vertex 1.4556 5.54302 24
      vertex 0.981941 3.8776 32
      vertex 2.97344 4.87723 24
    endloop
  endfacet
  facet normal 0.392644 0.895473 0.209665
    outer loop
      vertex 0.981941 3.8776 32
      vertex 1.4556 5.54302 24
      vertex 1.40887 5.56351 24
    endloop
  endfacet
  facet normal -0.240029 0.947855 0.209661
    outer loop
      vertex -0.631495 5.67963 24
      vertex -0.330317 3.98634 32
      vertex -0.473933 5.71953 24
    endloop
  endfacet
  facet normal -0.240033 0.947854 0.20966
    outer loop
      vertex -2.23228 5.27425 24
      vertex -0.330317 3.98634 32
      vertex -0.631495 5.67963 24
    endloop
  endfacet
  facet normal -0.240012 0.94786 0.209657
    outer loop
      vertex -0.330317 3.98634 32
      vertex -2.23228 5.27425 24
      vertex -2.30538 5.25574 24
    endloop
  endfacet
  facet normal -0.771603 0.600559 0.20966
    outer loop
      vertex -3.51789 1.90379 32
      vertex -3.97462 4.10985 24
      vertex -4.98667 2.80956 24
    endloop
  endfacet
  facet normal -0.771606 0.600555 0.209661
    outer loop
      vertex -3.51789 1.90379 32
      vertex -4.98667 2.80956 24
      vertex -5.04741 2.73152 24
    endloop
  endfacet
  facet normal -0.771598 0.600566 0.209662
    outer loop
      vertex -3.97462 4.10985 24
      vertex -3.51789 1.90379 32
      vertex -3.88701 4.22241 24
    endloop
  endfacet
  facet normal -0.924794 0.317489 0.20966
    outer loop
      vertex -3.51789 1.90379 32
      vertex -5.66086 0.94463 24
      vertex -3.94545 0.658378 32
    endloop
  endfacet
  facet normal -0.977774 0 0.20966
    outer loop
      vertex -5.66086 0.823274 24
      vertex -3.94545 0.658378 32
      vertex -5.66086 0.94463 24
    endloop
  endfacet
  facet normal -0.977774 0 0.20966
    outer loop
      vertex -5.66086 0.823274 24
      vertex -3.94545 -0.658378 32
      vertex -3.94545 0.658378 32
    endloop
  endfacet
  facet normal -0.977774 0 0.20966
    outer loop
      vertex -5.66086 -0.823274 24
      vertex -3.94545 -0.658378 32
      vertex -5.66086 0.823274 24
    endloop
  endfacet
  facet normal -0.977774 0 0.20966
    outer loop
      vertex -3.94545 -0.658378 32
      vertex -5.66086 -0.823274 24
      vertex -5.66086 -0.94463 24
    endloop
  endfacet
  facet normal -0.924789 -0.317503 0.209657
    outer loop
      vertex -5.58641 -1.16148 24
      vertex -3.51789 -1.90379 32
      vertex -5.66086 -0.94463 24
    endloop
  endfacet
  facet normal -0.924796 -0.317482 0.209661
    outer loop
      vertex -5.11828 -2.5251 24
      vertex -3.51789 -1.90379 32
      vertex -5.58641 -1.16148 24
    endloop
  endfacet
  facet normal -0.924787 -0.317506 0.209661
    outer loop
      vertex -3.51789 -1.90379 32
      vertex -5.11828 -2.5251 24
      vertex -5.04741 -2.73152 24
    endloop
  endfacet
  facet normal 0.66223 -0.71937 0.209661
    outer loop
      vertex 3.15656 -2.45685 32
      vertex 2.18779 -3.34867 32
      vertex 3.13901 -4.80461 24
    endloop
  endfacet
  facet normal 0.859925 0.465372 0.209661
    outer loop
      vertex 4.52898 3.52505 24
      vertex 3.15656 2.45685 32
      vertex 3.78327 1.2988 32
    endloop
  endfacet
  facet normal 0.964439 -0.160934 0.209661
    outer loop
      vertex 4 0 32
      vertex 5.46291 -1.65532 24
      vertex 5.73913 0 24
    endloop
  endfacet
  facet normal 0.964436 -0.160948 0.209663
    outer loop
      vertex 5.46291 -1.65532 24
      vertex 4 0 32
      vertex 5.42817 -1.86349 24
    endloop
  endfacet
  facet normal -0.534786 0.818564 0.209661
    outer loop
      vertex -2.46974 5.14836 24
      vertex -1.60678 3.66309 32
      vertex -2.30538 5.25574 24
    endloop
  endfacet
  facet normal -0.53479 0.818561 0.209661
    outer loop
      vertex -3.69246 4.34952 24
      vertex -1.60678 3.66309 32
      vertex -2.46974 5.14836 24
    endloop
  endfacet
  facet normal -0.534804 0.818551 0.209663
    outer loop
      vertex -1.60678 3.66309 32
      vertex -3.69246 4.34952 24
      vertex -3.88701 4.22241 24
    endloop
  endfacet
  facet normal -0.240033 0.947854 0.209661
    outer loop
      vertex -0.330317 3.98634 32
      vertex -2.30538 5.25574 24
      vertex -1.60678 3.66309 32
    endloop
  endfacet
  facet normal -0.534791 0.81856 0.209661
    outer loop
      vertex -1.60678 3.66309 32
      vertex -3.88701 4.22241 24
      vertex -2.70913 2.94289 32
    endloop
  endfacet
  facet normal -0.771603 0.60056 0.20966
    outer loop
      vertex -2.70913 2.94289 32
      vertex -3.88701 4.22241 24
      vertex -3.51789 1.90379 32
    endloop
  endfacet
  facet normal 0.0807463 0.974434 0.20966
    outer loop
      vertex 0.981941 3.8776 32
      vertex -0.473933 5.71953 24
      vertex -0.330317 3.98634 32
    endloop
  endfacet
  facet normal -0.924787 0.317506 0.209661
    outer loop
      vertex -5.11828 2.5251 24
      vertex -3.51789 1.90379 32
      vertex -5.04741 2.73152 24
    endloop
  endfacet
  facet normal -0.924796 0.317482 0.209661
    outer loop
      vertex -5.58641 1.16148 24
      vertex -3.51789 1.90379 32
      vertex -5.11828 2.5251 24
    endloop
  endfacet
  facet normal -0.924789 0.317503 0.209657
    outer loop
      vertex -3.51789 1.90379 32
      vertex -5.58641 1.16148 24
      vertex -5.66086 0.94463 24
    endloop
  endfacet
  facet normal -0.534804 -0.818551 0.209663
    outer loop
      vertex -3.69246 -4.34952 24
      vertex -1.60678 -3.66309 32
      vertex -3.88701 -4.22241 24
    endloop
  endfacet
  facet normal -0.53479 -0.818561 0.209661
    outer loop
      vertex -2.46974 -5.14836 24
      vertex -1.60678 -3.66309 32
      vertex -3.69246 -4.34952 24
    endloop
  endfacet
  facet normal -0.534786 -0.818564 0.209661
    outer loop
      vertex -1.60678 -3.66309 32
      vertex -2.46974 -5.14836 24
      vertex -2.30538 -5.25574 24
    endloop
  endfacet
  facet normal -0.771606 -0.600555 0.209661
    outer loop
      vertex -4.98667 -2.80956 24
      vertex -3.51789 -1.90379 32
      vertex -5.04741 -2.73152 24
    endloop
  endfacet
  facet normal -0.771603 -0.600559 0.20966
    outer loop
      vertex -3.97462 -4.10985 24
      vertex -3.51789 -1.90379 32
      vertex -4.98667 -2.80956 24
    endloop
  endfacet
  facet normal -0.771598 -0.600566 0.209662
    outer loop
      vertex -3.51789 -1.90379 32
      vertex -3.97462 -4.10985 24
      vertex -3.88701 -4.22241 24
    endloop
  endfacet
  facet normal -0.771603 -0.60056 0.20966
    outer loop
      vertex -3.51789 -1.90379 32
      vertex -3.88701 -4.22241 24
      vertex -2.70913 -2.94289 32
    endloop
  endfacet
  facet normal -0.534791 -0.81856 0.209661
    outer loop
      vertex -2.70913 -2.94289 32
      vertex -3.88701 -4.22241 24
      vertex -1.60678 -3.66309 32
    endloop
  endfacet
  facet normal -0.240012 -0.94786 0.209657
    outer loop
      vertex -2.23228 -5.27425 24
      vertex -0.330317 -3.98634 32
      vertex -2.30538 -5.25574 24
    endloop
  endfacet
  facet normal -0.240033 -0.947854 0.20966
    outer loop
      vertex -0.631495 -5.67963 24
      vertex -0.330317 -3.98634 32
      vertex -2.23228 -5.27425 24
    endloop
  endfacet
  facet normal -0.240029 -0.947855 0.209661
    outer loop
      vertex -0.330317 -3.98634 32
      vertex -0.631495 -5.67963 24
      vertex -0.473933 -5.71953 24
    endloop
  endfacet
  facet normal 0.392644 -0.895473 0.209665
    outer loop
      vertex 1.4556 -5.54302 24
      vertex 0.981941 -3.8776 32
      vertex 1.40887 -5.56351 24
    endloop
  endfacet
  facet normal 0.392769 -0.895419 0.209661
    outer loop
      vertex 2.97344 -4.87723 24
      vertex 0.981941 -3.8776 32
      vertex 1.4556 -5.54302 24
    endloop
  endfacet
  facet normal 0.392742 -0.895432 0.209656
    outer loop
      vertex 0.981941 -3.8776 32
      vertex 2.97344 -4.87723 24
      vertex 3.13901 -4.80461 24
    endloop
  endfacet
  facet normal 0.0807662 -0.974434 0.209657
    outer loop
      vertex -0.245183 -5.70057 24
      vertex 0.981941 -3.8776 32
      vertex -0.473933 -5.71953 24
    endloop
  endfacet
  facet normal 0.0807429 -0.974435 0.20966
    outer loop
      vertex 1.25057 -5.57663 24
      vertex 0.981941 -3.8776 32
      vertex -0.245183 -5.70057 24
    endloop
  endfacet
  facet normal 0.0807616 -0.974433 0.209661
    outer loop
      vertex 0.981941 -3.8776 32
      vertex 1.25057 -5.57663 24
      vertex 1.40887 -5.56351 24
    endloop
  endfacet
  facet normal 0.859925 -0.465372 0.209661
    outer loop
      vertex 3.78327 -1.2988 32
      vertex 3.15656 -2.45685 32
      vertex 4.52898 -3.52505 24
    endloop
  endfacet
  facet normal 0.964439 0.160935 0.209661
    outer loop
      vertex 5.42817 1.86349 24
      vertex 3.78327 1.2988 32
      vertex 4 0 32
    endloop
  endfacet
  facet normal 0.66223 0.71937 0.209661
    outer loop
      vertex 3.13901 4.80461 24
      vertex 2.18779 3.34867 32
      vertex 3.15656 2.45685 32
    endloop
  endfacet
  facet normal -0.924794 -0.317489 0.20966
    outer loop
      vertex -3.94545 -0.658378 32
      vertex -5.66086 -0.94463 24
      vertex -3.51789 -1.90379 32
    endloop
  endfacet
  facet normal -0.240033 -0.947854 0.209661
    outer loop
      vertex -1.60678 -3.66309 32
      vertex -2.30538 -5.25574 24
      vertex -0.330317 -3.98634 32
    endloop
  endfacet
  facet normal 0.392765 -0.895421 0.209661
    outer loop
      vertex 2.18779 -3.34867 32
      vertex 0.981941 -3.8776 32
      vertex 3.13901 -4.80461 24
    endloop
  endfacet
  facet normal 0.859932 -0.46536 0.209661
    outer loop
      vertex 3.78327 -1.2988 32
      vertex 5.33436 -2.03684 24
      vertex 5.42817 -1.86349 24
    endloop
  endfacet
  facet normal 0.859926 -0.46537 0.209661
    outer loop
      vertex 3.78327 -1.2988 32
      vertex 4.54129 -3.5023 24
      vertex 5.33436 -2.03684 24
    endloop
  endfacet
  facet normal 0.859955 -0.465321 0.20965
    outer loop
      vertex 4.54129 -3.5023 24
      vertex 3.78327 -1.2988 32
      vertex 4.52898 -3.52505 24
    endloop
  endfacet
  facet normal 0.964439 -0.160935 0.209661
    outer loop
      vertex 4 0 32
      vertex 3.78327 -1.2988 32
      vertex 5.42817 -1.86349 24
    endloop
  endfacet
endsolid OpenSCAD_Model
