solid OpenSCAD_Model
  facet normal 0.973703 0.118231 0.194741
    outer loop
      vertex 8 0 0
      vertex 6.79659 1.67521 5
      vertex 7 0 5
    endloop
  endfacet
  facet normal 0.973703 0.118231 0.19474
    outer loop
      vertex 7.76753 1.91453 0
      vertex 6.79659 1.67521 5
      vertex 8 0 0
    endloop
  endfacet
  facet normal 0.650427 0.734181 0.194741
    outer loop
      vertex 4.54452 6.58387 0
      vertex 3.97645 5.76089 5
      vertex 5.98809 5.30498 0
    endloop
  endfacet
  facet normal 0.455826 0.868503 0.194742
    outer loop
      vertex 2.83684 7.48013 0
      vertex 2.48223 6.54511 5
      vertex 4.54452 6.58387 0
    endloop
  endfacet
  facet normal -0.650427 -0.734181 0.194741
    outer loop
      vertex -3.97645 -5.76089 5
      vertex -5.98809 -5.30498 0
      vertex -4.54452 -6.58387 0
    endloop
  endfacet
  facet normal 0 0 -1
    outer loop
      vertex 7.76753 -1.91453 0
      vertex 7.76753 1.91453 0
      vertex 8 0 0
    endloop
  endfacet
  facet normal 0 0 -1
    outer loop
      vertex 7.08365 -3.71778 0
      vertex 7.76753 1.91453 0
      vertex 7.76753 -1.91453 0
    endloop
  endfacet
  facet normal 0 0 -1
    outer loop
      vertex 7.08365 -3.71778 0
      vertex 7.08365 3.71778 0
      vertex 7.76753 1.91453 0
    endloop
  endfacet
  facet normal 0 0 -1
    outer loop
      vertex 5.98809 -5.30498 0
      vertex 7.08365 3.71778 0
      vertex 7.08365 -3.71778 0
    endloop
  endfacet
  facet normal 0 0 -1
    outer loop
      vertex 5.98809 -5.30498 0
      vertex 5.98809 5.30498 0
      vertex 7.08365 3.71778 0
    endloop
  endfacet
  facet normal 0 0 -1
    outer loop
      vertex 4.54452 -6.58387 0
      vertex 5.98809 5.30498 0
      vertex 5.98809 -5.30498 0
    endloop
  endfacet
  facet normal 0 0 -1
    outer loop
      vertex 4.54452 -6.58387 0
      vertex 4.54452 6.58387 0
      vertex 5.98809 5.30498 0
    endloop
  endfacet
  facet normal 0 0 -1
    outer loop
      vertex 2.83684 -7.48013 0
      vertex 4.54452 6.58387 0
      vertex 4.54452 -6.58387 0
    endloop
  endfacet
  facet normal 0 0 -1
    outer loop
      vertex 2.83684 -7.48013 0
      vertex 2.83684 7.48013 0
      vertex 4.54452 6.58387 0
    endloop
  endfacet
  facet normal 0 0 -1
    outer loop
      vertex 0.964293 -7.94167 0
      vertex 2.83684 7.48013 0
      vertex 2.83684 -7.48013 0
    endloop
  endfacet
  facet normal 0 0 -1
    outer loop
      vertex 0.964293 -7.94167 0
      vertex 0.964293 7.94167 0
      vertex 2.83684 7.48013 0
    endloop
  endfacet
  facet normal 0 0 -1
    outer loop
      vertex -0.964293 -7.94167 0
      vertex 0.964293 7.94167 0
      vertex 0.964293 -7.94167 0
    endloop
  endfacet
  facet normal 0 0 -1
    outer loop
      vertex -0.964293 -7.94167 0
      vertex -0.964293 7.94167 0
      vertex 0.964293 7.94167 0
    endloop
  endfacet
  facet normal 0 0 -1
    outer loop
      vertex -2.83684 -7.48013 0
      vertex -0.964293 7.94167 0
      vertex -0.964293 -7.94167 0
    endloop
  endfacet
  facet normal 0 0 -1
    outer loop
      vertex -2.83684 -7.48013 0
      vertex -2.83684 7.48013 0
      vertex -0.964293 7.94167 0
    endloop
  endfacet
  facet normal 0 0 -1
    outer loop
      vertex -4.54452 -6.58387 0
      vertex -2.83684 7.48013 0
      vertex -2.83684 -7.48013 0
    endloop
  endfacet
  facet normal 0 0 -1
    outer loop
      vertex -4.54452 -6.58387 0
      vertex -4.54452 6.58387 0
      vertex -2.83684 7.48013 0
    endloop
  endfacet
  facet normal 0 0 -1
    outer loop
      vertex -5.98809 -5.30498 0
      vertex -4.54452 6.58387 0
      vertex -4.54452 -6.58387 0
    endloop
  endfacet
  facet normal 0 0 -1
    outer loop
      vertex -5.98809 -5.30498 0
      vertex -5.98809 5.30498 0
      vertex -4.54452 6.58387 0
    endloop
  endfacet
  facet normal 0 0 -1
    outer loop
      vertex -7.08365 -3.71778 0
      vertex -5.98809 5.30498 0
      vertex -5.98809 -5.30498 0
    endloop
  endfacet
  facet normal 0 0 -1
    outer loop
      vertex -7.08365 -3.71778 0
      vertex -7.08365 3.71778 0
      vertex -5.98809 5.30498 0
    endloop
  endfacet
  facet normal 0 0 -1
    outer loop
      vertex -7.76753 -1.91453 0
      vertex -7.08365 3.71778 0
      vertex -7.08365 -3.71778 0
    endloop
  endfacet
  facet normal 0 0 -1
    outer loop
      vertex -7.76753 -1.91453 0
      vertex -7.76753 1.91453 0
      vertex -7.08365 3.71778 0
    endloop
  endfacet
  facet normal 0 -0 -1
    outer loop
      vertex -7.76753 1.91453 0
      vertex -7.76753 -1.91453 0
      vertex -8 0 0
    endloop
  endfacet
  facet normal 0.973703 -0.118231 0.194741
    outer loop
      vertex 7 0 5
      vertex 6.79659 -1.67521 5
      vertex 8 0 0
    endloop
  endfacet
  facet normal 0.23474 0.952352 0.194739
    outer loop
      vertex 0.964293 7.94167 0
      vertex 1.36447 6.82062 5
      vertex 2.48223 6.54511 5
    endloop
  endfacet
  facet normal 0.234728 0.952354 0.194741
    outer loop
      vertex 1.36447 6.82062 5
      vertex 0.964293 7.94167 0
      vertex 0.925757 6.92875 5
    endloop
  endfacet
  facet normal 0.234721 0.952356 0.194741
    outer loop
      vertex 0.925757 6.92875 5
      vertex 0.964293 7.94167 0
      vertex 0.843757 6.94896 5
    endloop
  endfacet
  facet normal -0.650437 0.73417 0.194746
    outer loop
      vertex -5.98809 5.30498 0
      vertex -4.30604 5.46889 5
      vertex -3.97645 5.76089 5
    endloop
  endfacet
  facet normal -0.650421 0.734186 0.19474
    outer loop
      vertex -4.30604 5.46889 5
      vertex -5.98809 5.30498 0
      vertex -4.83622 4.9992 5
    endloop
  endfacet
  facet normal -0.65043 0.734177 0.194742
    outer loop
      vertex -4.83622 4.9992 5
      vertex -5.98809 5.30498 0
      vertex -5.23957 4.64186 5
    endloop
  endfacet
  facet normal 0.455822 0.868506 0.19474
    outer loop
      vertex 4.54452 6.58387 0
      vertex 3.29595 6.11804 5
      vertex 3.97645 5.76089 5
    endloop
  endfacet
  facet normal 0.455825 0.868504 0.194741
    outer loop
      vertex 3.29595 6.11804 5
      vertex 4.54452 6.58387 0
      vertex 2.71017 6.42548 5
    endloop
  endfacet
  facet normal 0.45582 0.868507 0.194739
    outer loop
      vertex 2.71017 6.42548 5
      vertex 4.54452 6.58387 0
      vertex 2.48223 6.54511 5
    endloop
  endfacet
  facet normal -0.973703 -0.118231 0.19474
    outer loop
      vertex -6.79659 -1.67521 5
      vertex -8 0 0
      vertex -7.76753 -1.91453 0
    endloop
  endfacet
  facet normal 0.807234 -0.557181 0.194739
    outer loop
      vertex 5.98809 -5.30498 0
      vertex 6.001 -3.53874 5
      vertex 5.6066 -4.11014 5
    endloop
  endfacet
  facet normal 0.80722 -0.557199 0.194742
    outer loop
      vertex 5.98809 -5.30498 0
      vertex 5.6066 -4.11014 5
      vertex 5.23957 -4.64186 5
    endloop
  endfacet
  facet normal 0.807228 -0.557188 0.194741
    outer loop
      vertex 6.001 -3.53874 5
      vertex 5.98809 -5.30498 0
      vertex 6.19819 -3.25306 5
    endloop
  endfacet
  facet normal 0.455826 -0.868503 0.194742
    outer loop
      vertex 4.54452 -6.58387 0
      vertex 2.48223 -6.54511 5
      vertex 2.83684 -7.48013 0
    endloop
  endfacet
  facet normal 0.917116 0.347815 0.194741
    outer loop
      vertex 7.08365 3.71778 0
      vertex 6.79659 1.67521 5
      vertex 7.76753 1.91453 0
    endloop
  endfacet
  facet normal -0.973703 0.118231 0.194741
    outer loop
      vertex -6.79659 1.67521 5
      vertex -8 0 0
      vertex -7 0 5
    endloop
  endfacet
  facet normal -0.807229 0.557187 0.194741
    outer loop
      vertex -5.98809 5.30498 0
      vertex -7.08365 3.71778 0
      vertex -6.19819 3.25306 5
    endloop
  endfacet
  facet normal 0.65043 0.734177 0.194742
    outer loop
      vertex 5.98809 5.30498 0
      vertex 4.83622 4.9992 5
      vertex 5.23957 4.64186 5
    endloop
  endfacet
  facet normal 0.650421 0.734186 0.19474
    outer loop
      vertex 4.83622 4.9992 5
      vertex 5.98809 5.30498 0
      vertex 4.30604 5.46889 5
    endloop
  endfacet
  facet normal 0.650437 0.73417 0.194746
    outer loop
      vertex 4.30604 5.46889 5
      vertex 5.98809 5.30498 0
      vertex 3.97645 5.76089 5
    endloop
  endfacet
  facet normal 0 0.980855 0.194741
    outer loop
      vertex 0.964293 7.94167 0
      vertex -0.843757 6.94896 5
      vertex 0.843757 6.94896 5
    endloop
  endfacet
  facet normal 0 0.980855 0.194741
    outer loop
      vertex -0.843757 6.94896 5
      vertex 0.964293 7.94167 0
      vertex -0.964293 7.94167 0
    endloop
  endfacet
  facet normal -0.807229 -0.557187 0.194741
    outer loop
      vertex -6.19819 -3.25306 5
      vertex -7.08365 -3.71778 0
      vertex -5.98809 -5.30498 0
    endloop
  endfacet
  facet normal -0.917116 -0.347815 0.194741
    outer loop
      vertex -6.79659 -1.67521 5
      vertex -7.76753 -1.91453 0
      vertex -7.08365 -3.71778 0
    endloop
  endfacet
  facet normal -0.23474 -0.952352 0.194739
    outer loop
      vertex -0.964293 -7.94167 0
      vertex -1.36447 -6.82062 5
      vertex -2.48223 -6.54511 5
    endloop
  endfacet
  facet normal -0.234728 -0.952354 0.194741
    outer loop
      vertex -1.36447 -6.82062 5
      vertex -0.964293 -7.94167 0
      vertex -0.925757 -6.92875 5
    endloop
  endfacet
  facet normal -0.234721 -0.952356 0.194741
    outer loop
      vertex -0.925757 -6.92875 5
      vertex -0.964293 -7.94167 0
      vertex -0.843757 -6.94896 5
    endloop
  endfacet
  facet normal -0.807228 -0.557188 0.194741
    outer loop
      vertex -5.98809 -5.30498 0
      vertex -6.001 -3.53874 5
      vertex -6.19819 -3.25306 5
    endloop
  endfacet
  facet normal -0.807234 -0.557181 0.194739
    outer loop
      vertex -6.001 -3.53874 5
      vertex -5.98809 -5.30498 0
      vertex -5.6066 -4.11014 5
    endloop
  endfacet
  facet normal -0.80722 -0.557199 0.194742
    outer loop
      vertex -5.6066 -4.11014 5
      vertex -5.98809 -5.30498 0
      vertex -5.23957 -4.64186 5
    endloop
  endfacet
  facet normal -0.65043 -0.734177 0.194742
    outer loop
      vertex -5.98809 -5.30498 0
      vertex -4.83622 -4.9992 5
      vertex -5.23957 -4.64186 5
    endloop
  endfacet
  facet normal -0.650421 -0.734186 0.19474
    outer loop
      vertex -4.83622 -4.9992 5
      vertex -5.98809 -5.30498 0
      vertex -4.30604 -5.46889 5
    endloop
  endfacet
  facet normal -0.650437 -0.73417 0.194746
    outer loop
      vertex -4.30604 -5.46889 5
      vertex -5.98809 -5.30498 0
      vertex -3.97645 -5.76089 5
    endloop
  endfacet
  facet normal 0.650427 -0.734181 0.194741
    outer loop
      vertex 5.98809 -5.30498 0
      vertex 3.97645 -5.76089 5
      vertex 4.54452 -6.58387 0
    endloop
  endfacet
  facet normal 0.650437 -0.73417 0.194746
    outer loop
      vertex 5.98809 -5.30498 0
      vertex 4.30604 -5.46889 5
      vertex 3.97645 -5.76089 5
    endloop
  endfacet
  facet normal 0.650421 -0.734186 0.19474
    outer loop
      vertex 4.30604 -5.46889 5
      vertex 5.98809 -5.30498 0
      vertex 4.83622 -4.9992 5
    endloop
  endfacet
  facet normal 0.65043 -0.734177 0.194742
    outer loop
      vertex 4.83622 -4.9992 5
      vertex 5.98809 -5.30498 0
      vertex 5.23957 -4.64186 5
    endloop
  endfacet
  facet normal 0.917116 -0.347815 0.194741
    outer loop
      vertex 7.76753 -1.91453 0
      vertex 6.79659 -1.67521 5
      vertex 7.08365 -3.71778 0
    endloop
  endfacet
  facet normal 0.807229 -0.557187 0.194741
    outer loop
      vertex 6.19819 -3.25306 5
      vertex 5.98809 -5.30498 0
      vertex 7.08365 -3.71778 0
    endloop
  endfacet
  facet normal -0.973703 -0.118231 0.194741
    outer loop
      vertex -7 0 5
      vertex -8 0 0
      vertex -6.79659 -1.67521 5
    endloop
  endfacet
  facet normal 0 0 1
    outer loop
      vertex 7 0 5
      vertex 6.73627 -1.83426 5
      vertex 6.79659 -1.67521 5
    endloop
  endfacet
  facet normal 0 0 1
    outer loop
      vertex 6.79659 1.67521 5
      vertex 6.73627 1.83426 5
      vertex 7 0 5
    endloop
  endfacet
  facet normal 0 0 1
    outer loop
      vertex -6.73627 -1.83426 5
      vertex -7 0 5
      vertex -6.79659 -1.67521 5
    endloop
  endfacet
  facet normal -0 0 1
    outer loop
      vertex -6.79659 1.67521 5
      vertex -7 0 5
      vertex -6.73627 1.83426 5
    endloop
  endfacet
  facet normal -0 -0 -1
    outer loop
      vertex 5.88877 3.78448 5
      vertex 6.001 3.53874 5
      vertex 5.6066 4.11014 5
    endloop
  endfacet
  facet normal 0 0 -1
    outer loop
      vertex 3.29595 -6.11804 5
      vertex 2.9079 -6.36742 5
      vertex 2.71017 -6.42548 5
    endloop
  endfacet
  facet normal 0 -0 -1
    outer loop
      vertex -2.9079 6.36742 5
      vertex -2.71017 6.42548 5
      vertex -3.29595 6.11804 5
    endloop
  endfacet
  facet normal -0 -0 -1
    outer loop
      vertex 6.71645 1.97213 5
      vertex 6.73627 1.83426 5
      vertex 6.52499 2.39137 5
    endloop
  endfacet
  facet normal 0 0 -1
    outer loop
      vertex 4.83622 -4.9992 5
      vertex 4.58402 -5.29025 5
      vertex 4.30604 -5.46889 5
    endloop
  endfacet
  facet normal 0 0 -1
    outer loop
      vertex 6.73627 -1.83426 5
      vertex 6.71645 -1.97213 5
      vertex 6.52499 -2.39137 5
    endloop
  endfacet
  facet normal 0 -0 -1
    outer loop
      vertex -0.996203 6.92875 5
      vertex -0.925757 6.92875 5
      vertex -1.36447 6.82062 5
    endloop
  endfacet
  facet normal 0 -0 -1
    outer loop
      vertex -5.88877 3.78448 5
      vertex -5.6066 4.11014 5
      vertex -6.001 3.53874 5
    endloop
  endfacet
  facet normal 0 -0 -1
    outer loop
      vertex -4.58402 5.29025 5
      vertex -4.30604 5.46889 5
      vertex -4.83622 4.9992 5
    endloop
  endfacet
  facet normal 0 0 -1
    outer loop
      vertex -4.30604 -5.46889 5
      vertex -4.58402 -5.29025 5
      vertex -4.83622 -4.9992 5
    endloop
  endfacet
  facet normal 0 0 -1
    outer loop
      vertex -2.71017 -6.42548 5
      vertex -2.9079 -6.36742 5
      vertex -3.29595 -6.11804 5
    endloop
  endfacet
  facet normal 0 0 -1
    outer loop
      vertex -0.925757 -6.92875 5
      vertex -0.996203 -6.92875 5
      vertex -1.36447 -6.82062 5
    endloop
  endfacet
  facet normal 0 0 -1
    outer loop
      vertex 6.001 -3.53874 5
      vertex 5.88877 -3.78448 5
      vertex 5.6066 -4.11014 5
    endloop
  endfacet
  facet normal -0 -0 -1
    outer loop
      vertex 2.9079 6.36742 5
      vertex 3.29595 6.11804 5
      vertex 2.71017 6.42548 5
    endloop
  endfacet
  facet normal -0 -0 -1
    outer loop
      vertex 4.58402 5.29025 5
      vertex 4.83622 4.9992 5
      vertex 4.30604 5.46889 5
    endloop
  endfacet
  facet normal -0 -0 -1
    outer loop
      vertex 0.996203 6.92875 5
      vertex 1.36447 6.82062 5
      vertex 0.925757 6.92875 5
    endloop
  endfacet
  facet normal 0 -0 -1
    outer loop
      vertex -6.71645 1.97213 5
      vertex -6.52499 2.39137 5
      vertex -6.73627 1.83426 5
    endloop
  endfacet
  facet normal 0 0 -1
    outer loop
      vertex 1.36447 -6.82062 5
      vertex 0.996203 -6.92875 5
      vertex 0.925757 -6.92875 5
    endloop
  endfacet
  facet normal 0 0 -1
    outer loop
      vertex -6.52499 -2.39137 5
      vertex -6.71645 -1.97213 5
      vertex -6.73627 -1.83426 5
    endloop
  endfacet
  facet normal 0 0 -1
    outer loop
      vertex -5.6066 -4.11014 5
      vertex -5.88877 -3.78448 5
      vertex -6.001 -3.53874 5
    endloop
  endfacet
  facet normal 0 0 1
    outer loop
      vertex 2.48223 6.54511 5
      vertex 1.36447 6.82062 5
      vertex 2.71017 6.42548 5
    endloop
  endfacet
  facet normal 0 0 1
    outer loop
      vertex -3.29595 -6.11804 5
      vertex -4.30604 -5.46889 5
      vertex -3.97645 -5.76089 5
    endloop
  endfacet
  facet normal 0 0 1
    outer loop
      vertex 5.23957 4.64186 5
      vertex 4.83622 4.9992 5
      vertex 5.6066 4.11014 5
    endloop
  endfacet
  facet normal 0 0 1
    outer loop
      vertex 3.97645 5.76089 5
      vertex 3.29595 6.11804 5
      vertex 4.30604 5.46889 5
    endloop
  endfacet
  facet normal -0 0 1
    outer loop
      vertex -5.23957 4.64186 5
      vertex -5.6066 4.11014 5
      vertex -4.83622 4.9992 5
    endloop
  endfacet
  facet normal -0 0 1
    outer loop
      vertex -3.97645 5.76089 5
      vertex -4.30604 5.46889 5
      vertex -3.29595 6.11804 5
    endloop
  endfacet
  facet normal 0 0 1
    outer loop
      vertex -4.83622 -4.9992 5
      vertex -5.6066 -4.11014 5
      vertex -5.23957 -4.64186 5
    endloop
  endfacet
  facet normal 0 0 1
    outer loop
      vertex 5.6066 -4.11014 5
      vertex 4.83622 -4.9992 5
      vertex 5.23957 -4.64186 5
    endloop
  endfacet
  facet normal 0 0 1
    outer loop
      vertex 4.30604 -5.46889 5
      vertex 3.29595 -6.11804 5
      vertex 3.97645 -5.76089 5
    endloop
  endfacet
  facet normal 0 0 1
    outer loop
      vertex 2.71017 -6.42548 5
      vertex 1.36447 -6.82062 5
      vertex 2.48223 -6.54511 5
    endloop
  endfacet
  facet normal -0 0 1
    outer loop
      vertex -6.19819 3.25306 5
      vertex -6.52499 2.39137 5
      vertex -6.001 3.53874 5
    endloop
  endfacet
  facet normal -0 0 1
    outer loop
      vertex -0.843757 6.94896 5
      vertex 0.925757 6.92875 5
      vertex 0.843757 6.94896 5
    endloop
  endfacet
  facet normal 0 0 1
    outer loop
      vertex 0.925757 6.92875 5
      vertex -0.843757 6.94896 5
      vertex -0.925757 6.92875 5
    endloop
  endfacet
  facet normal 0 0 1
    outer loop
      vertex -6.001 -3.53874 5
      vertex -6.52499 -2.39137 5
      vertex -6.19819 -3.25306 5
    endloop
  endfacet
  facet normal 0 0 1
    outer loop
      vertex 0.925757 -6.92875 5
      vertex -0.843757 -6.94896 5
      vertex 0.843757 -6.94896 5
    endloop
  endfacet
  facet normal 0 -0 1
    outer loop
      vertex -0.843757 -6.94896 5
      vertex 0.925757 -6.92875 5
      vertex -0.925757 -6.92875 5
    endloop
  endfacet
  facet normal 0 0 1
    outer loop
      vertex 6.52499 -2.39137 5
      vertex 6.001 -3.53874 5
      vertex 6.19819 -3.25306 5
    endloop
  endfacet
  facet normal 0 0 1
    outer loop
      vertex 6.19819 3.25306 5
      vertex 6.001 3.53874 5
      vertex 6.52499 2.39137 5
    endloop
  endfacet
  facet normal -0 0 1
    outer loop
      vertex -2.48223 6.54511 5
      vertex -2.71017 6.42548 5
      vertex -1.36447 6.82062 5
    endloop
  endfacet
  facet normal 0 0 1
    outer loop
      vertex -1.36447 -6.82062 5
      vertex -2.71017 -6.42548 5
      vertex -2.48223 -6.54511 5
    endloop
  endfacet
  facet normal -0.80722 0.557199 0.194742
    outer loop
      vertex -5.98809 5.30498 0
      vertex -5.6066 4.11014 5
      vertex -5.23957 4.64186 5
    endloop
  endfacet
  facet normal -0.807234 0.557181 0.194739
    outer loop
      vertex -5.98809 5.30498 0
      vertex -6.001 3.53874 5
      vertex -5.6066 4.11014 5
    endloop
  endfacet
  facet normal -0.807228 0.557188 0.194741
    outer loop
      vertex -6.001 3.53874 5
      vertex -5.98809 5.30498 0
      vertex -6.19819 3.25306 5
    endloop
  endfacet
  facet normal -0.455826 0.868503 0.194742
    outer loop
      vertex -2.83684 7.48013 0
      vertex -4.54452 6.58387 0
      vertex -2.48223 6.54511 5
    endloop
  endfacet
  facet normal -0.973703 0.118231 0.19474
    outer loop
      vertex -7.76753 1.91453 0
      vertex -8 0 0
      vertex -6.79659 1.67521 5
    endloop
  endfacet
  facet normal 0.80722 0.557199 0.194742
    outer loop
      vertex 5.6066 4.11014 5
      vertex 5.98809 5.30498 0
      vertex 5.23957 4.64186 5
    endloop
  endfacet
  facet normal 0.807234 0.557181 0.194739
    outer loop
      vertex 6.001 3.53874 5
      vertex 5.98809 5.30498 0
      vertex 5.6066 4.11014 5
    endloop
  endfacet
  facet normal 0.807228 0.557188 0.194741
    outer loop
      vertex 5.98809 5.30498 0
      vertex 6.001 3.53874 5
      vertex 6.19819 3.25306 5
    endloop
  endfacet
  facet normal 0.234733 0.952353 0.194742
    outer loop
      vertex 2.83684 7.48013 0
      vertex 0.964293 7.94167 0
      vertex 2.48223 6.54511 5
    endloop
  endfacet
  facet normal -0.234721 0.952356 0.194741
    outer loop
      vertex -0.964293 7.94167 0
      vertex -0.925757 6.92875 5
      vertex -0.843757 6.94896 5
    endloop
  endfacet
  facet normal -0.234728 0.952354 0.194741
    outer loop
      vertex -0.925757 6.92875 5
      vertex -0.964293 7.94167 0
      vertex -1.36447 6.82062 5
    endloop
  endfacet
  facet normal -0.23474 0.952352 0.194739
    outer loop
      vertex -1.36447 6.82062 5
      vertex -0.964293 7.94167 0
      vertex -2.48223 6.54511 5
    endloop
  endfacet
  facet normal -0.455826 -0.868503 0.194742
    outer loop
      vertex -2.48223 -6.54511 5
      vertex -4.54452 -6.58387 0
      vertex -2.83684 -7.48013 0
    endloop
  endfacet
  facet normal -0.455822 -0.868506 0.19474
    outer loop
      vertex -4.54452 -6.58387 0
      vertex -3.29595 -6.11804 5
      vertex -3.97645 -5.76089 5
    endloop
  endfacet
  facet normal -0.455825 -0.868504 0.194741
    outer loop
      vertex -3.29595 -6.11804 5
      vertex -4.54452 -6.58387 0
      vertex -2.71017 -6.42548 5
    endloop
  endfacet
  facet normal -0.45582 -0.868507 0.194739
    outer loop
      vertex -2.71017 -6.42548 5
      vertex -4.54452 -6.58387 0
      vertex -2.48223 -6.54511 5
    endloop
  endfacet
  facet normal 0 -0.980855 0.194741
    outer loop
      vertex -0.964293 -7.94167 0
      vertex 0.843757 -6.94896 5
      vertex -0.843757 -6.94896 5
    endloop
  endfacet
  facet normal 0 -0.980855 0.194741
    outer loop
      vertex 0.843757 -6.94896 5
      vertex -0.964293 -7.94167 0
      vertex 0.964293 -7.94167 0
    endloop
  endfacet
  facet normal -0.917114 -0.347817 0.194742
    outer loop
      vertex -7.08365 -3.71778 0
      vertex -6.73627 -1.83426 5
      vertex -6.79659 -1.67521 5
    endloop
  endfacet
  facet normal -0.917118 -0.34781 0.194739
    outer loop
      vertex -6.73627 -1.83426 5
      vertex -7.08365 -3.71778 0
      vertex -6.52499 -2.39137 5
    endloop
  endfacet
  facet normal -0.917114 -0.34782 0.194741
    outer loop
      vertex -6.52499 -2.39137 5
      vertex -7.08365 -3.71778 0
      vertex -6.19819 -3.25306 5
    endloop
  endfacet
  facet normal 0.45582 -0.868507 0.194739
    outer loop
      vertex 4.54452 -6.58387 0
      vertex 2.71017 -6.42548 5
      vertex 2.48223 -6.54511 5
    endloop
  endfacet
  facet normal 0.455825 -0.868504 0.194741
    outer loop
      vertex 2.71017 -6.42548 5
      vertex 4.54452 -6.58387 0
      vertex 3.29595 -6.11804 5
    endloop
  endfacet
  facet normal 0.455822 -0.868506 0.19474
    outer loop
      vertex 3.29595 -6.11804 5
      vertex 4.54452 -6.58387 0
      vertex 3.97645 -5.76089 5
    endloop
  endfacet
  facet normal 0.973703 -0.118231 0.19474
    outer loop
      vertex 8 0 0
      vertex 6.79659 -1.67521 5
      vertex 7.76753 -1.91453 0
    endloop
  endfacet
  facet normal -0.45582 0.868507 0.194739
    outer loop
      vertex -4.54452 6.58387 0
      vertex -2.71017 6.42548 5
      vertex -2.48223 6.54511 5
    endloop
  endfacet
  facet normal -0.455825 0.868504 0.194741
    outer loop
      vertex -2.71017 6.42548 5
      vertex -4.54452 6.58387 0
      vertex -3.29595 6.11804 5
    endloop
  endfacet
  facet normal -0.455822 0.868506 0.19474
    outer loop
      vertex -3.29595 6.11804 5
      vertex -4.54452 6.58387 0
      vertex -3.97645 5.76089 5
    endloop
  endfacet
  facet normal -0.650427 0.734181 0.194741
    outer loop
      vertex -4.54452 6.58387 0
      vertex -5.98809 5.30498 0
      vertex -3.97645 5.76089 5
    endloop
  endfacet
  facet normal -0.234733 0.952353 0.194742
    outer loop
      vertex -0.964293 7.94167 0
      vertex -2.83684 7.48013 0
      vertex -2.48223 6.54511 5
    endloop
  endfacet
  facet normal -0.917116 0.347815 0.194741
    outer loop
      vertex -7.08365 3.71778 0
      vertex -7.76753 1.91453 0
      vertex -6.79659 1.67521 5
    endloop
  endfacet
  facet normal -0.917114 0.34782 0.194741
    outer loop
      vertex -7.08365 3.71778 0
      vertex -6.52499 2.39137 5
      vertex -6.19819 3.25306 5
    endloop
  endfacet
  facet normal -0.917118 0.34781 0.194739
    outer loop
      vertex -7.08365 3.71778 0
      vertex -6.73627 1.83426 5
      vertex -6.52499 2.39137 5
    endloop
  endfacet
  facet normal -0.917114 0.347817 0.194742
    outer loop
      vertex -6.73627 1.83426 5
      vertex -7.08365 3.71778 0
      vertex -6.79659 1.67521 5
    endloop
  endfacet
  facet normal 0.917114 0.34782 0.194741
    outer loop
      vertex 6.52499 2.39137 5
      vertex 7.08365 3.71778 0
      vertex 6.19819 3.25306 5
    endloop
  endfacet
  facet normal 0.917118 0.34781 0.194739
    outer loop
      vertex 6.73627 1.83426 5
      vertex 7.08365 3.71778 0
      vertex 6.52499 2.39137 5
    endloop
  endfacet
  facet normal 0.917114 0.347817 0.194742
    outer loop
      vertex 7.08365 3.71778 0
      vertex 6.73627 1.83426 5
      vertex 6.79659 1.67521 5
    endloop
  endfacet
  facet normal 0.807229 0.557187 0.194741
    outer loop
      vertex 7.08365 3.71778 0
      vertex 5.98809 5.30498 0
      vertex 6.19819 3.25306 5
    endloop
  endfacet
  facet normal -0.234733 -0.952353 0.194742
    outer loop
      vertex -2.48223 -6.54511 5
      vertex -2.83684 -7.48013 0
      vertex -0.964293 -7.94167 0
    endloop
  endfacet
  facet normal 0.234721 -0.952356 0.194741
    outer loop
      vertex 0.964293 -7.94167 0
      vertex 0.925757 -6.92875 5
      vertex 0.843757 -6.94896 5
    endloop
  endfacet
  facet normal 0.234728 -0.952354 0.194741
    outer loop
      vertex 0.925757 -6.92875 5
      vertex 0.964293 -7.94167 0
      vertex 1.36447 -6.82062 5
    endloop
  endfacet
  facet normal 0.23474 -0.952352 0.194739
    outer loop
      vertex 1.36447 -6.82062 5
      vertex 0.964293 -7.94167 0
      vertex 2.48223 -6.54511 5
    endloop
  endfacet
  facet normal 0.234733 -0.952353 0.194742
    outer loop
      vertex 2.48223 -6.54511 5
      vertex 0.964293 -7.94167 0
      vertex 2.83684 -7.48013 0
    endloop
  endfacet
  facet normal 0.917118 -0.34781 0.194739
    outer loop
      vertex 7.08365 -3.71778 0
      vertex 6.73627 -1.83426 5
      vertex 6.52499 -2.39137 5
    endloop
  endfacet
  facet normal 0.917114 -0.34782 0.194741
    outer loop
      vertex 7.08365 -3.71778 0
      vertex 6.52499 -2.39137 5
      vertex 6.19819 -3.25306 5
    endloop
  endfacet
  facet normal 0.917114 -0.347817 0.194742
    outer loop
      vertex 6.73627 -1.83426 5
      vertex 7.08365 -3.71778 0
      vertex 6.79659 -1.67521 5
    endloop
  endfacet
  facet normal 0.970982 0.139587 0.194189
    outer loop
      vertex 6 0 10
      vertex 6.73627 1.83426 5
      vertex 6.71645 1.97213 5
    endloop
  endfacet
  facet normal 0.970978 0.139607 0.194196
    outer loop
      vertex 6.73627 1.83426 5
      vertex 6 0 10
      vertex 7 0 5
    endloop
  endfacet
  facet normal 0.530342 -0.825243 0.194195
    outer loop
      vertex 3.29595 -6.11804 5
      vertex 2.49249 -5.45779 10
      vertex 2.9079 -6.36742 5
    endloop
  endfacet
  facet normal 0.530351 -0.825237 0.194196
    outer loop
      vertex 4.30604 -5.46889 5
      vertex 2.49249 -5.45779 10
      vertex 3.29595 -6.11804 5
    endloop
  endfacet
  facet normal 0.530335 -0.825249 0.19419
    outer loop
      vertex 2.49249 -5.45779 10
      vertex 4.30604 -5.46889 5
      vertex 4.58402 -5.29025 5
    endloop
  endfacet
  facet normal 0.741366 -0.64239 0.194195
    outer loop
      vertex 4.85099 -3.47065 10
      vertex 5.88877 -3.78448 5
      vertex 5.04752 -3.24384 10
    endloop
  endfacet
  facet normal 0.741361 -0.642396 0.194195
    outer loop
      vertex 4.38973 -4.00297 10
      vertex 5.88877 -3.78448 5
      vertex 4.85099 -3.47065 10
    endloop
  endfacet
  facet normal 0.741379 -0.642373 0.194201
    outer loop
      vertex 4.38973 -4.00297 10
      vertex 5.6066 -4.11014 5
      vertex 5.88877 -3.78448 5
    endloop
  endfacet
  facet normal 0.741364 -0.642391 0.194198
    outer loop
      vertex 3.92916 -4.5345 10
      vertex 5.6066 -4.11014 5
      vertex 4.38973 -4.00297 10
    endloop
  endfacet
  facet normal 0.74136 -0.642396 0.194196
    outer loop
      vertex 3.92916 -4.5345 10
      vertex 4.83622 -4.9992 5
      vertex 5.6066 -4.11014 5
    endloop
  endfacet
  facet normal 0.741358 -0.642399 0.194196
    outer loop
      vertex 4.83622 -4.9992 5
      vertex 3.92916 -4.5345 10
      vertex 4.58402 -5.29025 5
    endloop
  endfacet
  facet normal -0.530342 0.825243 0.194195
    outer loop
      vertex -3.29595 6.11804 5
      vertex -2.49249 5.45779 10
      vertex -2.9079 6.36742 5
    endloop
  endfacet
  facet normal -0.530351 0.825237 0.194196
    outer loop
      vertex -4.30604 5.46889 5
      vertex -2.49249 5.45779 10
      vertex -3.29595 6.11804 5
    endloop
  endfacet
  facet normal -0.530335 0.825249 0.19419
    outer loop
      vertex -2.49249 5.45779 10
      vertex -4.30604 5.46889 5
      vertex -4.58402 5.29025 5
    endloop
  endfacet
  facet normal 0.530348 0.825239 0.194196
    outer loop
      vertex 4.58402 5.29025 5
      vertex 3.54219 4.78319 10
      vertex 3.92916 4.5345 10
    endloop
  endfacet
  facet normal 0.530353 0.825235 0.194196
    outer loop
      vertex 3.54219 4.78319 10
      vertex 4.58402 5.29025 5
      vertex 2.92685 5.17865 10
    endloop
  endfacet
  facet normal 0.530341 0.825244 0.194192
    outer loop
      vertex 2.92685 5.17865 10
      vertex 4.58402 5.29025 5
      vertex 2.49249 5.45779 10
    endloop
  endfacet
  facet normal 0.741358 0.642399 0.194196
    outer loop
      vertex 3.92916 4.5345 10
      vertex 4.83622 4.9992 5
      vertex 4.58402 5.29025 5
    endloop
  endfacet
  facet normal 0.74136 0.642396 0.194196
    outer loop
      vertex 3.92916 4.5345 10
      vertex 5.6066 4.11014 5
      vertex 4.83622 4.9992 5
    endloop
  endfacet
  facet normal 0.741364 0.642391 0.194198
    outer loop
      vertex 4.38973 4.00297 10
      vertex 5.6066 4.11014 5
      vertex 3.92916 4.5345 10
    endloop
  endfacet
  facet normal 0.741379 0.642373 0.194201
    outer loop
      vertex 4.38973 4.00297 10
      vertex 5.88877 3.78448 5
      vertex 5.6066 4.11014 5
    endloop
  endfacet
  facet normal 0.741361 0.642396 0.194195
    outer loop
      vertex 4.85099 3.47065 10
      vertex 5.88877 3.78448 5
      vertex 4.38973 4.00297 10
    endloop
  endfacet
  facet normal 0.741366 0.64239 0.194195
    outer loop
      vertex 5.88877 3.78448 5
      vertex 4.85099 3.47065 10
      vertex 5.04752 3.24384 10
    endloop
  endfacet
  facet normal 0.892315 0.407506 0.194197
    outer loop
      vertex 5.44636 2.3705 10
      vertex 6.71645 1.97213 5
      vertex 5.04752 3.24384 10
    endloop
  endfacet
  facet normal 0.892312 0.407514 0.194195
    outer loop
      vertex 5.69545 1.82508 10
      vertex 6.71645 1.97213 5
      vertex 5.44636 2.3705 10
    endloop
  endfacet
  facet normal 0.892317 0.407502 0.194196
    outer loop
      vertex 6.71645 1.97213 5
      vertex 5.69545 1.82508 10
      vertex 5.75696 1.69039 10
    endloop
  endfacet
  facet normal -0.276371 0.941227 0.194195
    outer loop
      vertex -0.996203 6.92875 5
      vertex -2.09631 5.57412 10
      vertex -0.853889 5.93893 10
    endloop
  endfacet
  facet normal -0.276374 0.941226 0.194194
    outer loop
      vertex -2.09631 5.57412 10
      vertex -0.996203 6.92875 5
      vertex -2.44542 5.47161 10
    endloop
  endfacet
  facet normal -0.27635 0.941231 0.194203
    outer loop
      vertex -2.44542 5.47161 10
      vertex -0.996203 6.92875 5
      vertex -2.49249 5.45779 10
    endloop
  endfacet
  facet normal 0 0 -1
    outer loop
      vertex -5.91817 -0.569158 10
      vertex -5.81466 -1.28908 10
      vertex -5.91817 -0.987567 10
    endloop
  endfacet
  facet normal 0 0 1
    outer loop
      vertex 6 0 10
      vertex 5.69545 -1.82508 10
      vertex 5.75696 -1.69039 10
    endloop
  endfacet
  facet normal 0 0 1
    outer loop
      vertex 5.75696 1.69039 10
      vertex 5.69545 1.82508 10
      vertex 6 0 10
    endloop
  endfacet
  facet normal -0 0 -1
    outer loop
      vertex -0.00577253 -5.93893 10
      vertex -0.495476 -5.97951 10
      vertex -0.655714 -5.93893 10
    endloop
  endfacet
  facet normal 0 0 -1
    outer loop
      vertex 3.54219 -4.78319 10
      vertex 3.28169 -5.023 10
      vertex 2.92685 -5.17865 10
    endloop
  endfacet
  facet normal -0 -0 -1
    outer loop
      vertex 4.73484 3.68528 10
      vertex 4.85099 3.47065 10
      vertex 4.38973 4.00297 10
    endloop
  endfacet
  facet normal 0 0 -1
    outer loop
      vertex 4.85099 -3.47065 10
      vertex 4.73484 -3.68528 10
      vertex 4.38973 -4.00297 10
    endloop
  endfacet
  facet normal 0 0 -1
    outer loop
      vertex 5.69545 -1.82508 10
      vertex 5.6749 -1.9482 10
      vertex 5.44636 -2.3705 10
    endloop
  endfacet
  facet normal -0 -0 -1
    outer loop
      vertex 3.28169 5.023 10
      vertex 3.54219 4.78319 10
      vertex 2.92685 5.17865 10
    endloop
  endfacet
  facet normal 0 0 -1
    outer loop
      vertex -3.9936 -4.46013 10
      vertex -4.06369 -4.41434 10
      vertex -4.33214 -4.06944 10
    endloop
  endfacet
  facet normal -0 -0 -1
    outer loop
      vertex 1.47291 5.8164 10
      vertex 1.88139 5.63723 10
      vertex 1.19186 5.83969 10
    endloop
  endfacet
  facet normal 0 -0 -1
    outer loop
      vertex -5.27684 2.85568 10
      vertex -5.15088 3.01752 10
      vertex -5.43445 2.39658 10
    endloop
  endfacet
  facet normal 0 -0 -1
    outer loop
      vertex -0.495476 5.97951 10
      vertex -0.00577253 5.93893 10
      vertex -0.655714 5.93893 10
    endloop
  endfacet
  facet normal 0 0 -1
    outer loop
      vertex -5.91817 0.987567 10
      vertex -5.81466 1.28908 10
      vertex -5.91817 0.569158 10
    endloop
  endfacet
  facet normal 0 0 -1
    outer loop
      vertex -5.15088 -3.01752 10
      vertex -5.27684 -2.85568 10
      vertex -5.43445 -2.39658 10
    endloop
  endfacet
  facet normal 0 0 -1
    outer loop
      vertex -2.09631 -5.57412 10
      vertex -2.41017 -5.49464 10
      vertex -2.44542 -5.47161 10
    endloop
  endfacet
  facet normal 0 0 -1
    outer loop
      vertex 1.88139 -5.63723 10
      vertex 1.47291 -5.8164 10
      vertex 1.19186 -5.83969 10
    endloop
  endfacet
  facet normal -0 -0 -1
    outer loop
      vertex 5.6749 1.9482 10
      vertex 5.69545 1.82508 10
      vertex 5.44636 2.3705 10
    endloop
  endfacet
  facet normal 0 -0 -1
    outer loop
      vertex -4.06369 4.41434 10
      vertex -3.9936 4.46013 10
      vertex -4.33214 4.06944 10
    endloop
  endfacet
  facet normal 0 -0 -1
    outer loop
      vertex -2.41017 5.49464 10
      vertex -2.09631 5.57412 10
      vertex -2.44542 5.47161 10
    endloop
  endfacet
  facet normal 0 0 1
    outer loop
      vertex 0.853889 5.93893 10
      vertex -0.00577253 5.93893 10
      vertex 1.19186 5.83969 10
    endloop
  endfacet
  facet normal 0 0 1
    outer loop
      vertex 2.92685 -5.17865 10
      vertex 1.88139 -5.63723 10
      vertex 2.49249 -5.45779 10
    endloop
  endfacet
  facet normal 0 0 1
    outer loop
      vertex 4.38973 -4.00297 10
      vertex 3.54219 -4.78319 10
      vertex 3.92916 -4.5345 10
    endloop
  endfacet
  facet normal 0 0 1
    outer loop
      vertex 2.49249 5.45779 10
      vertex 1.88139 5.63723 10
      vertex 2.92685 5.17865 10
    endloop
  endfacet
  facet normal 0 0 1
    outer loop
      vertex 3.92916 4.5345 10
      vertex 3.54219 4.78319 10
      vertex 4.38973 4.00297 10
    endloop
  endfacet
  facet normal 0 0 1
    outer loop
      vertex 5.04752 3.24384 10
      vertex 4.85099 3.47065 10
      vertex 5.44636 2.3705 10
    endloop
  endfacet
  facet normal 0 0 1
    outer loop
      vertex -3.92916 4.5345 10
      vertex -2.44542 5.47161 10
      vertex -2.49249 5.45779 10
    endloop
  endfacet
  facet normal 0 0 1
    outer loop
      vertex -2.44542 5.47161 10
      vertex -3.92916 4.5345 10
      vertex -3.9936 4.46013 10
    endloop
  endfacet
  facet normal -0 0 1
    outer loop
      vertex -0.853889 5.93893 10
      vertex -2.09631 5.57412 10
      vertex -0.655714 5.93893 10
    endloop
  endfacet
  facet normal 0 0 1
    outer loop
      vertex -4.33214 -4.06944 10
      vertex -5.15088 -3.01752 10
      vertex -5.04752 -3.24384 10
    endloop
  endfacet
  facet normal 0 0 1
    outer loop
      vertex -2.44542 -5.47161 10
      vertex -3.92916 -4.5345 10
      vertex -2.49249 -5.45779 10
    endloop
  endfacet
  facet normal -0 -0 1
    outer loop
      vertex -3.92916 -4.5345 10
      vertex -2.44542 -5.47161 10
      vertex -3.9936 -4.46013 10
    endloop
  endfacet
  facet normal 0 0 1
    outer loop
      vertex -5.91817 0.569158 10
      vertex -6 0 10
      vertex -5.91817 -0.569158 10
    endloop
  endfacet
  facet normal -0 0 1
    outer loop
      vertex -5.75696 1.69039 10
      vertex -5.81466 1.28908 10
      vertex -5.43445 2.39658 10
    endloop
  endfacet
  facet normal -0 0 1
    outer loop
      vertex -5.04752 3.24384 10
      vertex -5.15088 3.01752 10
      vertex -4.33214 4.06944 10
    endloop
  endfacet
  facet normal 0 0 1
    outer loop
      vertex 1.19186 -5.83969 10
      vertex -0.00577253 -5.93893 10
      vertex 0.853889 -5.93893 10
    endloop
  endfacet
  facet normal 0 0 1
    outer loop
      vertex -0.655714 -5.93893 10
      vertex -2.09631 -5.57412 10
      vertex -0.853889 -5.93893 10
    endloop
  endfacet
  facet normal 0 0 1
    outer loop
      vertex -5.43445 -2.39658 10
      vertex -5.81466 -1.28908 10
      vertex -5.75696 -1.69039 10
    endloop
  endfacet
  facet normal 0 0 1
    outer loop
      vertex 5.44636 -2.3705 10
      vertex 4.85099 -3.47065 10
      vertex 5.04752 -3.24384 10
    endloop
  endfacet
  facet normal 0.970978 -0.139607 0.194196
    outer loop
      vertex 6 0 10
      vertex 6.73627 -1.83426 5
      vertex 7 0 5
    endloop
  endfacet
  facet normal 0.970982 -0.139587 0.194189
    outer loop
      vertex 6.73627 -1.83426 5
      vertex 6 0 10
      vertex 6.71645 -1.97213 5
    endloop
  endfacet
  facet normal -0.276362 0.941228 0.194198
    outer loop
      vertex -1.36447 6.82062 5
      vertex -2.49249 5.45779 10
      vertex -0.996203 6.92875 5
    endloop
  endfacet
  facet normal -0.276374 0.941226 0.194195
    outer loop
      vertex -2.71017 6.42548 5
      vertex -2.49249 5.45779 10
      vertex -1.36447 6.82062 5
    endloop
  endfacet
  facet normal -0.276375 0.941225 0.194195
    outer loop
      vertex -2.49249 5.45779 10
      vertex -2.71017 6.42548 5
      vertex -2.9079 6.36742 5
    endloop
  endfacet
  facet normal 0 0.980963 0.194195
    outer loop
      vertex 0.925757 6.92875 5
      vertex -0.00577253 5.93893 10
      vertex 0.853889 5.93893 10
    endloop
  endfacet
  facet normal -0 0.980963 0.194195
    outer loop
      vertex -0.925757 6.92875 5
      vertex -0.00577253 5.93893 10
      vertex 0.925757 6.92875 5
    endloop
  endfacet
  facet normal -0 0.980963 0.194195
    outer loop
      vertex 0.925757 6.92875 5
      vertex 0.853889 5.93893 10
      vertex 0.996203 6.92875 5
    endloop
  endfacet
  facet normal 0 0.980963 0.194195
    outer loop
      vertex -0.00577253 5.93893 10
      vertex -0.925757 6.92875 5
      vertex -0.655714 5.93893 10
    endloop
  endfacet
  facet normal 0 0.980963 0.194195
    outer loop
      vertex -0.655714 5.93893 10
      vertex -0.925757 6.92875 5
      vertex -0.853889 5.93893 10
    endloop
  endfacet
  facet normal 0 0.980963 0.194195
    outer loop
      vertex -0.853889 5.93893 10
      vertex -0.925757 6.92875 5
      vertex -0.996203 6.92875 5
    endloop
  endfacet
  facet normal 0.892309 0.40752 0.194195
    outer loop
      vertex 5.04752 3.24384 10
      vertex 6.001 3.53874 5
      vertex 5.88877 3.78448 5
    endloop
  endfacet
  facet normal 0.892314 0.407509 0.194196
    outer loop
      vertex 5.04752 3.24384 10
      vertex 6.52499 2.39137 5
      vertex 6.001 3.53874 5
    endloop
  endfacet
  facet normal 0.892315 0.407506 0.194197
    outer loop
      vertex 6.52499 2.39137 5
      vertex 5.04752 3.24384 10
      vertex 6.71645 1.97213 5
    endloop
  endfacet
  facet normal 0.970978 0.139605 0.194195
    outer loop
      vertex 6.71645 1.97213 5
      vertex 5.75696 1.69039 10
      vertex 6 0 10
    endloop
  endfacet
  facet normal -0.970978 -0.139607 0.194196
    outer loop
      vertex -6.73627 -1.83426 5
      vertex -6 0 10
      vertex -7 0 5
    endloop
  endfacet
  facet normal -0.970982 -0.139587 0.194189
    outer loop
      vertex -6 0 10
      vertex -6.73627 -1.83426 5
      vertex -6.71645 -1.97213 5
    endloop
  endfacet
  facet normal -0.530348 -0.825239 0.194196
    outer loop
      vertex -3.92916 -4.5345 10
      vertex -4.58402 -5.29025 5
      vertex -2.49249 -5.45779 10
    endloop
  endfacet
  facet normal -0.27635 -0.941231 0.194203
    outer loop
      vertex -0.996203 -6.92875 5
      vertex -2.44542 -5.47161 10
      vertex -2.49249 -5.45779 10
    endloop
  endfacet
  facet normal -0.276374 -0.941226 0.194194
    outer loop
      vertex -2.44542 -5.47161 10
      vertex -0.996203 -6.92875 5
      vertex -2.09631 -5.57412 10
    endloop
  endfacet
  facet normal -0.276371 -0.941227 0.194195
    outer loop
      vertex -2.09631 -5.57412 10
      vertex -0.996203 -6.92875 5
      vertex -0.853889 -5.93893 10
    endloop
  endfacet
  facet normal 0 -0.980963 0.194195
    outer loop
      vertex -0.925757 -6.92875 5
      vertex -0.655714 -5.93893 10
      vertex -0.853889 -5.93893 10
    endloop
  endfacet
  facet normal 0 -0.980963 0.194195
    outer loop
      vertex -0.655714 -5.93893 10
      vertex -0.925757 -6.92875 5
      vertex -0.00577253 -5.93893 10
    endloop
  endfacet
  facet normal 0 -0.980963 0.194195
    outer loop
      vertex -0.925757 -6.92875 5
      vertex -0.853889 -5.93893 10
      vertex -0.996203 -6.92875 5
    endloop
  endfacet
  facet normal 0 -0.980963 0.194195
    outer loop
      vertex 0.925757 -6.92875 5
      vertex -0.00577253 -5.93893 10
      vertex -0.925757 -6.92875 5
    endloop
  endfacet
  facet normal 0 -0.980963 0.194195
    outer loop
      vertex -0.00577253 -5.93893 10
      vertex 0.925757 -6.92875 5
      vertex 0.853889 -5.93893 10
    endloop
  endfacet
  facet normal 0 -0.980963 0.194195
    outer loop
      vertex 0.853889 -5.93893 10
      vertex 0.925757 -6.92875 5
      vertex 0.996203 -6.92875 5
    endloop
  endfacet
  facet normal -0.892313 -0.407511 0.194196
    outer loop
      vertex -6.71645 -1.97213 5
      vertex -5.43445 -2.39658 10
      vertex -5.75696 -1.69039 10
    endloop
  endfacet
  facet normal -0.892317 -0.407502 0.194197
    outer loop
      vertex -6.71645 -1.97213 5
      vertex -5.15088 -3.01752 10
      vertex -5.43445 -2.39658 10
    endloop
  endfacet
  facet normal -0.892311 -0.407517 0.194192
    outer loop
      vertex -5.15088 -3.01752 10
      vertex -6.71645 -1.97213 5
      vertex -5.04752 -3.24384 10
    endloop
  endfacet
  facet normal -0.970979 -0.139601 0.194194
    outer loop
      vertex -6.71645 -1.97213 5
      vertex -5.91817 -0.569158 10
      vertex -6 0 10
    endloop
  endfacet
  facet normal -0.970978 -0.139607 0.194195
    outer loop
      vertex -5.91817 -0.569158 10
      vertex -6.71645 -1.97213 5
      vertex -5.81466 -1.28908 10
    endloop
  endfacet
  facet normal -0.970978 -0.139606 0.194195
    outer loop
      vertex -5.81466 -1.28908 10
      vertex -6.71645 -1.97213 5
      vertex -5.75696 -1.69039 10
    endloop
  endfacet
  facet normal -0.970978 0.139606 0.194195
    outer loop
      vertex -6.71645 1.97213 5
      vertex -5.81466 1.28908 10
      vertex -5.75696 1.69039 10
    endloop
  endfacet
  facet normal -0.970978 0.139607 0.194195
    outer loop
      vertex -6.71645 1.97213 5
      vertex -5.91817 0.569158 10
      vertex -5.81466 1.28908 10
    endloop
  endfacet
  facet normal -0.970979 0.139601 0.194194
    outer loop
      vertex -5.91817 0.569158 10
      vertex -6.71645 1.97213 5
      vertex -6 0 10
    endloop
  endfacet
  facet normal -0.970978 0.139607 0.194196
    outer loop
      vertex -6 0 10
      vertex -6.73627 1.83426 5
      vertex -7 0 5
    endloop
  endfacet
  facet normal -0.970982 0.139587 0.194189
    outer loop
      vertex -6.73627 1.83426 5
      vertex -6 0 10
      vertex -6.71645 1.97213 5
    endloop
  endfacet
  facet normal -0.530348 0.825239 0.194196
    outer loop
      vertex -2.49249 5.45779 10
      vertex -4.58402 5.29025 5
      vertex -3.92916 4.5345 10
    endloop
  endfacet
  facet normal -0.741358 0.642399 0.194196
    outer loop
      vertex -4.83622 4.9992 5
      vertex -3.92916 4.5345 10
      vertex -4.58402 5.29025 5
    endloop
  endfacet
  facet normal -0.74136 0.642396 0.194196
    outer loop
      vertex -5.6066 4.11014 5
      vertex -3.92916 4.5345 10
      vertex -4.83622 4.9992 5
    endloop
  endfacet
  facet normal -0.741371 0.642382 0.194201
    outer loop
      vertex -3.92916 4.5345 10
      vertex -5.6066 4.11014 5
      vertex -3.9936 4.46013 10
    endloop
  endfacet
  facet normal -0.741357 0.6424 0.194195
    outer loop
      vertex -5.6066 4.11014 5
      vertex -4.33214 4.06944 10
      vertex -3.9936 4.46013 10
    endloop
  endfacet
  facet normal -0.74138 0.642373 0.194201
    outer loop
      vertex -5.88877 3.78448 5
      vertex -4.33214 4.06944 10
      vertex -5.6066 4.11014 5
    endloop
  endfacet
  facet normal -0.741365 0.642391 0.194195
    outer loop
      vertex -4.33214 4.06944 10
      vertex -5.88877 3.78448 5
      vertex -5.04752 3.24384 10
    endloop
  endfacet
  facet normal -0.530335 -0.825249 0.19419
    outer loop
      vertex -4.30604 -5.46889 5
      vertex -2.49249 -5.45779 10
      vertex -4.58402 -5.29025 5
    endloop
  endfacet
  facet normal -0.530351 -0.825237 0.194196
    outer loop
      vertex -3.29595 -6.11804 5
      vertex -2.49249 -5.45779 10
      vertex -4.30604 -5.46889 5
    endloop
  endfacet
  facet normal -0.530342 -0.825243 0.194195
    outer loop
      vertex -2.49249 -5.45779 10
      vertex -3.29595 -6.11804 5
      vertex -2.9079 -6.36742 5
    endloop
  endfacet
  facet normal -0.276375 -0.941225 0.194195
    outer loop
      vertex -2.71017 -6.42548 5
      vertex -2.49249 -5.45779 10
      vertex -2.9079 -6.36742 5
    endloop
  endfacet
  facet normal -0.276374 -0.941226 0.194195
    outer loop
      vertex -1.36447 -6.82062 5
      vertex -2.49249 -5.45779 10
      vertex -2.71017 -6.42548 5
    endloop
  endfacet
  facet normal -0.276362 -0.941228 0.194198
    outer loop
      vertex -2.49249 -5.45779 10
      vertex -1.36447 -6.82062 5
      vertex -0.996203 -6.92875 5
    endloop
  endfacet
  facet normal 0.276362 -0.941228 0.194198
    outer loop
      vertex 1.36447 -6.82062 5
      vertex 2.49249 -5.45779 10
      vertex 0.996203 -6.92875 5
    endloop
  endfacet
  facet normal 0.276374 -0.941226 0.194195
    outer loop
      vertex 2.71017 -6.42548 5
      vertex 2.49249 -5.45779 10
      vertex 1.36447 -6.82062 5
    endloop
  endfacet
  facet normal 0.276375 -0.941225 0.194195
    outer loop
      vertex 2.49249 -5.45779 10
      vertex 2.71017 -6.42548 5
      vertex 2.9079 -6.36742 5
    endloop
  endfacet
  facet normal 0.276376 -0.941225 0.194195
    outer loop
      vertex 0.996203 -6.92875 5
      vertex 1.19186 -5.83969 10
      vertex 0.853889 -5.93893 10
    endloop
  endfacet
  facet normal 0.276364 -0.941228 0.194196
    outer loop
      vertex 1.19186 -5.83969 10
      vertex 0.996203 -6.92875 5
      vertex 1.88139 -5.63723 10
    endloop
  endfacet
  facet normal 0.276376 -0.941225 0.194193
    outer loop
      vertex 1.88139 -5.63723 10
      vertex 0.996203 -6.92875 5
      vertex 2.49249 -5.45779 10
    endloop
  endfacet
  facet normal 0.530341 -0.825244 0.194192
    outer loop
      vertex 4.58402 -5.29025 5
      vertex 2.92685 -5.17865 10
      vertex 2.49249 -5.45779 10
    endloop
  endfacet
  facet normal 0.530353 -0.825235 0.194196
    outer loop
      vertex 2.92685 -5.17865 10
      vertex 4.58402 -5.29025 5
      vertex 3.54219 -4.78319 10
    endloop
  endfacet
  facet normal 0.530348 -0.825239 0.194196
    outer loop
      vertex 3.54219 -4.78319 10
      vertex 4.58402 -5.29025 5
      vertex 3.92916 -4.5345 10
    endloop
  endfacet
  facet normal 0.892315 -0.407506 0.194197
    outer loop
      vertex 5.04752 -3.24384 10
      vertex 6.52499 -2.39137 5
      vertex 6.71645 -1.97213 5
    endloop
  endfacet
  facet normal 0.892314 -0.407509 0.194196
    outer loop
      vertex 5.04752 -3.24384 10
      vertex 6.001 -3.53874 5
      vertex 6.52499 -2.39137 5
    endloop
  endfacet
  facet normal 0.892309 -0.40752 0.194195
    outer loop
      vertex 6.001 -3.53874 5
      vertex 5.04752 -3.24384 10
      vertex 5.88877 -3.78448 5
    endloop
  endfacet
  facet normal 0.892317 -0.407502 0.194196
    outer loop
      vertex 5.69545 -1.82508 10
      vertex 6.71645 -1.97213 5
      vertex 5.75696 -1.69039 10
    endloop
  endfacet
  facet normal 0.892312 -0.407514 0.194195
    outer loop
      vertex 5.44636 -2.3705 10
      vertex 6.71645 -1.97213 5
      vertex 5.69545 -1.82508 10
    endloop
  endfacet
  facet normal 0.892315 -0.407506 0.194197
    outer loop
      vertex 6.71645 -1.97213 5
      vertex 5.44636 -2.3705 10
      vertex 5.04752 -3.24384 10
    endloop
  endfacet
  facet normal 0.970978 -0.139605 0.194195
    outer loop
      vertex 6 0 10
      vertex 5.75696 -1.69039 10
      vertex 6.71645 -1.97213 5
    endloop
  endfacet
  facet normal 0.276375 0.941225 0.194195
    outer loop
      vertex 2.71017 6.42548 5
      vertex 2.49249 5.45779 10
      vertex 2.9079 6.36742 5
    endloop
  endfacet
  facet normal 0.276374 0.941226 0.194195
    outer loop
      vertex 1.36447 6.82062 5
      vertex 2.49249 5.45779 10
      vertex 2.71017 6.42548 5
    endloop
  endfacet
  facet normal 0.276362 0.941228 0.194198
    outer loop
      vertex 2.49249 5.45779 10
      vertex 1.36447 6.82062 5
      vertex 0.996203 6.92875 5
    endloop
  endfacet
  facet normal 0.530335 0.825249 0.19419
    outer loop
      vertex 4.30604 5.46889 5
      vertex 2.49249 5.45779 10
      vertex 4.58402 5.29025 5
    endloop
  endfacet
  facet normal 0.530351 0.825237 0.194196
    outer loop
      vertex 3.29595 6.11804 5
      vertex 2.49249 5.45779 10
      vertex 4.30604 5.46889 5
    endloop
  endfacet
  facet normal 0.530342 0.825243 0.194195
    outer loop
      vertex 2.49249 5.45779 10
      vertex 3.29595 6.11804 5
      vertex 2.9079 6.36742 5
    endloop
  endfacet
  facet normal -0.892309 0.40752 0.194195
    outer loop
      vertex -6.001 3.53874 5
      vertex -5.04752 3.24384 10
      vertex -5.88877 3.78448 5
    endloop
  endfacet
  facet normal -0.892314 0.407509 0.194196
    outer loop
      vertex -6.52499 2.39137 5
      vertex -5.04752 3.24384 10
      vertex -6.001 3.53874 5
    endloop
  endfacet
  facet normal -0.892315 0.407506 0.194197
    outer loop
      vertex -5.04752 3.24384 10
      vertex -6.52499 2.39137 5
      vertex -6.71645 1.97213 5
    endloop
  endfacet
  facet normal -0.892311 0.407517 0.194192
    outer loop
      vertex -6.71645 1.97213 5
      vertex -5.15088 3.01752 10
      vertex -5.04752 3.24384 10
    endloop
  endfacet
  facet normal -0.892317 0.407502 0.194197
    outer loop
      vertex -5.15088 3.01752 10
      vertex -6.71645 1.97213 5
      vertex -5.43445 2.39658 10
    endloop
  endfacet
  facet normal -0.892313 0.407511 0.194196
    outer loop
      vertex -5.43445 2.39658 10
      vertex -6.71645 1.97213 5
      vertex -5.75696 1.69039 10
    endloop
  endfacet
  facet normal 0.276376 0.941225 0.194193
    outer loop
      vertex 0.996203 6.92875 5
      vertex 1.88139 5.63723 10
      vertex 2.49249 5.45779 10
    endloop
  endfacet
  facet normal 0.276364 0.941228 0.194196
    outer loop
      vertex 1.88139 5.63723 10
      vertex 0.996203 6.92875 5
      vertex 1.19186 5.83969 10
    endloop
  endfacet
  facet normal 0.276376 0.941225 0.194195
    outer loop
      vertex 1.19186 5.83969 10
      vertex 0.996203 6.92875 5
      vertex 0.853889 5.93893 10
    endloop
  endfacet
  facet normal -0.892315 -0.407506 0.194197
    outer loop
      vertex -6.52499 -2.39137 5
      vertex -5.04752 -3.24384 10
      vertex -6.71645 -1.97213 5
    endloop
  endfacet
  facet normal -0.892314 -0.407509 0.194196
    outer loop
      vertex -6.001 -3.53874 5
      vertex -5.04752 -3.24384 10
      vertex -6.52499 -2.39137 5
    endloop
  endfacet
  facet normal -0.892309 -0.40752 0.194195
    outer loop
      vertex -5.04752 -3.24384 10
      vertex -6.001 -3.53874 5
      vertex -5.88877 -3.78448 5
    endloop
  endfacet
  facet normal -0.741365 -0.642391 0.194195
    outer loop
      vertex -5.88877 -3.78448 5
      vertex -4.33214 -4.06944 10
      vertex -5.04752 -3.24384 10
    endloop
  endfacet
  facet normal -0.74138 -0.642373 0.194201
    outer loop
      vertex -5.6066 -4.11014 5
      vertex -4.33214 -4.06944 10
      vertex -5.88877 -3.78448 5
    endloop
  endfacet
  facet normal -0.741357 -0.6424 0.194195
    outer loop
      vertex -5.6066 -4.11014 5
      vertex -3.9936 -4.46013 10
      vertex -4.33214 -4.06944 10
    endloop
  endfacet
  facet normal -0.741371 -0.642382 0.194201
    outer loop
      vertex -5.6066 -4.11014 5
      vertex -3.92916 -4.5345 10
      vertex -3.9936 -4.46013 10
    endloop
  endfacet
  facet normal -0.74136 -0.642396 0.194196
    outer loop
      vertex -4.83622 -4.9992 5
      vertex -3.92916 -4.5345 10
      vertex -5.6066 -4.11014 5
    endloop
  endfacet
  facet normal -0.741358 -0.642399 0.194196
    outer loop
      vertex -3.92916 -4.5345 10
      vertex -4.83622 -4.9992 5
      vertex -4.58402 -5.29025 5
    endloop
  endfacet
  facet normal 0.981088 0.163709 0.103273
    outer loop
      vertex 6 0 10
      vertex 4.57975 1.57223 21
      vertex 4.8421 0 21
    endloop
  endfacet
  facet normal 0.981081 0.163753 0.103272
    outer loop
      vertex 4.57975 1.57223 21
      vertex 5.69545 1.82508 10
      vertex 5.6749 1.9482 10
    endloop
  endfacet
  facet normal 0.981088 0.163713 0.103272
    outer loop
      vertex 5.69545 1.82508 10
      vertex 4.57975 1.57223 21
      vertex 6 0 10
    endloop
  endfacet
  facet normal 0.673665 -0.731786 0.103272
    outer loop
      vertex 3.54219 -4.78319 10
      vertex 3.8211 -2.97408 21
      vertex 3.28169 -5.023 10
    endloop
  endfacet
  facet normal 0.673662 -0.731788 0.103272
    outer loop
      vertex 4.38973 -4.00297 10
      vertex 3.8211 -2.97408 21
      vertex 3.54219 -4.78319 10
    endloop
  endfacet
  facet normal 0.673653 -0.731797 0.103273
    outer loop
      vertex 3.8211 -2.97408 21
      vertex 4.38973 -4.00297 10
      vertex 4.73484 -3.68528 10
    endloop
  endfacet
  facet normal 0.673653 0.731797 0.103273
    outer loop
      vertex 4.38973 4.00297 10
      vertex 3.8211 2.97408 21
      vertex 4.73484 3.68528 10
    endloop
  endfacet
  facet normal 0.673662 0.731788 0.103272
    outer loop
      vertex 3.54219 4.78319 10
      vertex 3.8211 2.97408 21
      vertex 4.38973 4.00297 10
    endloop
  endfacet
  facet normal 0.673665 0.731786 0.103272
    outer loop
      vertex 3.8211 2.97408 21
      vertex 3.54219 4.78319 10
      vertex 3.28169 5.023 10
    endloop
  endfacet
  facet normal 0.399546 0.910877 0.103272
    outer loop
      vertex 1.47291 5.8164 10
      vertex 2.16224 4.26689 21
      vertex 2.64838 4.05365 21
    endloop
  endfacet
  facet normal 0.399546 0.910877 0.103272
    outer loop
      vertex 2.16224 4.26689 21
      vertex 1.47291 5.8164 10
      vertex 1.55689 4.53242 21
    endloop
  endfacet
  facet normal 0.399555 0.910873 0.103272
    outer loop
      vertex 1.55689 4.53242 21
      vertex 1.47291 5.8164 10
      vertex 1.18867 4.69394 21
    endloop
  endfacet
  facet normal 0.0821552 -0.991254 0.103275
    outer loop
      vertex 1.47291 -5.8164 10
      vertex -0.176282 -4.80704 21
      vertex -0.399858 -4.82557 21
    endloop
  endfacet
  facet normal 0.0821315 -0.991256 0.103271
    outer loop
      vertex -0.176282 -4.80704 21
      vertex 1.47291 -5.8164 10
      vertex 0.42802 -4.75697 21
    endloop
  endfacet
  facet normal 0.0821388 -0.991256 0.103272
    outer loop
      vertex 0.42802 -4.75697 21
      vertex 1.47291 -5.8164 10
      vertex 1.18867 -4.69394 21
    endloop
  endfacet
  facet normal 0.874769 -0.473407 0.103272
    outer loop
      vertex 3.8211 -2.97408 21
      vertex 5.44636 -2.3705 10
      vertex 5.6749 -1.9482 10
    endloop
  endfacet
  facet normal 0.874772 -0.473402 0.103272
    outer loop
      vertex 3.8211 -2.97408 21
      vertex 4.85099 -3.47065 10
      vertex 5.44636 -2.3705 10
    endloop
  endfacet
  facet normal 0.874775 -0.473396 0.103272
    outer loop
      vertex 4.85099 -3.47065 10
      vertex 3.8211 -2.97408 21
      vertex 4.73484 -3.68528 10
    endloop
  endfacet
  facet normal 0.981088 -0.163713 0.103272
    outer loop
      vertex 4.57975 -1.57223 21
      vertex 5.69545 -1.82508 10
      vertex 6 0 10
    endloop
  endfacet
  facet normal 0.981081 -0.163753 0.103272
    outer loop
      vertex 5.69545 -1.82508 10
      vertex 4.57975 -1.57223 21
      vertex 5.6749 -1.9482 10
    endloop
  endfacet
  facet normal 0.399554 0.910874 0.103272
    outer loop
      vertex 2.92685 5.17865 10
      vertex 2.64838 4.05365 21
      vertex 3.28169 5.023 10
    endloop
  endfacet
  facet normal 0.399547 0.910877 0.103273
    outer loop
      vertex 1.88139 5.63723 10
      vertex 2.64838 4.05365 21
      vertex 2.92685 5.17865 10
    endloop
  endfacet
  facet normal 0.399536 0.910882 0.103274
    outer loop
      vertex 2.64838 4.05365 21
      vertex 1.88139 5.63723 10
      vertex 1.47291 5.8164 10
    endloop
  endfacet
  facet normal -0.784917 0.610934 0.103272
    outer loop
      vertex -4.33214 4.06944 10
      vertex -3.27947 3.56245 21
      vertex -4.06369 4.41434 10
    endloop
  endfacet
  facet normal -0.784922 0.610928 0.103273
    outer loop
      vertex -5.15088 3.01752 10
      vertex -3.27947 3.56245 21
      vertex -4.33214 4.06944 10
    endloop
  endfacet
  facet normal -0.784933 0.610913 0.103275
    outer loop
      vertex -3.27947 3.56245 21
      vertex -5.15088 3.01752 10
      vertex -5.27684 2.85568 10
    endloop
  endfacet
  facet normal 0.0821388 0.991256 0.103272
    outer loop
      vertex 1.47291 5.8164 10
      vertex 0.42802 4.75697 21
      vertex 1.18867 4.69394 21
    endloop
  endfacet
  facet normal 0.0821315 0.991256 0.103271
    outer loop
      vertex 0.42802 4.75697 21
      vertex 1.47291 5.8164 10
      vertex -0.176282 4.80704 21
    endloop
  endfacet
  facet normal 0.0821552 0.991254 0.103275
    outer loop
      vertex -0.176282 4.80704 21
      vertex 1.47291 5.8164 10
      vertex -0.399858 4.82557 21
    endloop
  endfacet
  facet normal -0.940759 0.322967 0.103273
    outer loop
      vertex -4.77606 0.796984 21
      vertex -5.43445 2.39658 10
      vertex -5.81466 1.28908 10
    endloop
  endfacet
  facet normal -0.94076 0.322965 0.103273
    outer loop
      vertex -4.77606 0.796984 21
      vertex -5.81466 1.28908 10
      vertex -5.91817 0.987567 10
    endloop
  endfacet
  facet normal -0.94076 0.322965 0.103273
    outer loop
      vertex -5.43445 2.39658 10
      vertex -4.77606 0.796984 21
      vertex -5.27684 2.85568 10
    endloop
  endfacet
  facet normal -0.544006 -0.832702 0.103272
    outer loop
      vertex -3.9936 -4.46013 10
      vertex -3.27947 -3.56245 21
      vertex -4.06369 -4.41434 10
    endloop
  endfacet
  facet normal -0.544025 -0.832689 0.103272
    outer loop
      vertex -2.44542 -5.47161 10
      vertex -3.27947 -3.56245 21
      vertex -3.9936 -4.46013 10
    endloop
  endfacet
  facet normal -0.544024 -0.83269 0.103272
    outer loop
      vertex -3.27947 -3.56245 21
      vertex -2.44542 -5.47161 10
      vertex -2.41017 -5.49464 10
    endloop
  endfacet
  facet normal -0.784933 -0.610913 0.103275
    outer loop
      vertex -5.15088 -3.01752 10
      vertex -3.27947 -3.56245 21
      vertex -5.27684 -2.85568 10
    endloop
  endfacet
  facet normal -0.784922 -0.610928 0.103273
    outer loop
      vertex -4.33214 -4.06944 10
      vertex -3.27947 -3.56245 21
      vertex -5.15088 -3.01752 10
    endloop
  endfacet
  facet normal -0.784917 -0.610934 0.103272
    outer loop
      vertex -3.27947 -3.56245 21
      vertex -4.33214 -4.06944 10
      vertex -4.06369 -4.41434 10
    endloop
  endfacet
  facet normal -0.94076 -0.322965 0.103273
    outer loop
      vertex -5.81466 -1.28908 10
      vertex -4.77606 -0.796984 21
      vertex -5.91817 -0.987567 10
    endloop
  endfacet
  facet normal -0.940759 -0.322967 0.103273
    outer loop
      vertex -5.43445 -2.39658 10
      vertex -4.77606 -0.796984 21
      vertex -5.81466 -1.28908 10
    endloop
  endfacet
  facet normal -0.94076 -0.322965 0.103273
    outer loop
      vertex -4.77606 -0.796984 21
      vertex -5.43445 -2.39658 10
      vertex -5.27684 -2.85568 10
    endloop
  endfacet
  facet normal -0.244114 -0.964232 0.103271
    outer loop
      vertex -2.41017 -5.49464 10
      vertex -1.89141 -4.44785 21
      vertex -1.94505 -4.43427 21
    endloop
  endfacet
  facet normal -0.244198 -0.964211 0.103273
    outer loop
      vertex -1.89141 -4.44785 21
      vertex -2.41017 -5.49464 10
      vertex -1.55958 -4.53189 21
    endloop
  endfacet
  facet normal -0.244172 -0.964217 0.103272
    outer loop
      vertex -1.55958 -4.53189 21
      vertex -2.41017 -5.49464 10
      vertex -0.399858 -4.82557 21
    endloop
  endfacet
  facet normal 0.87476 -0.473424 0.103271
    outer loop
      vertex 4.50009 -1.71942 21
      vertex 5.6749 -1.9482 10
      vertex 4.57975 -1.57223 21
    endloop
  endfacet
  facet normal 0.874772 -0.473402 0.103272
    outer loop
      vertex 4.233 -2.21296 21
      vertex 5.6749 -1.9482 10
      vertex 4.50009 -1.71942 21
    endloop
  endfacet
  facet normal 0.87477 -0.473405 0.103272
    outer loop
      vertex 5.6749 -1.9482 10
      vertex 4.233 -2.21296 21
      vertex 3.8211 -2.97408 21
    endloop
  endfacet
  facet normal 0.399536 -0.910882 0.103274
    outer loop
      vertex 1.88139 -5.63723 10
      vertex 2.64838 -4.05365 21
      vertex 1.47291 -5.8164 10
    endloop
  endfacet
  facet normal 0.399547 -0.910877 0.103273
    outer loop
      vertex 2.92685 -5.17865 10
      vertex 2.64838 -4.05365 21
      vertex 1.88139 -5.63723 10
    endloop
  endfacet
  facet normal 0.399554 -0.910874 0.103272
    outer loop
      vertex 2.64838 -4.05365 21
      vertex 2.92685 -5.17865 10
      vertex 3.28169 -5.023 10
    endloop
  endfacet
  facet normal 0.673661 -0.73179 0.103272
    outer loop
      vertex 3.28169 -5.023 10
      vertex 3.09051 -3.64664 21
      vertex 2.64838 -4.05365 21
    endloop
  endfacet
  facet normal 0.673664 -0.731787 0.103272
    outer loop
      vertex 3.09051 -3.64664 21
      vertex 3.28169 -5.023 10
      vertex 3.56995 -3.20528 21
    endloop
  endfacet
  facet normal 0.67366 -0.73179 0.103273
    outer loop
      vertex 3.56995 -3.20528 21
      vertex 3.28169 -5.023 10
      vertex 3.8211 -2.97408 21
    endloop
  endfacet
  facet normal 0.67366 0.73179 0.103273
    outer loop
      vertex 3.28169 5.023 10
      vertex 3.56995 3.20528 21
      vertex 3.8211 2.97408 21
    endloop
  endfacet
  facet normal 0.673664 0.731787 0.103272
    outer loop
      vertex 3.56995 3.20528 21
      vertex 3.28169 5.023 10
      vertex 3.09051 3.64664 21
    endloop
  endfacet
  facet normal 0.673661 0.73179 0.103272
    outer loop
      vertex 3.09051 3.64664 21
      vertex 3.28169 5.023 10
      vertex 2.64838 4.05365 21
    endloop
  endfacet
  facet normal 0.0821432 0.991255 0.103273
    outer loop
      vertex 1.19186 5.83969 10
      vertex -0.399858 4.82557 21
      vertex 1.47291 5.8164 10
    endloop
  endfacet
  facet normal 0.0821389 0.991256 0.103272
    outer loop
      vertex -0.00577253 5.93893 10
      vertex -0.399858 4.82557 21
      vertex 1.19186 5.83969 10
    endloop
  endfacet
  facet normal 0.0821419 0.991256 0.103272
    outer loop
      vertex -0.399858 4.82557 21
      vertex -0.00577253 5.93893 10
      vertex -0.495476 5.97951 10
    endloop
  endfacet
  facet normal -0.244172 0.964217 0.103272
    outer loop
      vertex -2.41017 5.49464 10
      vertex -1.55958 4.53189 21
      vertex -0.399858 4.82557 21
    endloop
  endfacet
  facet normal -0.244198 0.964211 0.103273
    outer loop
      vertex -1.55958 4.53189 21
      vertex -2.41017 5.49464 10
      vertex -1.89141 4.44785 21
    endloop
  endfacet
  facet normal -0.244114 0.964232 0.103271
    outer loop
      vertex -1.89141 4.44785 21
      vertex -2.41017 5.49464 10
      vertex -1.94505 4.43427 21
    endloop
  endfacet
  facet normal -0.784915 0.610937 0.10327
    outer loop
      vertex -5.27684 2.85568 10
      vertex -3.3477 3.47479 21
      vertex -3.27947 3.56245 21
    endloop
  endfacet
  facet normal -0.784923 0.610926 0.103272
    outer loop
      vertex -3.3477 3.47479 21
      vertex -5.27684 2.85568 10
      vertex -3.64569 3.09193 21
    endloop
  endfacet
  facet normal -0.784922 0.610928 0.103272
    outer loop
      vertex -3.64569 3.09193 21
      vertex -5.27684 2.85568 10
      vertex -4.2585 2.30459 21
    endloop
  endfacet
  facet normal -0.940757 0.322971 0.103272
    outer loop
      vertex -5.27684 2.85568 10
      vertex -4.35015 2.03763 21
      vertex -4.2585 2.30459 21
    endloop
  endfacet
  facet normal -0.940759 0.322967 0.103272
    outer loop
      vertex -5.27684 2.85568 10
      vertex -4.55616 1.43755 21
      vertex -4.35015 2.03763 21
    endloop
  endfacet
  facet normal -0.940763 0.322955 0.103271
    outer loop
      vertex -4.55616 1.43755 21
      vertex -5.27684 2.85568 10
      vertex -4.77606 0.796984 21
    endloop
  endfacet
  facet normal -0.244186 0.964214 0.103272
    outer loop
      vertex -0.655714 5.93893 10
      vertex -0.399858 4.82557 21
      vertex -0.495476 5.97951 10
    endloop
  endfacet
  facet normal -0.244174 0.964217 0.103272
    outer loop
      vertex -2.09631 5.57412 10
      vertex -0.399858 4.82557 21
      vertex -0.655714 5.93893 10
    endloop
  endfacet
  facet normal -0.244172 0.964217 0.103272
    outer loop
      vertex -0.399858 4.82557 21
      vertex -2.09631 5.57412 10
      vertex -2.41017 5.49464 10
    endloop
  endfacet
  facet normal -0.994653 0 0.103273
    outer loop
      vertex -5.91817 0.569158 10
      vertex -4.77606 0.796984 21
      vertex -5.91817 0.987567 10
    endloop
  endfacet
  facet normal -0.994653 0 0.103273
    outer loop
      vertex -5.91817 0.569158 10
      vertex -4.77606 0.332005 21
      vertex -4.77606 0.796984 21
    endloop
  endfacet
  facet normal -0.994653 0 0.103273
    outer loop
      vertex -5.91817 0.569158 10
      vertex -4.77606 -0.332005 21
      vertex -4.77606 0.332005 21
    endloop
  endfacet
  facet normal -0.994653 0 0.103273
    outer loop
      vertex -5.91817 -0.569158 10
      vertex -4.77606 -0.332005 21
      vertex -5.91817 0.569158 10
    endloop
  endfacet
  facet normal -0.994653 0 0.103273
    outer loop
      vertex -5.91817 -0.569158 10
      vertex -4.77606 -0.796984 21
      vertex -4.77606 -0.332005 21
    endloop
  endfacet
  facet normal -0.994653 0 0.103273
    outer loop
      vertex -4.77606 -0.796984 21
      vertex -5.91817 -0.569158 10
      vertex -5.91817 -0.987567 10
    endloop
  endfacet
  facet normal -0.784922 -0.610928 0.103272
    outer loop
      vertex -5.27684 -2.85568 10
      vertex -3.64569 -3.09193 21
      vertex -4.2585 -2.30459 21
    endloop
  endfacet
  facet normal -0.784923 -0.610926 0.103272
    outer loop
      vertex -5.27684 -2.85568 10
      vertex -3.3477 -3.47479 21
      vertex -3.64569 -3.09193 21
    endloop
  endfacet
  facet normal -0.784915 -0.610937 0.10327
    outer loop
      vertex -3.3477 -3.47479 21
      vertex -5.27684 -2.85568 10
      vertex -3.27947 -3.56245 21
    endloop
  endfacet
  facet normal 0 0 1
    outer loop
      vertex 4.8421 0 21
      vertex 4.50009 -1.71942 21
      vertex 4.57975 -1.57223 21
    endloop
  endfacet
  facet normal 0 0 1
    outer loop
      vertex 4.57975 1.57223 21
      vertex 4.50009 1.71942 21
      vertex 4.8421 0 21
    endloop
  endfacet
  facet normal -0 -0 -1
    outer loop
      vertex 4.47352 1.85299 21
      vertex 4.50009 1.71942 21
      vertex 4.233 2.21296 21
    endloop
  endfacet
  facet normal 0 -0 -1
    outer loop
      vertex -4.47352 1.85299 21
      vertex -4.35015 2.03763 21
      vertex -4.55616 1.43755 21
    endloop
  endfacet
  facet normal -0 -0 -1
    outer loop
      vertex 1.85299 4.47352 21
      vertex 2.16224 4.26689 21
      vertex 1.55689 4.53242 21
    endloop
  endfacet
  facet normal 0 0 -1
    outer loop
      vertex 0.42802 -4.75697 21
      vertex 0 -4.8421 21
      vertex -0.176282 -4.80704 21
    endloop
  endfacet
  facet normal 0 0 -1
    outer loop
      vertex 2.16224 -4.26689 21
      vertex 1.85299 -4.47352 21
      vertex 1.55689 -4.53242 21
    endloop
  endfacet
  facet normal 0 -0 -1
    outer loop
      vertex 0 4.8421 21
      vertex 0.42802 4.75697 21
      vertex -0.176282 4.80704 21
    endloop
  endfacet
  facet normal 0 0 -1
    outer loop
      vertex 4.50009 -1.71942 21
      vertex 4.47352 -1.85299 21
      vertex 4.233 -2.21296 21
    endloop
  endfacet
  facet normal 0 -0 -1
    outer loop
      vertex -1.85299 4.47352 21
      vertex -1.55958 4.53189 21
      vertex -1.89141 4.44785 21
    endloop
  endfacet
  facet normal 0 0 -1
    outer loop
      vertex -3.3477 -3.47479 21
      vertex -3.42389 -3.42389 21
      vertex -3.64569 -3.09193 21
    endloop
  endfacet
  facet normal 0 0 -1
    outer loop
      vertex -4.35015 -2.03763 21
      vertex -4.47352 -1.85299 21
      vertex -4.55616 -1.43755 21
    endloop
  endfacet
  facet normal 0 -0 -1
    outer loop
      vertex -3.42389 3.42389 21
      vertex -3.3477 3.47479 21
      vertex -3.64569 3.09193 21
    endloop
  endfacet
  facet normal 0 -0 -1
    outer loop
      vertex -4.77606 0.332005 21
      vertex -4.77606 -0.332005 21
      vertex -4.8421 0 21
    endloop
  endfacet
  facet normal 0 0 -1
    outer loop
      vertex -1.55958 -4.53189 21
      vertex -1.85299 -4.47352 21
      vertex -1.89141 -4.44785 21
    endloop
  endfacet
  facet normal 0 0 -1
    outer loop
      vertex 3.56995 -3.20528 21
      vertex 3.42389 -3.42389 21
      vertex 3.09051 -3.64664 21
    endloop
  endfacet
  facet normal -0 -0 -1
    outer loop
      vertex 3.42389 3.42389 21
      vertex 3.56995 3.20528 21
      vertex 3.09051 3.64664 21
    endloop
  endfacet
  facet normal 0 0 1
    outer loop
      vertex 3.8211 2.97408 21
      vertex 3.56995 3.20528 21
      vertex 4.233 2.21296 21
    endloop
  endfacet
  facet normal 0 0 1
    outer loop
      vertex 1.18867 4.69394 21
      vertex 0.42802 4.75697 21
      vertex 1.55689 4.53242 21
    endloop
  endfacet
  facet normal 0 0 1
    outer loop
      vertex 4.233 -2.21296 21
      vertex 3.56995 -3.20528 21
      vertex 3.8211 -2.97408 21
    endloop
  endfacet
  facet normal 0 0 1
    outer loop
      vertex 2.64838 4.05365 21
      vertex 2.16224 4.26689 21
      vertex 3.09051 3.64664 21
    endloop
  endfacet
  facet normal 0 0 1
    outer loop
      vertex -3.27947 3.56245 21
      vertex -1.89141 4.44785 21
      vertex -1.94505 4.43427 21
    endloop
  endfacet
  facet normal 0 0 1
    outer loop
      vertex -1.89141 4.44785 21
      vertex -3.27947 3.56245 21
      vertex -3.3477 3.47479 21
    endloop
  endfacet
  facet normal 0 0 1
    outer loop
      vertex -0.399858 4.82557 21
      vertex -1.55958 4.53189 21
      vertex -0.176282 4.80704 21
    endloop
  endfacet
  facet normal -0 0 1
    outer loop
      vertex -4.2585 2.30459 21
      vertex -4.35015 2.03763 21
      vertex -3.64569 3.09193 21
    endloop
  endfacet
  facet normal -0 0 1
    outer loop
      vertex -4.77606 0.796984 21
      vertex -4.77606 0.332005 21
      vertex -4.55616 1.43755 21
    endloop
  endfacet
  facet normal 0 0 1
    outer loop
      vertex -3.64569 -3.09193 21
      vertex -4.35015 -2.03763 21
      vertex -4.2585 -2.30459 21
    endloop
  endfacet
  facet normal 0 0 1
    outer loop
      vertex -1.89141 -4.44785 21
      vertex -3.27947 -3.56245 21
      vertex -1.94505 -4.43427 21
    endloop
  endfacet
  facet normal -0 -0 1
    outer loop
      vertex -3.27947 -3.56245 21
      vertex -1.89141 -4.44785 21
      vertex -3.3477 -3.47479 21
    endloop
  endfacet
  facet normal 0 0 1
    outer loop
      vertex 1.55689 -4.53242 21
      vertex 0.42802 -4.75697 21
      vertex 1.18867 -4.69394 21
    endloop
  endfacet
  facet normal 0 0 1
    outer loop
      vertex 3.09051 -3.64664 21
      vertex 2.16224 -4.26689 21
      vertex 2.64838 -4.05365 21
    endloop
  endfacet
  facet normal 0 0 1
    outer loop
      vertex -0.176282 -4.80704 21
      vertex -1.55958 -4.53189 21
      vertex -0.399858 -4.82557 21
    endloop
  endfacet
  facet normal 0 0 1
    outer loop
      vertex -4.77606 -0.332005 21
      vertex -4.77606 -0.796984 21
      vertex -4.55616 -1.43755 21
    endloop
  endfacet
  facet normal 0.0821419 -0.991256 0.103272
    outer loop
      vertex -0.00577253 -5.93893 10
      vertex -0.399858 -4.82557 21
      vertex -0.495476 -5.97951 10
    endloop
  endfacet
  facet normal 0.0821389 -0.991256 0.103272
    outer loop
      vertex 1.19186 -5.83969 10
      vertex -0.399858 -4.82557 21
      vertex -0.00577253 -5.93893 10
    endloop
  endfacet
  facet normal 0.0821432 -0.991255 0.103273
    outer loop
      vertex -0.399858 -4.82557 21
      vertex 1.19186 -5.83969 10
      vertex 1.47291 -5.8164 10
    endloop
  endfacet
  facet normal -0.244172 -0.964217 0.103272
    outer loop
      vertex -2.09631 -5.57412 10
      vertex -0.399858 -4.82557 21
      vertex -2.41017 -5.49464 10
    endloop
  endfacet
  facet normal -0.244174 -0.964217 0.103272
    outer loop
      vertex -0.655714 -5.93893 10
      vertex -0.399858 -4.82557 21
      vertex -2.09631 -5.57412 10
    endloop
  endfacet
  facet normal -0.244186 -0.964214 0.103272
    outer loop
      vertex -0.399858 -4.82557 21
      vertex -0.655714 -5.93893 10
      vertex -0.495476 -5.97951 10
    endloop
  endfacet
  facet normal 0.399555 -0.910873 0.103272
    outer loop
      vertex 1.47291 -5.8164 10
      vertex 1.55689 -4.53242 21
      vertex 1.18867 -4.69394 21
    endloop
  endfacet
  facet normal 0.399546 -0.910877 0.103272
    outer loop
      vertex 1.55689 -4.53242 21
      vertex 1.47291 -5.8164 10
      vertex 2.16224 -4.26689 21
    endloop
  endfacet
  facet normal 0.399546 -0.910877 0.103272
    outer loop
      vertex 2.16224 -4.26689 21
      vertex 1.47291 -5.8164 10
      vertex 2.64838 -4.05365 21
    endloop
  endfacet
  facet normal -0.544024 -0.83269 0.103272
    outer loop
      vertex -1.94505 -4.43427 21
      vertex -3.27947 -3.56245 21
      vertex -2.41017 -5.49464 10
    endloop
  endfacet
  facet normal 0.981088 -0.163709 0.103273
    outer loop
      vertex 4.8421 0 21
      vertex 4.57975 -1.57223 21
      vertex 6 0 10
    endloop
  endfacet
  facet normal 0.87477 0.473405 0.103272
    outer loop
      vertex 4.233 2.21296 21
      vertex 5.6749 1.9482 10
      vertex 3.8211 2.97408 21
    endloop
  endfacet
  facet normal 0.874772 0.473402 0.103272
    outer loop
      vertex 4.50009 1.71942 21
      vertex 5.6749 1.9482 10
      vertex 4.233 2.21296 21
    endloop
  endfacet
  facet normal 0.87476 0.473424 0.103271
    outer loop
      vertex 5.6749 1.9482 10
      vertex 4.50009 1.71942 21
      vertex 4.57975 1.57223 21
    endloop
  endfacet
  facet normal 0.874775 0.473396 0.103272
    outer loop
      vertex 3.8211 2.97408 21
      vertex 4.85099 3.47065 10
      vertex 4.73484 3.68528 10
    endloop
  endfacet
  facet normal 0.874772 0.473402 0.103272
    outer loop
      vertex 3.8211 2.97408 21
      vertex 5.44636 2.3705 10
      vertex 4.85099 3.47065 10
    endloop
  endfacet
  facet normal 0.874769 0.473407 0.103272
    outer loop
      vertex 5.44636 2.3705 10
      vertex 3.8211 2.97408 21
      vertex 5.6749 1.9482 10
    endloop
  endfacet
  facet normal -0.544024 0.83269 0.103272
    outer loop
      vertex -2.44542 5.47161 10
      vertex -3.27947 3.56245 21
      vertex -2.41017 5.49464 10
    endloop
  endfacet
  facet normal -0.544025 0.832689 0.103272
    outer loop
      vertex -3.9936 4.46013 10
      vertex -3.27947 3.56245 21
      vertex -2.44542 5.47161 10
    endloop
  endfacet
  facet normal -0.544006 0.832702 0.103272
    outer loop
      vertex -3.27947 3.56245 21
      vertex -3.9936 4.46013 10
      vertex -4.06369 4.41434 10
    endloop
  endfacet
  facet normal -0.544024 0.83269 0.103272
    outer loop
      vertex -2.41017 5.49464 10
      vertex -3.27947 3.56245 21
      vertex -1.94505 4.43427 21
    endloop
  endfacet
  facet normal -0.940763 -0.322955 0.103271
    outer loop
      vertex -5.27684 -2.85568 10
      vertex -4.55616 -1.43755 21
      vertex -4.77606 -0.796984 21
    endloop
  endfacet
  facet normal -0.940759 -0.322967 0.103272
    outer loop
      vertex -4.55616 -1.43755 21
      vertex -5.27684 -2.85568 10
      vertex -4.35015 -2.03763 21
    endloop
  endfacet
  facet normal -0.940757 -0.322971 0.103272
    outer loop
      vertex -4.35015 -2.03763 21
      vertex -5.27684 -2.85568 10
      vertex -4.2585 -2.30459 21
    endloop
  endfacet
  facet normal 0.975598 0.194068 0.102696
    outer loop
      vertex 4 0 29
      vertex 4.50009 1.71942 21
      vertex 4.47352 1.85299 21
    endloop
  endfacet
  facet normal 0.9756 0.194057 0.102694
    outer loop
      vertex 4.50009 1.71942 21
      vertex 4 0 29
      vertex 4.8421 0 21
    endloop
  endfacet
  facet normal -0.55263 -0.827075 0.102695
    outer loop
      vertex -2.82843 -2.82843 29
      vertex -3.42389 -3.42389 21
      vertex -1.53073 -3.69552 29
    endloop
  endfacet
  facet normal 0.194058 0.9756 0.102694
    outer loop
      vertex 1.85299 4.47352 21
      vertex 0 4 29
      vertex 1.53073 3.69552 29
    endloop
  endfacet
  facet normal 0.827093 0.552606 0.102688
    outer loop
      vertex 3.69552 1.53073 29
      vertex 3.56995 3.20528 21
      vertex 3.42389 3.42389 21
    endloop
  endfacet
  facet normal 0.827072 0.552635 0.102695
    outer loop
      vertex 3.56995 3.20528 21
      vertex 3.69552 1.53073 29
      vertex 4.233 2.21296 21
    endloop
  endfacet
  facet normal 0.827078 0.552626 0.102695
    outer loop
      vertex 4.233 2.21296 21
      vertex 3.69552 1.53073 29
      vertex 4.47352 1.85299 21
    endloop
  endfacet
  facet normal 0.552625 -0.827079 0.102695
    outer loop
      vertex 2.16224 -4.26689 21
      vertex 1.53073 -3.69552 29
      vertex 1.85299 -4.47352 21
    endloop
  endfacet
  facet normal 0.552633 -0.827074 0.102695
    outer loop
      vertex 3.09051 -3.64664 21
      vertex 1.53073 -3.69552 29
      vertex 2.16224 -4.26689 21
    endloop
  endfacet
  facet normal 0.55262 -0.827082 0.102692
    outer loop
      vertex 1.53073 -3.69552 29
      vertex 3.09051 -3.64664 21
      vertex 3.42389 -3.42389 21
    endloop
  endfacet
  facet normal -0.194034 0.975605 0.102695
    outer loop
      vertex -0.176282 4.80704 21
      vertex 0 4 29
      vertex 0 4.8421 21
    endloop
  endfacet
  facet normal -0.194055 0.9756 0.102695
    outer loop
      vertex -1.55958 4.53189 21
      vertex 0 4 29
      vertex -0.176282 4.80704 21
    endloop
  endfacet
  facet normal -0.194082 0.975595 0.102699
    outer loop
      vertex 0 4 29
      vertex -1.55958 4.53189 21
      vertex -1.85299 4.47352 21
    endloop
  endfacet
  facet normal -0.827075 -0.55263 0.102695
    outer loop
      vertex -2.82843 -2.82843 29
      vertex -3.69552 -1.53073 29
      vertex -3.42389 -3.42389 21
    endloop
  endfacet
  facet normal 0.9756 -0.194058 0.102694
    outer loop
      vertex 4 0 29
      vertex 3.69552 -1.53073 29
      vertex 4.47352 -1.85299 21
    endloop
  endfacet
  facet normal 0.827075 0.55263 0.102695
    outer loop
      vertex 3.42389 3.42389 21
      vertex 2.82843 2.82843 29
      vertex 3.69552 1.53073 29
    endloop
  endfacet
  facet normal 0.9756 0.194058 0.102694
    outer loop
      vertex 4.47352 1.85299 21
      vertex 3.69552 1.53073 29
      vertex 4 0 29
    endloop
  endfacet
  facet normal 0.9756 -0.194057 0.102694
    outer loop
      vertex 4 0 29
      vertex 4.50009 -1.71942 21
      vertex 4.8421 0 21
    endloop
  endfacet
  facet normal 0.975598 -0.194068 0.102696
    outer loop
      vertex 4.50009 -1.71942 21
      vertex 4 0 29
      vertex 4.47352 -1.85299 21
    endloop
  endfacet
  facet normal -0.827074 0.552632 0.102695
    outer loop
      vertex -3.69552 1.53073 29
      vertex -3.64569 3.09193 21
      vertex -4.35015 2.03763 21
    endloop
  endfacet
  facet normal -0.827079 0.552625 0.102695
    outer loop
      vertex -3.69552 1.53073 29
      vertex -4.35015 2.03763 21
      vertex -4.47352 1.85299 21
    endloop
  endfacet
  facet normal -0.827084 0.552618 0.102692
    outer loop
      vertex -3.64569 3.09193 21
      vertex -3.69552 1.53073 29
      vertex -3.42389 3.42389 21
    endloop
  endfacet
  facet normal -0.552612 0.827088 0.102695
    outer loop
      vertex -1.89141 4.44785 21
      vertex -1.53073 3.69552 29
      vertex -1.85299 4.47352 21
    endloop
  endfacet
  facet normal -0.552632 0.827074 0.102695
    outer loop
      vertex -3.3477 3.47479 21
      vertex -1.53073 3.69552 29
      vertex -1.89141 4.44785 21
    endloop
  endfacet
  facet normal -0.55257 0.827118 0.102679
    outer loop
      vertex -1.53073 3.69552 29
      vertex -3.3477 3.47479 21
      vertex -3.42389 3.42389 21
    endloop
  endfacet
  facet normal -0.827079 -0.552625 0.102695
    outer loop
      vertex -4.35015 -2.03763 21
      vertex -3.69552 -1.53073 29
      vertex -4.47352 -1.85299 21
    endloop
  endfacet
  facet normal -0.827074 -0.552632 0.102695
    outer loop
      vertex -3.64569 -3.09193 21
      vertex -3.69552 -1.53073 29
      vertex -4.35015 -2.03763 21
    endloop
  endfacet
  facet normal -0.827084 -0.552618 0.102692
    outer loop
      vertex -3.69552 -1.53073 29
      vertex -3.64569 -3.09193 21
      vertex -3.42389 -3.42389 21
    endloop
  endfacet
  facet normal -0.9756 -0.194059 0.102694
    outer loop
      vertex -4.77606 -0.332005 21
      vertex -4 0 29
      vertex -4.8421 0 21
    endloop
  endfacet
  facet normal -0.975601 -0.194053 0.102694
    outer loop
      vertex -4.55616 -1.43755 21
      vertex -4 0 29
      vertex -4.77606 -0.332005 21
    endloop
  endfacet
  facet normal -0.975598 -0.194068 0.102696
    outer loop
      vertex -4 0 29
      vertex -4.55616 -1.43755 21
      vertex -4.47352 -1.85299 21
    endloop
  endfacet
  facet normal -0.194082 -0.975595 0.102699
    outer loop
      vertex -1.55958 -4.53189 21
      vertex 0 -4 29
      vertex -1.85299 -4.47352 21
    endloop
  endfacet
  facet normal -0.194055 -0.9756 0.102695
    outer loop
      vertex -0.176282 -4.80704 21
      vertex 0 -4 29
      vertex -1.55958 -4.53189 21
    endloop
  endfacet
  facet normal -0.194034 -0.975605 0.102695
    outer loop
      vertex 0 -4 29
      vertex -0.176282 -4.80704 21
      vertex 0 -4.8421 21
    endloop
  endfacet
  facet normal -0.55257 -0.827118 0.102679
    outer loop
      vertex -3.3477 -3.47479 21
      vertex -1.53073 -3.69552 29
      vertex -3.42389 -3.42389 21
    endloop
  endfacet
  facet normal -0.552632 -0.827074 0.102695
    outer loop
      vertex -1.89141 -4.44785 21
      vertex -1.53073 -3.69552 29
      vertex -3.3477 -3.47479 21
    endloop
  endfacet
  facet normal -0.552612 -0.827088 0.102695
    outer loop
      vertex -1.53073 -3.69552 29
      vertex -1.89141 -4.44785 21
      vertex -1.85299 -4.47352 21
    endloop
  endfacet
  facet normal 0.19404 -0.975604 0.102694
    outer loop
      vertex 0.42802 -4.75697 21
      vertex 0 -4 29
      vertex 0 -4.8421 21
    endloop
  endfacet
  facet normal 0.194062 -0.975599 0.102695
    outer loop
      vertex 1.55689 -4.53242 21
      vertex 0 -4 29
      vertex 0.42802 -4.75697 21
    endloop
  endfacet
  facet normal 0.194065 -0.975598 0.102696
    outer loop
      vertex 0 -4 29
      vertex 1.55689 -4.53242 21
      vertex 1.85299 -4.47352 21
    endloop
  endfacet
  facet normal 0.55263 -0.827075 0.102695
    outer loop
      vertex 2.82843 -2.82843 29
      vertex 1.53073 -3.69552 29
      vertex 3.42389 -3.42389 21
    endloop
  endfacet
  facet normal 0.194065 0.975598 0.102696
    outer loop
      vertex 1.55689 4.53242 21
      vertex 0 4 29
      vertex 1.85299 4.47352 21
    endloop
  endfacet
  facet normal 0.194062 0.975599 0.102695
    outer loop
      vertex 0.42802 4.75697 21
      vertex 0 4 29
      vertex 1.55689 4.53242 21
    endloop
  endfacet
  facet normal 0.19404 0.975604 0.102694
    outer loop
      vertex 0 4 29
      vertex 0.42802 4.75697 21
      vertex 0 4.8421 21
    endloop
  endfacet
  facet normal -0.9756 -0.194058 0.102694
    outer loop
      vertex -4 0 29
      vertex -4.47352 -1.85299 21
      vertex -3.69552 -1.53073 29
    endloop
  endfacet
  facet normal 0 0 1
    outer loop
      vertex 3.69552 1.53073 29
      vertex 3.69552 -1.53073 29
      vertex 4 0 29
    endloop
  endfacet
  facet normal 0 0 1
    outer loop
      vertex 2.82843 2.82843 29
      vertex 3.69552 -1.53073 29
      vertex 3.69552 1.53073 29
    endloop
  endfacet
  facet normal 0 0 1
    outer loop
      vertex 2.82843 2.82843 29
      vertex 2.82843 -2.82843 29
      vertex 3.69552 -1.53073 29
    endloop
  endfacet
  facet normal 0 0 1
    outer loop
      vertex 1.53073 3.69552 29
      vertex 2.82843 -2.82843 29
      vertex 2.82843 2.82843 29
    endloop
  endfacet
  facet normal 0 0 1
    outer loop
      vertex 1.53073 3.69552 29
      vertex 1.53073 -3.69552 29
      vertex 2.82843 -2.82843 29
    endloop
  endfacet
  facet normal 0 0 1
    outer loop
      vertex 0 4 29
      vertex 1.53073 -3.69552 29
      vertex 1.53073 3.69552 29
    endloop
  endfacet
  facet normal 0 0 1
    outer loop
      vertex 0 4 29
      vertex 0 -4 29
      vertex 1.53073 -3.69552 29
    endloop
  endfacet
  facet normal -0 0 1
    outer loop
      vertex -1.53073 3.69552 29
      vertex 0 -4 29
      vertex 0 4 29
    endloop
  endfacet
  facet normal 0 0 1
    outer loop
      vertex -1.53073 3.69552 29
      vertex -1.53073 -3.69552 29
      vertex 0 -4 29
    endloop
  endfacet
  facet normal -0 0 1
    outer loop
      vertex -2.82843 2.82843 29
      vertex -1.53073 -3.69552 29
      vertex -1.53073 3.69552 29
    endloop
  endfacet
  facet normal 0 0 1
    outer loop
      vertex -2.82843 2.82843 29
      vertex -2.82843 -2.82843 29
      vertex -1.53073 -3.69552 29
    endloop
  endfacet
  facet normal -0 0 1
    outer loop
      vertex -3.69552 1.53073 29
      vertex -2.82843 -2.82843 29
      vertex -2.82843 2.82843 29
    endloop
  endfacet
  facet normal 0 0 1
    outer loop
      vertex -3.69552 1.53073 29
      vertex -3.69552 -1.53073 29
      vertex -2.82843 -2.82843 29
    endloop
  endfacet
  facet normal 0 -0 1
    outer loop
      vertex -3.69552 -1.53073 29
      vertex -3.69552 1.53073 29
      vertex -4 0 29
    endloop
  endfacet
  facet normal -0.55263 0.827075 0.102695
    outer loop
      vertex -1.53073 3.69552 29
      vertex -3.42389 3.42389 21
      vertex -2.82843 2.82843 29
    endloop
  endfacet
  facet normal -0.827075 0.55263 0.102695
    outer loop
      vertex -3.42389 3.42389 21
      vertex -3.69552 1.53073 29
      vertex -2.82843 2.82843 29
    endloop
  endfacet
  facet normal -0.975601 0.194053 0.102694
    outer loop
      vertex -4 0 29
      vertex -4.55616 1.43755 21
      vertex -4.77606 0.332005 21
    endloop
  endfacet
  facet normal -0.9756 0.194059 0.102694
    outer loop
      vertex -4 0 29
      vertex -4.77606 0.332005 21
      vertex -4.8421 0 21
    endloop
  endfacet
  facet normal -0.975598 0.194068 0.102696
    outer loop
      vertex -4.55616 1.43755 21
      vertex -4 0 29
      vertex -4.47352 1.85299 21
    endloop
  endfacet
  facet normal -0.9756 0.194058 0.102694
    outer loop
      vertex -3.69552 1.53073 29
      vertex -4.47352 1.85299 21
      vertex -4 0 29
    endloop
  endfacet
  facet normal -0.194058 -0.9756 0.102694
    outer loop
      vertex -1.53073 -3.69552 29
      vertex -1.85299 -4.47352 21
      vertex 0 -4 29
    endloop
  endfacet
  facet normal 0.827075 -0.55263 0.102695
    outer loop
      vertex 3.69552 -1.53073 29
      vertex 2.82843 -2.82843 29
      vertex 3.42389 -3.42389 21
    endloop
  endfacet
  facet normal 0.827078 -0.552626 0.102695
    outer loop
      vertex 3.69552 -1.53073 29
      vertex 4.233 -2.21296 21
      vertex 4.47352 -1.85299 21
    endloop
  endfacet
  facet normal 0.827072 -0.552635 0.102695
    outer loop
      vertex 3.69552 -1.53073 29
      vertex 3.56995 -3.20528 21
      vertex 4.233 -2.21296 21
    endloop
  endfacet
  facet normal 0.827093 -0.552606 0.102688
    outer loop
      vertex 3.56995 -3.20528 21
      vertex 3.69552 -1.53073 29
      vertex 3.42389 -3.42389 21
    endloop
  endfacet
  facet normal 0.194058 -0.9756 0.102694
    outer loop
      vertex 1.53073 -3.69552 29
      vertex 0 -4 29
      vertex 1.85299 -4.47352 21
    endloop
  endfacet
  facet normal 0.55263 0.827075 0.102695
    outer loop
      vertex 3.42389 3.42389 21
      vertex 1.53073 3.69552 29
      vertex 2.82843 2.82843 29
    endloop
  endfacet
  facet normal 0.55262 0.827082 0.102692
    outer loop
      vertex 3.09051 3.64664 21
      vertex 1.53073 3.69552 29
      vertex 3.42389 3.42389 21
    endloop
  endfacet
  facet normal 0.552633 0.827074 0.102695
    outer loop
      vertex 2.16224 4.26689 21
      vertex 1.53073 3.69552 29
      vertex 3.09051 3.64664 21
    endloop
  endfacet
  facet normal 0.552625 0.827079 0.102695
    outer loop
      vertex 1.53073 3.69552 29
      vertex 2.16224 4.26689 21
      vertex 1.85299 4.47352 21
    endloop
  endfacet
  facet normal -0.194058 0.9756 0.102694
    outer loop
      vertex 0 4 29
      vertex -1.85299 4.47352 21
      vertex -1.53073 3.69552 29
    endloop
  endfacet
endsolid OpenSCAD_Model
