solid OpenSCAD_Model
  facet normal 0.911222 0.131014 0.390524
    outer loop
      vertex 6.71645 1.97213 0
      vertex 4 0 7
      vertex 7 0 0
    endloop
  endfacet
  facet normal -0.695739 -0.602858 0.390524
    outer loop
      vertex -3.36501 -2.16256 7
      vertex -5.88877 -3.78448 0
      vertex -4.58402 -5.29025 0
    endloop
  endfacet
  facet normal 0.837399 0.382431 0.390524
    outer loop
      vertex 5.88877 3.78448 0
      vertex 3.36501 2.16256 7
      vertex 6.71645 1.97213 0
    endloop
  endfacet
  facet normal -0.911222 0.131014 0.390524
    outer loop
      vertex -6.71645 1.97213 0
      vertex -7 0 0
      vertex -4 0 7
    endloop
  endfacet
  facet normal 0 0.920593 0.390523
    outer loop
      vertex 0.996203 6.92875 0
      vertex 0.204684 3.95929 7
      vertex 0.569259 3.95929 7
    endloop
  endfacet
  facet normal 0 0.920593 0.390523
    outer loop
      vertex 0.204684 3.95929 7
      vertex 0.996203 6.92875 0
      vertex -0.204684 3.95929 7
    endloop
  endfacet
  facet normal -0 0.920593 0.390523
    outer loop
      vertex -0.996203 6.92875 0
      vertex -0.204684 3.95929 7
      vertex 0.996203 6.92875 0
    endloop
  endfacet
  facet normal 0 0.920593 0.390523
    outer loop
      vertex -0.204684 3.95929 7
      vertex -0.996203 6.92875 0
      vertex -0.569259 3.95929 7
    endloop
  endfacet
  facet normal 0.497708 -0.774454 0.390523
    outer loop
      vertex 4.58402 -5.29025 0
      vertex 1.66166 -3.63853 7
      vertex 2.9079 -6.36742 0
    endloop
  endfacet
  facet normal -0.259363 0.883302 0.390523
    outer loop
      vertex -0.996203 6.92875 0
      vertex -2.9079 6.36742 0
      vertex -1.66166 3.63853 7
    endloop
  endfacet
  facet normal -0.497711 0.774451 0.390524
    outer loop
      vertex -1.66166 3.63853 7
      vertex -4.58402 5.29025 0
      vertex -2.61944 3.023 7
    endloop
  endfacet
  facet normal 0.695739 0.602858 0.390524
    outer loop
      vertex 4.58402 5.29025 0
      vertex 3.36501 2.16256 7
      vertex 5.88877 3.78448 0
    endloop
  endfacet
  facet normal 0.695742 0.602855 0.390523
    outer loop
      vertex 2.7325 2.89252 7
      vertex 4.58402 5.29025 0
      vertex 2.61944 3.023 7
    endloop
  endfacet
  facet normal 0.695737 0.602861 0.390524
    outer loop
      vertex 2.96449 2.62479 7
      vertex 4.58402 5.29025 0
      vertex 2.7325 2.89252 7
    endloop
  endfacet
  facet normal 0.695741 0.602856 0.390523
    outer loop
      vertex 4.58402 5.29025 0
      vertex 2.96449 2.62479 7
      vertex 3.36501 2.16256 7
    endloop
  endfacet
  facet normal 0.259363 -0.883302 0.390523
    outer loop
      vertex 0.996203 -6.92875 0
      vertex 1.33492 -3.73447 7
      vertex 0.569259 -3.95929 7
    endloop
  endfacet
  facet normal 0.259377 -0.883299 0.390521
    outer loop
      vertex 1.33492 -3.73447 7
      vertex 0.996203 -6.92875 0
      vertex 1.58025 -3.66243 7
    endloop
  endfacet
  facet normal 0.259319 -0.883311 0.390532
    outer loop
      vertex 1.58025 -3.66243 7
      vertex 0.996203 -6.92875 0
      vertex 1.66166 -3.63853 7
    endloop
  endfacet
  facet normal 0.911222 -0.131014 0.390524
    outer loop
      vertex 7 0 0
      vertex 4 0 7
      vertex 6.71645 -1.97213 0
    endloop
  endfacet
  facet normal 0.259363 0.883302 0.390523
    outer loop
      vertex 2.9079 6.36742 0
      vertex 0.996203 6.92875 0
      vertex 1.66166 3.63853 7
    endloop
  endfacet
  facet normal -0.837399 0.382431 0.390524
    outer loop
      vertex -5.88877 3.78448 0
      vertex -6.71645 1.97213 0
      vertex -3.36501 2.16256 7
    endloop
  endfacet
  facet normal -0.911222 0.131016 0.390524
    outer loop
      vertex -3.83797 1.12693 7
      vertex -6.71645 1.97213 0
      vertex -4 0 7
    endloop
  endfacet
  facet normal 0.911222 -0.131016 0.390524
    outer loop
      vertex 4 0 7
      vertex 3.83797 -1.12693 7
      vertex 6.71645 -1.97213 0
    endloop
  endfacet
  facet normal -0.911222 -0.131014 0.390524
    outer loop
      vertex -4 0 7
      vertex -7 0 0
      vertex -6.71645 -1.97213 0
    endloop
  endfacet
  facet normal 0.259319 0.883311 0.390532
    outer loop
      vertex 0.996203 6.92875 0
      vertex 1.58025 3.66243 7
      vertex 1.66166 3.63853 7
    endloop
  endfacet
  facet normal 0.259377 0.883299 0.390521
    outer loop
      vertex 1.58025 3.66243 7
      vertex 0.996203 6.92875 0
      vertex 1.33492 3.73447 7
    endloop
  endfacet
  facet normal 0.259363 0.883302 0.390523
    outer loop
      vertex 1.33492 3.73447 7
      vertex 0.996203 6.92875 0
      vertex 0.569259 3.95929 7
    endloop
  endfacet
  facet normal 0.911222 0.131016 0.390524
    outer loop
      vertex 6.71645 1.97213 0
      vertex 3.83797 1.12693 7
      vertex 4 0 7
    endloop
  endfacet
  facet normal 0.837398 0.382436 0.390523
    outer loop
      vertex 3.56296 1.72912 7
      vertex 6.71645 1.97213 0
      vertex 3.36501 2.16256 7
    endloop
  endfacet
  facet normal 0.837402 0.382425 0.390525
    outer loop
      vertex 3.72789 1.36797 7
      vertex 6.71645 1.97213 0
      vertex 3.56296 1.72912 7
    endloop
  endfacet
  facet normal 0.8374 0.38243 0.390524
    outer loop
      vertex 6.71645 1.97213 0
      vertex 3.72789 1.36797 7
      vertex 3.83797 1.12693 7
    endloop
  endfacet
  facet normal -0.695739 0.602858 0.390524
    outer loop
      vertex -4.58402 5.29025 0
      vertex -5.88877 3.78448 0
      vertex -3.36501 2.16256 7
    endloop
  endfacet
  facet normal -0.497708 0.774454 0.390523
    outer loop
      vertex -2.9079 6.36742 0
      vertex -4.58402 5.29025 0
      vertex -1.66166 3.63853 7
    endloop
  endfacet
  facet normal -0.695742 0.602855 0.390523
    outer loop
      vertex -4.58402 5.29025 0
      vertex -2.7325 2.89252 7
      vertex -2.61944 3.023 7
    endloop
  endfacet
  facet normal -0.695737 0.602861 0.390524
    outer loop
      vertex -4.58402 5.29025 0
      vertex -2.96449 2.62479 7
      vertex -2.7325 2.89252 7
    endloop
  endfacet
  facet normal -0.695741 0.602856 0.390523
    outer loop
      vertex -2.96449 2.62479 7
      vertex -4.58402 5.29025 0
      vertex -3.36501 2.16256 7
    endloop
  endfacet
  facet normal -0.259363 0.883302 0.390523
    outer loop
      vertex -0.996203 6.92875 0
      vertex -1.33492 3.73447 7
      vertex -0.569259 3.95929 7
    endloop
  endfacet
  facet normal -0.259377 0.883299 0.390521
    outer loop
      vertex -1.33492 3.73447 7
      vertex -0.996203 6.92875 0
      vertex -1.58025 3.66243 7
    endloop
  endfacet
  facet normal -0.259319 0.883311 0.390532
    outer loop
      vertex -1.58025 3.66243 7
      vertex -0.996203 6.92875 0
      vertex -1.66166 3.63853 7
    endloop
  endfacet
  facet normal 0 0 -1
    outer loop
      vertex 6.71645 -1.97213 0
      vertex 6.71645 1.97213 0
      vertex 7 0 0
    endloop
  endfacet
  facet normal 0 0 -1
    outer loop
      vertex 5.88877 -3.78448 0
      vertex 6.71645 1.97213 0
      vertex 6.71645 -1.97213 0
    endloop
  endfacet
  facet normal 0 0 -1
    outer loop
      vertex 5.88877 -3.78448 0
      vertex 5.88877 3.78448 0
      vertex 6.71645 1.97213 0
    endloop
  endfacet
  facet normal 0 0 -1
    outer loop
      vertex 4.58402 -5.29025 0
      vertex 5.88877 3.78448 0
      vertex 5.88877 -3.78448 0
    endloop
  endfacet
  facet normal 0 0 -1
    outer loop
      vertex 4.58402 -5.29025 0
      vertex 4.58402 5.29025 0
      vertex 5.88877 3.78448 0
    endloop
  endfacet
  facet normal 0 0 -1
    outer loop
      vertex 2.9079 -6.36742 0
      vertex 4.58402 5.29025 0
      vertex 4.58402 -5.29025 0
    endloop
  endfacet
  facet normal 0 0 -1
    outer loop
      vertex 2.9079 -6.36742 0
      vertex 2.9079 6.36742 0
      vertex 4.58402 5.29025 0
    endloop
  endfacet
  facet normal 0 0 -1
    outer loop
      vertex 0.996203 -6.92875 0
      vertex 2.9079 6.36742 0
      vertex 2.9079 -6.36742 0
    endloop
  endfacet
  facet normal 0 0 -1
    outer loop
      vertex 0.996203 -6.92875 0
      vertex 0.996203 6.92875 0
      vertex 2.9079 6.36742 0
    endloop
  endfacet
  facet normal 0 0 -1
    outer loop
      vertex -0.996203 -6.92875 0
      vertex 0.996203 6.92875 0
      vertex 0.996203 -6.92875 0
    endloop
  endfacet
  facet normal 0 0 -1
    outer loop
      vertex -0.996203 -6.92875 0
      vertex -0.996203 6.92875 0
      vertex 0.996203 6.92875 0
    endloop
  endfacet
  facet normal 0 0 -1
    outer loop
      vertex -2.9079 -6.36742 0
      vertex -0.996203 6.92875 0
      vertex -0.996203 -6.92875 0
    endloop
  endfacet
  facet normal 0 0 -1
    outer loop
      vertex -2.9079 -6.36742 0
      vertex -2.9079 6.36742 0
      vertex -0.996203 6.92875 0
    endloop
  endfacet
  facet normal 0 0 -1
    outer loop
      vertex -4.58402 -5.29025 0
      vertex -2.9079 6.36742 0
      vertex -2.9079 -6.36742 0
    endloop
  endfacet
  facet normal 0 0 -1
    outer loop
      vertex -4.58402 -5.29025 0
      vertex -4.58402 5.29025 0
      vertex -2.9079 6.36742 0
    endloop
  endfacet
  facet normal 0 0 -1
    outer loop
      vertex -5.88877 -3.78448 0
      vertex -4.58402 5.29025 0
      vertex -4.58402 -5.29025 0
    endloop
  endfacet
  facet normal 0 0 -1
    outer loop
      vertex -5.88877 -3.78448 0
      vertex -5.88877 3.78448 0
      vertex -4.58402 5.29025 0
    endloop
  endfacet
  facet normal 0 0 -1
    outer loop
      vertex -6.71645 -1.97213 0
      vertex -5.88877 3.78448 0
      vertex -5.88877 -3.78448 0
    endloop
  endfacet
  facet normal 0 0 -1
    outer loop
      vertex -6.71645 -1.97213 0
      vertex -6.71645 1.97213 0
      vertex -5.88877 3.78448 0
    endloop
  endfacet
  facet normal 0 -0 -1
    outer loop
      vertex -6.71645 1.97213 0
      vertex -6.71645 -1.97213 0
      vertex -7 0 0
    endloop
  endfacet
  facet normal 0 0 -1
    outer loop
      vertex 3.72789 -1.36797 7
      vertex 3.69552 -1.53073 7
      vertex 3.56296 -1.72912 7
    endloop
  endfacet
  facet normal 0 0 1
    outer loop
      vertex 4 0 7
      vertex 3.72789 -1.36797 7
      vertex 3.83797 -1.12693 7
    endloop
  endfacet
  facet normal 0 0 1
    outer loop
      vertex 3.83797 1.12693 7
      vertex 3.72789 1.36797 7
      vertex 4 0 7
    endloop
  endfacet
  facet normal 0 0 -1
    outer loop
      vertex -3.56296 -1.72912 7
      vertex -3.69552 -1.53073 7
      vertex -3.72789 -1.36797 7
    endloop
  endfacet
  facet normal 0 0 -1
    outer loop
      vertex -2.7325 -2.89252 7
      vertex -2.82843 -2.82843 7
      vertex -2.96449 -2.62479 7
    endloop
  endfacet
  facet normal 0 -0 -1
    outer loop
      vertex -1.53073 3.69552 7
      vertex -1.33492 3.73447 7
      vertex -1.58025 3.66243 7
    endloop
  endfacet
  facet normal 0 0 -1
    outer loop
      vertex 1.58025 -3.66243 7
      vertex 1.53073 -3.69552 7
      vertex 1.33492 -3.73447 7
    endloop
  endfacet
  facet normal -0 -0 -1
    outer loop
      vertex 3.69552 1.53073 7
      vertex 3.72789 1.36797 7
      vertex 3.56296 1.72912 7
    endloop
  endfacet
  facet normal 0 0 1
    outer loop
      vertex -3.72789 -1.36797 7
      vertex -4 0 7
      vertex -3.83797 -1.12693 7
    endloop
  endfacet
  facet normal -0 0 1
    outer loop
      vertex -3.83797 1.12693 7
      vertex -4 0 7
      vertex -3.72789 1.36797 7
    endloop
  endfacet
  facet normal 0 0 -1
    outer loop
      vertex 2.96449 -2.62479 7
      vertex 2.82843 -2.82843 7
      vertex 2.7325 -2.89252 7
    endloop
  endfacet
  facet normal 0 0 -1
    outer loop
      vertex -1.33492 -3.73447 7
      vertex -1.53073 -3.69552 7
      vertex -1.58025 -3.66243 7
    endloop
  endfacet
  facet normal -0 0 -1
    outer loop
      vertex 0.204684 -3.95929 7
      vertex 0 -4 7
      vertex -0.204684 -3.95929 7
    endloop
  endfacet
  facet normal -0 -0 -1
    outer loop
      vertex 2.82843 2.82843 7
      vertex 2.96449 2.62479 7
      vertex 2.7325 2.89252 7
    endloop
  endfacet
  facet normal 0 -0 -1
    outer loop
      vertex -2.82843 2.82843 7
      vertex -2.7325 2.89252 7
      vertex -2.96449 2.62479 7
    endloop
  endfacet
  facet normal 0 -0 -1
    outer loop
      vertex -3.69552 1.53073 7
      vertex -3.56296 1.72912 7
      vertex -3.72789 1.36797 7
    endloop
  endfacet
  facet normal 0 -0 -1
    outer loop
      vertex 0 4 7
      vertex 0.204684 3.95929 7
      vertex -0.204684 3.95929 7
    endloop
  endfacet
  facet normal -0 -0 -1
    outer loop
      vertex 1.53073 3.69552 7
      vertex 1.58025 3.66243 7
      vertex 1.33492 3.73447 7
    endloop
  endfacet
  facet normal 0 0 1
    outer loop
      vertex -2.96449 -2.62479 7
      vertex -3.56296 -1.72912 7
      vertex -3.36501 -2.16256 7
    endloop
  endfacet
  facet normal 0 0 1
    outer loop
      vertex 0.569259 3.95929 7
      vertex 0.204684 3.95929 7
      vertex 1.33492 3.73447 7
    endloop
  endfacet
  facet normal 0 0 1
    outer loop
      vertex 1.58025 -3.66243 7
      vertex 2.61944 -3.023 7
      vertex 2.7325 -2.89252 7
    endloop
  endfacet
  facet normal 0 0 1
    outer loop
      vertex 2.61944 -3.023 7
      vertex 1.58025 -3.66243 7
      vertex 1.66166 -3.63853 7
    endloop
  endfacet
  facet normal 0 0 1
    outer loop
      vertex 1.33492 -3.73447 7
      vertex 0.204684 -3.95929 7
      vertex 0.569259 -3.95929 7
    endloop
  endfacet
  facet normal 0 0 1
    outer loop
      vertex 3.36501 2.16256 7
      vertex 2.96449 2.62479 7
      vertex 3.56296 1.72912 7
    endloop
  endfacet
  facet normal 0 0 1
    outer loop
      vertex -2.61944 3.023 7
      vertex -1.58025 3.66243 7
      vertex -1.66166 3.63853 7
    endloop
  endfacet
  facet normal 0 0 1
    outer loop
      vertex -1.58025 3.66243 7
      vertex -2.61944 3.023 7
      vertex -2.7325 2.89252 7
    endloop
  endfacet
  facet normal -0 0 1
    outer loop
      vertex -0.569259 3.95929 7
      vertex -1.33492 3.73447 7
      vertex -0.204684 3.95929 7
    endloop
  endfacet
  facet normal -0 0 1
    outer loop
      vertex -3.36501 2.16256 7
      vertex -3.56296 1.72912 7
      vertex -2.96449 2.62479 7
    endloop
  endfacet
  facet normal 0 0 1
    outer loop
      vertex -1.58025 -3.66243 7
      vertex -2.61944 -3.023 7
      vertex -1.66166 -3.63853 7
    endloop
  endfacet
  facet normal -0 -0 1
    outer loop
      vertex -2.61944 -3.023 7
      vertex -1.58025 -3.66243 7
      vertex -2.7325 -2.89252 7
    endloop
  endfacet
  facet normal 0 0 1
    outer loop
      vertex 1.58025 3.66243 7
      vertex 2.61944 3.023 7
      vertex 1.66166 3.63853 7
    endloop
  endfacet
  facet normal 0 0 1
    outer loop
      vertex 2.61944 3.023 7
      vertex 1.58025 3.66243 7
      vertex 2.7325 2.89252 7
    endloop
  endfacet
  facet normal 0 0 1
    outer loop
      vertex -0.204684 -3.95929 7
      vertex -1.33492 -3.73447 7
      vertex -0.569259 -3.95929 7
    endloop
  endfacet
  facet normal 0 0 1
    outer loop
      vertex 3.56296 -1.72912 7
      vertex 2.96449 -2.62479 7
      vertex 3.36501 -2.16256 7
    endloop
  endfacet
  facet normal -0.837398 0.382436 0.390523
    outer loop
      vertex -6.71645 1.97213 0
      vertex -3.56296 1.72912 7
      vertex -3.36501 2.16256 7
    endloop
  endfacet
  facet normal -0.837402 0.382425 0.390525
    outer loop
      vertex -6.71645 1.97213 0
      vertex -3.72789 1.36797 7
      vertex -3.56296 1.72912 7
    endloop
  endfacet
  facet normal -0.8374 0.38243 0.390524
    outer loop
      vertex -3.72789 1.36797 7
      vertex -6.71645 1.97213 0
      vertex -3.83797 1.12693 7
    endloop
  endfacet
  facet normal -0.8374 -0.38243 0.390524
    outer loop
      vertex -6.71645 -1.97213 0
      vertex -3.72789 -1.36797 7
      vertex -3.83797 -1.12693 7
    endloop
  endfacet
  facet normal -0.837402 -0.382425 0.390525
    outer loop
      vertex -3.72789 -1.36797 7
      vertex -6.71645 -1.97213 0
      vertex -3.56296 -1.72912 7
    endloop
  endfacet
  facet normal -0.837398 -0.382436 0.390523
    outer loop
      vertex -3.56296 -1.72912 7
      vertex -6.71645 -1.97213 0
      vertex -3.36501 -2.16256 7
    endloop
  endfacet
  facet normal -0.911222 -0.131016 0.390524
    outer loop
      vertex -4 0 7
      vertex -6.71645 -1.97213 0
      vertex -3.83797 -1.12693 7
    endloop
  endfacet
  facet normal -0.497711 -0.774451 0.390524
    outer loop
      vertex -2.61944 -3.023 7
      vertex -4.58402 -5.29025 0
      vertex -1.66166 -3.63853 7
    endloop
  endfacet
  facet normal 0.259363 -0.883302 0.390523
    outer loop
      vertex 1.66166 -3.63853 7
      vertex 0.996203 -6.92875 0
      vertex 2.9079 -6.36742 0
    endloop
  endfacet
  facet normal 0.695739 -0.602858 0.390524
    outer loop
      vertex 5.88877 -3.78448 0
      vertex 3.36501 -2.16256 7
      vertex 4.58402 -5.29025 0
    endloop
  endfacet
  facet normal 0.837399 -0.382431 0.390524
    outer loop
      vertex 6.71645 -1.97213 0
      vertex 3.36501 -2.16256 7
      vertex 5.88877 -3.78448 0
    endloop
  endfacet
  facet normal 0.497711 0.774451 0.390524
    outer loop
      vertex 4.58402 5.29025 0
      vertex 1.66166 3.63853 7
      vertex 2.61944 3.023 7
    endloop
  endfacet
  facet normal 0.497708 0.774454 0.390523
    outer loop
      vertex 2.9079 6.36742 0
      vertex 1.66166 3.63853 7
      vertex 4.58402 5.29025 0
    endloop
  endfacet
  facet normal -0.837399 -0.382431 0.390524
    outer loop
      vertex -3.36501 -2.16256 7
      vertex -6.71645 -1.97213 0
      vertex -5.88877 -3.78448 0
    endloop
  endfacet
  facet normal -0.259363 -0.883302 0.390523
    outer loop
      vertex -1.66166 -3.63853 7
      vertex -2.9079 -6.36742 0
      vertex -0.996203 -6.92875 0
    endloop
  endfacet
  facet normal -0.497708 -0.774454 0.390523
    outer loop
      vertex -1.66166 -3.63853 7
      vertex -4.58402 -5.29025 0
      vertex -2.9079 -6.36742 0
    endloop
  endfacet
  facet normal -0.259319 -0.883311 0.390532
    outer loop
      vertex -0.996203 -6.92875 0
      vertex -1.58025 -3.66243 7
      vertex -1.66166 -3.63853 7
    endloop
  endfacet
  facet normal -0.259377 -0.883299 0.390521
    outer loop
      vertex -1.58025 -3.66243 7
      vertex -0.996203 -6.92875 0
      vertex -1.33492 -3.73447 7
    endloop
  endfacet
  facet normal -0.259363 -0.883302 0.390523
    outer loop
      vertex -1.33492 -3.73447 7
      vertex -0.996203 -6.92875 0
      vertex -0.569259 -3.95929 7
    endloop
  endfacet
  facet normal 0 -0.920593 0.390523
    outer loop
      vertex -0.996203 -6.92875 0
      vertex -0.204684 -3.95929 7
      vertex -0.569259 -3.95929 7
    endloop
  endfacet
  facet normal 0 -0.920593 0.390523
    outer loop
      vertex -0.204684 -3.95929 7
      vertex -0.996203 -6.92875 0
      vertex 0.204684 -3.95929 7
    endloop
  endfacet
  facet normal 0 -0.920593 0.390523
    outer loop
      vertex 0.996203 -6.92875 0
      vertex 0.204684 -3.95929 7
      vertex -0.996203 -6.92875 0
    endloop
  endfacet
  facet normal 0 -0.920593 0.390523
    outer loop
      vertex 0.204684 -3.95929 7
      vertex 0.996203 -6.92875 0
      vertex 0.569259 -3.95929 7
    endloop
  endfacet
  facet normal -0.695741 -0.602856 0.390523
    outer loop
      vertex -4.58402 -5.29025 0
      vertex -2.96449 -2.62479 7
      vertex -3.36501 -2.16256 7
    endloop
  endfacet
  facet normal -0.695737 -0.602861 0.390524
    outer loop
      vertex -2.96449 -2.62479 7
      vertex -4.58402 -5.29025 0
      vertex -2.7325 -2.89252 7
    endloop
  endfacet
  facet normal -0.695742 -0.602855 0.390523
    outer loop
      vertex -2.7325 -2.89252 7
      vertex -4.58402 -5.29025 0
      vertex -2.61944 -3.023 7
    endloop
  endfacet
  facet normal 0.837402 -0.382425 0.390525
    outer loop
      vertex 6.71645 -1.97213 0
      vertex 3.72789 -1.36797 7
      vertex 3.56296 -1.72912 7
    endloop
  endfacet
  facet normal 0.8374 -0.38243 0.390524
    outer loop
      vertex 3.72789 -1.36797 7
      vertex 6.71645 -1.97213 0
      vertex 3.83797 -1.12693 7
    endloop
  endfacet
  facet normal 0.837398 -0.382436 0.390523
    outer loop
      vertex 6.71645 -1.97213 0
      vertex 3.56296 -1.72912 7
      vertex 3.36501 -2.16256 7
    endloop
  endfacet
  facet normal 0.497711 -0.774451 0.390524
    outer loop
      vertex 2.61944 -3.023 7
      vertex 1.66166 -3.63853 7
      vertex 4.58402 -5.29025 0
    endloop
  endfacet
  facet normal 0.695737 -0.602861 0.390524
    outer loop
      vertex 4.58402 -5.29025 0
      vertex 2.96449 -2.62479 7
      vertex 2.7325 -2.89252 7
    endloop
  endfacet
  facet normal 0.695742 -0.602855 0.390523
    outer loop
      vertex 4.58402 -5.29025 0
      vertex 2.7325 -2.89252 7
      vertex 2.61944 -3.023 7
    endloop
  endfacet
  facet normal 0.695741 -0.602856 0.390523
    outer loop
      vertex 2.96449 -2.62479 7
      vertex 4.58402 -5.29025 0
      vertex 3.36501 -2.16256 7
    endloop
  endfacet
  facet normal 0.185431 -0.932231 -0.310744
    outer loop
      vertex 1.91342 -4.6194 10
      vertex 0 -5 10
      vertex 0 -4 7
    endloop
  endfacet
  facet normal 0.932231 0.185431 -0.310744
    outer loop
      vertex 5 0 10
      vertex 4 0 7
      vertex 4.6194 1.91342 10
    endloop
  endfacet
  facet normal 0.932236 0.185405 -0.310742
    outer loop
      vertex 4.6194 1.91342 10
      vertex 3.72789 1.36797 7
      vertex 3.69552 1.53073 7
    endloop
  endfacet
  facet normal 0.932229 0.185435 -0.310746
    outer loop
      vertex 3.72789 1.36797 7
      vertex 4.6194 1.91342 10
      vertex 4 0 7
    endloop
  endfacet
  facet normal 0.932229 -0.185435 -0.310746
    outer loop
      vertex 4.6194 -1.91342 10
      vertex 3.72789 -1.36797 7
      vertex 4 0 7
    endloop
  endfacet
  facet normal 0.932236 -0.185405 -0.310742
    outer loop
      vertex 3.72789 -1.36797 7
      vertex 4.6194 -1.91342 10
      vertex 3.69552 -1.53073 7
    endloop
  endfacet
  facet normal -0.790304 -0.52807 -0.310744
    outer loop
      vertex -3.53553 -3.53553 10
      vertex -4.6194 -1.91342 10
      vertex -3.69552 -1.53073 7
    endloop
  endfacet
  facet normal -0.52807 0.790304 -0.310744
    outer loop
      vertex -1.53073 3.69552 7
      vertex -3.53553 3.53553 10
      vertex -1.91342 4.6194 10
    endloop
  endfacet
  facet normal 0.790304 -0.52807 -0.310744
    outer loop
      vertex 4.6194 -1.91342 10
      vertex 3.53553 -3.53553 10
      vertex 3.69552 -1.53073 7
    endloop
  endfacet
  facet normal 0.932231 -0.185431 -0.310744
    outer loop
      vertex 4.6194 -1.91342 10
      vertex 4 0 7
      vertex 5 0 10
    endloop
  endfacet
  facet normal 0.52807 -0.790304 -0.310744
    outer loop
      vertex 1.91342 -4.6194 10
      vertex 1.53073 -3.69552 7
      vertex 3.53553 -3.53553 10
    endloop
  endfacet
  facet normal 0.185414 -0.932237 -0.310734
    outer loop
      vertex 0.204684 -3.95929 7
      vertex 1.91342 -4.6194 10
      vertex 0 -4 7
    endloop
  endfacet
  facet normal 0.185434 -0.93223 -0.310744
    outer loop
      vertex 1.33492 -3.73447 7
      vertex 1.91342 -4.6194 10
      vertex 0.204684 -3.95929 7
    endloop
  endfacet
  facet normal 0.185437 -0.932229 -0.310744
    outer loop
      vertex 1.91342 -4.6194 10
      vertex 1.33492 -3.73447 7
      vertex 1.53073 -3.69552 7
    endloop
  endfacet
  facet normal -0.932231 -0.185431 -0.310744
    outer loop
      vertex -4.6194 -1.91342 10
      vertex -5 0 10
      vertex -4 0 7
    endloop
  endfacet
  facet normal 0.790307 -0.528066 -0.310742
    outer loop
      vertex 3.53553 -3.53553 10
      vertex 3.56296 -1.72912 7
      vertex 3.69552 -1.53073 7
    endloop
  endfacet
  facet normal 0.790306 -0.528068 -0.310743
    outer loop
      vertex 3.56296 -1.72912 7
      vertex 3.53553 -3.53553 10
      vertex 2.96449 -2.62479 7
    endloop
  endfacet
  facet normal 0.790322 -0.528046 -0.310739
    outer loop
      vertex 2.96449 -2.62479 7
      vertex 3.53553 -3.53553 10
      vertex 2.82843 -2.82843 7
    endloop
  endfacet
  facet normal 0.528084 -0.79029 -0.310755
    outer loop
      vertex 1.58025 -3.66243 7
      vertex 3.53553 -3.53553 10
      vertex 1.53073 -3.69552 7
    endloop
  endfacet
  facet normal 0.528067 -0.790307 -0.310743
    outer loop
      vertex 2.7325 -2.89252 7
      vertex 3.53553 -3.53553 10
      vertex 1.58025 -3.66243 7
    endloop
  endfacet
  facet normal 0.528019 -0.79034 -0.310737
    outer loop
      vertex 3.53553 -3.53553 10
      vertex 2.7325 -2.89252 7
      vertex 2.82843 -2.82843 7
    endloop
  endfacet
  facet normal -0.185437 -0.932229 -0.310744
    outer loop
      vertex -1.33492 -3.73447 7
      vertex -1.91342 -4.6194 10
      vertex -1.53073 -3.69552 7
    endloop
  endfacet
  facet normal -0.185434 -0.93223 -0.310744
    outer loop
      vertex -0.204684 -3.95929 7
      vertex -1.91342 -4.6194 10
      vertex -1.33492 -3.73447 7
    endloop
  endfacet
  facet normal -0.185414 -0.932237 -0.310734
    outer loop
      vertex -1.91342 -4.6194 10
      vertex -0.204684 -3.95929 7
      vertex 0 -4 7
    endloop
  endfacet
  facet normal -0.790306 -0.528068 -0.310743
    outer loop
      vertex -3.53553 -3.53553 10
      vertex -3.56296 -1.72912 7
      vertex -2.96449 -2.62479 7
    endloop
  endfacet
  facet normal -0.790322 -0.528046 -0.310739
    outer loop
      vertex -3.53553 -3.53553 10
      vertex -2.96449 -2.62479 7
      vertex -2.82843 -2.82843 7
    endloop
  endfacet
  facet normal -0.790307 -0.528066 -0.310742
    outer loop
      vertex -3.56296 -1.72912 7
      vertex -3.53553 -3.53553 10
      vertex -3.69552 -1.53073 7
    endloop
  endfacet
  facet normal -0.52807 -0.790304 -0.310744
    outer loop
      vertex -1.91342 -4.6194 10
      vertex -3.53553 -3.53553 10
      vertex -1.53073 -3.69552 7
    endloop
  endfacet
  facet normal -0.185431 -0.932231 -0.310744
    outer loop
      vertex 0 -5 10
      vertex -1.91342 -4.6194 10
      vertex 0 -4 7
    endloop
  endfacet
  facet normal -0.790304 0.52807 -0.310744
    outer loop
      vertex -3.69552 1.53073 7
      vertex -4.6194 1.91342 10
      vertex -3.53553 3.53553 10
    endloop
  endfacet
  facet normal -0.932231 0.185431 -0.310744
    outer loop
      vertex -4 0 7
      vertex -5 0 10
      vertex -4.6194 1.91342 10
    endloop
  endfacet
  facet normal -0.932236 0.185405 -0.310742
    outer loop
      vertex -3.72789 1.36797 7
      vertex -4.6194 1.91342 10
      vertex -3.69552 1.53073 7
    endloop
  endfacet
  facet normal -0.932229 0.185435 -0.310746
    outer loop
      vertex -4.6194 1.91342 10
      vertex -3.72789 1.36797 7
      vertex -4 0 7
    endloop
  endfacet
  facet normal -0.528019 -0.79034 -0.310737
    outer loop
      vertex -2.7325 -2.89252 7
      vertex -3.53553 -3.53553 10
      vertex -2.82843 -2.82843 7
    endloop
  endfacet
  facet normal -0.528067 -0.790307 -0.310743
    outer loop
      vertex -1.58025 -3.66243 7
      vertex -3.53553 -3.53553 10
      vertex -2.7325 -2.89252 7
    endloop
  endfacet
  facet normal -0.528084 -0.79029 -0.310755
    outer loop
      vertex -3.53553 -3.53553 10
      vertex -1.58025 -3.66243 7
      vertex -1.53073 -3.69552 7
    endloop
  endfacet
  facet normal -0.185431 0.932231 -0.310744
    outer loop
      vertex 0 4 7
      vertex -1.91342 4.6194 10
      vertex 0 5 10
    endloop
  endfacet
  facet normal 0.52807 0.790304 -0.310744
    outer loop
      vertex 3.53553 3.53553 10
      vertex 1.53073 3.69552 7
      vertex 1.91342 4.6194 10
    endloop
  endfacet
  facet normal 0.185431 0.932231 -0.310744
    outer loop
      vertex 1.91342 4.6194 10
      vertex 0 4 7
      vertex 0 5 10
    endloop
  endfacet
  facet normal 0.185437 0.932229 -0.310744
    outer loop
      vertex 1.33492 3.73447 7
      vertex 1.91342 4.6194 10
      vertex 1.53073 3.69552 7
    endloop
  endfacet
  facet normal 0.185434 0.93223 -0.310744
    outer loop
      vertex 0.204684 3.95929 7
      vertex 1.91342 4.6194 10
      vertex 1.33492 3.73447 7
    endloop
  endfacet
  facet normal 0.185414 0.932237 -0.310734
    outer loop
      vertex 1.91342 4.6194 10
      vertex 0.204684 3.95929 7
      vertex 0 4 7
    endloop
  endfacet
  facet normal 0.790304 0.52807 -0.310744
    outer loop
      vertex 3.69552 1.53073 7
      vertex 3.53553 3.53553 10
      vertex 4.6194 1.91342 10
    endloop
  endfacet
  facet normal -0.790322 0.528046 -0.310739
    outer loop
      vertex -2.96449 2.62479 7
      vertex -3.53553 3.53553 10
      vertex -2.82843 2.82843 7
    endloop
  endfacet
  facet normal -0.790306 0.528068 -0.310743
    outer loop
      vertex -3.56296 1.72912 7
      vertex -3.53553 3.53553 10
      vertex -2.96449 2.62479 7
    endloop
  endfacet
  facet normal -0.790307 0.528066 -0.310742
    outer loop
      vertex -3.53553 3.53553 10
      vertex -3.56296 1.72912 7
      vertex -3.69552 1.53073 7
    endloop
  endfacet
  facet normal -0.528084 0.79029 -0.310755
    outer loop
      vertex -1.58025 3.66243 7
      vertex -3.53553 3.53553 10
      vertex -1.53073 3.69552 7
    endloop
  endfacet
  facet normal -0.528067 0.790307 -0.310743
    outer loop
      vertex -2.7325 2.89252 7
      vertex -3.53553 3.53553 10
      vertex -1.58025 3.66243 7
    endloop
  endfacet
  facet normal -0.528019 0.79034 -0.310737
    outer loop
      vertex -3.53553 3.53553 10
      vertex -2.7325 2.89252 7
      vertex -2.82843 2.82843 7
    endloop
  endfacet
  facet normal -0.932236 -0.185405 -0.310742
    outer loop
      vertex -4.6194 -1.91342 10
      vertex -3.72789 -1.36797 7
      vertex -3.69552 -1.53073 7
    endloop
  endfacet
  facet normal -0.932229 -0.185435 -0.310746
    outer loop
      vertex -3.72789 -1.36797 7
      vertex -4.6194 -1.91342 10
      vertex -4 0 7
    endloop
  endfacet
  facet normal -0.185414 0.932237 -0.310734
    outer loop
      vertex -0.204684 3.95929 7
      vertex -1.91342 4.6194 10
      vertex 0 4 7
    endloop
  endfacet
  facet normal -0.185434 0.93223 -0.310744
    outer loop
      vertex -1.33492 3.73447 7
      vertex -1.91342 4.6194 10
      vertex -0.204684 3.95929 7
    endloop
  endfacet
  facet normal -0.185437 0.932229 -0.310744
    outer loop
      vertex -1.91342 4.6194 10
      vertex -1.33492 3.73447 7
      vertex -1.53073 3.69552 7
    endloop
  endfacet
  facet normal 0.528019 0.79034 -0.310737
    outer loop
      vertex 2.7325 2.89252 7
      vertex 3.53553 3.53553 10
      vertex 2.82843 2.82843 7
    endloop
  endfacet
  facet normal 0.528067 0.790307 -0.310743
    outer loop
      vertex 1.58025 3.66243 7
      vertex 3.53553 3.53553 10
      vertex 2.7325 2.89252 7
    endloop
  endfacet
  facet normal 0.528084 0.79029 -0.310755
    outer loop
      vertex 3.53553 3.53553 10
      vertex 1.58025 3.66243 7
      vertex 1.53073 3.69552 7
    endloop
  endfacet
  facet normal 0.790322 0.528046 -0.310739
    outer loop
      vertex 3.53553 3.53553 10
      vertex 2.96449 2.62479 7
      vertex 2.82843 2.82843 7
    endloop
  endfacet
  facet normal 0.790306 0.528068 -0.310743
    outer loop
      vertex 3.53553 3.53553 10
      vertex 3.56296 1.72912 7
      vertex 2.96449 2.62479 7
    endloop
  endfacet
  facet normal 0.790307 0.528066 -0.310742
    outer loop
      vertex 3.56296 1.72912 7
      vertex 3.53553 3.53553 10
      vertex 3.69552 1.53073 7
    endloop
  endfacet
  facet normal 0.978005 0.194542 0.0752308
    outer loop
      vertex 5 0 10
      vertex 3.83765 1.58961 21
      vertex 4.15385 0 21
    endloop
  endfacet
  facet normal 0.978006 0.194536 0.0752317
    outer loop
      vertex 4.6194 1.91342 10
      vertex 3.83765 1.58961 21
      vertex 5 0 10
    endloop
  endfacet
  facet normal -0.978005 0.194542 0.0752308
    outer loop
      vertex -3.83765 1.58961 21
      vertex -5 0 10
      vertex -4.15385 0 21
    endloop
  endfacet
  facet normal 0.829111 -0.554 0.0752316
    outer loop
      vertex 3.83765 -1.58961 21
      vertex 3.53553 -3.53553 10
      vertex 4.6194 -1.91342 10
    endloop
  endfacet
  facet normal 0.829111 0.554 0.0752316
    outer loop
      vertex 4.6194 1.91342 10
      vertex 3.53553 3.53553 10
      vertex 3.83765 1.58961 21
    endloop
  endfacet
  facet normal 0.554 0.829111 0.0752316
    outer loop
      vertex 1.91342 4.6194 10
      vertex 1.58961 3.83765 21
      vertex 3.53553 3.53553 10
    endloop
  endfacet
  facet normal -0.194535 -0.978006 0.0752319
    outer loop
      vertex 0 -5 10
      vertex -1.20632 -3.91389 21
      vertex -1.58961 -3.83765 21
    endloop
  endfacet
  facet normal -0.194543 -0.978005 0.0752309
    outer loop
      vertex -1.20632 -3.91389 21
      vertex 0 -5 10
      vertex -0.523577 -4.0497 21
    endloop
  endfacet
  facet normal -0.194545 -0.978004 0.0752308
    outer loop
      vertex -0.523577 -4.0497 21
      vertex 0 -5 10
      vertex 0 -4.15385 21
    endloop
  endfacet
  facet normal 0.554 -0.829111 0.0752316
    outer loop
      vertex 3.53553 -3.53553 10
      vertex 1.58961 -3.83765 21
      vertex 1.91342 -4.6194 10
    endloop
  endfacet
  facet normal 0.978006 -0.194536 0.0752317
    outer loop
      vertex 5 0 10
      vertex 3.83765 -1.58961 21
      vertex 4.6194 -1.91342 10
    endloop
  endfacet
  facet normal -0.194536 0.978006 0.0752317
    outer loop
      vertex 0 5 10
      vertex -1.91342 4.6194 10
      vertex -1.58961 3.83765 21
    endloop
  endfacet
  facet normal 0.194535 0.978006 0.0752319
    outer loop
      vertex 0 5 10
      vertex 1.20632 3.91389 21
      vertex 1.58961 3.83765 21
    endloop
  endfacet
  facet normal 0.194543 0.978005 0.0752309
    outer loop
      vertex 1.20632 3.91389 21
      vertex 0 5 10
      vertex 0.523577 4.0497 21
    endloop
  endfacet
  facet normal 0.194545 0.978004 0.0752308
    outer loop
      vertex 0.523577 4.0497 21
      vertex 0 5 10
      vertex 0 4.15385 21
    endloop
  endfacet
  facet normal -0.554 0.829111 0.0752316
    outer loop
      vertex -1.91342 4.6194 10
      vertex -3.53553 3.53553 10
      vertex -1.58961 3.83765 21
    endloop
  endfacet
  facet normal -0.829111 -0.554 0.0752316
    outer loop
      vertex -3.83765 -1.58961 21
      vertex -4.6194 -1.91342 10
      vertex -3.53553 -3.53553 10
    endloop
  endfacet
  facet normal -0.978006 -0.194536 0.0752317
    outer loop
      vertex -3.83765 -1.58961 21
      vertex -5 0 10
      vertex -4.6194 -1.91342 10
    endloop
  endfacet
  facet normal -0.554 -0.829111 0.0752316
    outer loop
      vertex -1.58961 -3.83765 21
      vertex -3.53553 -3.53553 10
      vertex -1.91342 -4.6194 10
    endloop
  endfacet
  facet normal 0.829105 -0.554008 0.0752328
    outer loop
      vertex 3.53553 -3.53553 10
      vertex 3.76684 -1.69559 21
      vertex 3.45296 -2.16533 21
    endloop
  endfacet
  facet normal 0.829115 -0.553993 0.075231
    outer loop
      vertex 3.53553 -3.53553 10
      vertex 3.45296 -2.16533 21
      vertex 2.93721 -2.93721 21
    endloop
  endfacet
  facet normal 0.829126 -0.553977 0.0752271
    outer loop
      vertex 3.76684 -1.69559 21
      vertex 3.53553 -3.53553 10
      vertex 3.83765 -1.58961 21
    endloop
  endfacet
  facet normal 0.553995 -0.829114 0.0752307
    outer loop
      vertex 3.53553 -3.53553 10
      vertex 2.17019 -3.44972 21
      vertex 1.58961 -3.83765 21
    endloop
  endfacet
  facet normal 0.553999 -0.829111 0.0752312
    outer loop
      vertex 2.17019 -3.44972 21
      vertex 3.53553 -3.53553 10
      vertex 2.72357 -3.07996 21
    endloop
  endfacet
  facet normal 0.553997 -0.829113 0.0752311
    outer loop
      vertex 2.72357 -3.07996 21
      vertex 3.53553 -3.53553 10
      vertex 2.93721 -2.93721 21
    endloop
  endfacet
  facet normal -0.978005 -0.194542 0.0752308
    outer loop
      vertex -4.15385 0 21
      vertex -5 0 10
      vertex -3.83765 -1.58961 21
    endloop
  endfacet
  facet normal 0 0 1
    outer loop
      vertex 4.15385 0 21
      vertex 3.76684 -1.69559 21
      vertex 3.83765 -1.58961 21
    endloop
  endfacet
  facet normal 0 0 1
    outer loop
      vertex 3.83765 1.58961 21
      vertex 3.76684 1.69559 21
      vertex 4.15385 0 21
    endloop
  endfacet
  facet normal -0 -0 -1
    outer loop
      vertex 3.74249 1.80229 21
      vertex 3.76684 1.69559 21
      vertex 3.45296 2.16533 21
    endloop
  endfacet
  facet normal 0 0 1
    outer loop
      vertex -3.76684 -1.69559 21
      vertex -4.15385 0 21
      vertex -3.83765 -1.58961 21
    endloop
  endfacet
  facet normal -0 0 1
    outer loop
      vertex -3.83765 1.58961 21
      vertex -4.15385 0 21
      vertex -3.76684 1.69559 21
    endloop
  endfacet
  facet normal 0 0 -1
    outer loop
      vertex -0.523577 -4.0497 21
      vertex -0.924317 -4.0497 21
      vertex -1.20632 -3.91389 21
    endloop
  endfacet
  facet normal 0 -0 -1
    outer loop
      vertex -0.924317 4.0497 21
      vertex -0.523577 4.0497 21
      vertex -1.20632 3.91389 21
    endloop
  endfacet
  facet normal -0 -0 -1
    outer loop
      vertex 2.58988 3.24761 21
      vertex 2.72357 3.07996 21
      vertex 2.17019 3.44972 21
    endloop
  endfacet
  facet normal 0 0 -1
    outer loop
      vertex 1.20632 -3.91389 21
      vertex 0.924317 -4.0497 21
      vertex 0.523577 -4.0497 21
    endloop
  endfacet
  facet normal 0 0 -1
    outer loop
      vertex 3.76684 -1.69559 21
      vertex 3.74249 -1.80229 21
      vertex 3.45296 -2.16533 21
    endloop
  endfacet
  facet normal -0 -0 -1
    outer loop
      vertex 0.924317 4.0497 21
      vertex 1.20632 3.91389 21
      vertex 0.523577 4.0497 21
    endloop
  endfacet
  facet normal 0 0 -1
    outer loop
      vertex -3.45296 -2.16533 21
      vertex -3.74249 -1.80229 21
      vertex -3.76684 -1.69559 21
    endloop
  endfacet
  facet normal 0 0 -1
    outer loop
      vertex -2.17019 -3.44972 21
      vertex -2.58988 -3.24761 21
      vertex -2.72357 -3.07996 21
    endloop
  endfacet
  facet normal 0 -0 -1
    outer loop
      vertex -2.58988 3.24761 21
      vertex -2.17019 3.44972 21
      vertex -2.72357 3.07996 21
    endloop
  endfacet
  facet normal 0 -0 -1
    outer loop
      vertex -3.74249 1.80229 21
      vertex -3.45296 2.16533 21
      vertex -3.76684 1.69559 21
    endloop
  endfacet
  facet normal 0 0 -1
    outer loop
      vertex 2.72357 -3.07996 21
      vertex 2.58988 -3.24761 21
      vertex 2.17019 -3.44972 21
    endloop
  endfacet
  facet normal 0 0 1
    outer loop
      vertex 2.93721 2.93721 21
      vertex 2.72357 3.07996 21
      vertex 3.45296 2.16533 21
    endloop
  endfacet
  facet normal 0 0 1
    outer loop
      vertex 2.17019 -3.44972 21
      vertex 1.20632 -3.91389 21
      vertex 1.58961 -3.83765 21
    endloop
  endfacet
  facet normal 0 0 1
    outer loop
      vertex 1.58961 3.83765 21
      vertex 1.20632 3.91389 21
      vertex 2.17019 3.44972 21
    endloop
  endfacet
  facet normal 0 0 1
    outer loop
      vertex 3.45296 -2.16533 21
      vertex 2.72357 -3.07996 21
      vertex 2.93721 -2.93721 21
    endloop
  endfacet
  facet normal 0 0 1
    outer loop
      vertex 0 4.15385 21
      vertex -0.523577 4.0497 21
      vertex 0.523577 4.0497 21
    endloop
  endfacet
  facet normal 0 0 1
    outer loop
      vertex -2.72357 -3.07996 21
      vertex -3.45296 -2.16533 21
      vertex -2.93721 -2.93721 21
    endloop
  endfacet
  facet normal 0 0 1
    outer loop
      vertex -1.20632 -3.91389 21
      vertex -2.17019 -3.44972 21
      vertex -1.58961 -3.83765 21
    endloop
  endfacet
  facet normal 0 0 1
    outer loop
      vertex 0.523577 -4.0497 21
      vertex -0.523577 -4.0497 21
      vertex 0 -4.15385 21
    endloop
  endfacet
  facet normal -0 0 1
    outer loop
      vertex -2.93721 2.93721 21
      vertex -3.45296 2.16533 21
      vertex -2.72357 3.07996 21
    endloop
  endfacet
  facet normal -0 0 1
    outer loop
      vertex -1.58961 3.83765 21
      vertex -2.17019 3.44972 21
      vertex -1.20632 3.91389 21
    endloop
  endfacet
  facet normal 0.829115 0.553993 0.075231
    outer loop
      vertex 3.45296 2.16533 21
      vertex 3.53553 3.53553 10
      vertex 2.93721 2.93721 21
    endloop
  endfacet
  facet normal 0.829105 0.554008 0.0752328
    outer loop
      vertex 3.76684 1.69559 21
      vertex 3.53553 3.53553 10
      vertex 3.45296 2.16533 21
    endloop
  endfacet
  facet normal 0.829126 0.553977 0.0752271
    outer loop
      vertex 3.53553 3.53553 10
      vertex 3.76684 1.69559 21
      vertex 3.83765 1.58961 21
    endloop
  endfacet
  facet normal 0.553997 0.829113 0.0752311
    outer loop
      vertex 3.53553 3.53553 10
      vertex 2.72357 3.07996 21
      vertex 2.93721 2.93721 21
    endloop
  endfacet
  facet normal 0.553999 0.829111 0.0752312
    outer loop
      vertex 2.72357 3.07996 21
      vertex 3.53553 3.53553 10
      vertex 2.17019 3.44972 21
    endloop
  endfacet
  facet normal 0.553995 0.829114 0.0752307
    outer loop
      vertex 2.17019 3.44972 21
      vertex 3.53553 3.53553 10
      vertex 1.58961 3.83765 21
    endloop
  endfacet
  facet normal 0.194536 0.978006 0.0752317
    outer loop
      vertex 1.91342 4.6194 10
      vertex 0 5 10
      vertex 1.58961 3.83765 21
    endloop
  endfacet
  facet normal -0.194545 0.978004 0.0752308
    outer loop
      vertex 0 5 10
      vertex -0.523577 4.0497 21
      vertex 0 4.15385 21
    endloop
  endfacet
  facet normal -0.194543 0.978005 0.0752309
    outer loop
      vertex -0.523577 4.0497 21
      vertex 0 5 10
      vertex -1.20632 3.91389 21
    endloop
  endfacet
  facet normal -0.194535 0.978006 0.0752319
    outer loop
      vertex -1.20632 3.91389 21
      vertex 0 5 10
      vertex -1.58961 3.83765 21
    endloop
  endfacet
  facet normal -0.829111 0.554 0.0752316
    outer loop
      vertex -3.53553 3.53553 10
      vertex -4.6194 1.91342 10
      vertex -3.83765 1.58961 21
    endloop
  endfacet
  facet normal -0.829126 -0.553977 0.0752271
    outer loop
      vertex -3.53553 -3.53553 10
      vertex -3.76684 -1.69559 21
      vertex -3.83765 -1.58961 21
    endloop
  endfacet
  facet normal -0.829105 -0.554008 0.0752328
    outer loop
      vertex -3.76684 -1.69559 21
      vertex -3.53553 -3.53553 10
      vertex -3.45296 -2.16533 21
    endloop
  endfacet
  facet normal -0.829115 -0.553993 0.075231
    outer loop
      vertex -3.45296 -2.16533 21
      vertex -3.53553 -3.53553 10
      vertex -2.93721 -2.93721 21
    endloop
  endfacet
  facet normal -0.553997 -0.829113 0.0752311
    outer loop
      vertex -3.53553 -3.53553 10
      vertex -2.72357 -3.07996 21
      vertex -2.93721 -2.93721 21
    endloop
  endfacet
  facet normal -0.553999 -0.829111 0.0752312
    outer loop
      vertex -2.72357 -3.07996 21
      vertex -3.53553 -3.53553 10
      vertex -2.17019 -3.44972 21
    endloop
  endfacet
  facet normal -0.553995 -0.829114 0.0752307
    outer loop
      vertex -2.17019 -3.44972 21
      vertex -3.53553 -3.53553 10
      vertex -1.58961 -3.83765 21
    endloop
  endfacet
  facet normal -0.194536 -0.978006 0.0752317
    outer loop
      vertex -1.58961 -3.83765 21
      vertex -1.91342 -4.6194 10
      vertex 0 -5 10
    endloop
  endfacet
  facet normal 0.194545 -0.978004 0.0752308
    outer loop
      vertex 0 -5 10
      vertex 0.523577 -4.0497 21
      vertex 0 -4.15385 21
    endloop
  endfacet
  facet normal 0.194543 -0.978005 0.0752309
    outer loop
      vertex 0.523577 -4.0497 21
      vertex 0 -5 10
      vertex 1.20632 -3.91389 21
    endloop
  endfacet
  facet normal 0.194535 -0.978006 0.0752319
    outer loop
      vertex 1.20632 -3.91389 21
      vertex 0 -5 10
      vertex 1.58961 -3.83765 21
    endloop
  endfacet
  facet normal 0.194536 -0.978006 0.0752317
    outer loop
      vertex 1.58961 -3.83765 21
      vertex 0 -5 10
      vertex 1.91342 -4.6194 10
    endloop
  endfacet
  facet normal 0.978005 -0.194542 0.0752308
    outer loop
      vertex 4.15385 0 21
      vertex 3.83765 -1.58961 21
      vertex 5 0 10
    endloop
  endfacet
  facet normal -0.553995 0.829114 0.0752307
    outer loop
      vertex -3.53553 3.53553 10
      vertex -2.17019 3.44972 21
      vertex -1.58961 3.83765 21
    endloop
  endfacet
  facet normal -0.553999 0.829111 0.0752312
    outer loop
      vertex -2.17019 3.44972 21
      vertex -3.53553 3.53553 10
      vertex -2.72357 3.07996 21
    endloop
  endfacet
  facet normal -0.553997 0.829113 0.0752311
    outer loop
      vertex -2.72357 3.07996 21
      vertex -3.53553 3.53553 10
      vertex -2.93721 2.93721 21
    endloop
  endfacet
  facet normal -0.829115 0.553993 0.075231
    outer loop
      vertex -3.53553 3.53553 10
      vertex -3.45296 2.16533 21
      vertex -2.93721 2.93721 21
    endloop
  endfacet
  facet normal -0.829105 0.554008 0.0752328
    outer loop
      vertex -3.53553 3.53553 10
      vertex -3.76684 1.69559 21
      vertex -3.45296 2.16533 21
    endloop
  endfacet
  facet normal -0.829126 0.553977 0.0752271
    outer loop
      vertex -3.76684 1.69559 21
      vertex -3.53553 3.53553 10
      vertex -3.83765 1.58961 21
    endloop
  endfacet
  facet normal -0.978006 0.194536 0.0752317
    outer loop
      vertex -4.6194 1.91342 10
      vertex -5 0 10
      vertex -3.83765 1.58961 21
    endloop
  endfacet
  facet normal 0.972207 0.221867 0.0747581
    outer loop
      vertex 4 0 23
      vertex 3.76684 1.69559 21
      vertex 3.74249 1.80229 21
    endloop
  endfacet
  facet normal 0.972197 0.221899 0.0747863
    outer loop
      vertex 3.76684 1.69559 21
      vertex 4 0 23
      vertex 4.15385 0 21
    endloop
  endfacet
  facet normal -0.972198 -0.221896 0.0747851
    outer loop
      vertex -3.60388 -1.73553 23
      vertex -4 0 23
      vertex -3.74249 -1.80229 21
    endloop
  endfacet
  facet normal -0.972197 -0.221899 0.0747863
    outer loop
      vertex -3.76684 -1.69559 21
      vertex -4 0 23
      vertex -4.15385 0 21
    endloop
  endfacet
  facet normal -0.972207 -0.221867 0.0747581
    outer loop
      vertex -4 0 23
      vertex -3.76684 -1.69559 21
      vertex -3.74249 -1.80229 21
    endloop
  endfacet
  facet normal -0 0.9972 0.074785
    outer loop
      vertex 0.523577 4.0497 21
      vertex 0.890083 3.89971 23
      vertex 0.924317 4.0497 21
    endloop
  endfacet
  facet normal 0 0.9972 0.074785
    outer loop
      vertex 0.890083 3.89971 23
      vertex 0.523577 4.0497 21
      vertex -0.890083 3.89971 23
    endloop
  endfacet
  facet normal -0 0.9972 0.074785
    outer loop
      vertex -0.523577 4.0497 21
      vertex -0.890083 3.89971 23
      vertex 0.523577 4.0497 21
    endloop
  endfacet
  facet normal 0 0.9972 0.074785
    outer loop
      vertex -0.890083 3.89971 23
      vertex -0.523577 4.0497 21
      vertex -0.924317 4.0497 21
    endloop
  endfacet
  facet normal 0.779658 0.621727 0.0747636
    outer loop
      vertex 3.60388 1.73553 23
      vertex 2.72357 3.07996 21
      vertex 2.58988 3.24761 21
    endloop
  endfacet
  facet normal 0.779644 0.621742 0.0747805
    outer loop
      vertex 2.72357 3.07996 21
      vertex 3.60388 1.73553 23
      vertex 3.45296 2.16533 21
    endloop
  endfacet
  facet normal 0.779626 0.621764 0.0747865
    outer loop
      vertex 3.45296 2.16533 21
      vertex 3.60388 1.73553 23
      vertex 3.74249 1.80229 21
    endloop
  endfacet
  facet normal 0.432666 -0.898447 0.0747833
    outer loop
      vertex 2.49396 -3.12733 23
      vertex 0.890083 -3.89971 23
      vertex 2.58988 -3.24761 21
    endloop
  endfacet
  facet normal -0.43268 0.89844 0.0747847
    outer loop
      vertex -1.20632 3.91389 21
      vertex -0.890083 3.89971 23
      vertex -0.924317 4.0497 21
    endloop
  endfacet
  facet normal -0.432665 0.898448 0.0747823
    outer loop
      vertex -2.17019 3.44972 21
      vertex -0.890083 3.89971 23
      vertex -1.20632 3.91389 21
    endloop
  endfacet
  facet normal -0.432665 0.898448 0.0747826
    outer loop
      vertex -0.890083 3.89971 23
      vertex -2.17019 3.44972 21
      vertex -2.58988 3.24761 21
    endloop
  endfacet
  facet normal 0.432666 0.898447 0.0747833
    outer loop
      vertex 2.58988 3.24761 21
      vertex 0.890083 3.89971 23
      vertex 2.49396 3.12733 23
    endloop
  endfacet
  facet normal 0.972198 0.221896 0.0747851
    outer loop
      vertex 3.74249 1.80229 21
      vertex 3.60388 1.73553 23
      vertex 4 0 23
    endloop
  endfacet
  facet normal -0.432666 -0.898447 0.0747833
    outer loop
      vertex -2.49396 -3.12733 23
      vertex -2.58988 -3.24761 21
      vertex -0.890083 -3.89971 23
    endloop
  endfacet
  facet normal 0.972197 -0.221899 0.0747863
    outer loop
      vertex 4 0 23
      vertex 3.76684 -1.69559 21
      vertex 4.15385 0 21
    endloop
  endfacet
  facet normal 0.972207 -0.221867 0.0747581
    outer loop
      vertex 3.76684 -1.69559 21
      vertex 4 0 23
      vertex 3.74249 -1.80229 21
    endloop
  endfacet
  facet normal 0.779626 -0.621764 0.0747865
    outer loop
      vertex 3.60388 -1.73553 23
      vertex 3.45296 -2.16533 21
      vertex 3.74249 -1.80229 21
    endloop
  endfacet
  facet normal 0.779644 -0.621742 0.0747805
    outer loop
      vertex 3.60388 -1.73553 23
      vertex 2.72357 -3.07996 21
      vertex 3.45296 -2.16533 21
    endloop
  endfacet
  facet normal 0.779658 -0.621727 0.0747636
    outer loop
      vertex 2.72357 -3.07996 21
      vertex 3.60388 -1.73553 23
      vertex 2.58988 -3.24761 21
    endloop
  endfacet
  facet normal 0 0 1
    outer loop
      vertex 3.60388 1.73553 23
      vertex 3.60388 -1.73553 23
      vertex 4 0 23
    endloop
  endfacet
  facet normal 0 0 1
    outer loop
      vertex 2.49396 3.12733 23
      vertex 3.60388 -1.73553 23
      vertex 3.60388 1.73553 23
    endloop
  endfacet
  facet normal 0 0 1
    outer loop
      vertex 2.49396 3.12733 23
      vertex 2.49396 -3.12733 23
      vertex 3.60388 -1.73553 23
    endloop
  endfacet
  facet normal 0 0 1
    outer loop
      vertex 0.890083 3.89971 23
      vertex 2.49396 -3.12733 23
      vertex 2.49396 3.12733 23
    endloop
  endfacet
  facet normal 0 0 1
    outer loop
      vertex 0.890083 3.89971 23
      vertex 0.890083 -3.89971 23
      vertex 2.49396 -3.12733 23
    endloop
  endfacet
  facet normal -0 0 1
    outer loop
      vertex -0.890083 3.89971 23
      vertex 0.890083 -3.89971 23
      vertex 0.890083 3.89971 23
    endloop
  endfacet
  facet normal 0 0 1
    outer loop
      vertex -0.890083 3.89971 23
      vertex -0.890083 -3.89971 23
      vertex 0.890083 -3.89971 23
    endloop
  endfacet
  facet normal -0 0 1
    outer loop
      vertex -2.49396 3.12733 23
      vertex -0.890083 -3.89971 23
      vertex -0.890083 3.89971 23
    endloop
  endfacet
  facet normal 0 0 1
    outer loop
      vertex -2.49396 3.12733 23
      vertex -2.49396 -3.12733 23
      vertex -0.890083 -3.89971 23
    endloop
  endfacet
  facet normal -0 0 1
    outer loop
      vertex -3.60388 1.73553 23
      vertex -2.49396 -3.12733 23
      vertex -2.49396 3.12733 23
    endloop
  endfacet
  facet normal 0 0 1
    outer loop
      vertex -3.60388 1.73553 23
      vertex -3.60388 -1.73553 23
      vertex -2.49396 -3.12733 23
    endloop
  endfacet
  facet normal 0 -0 1
    outer loop
      vertex -3.60388 -1.73553 23
      vertex -3.60388 1.73553 23
      vertex -4 0 23
    endloop
  endfacet
  facet normal -0.972197 0.221899 0.0747863
    outer loop
      vertex -4 0 23
      vertex -3.76684 1.69559 21
      vertex -4.15385 0 21
    endloop
  endfacet
  facet normal -0.972207 0.221867 0.0747581
    outer loop
      vertex -3.76684 1.69559 21
      vertex -4 0 23
      vertex -3.74249 1.80229 21
    endloop
  endfacet
  facet normal -0.779643 0.621743 0.0747833
    outer loop
      vertex -2.58988 3.24761 21
      vertex -3.60388 1.73553 23
      vertex -2.49396 3.12733 23
    endloop
  endfacet
  facet normal 0.779643 0.621743 0.0747833
    outer loop
      vertex 2.58988 3.24761 21
      vertex 2.49396 3.12733 23
      vertex 3.60388 1.73553 23
    endloop
  endfacet
  facet normal 0.432665 0.898448 0.0747826
    outer loop
      vertex 2.17019 3.44972 21
      vertex 0.890083 3.89971 23
      vertex 2.58988 3.24761 21
    endloop
  endfacet
  facet normal 0.432665 0.898448 0.0747823
    outer loop
      vertex 1.20632 3.91389 21
      vertex 0.890083 3.89971 23
      vertex 2.17019 3.44972 21
    endloop
  endfacet
  facet normal 0.43268 0.89844 0.0747847
    outer loop
      vertex 0.890083 3.89971 23
      vertex 1.20632 3.91389 21
      vertex 0.924317 4.0497 21
    endloop
  endfacet
  facet normal -0.779626 -0.621764 0.0747865
    outer loop
      vertex -3.45296 -2.16533 21
      vertex -3.60388 -1.73553 23
      vertex -3.74249 -1.80229 21
    endloop
  endfacet
  facet normal -0.779644 -0.621742 0.0747805
    outer loop
      vertex -2.72357 -3.07996 21
      vertex -3.60388 -1.73553 23
      vertex -3.45296 -2.16533 21
    endloop
  endfacet
  facet normal -0.779658 -0.621727 0.0747636
    outer loop
      vertex -3.60388 -1.73553 23
      vertex -2.72357 -3.07996 21
      vertex -2.58988 -3.24761 21
    endloop
  endfacet
  facet normal -0.432665 -0.898448 0.0747826
    outer loop
      vertex -2.17019 -3.44972 21
      vertex -0.890083 -3.89971 23
      vertex -2.58988 -3.24761 21
    endloop
  endfacet
  facet normal -0.432665 -0.898448 0.0747823
    outer loop
      vertex -1.20632 -3.91389 21
      vertex -0.890083 -3.89971 23
      vertex -2.17019 -3.44972 21
    endloop
  endfacet
  facet normal -0.43268 -0.89844 0.0747847
    outer loop
      vertex -0.890083 -3.89971 23
      vertex -1.20632 -3.91389 21
      vertex -0.924317 -4.0497 21
    endloop
  endfacet
  facet normal 0 -0.9972 0.074785
    outer loop
      vertex -0.523577 -4.0497 21
      vertex -0.890083 -3.89971 23
      vertex -0.924317 -4.0497 21
    endloop
  endfacet
  facet normal 0 -0.9972 0.074785
    outer loop
      vertex -0.890083 -3.89971 23
      vertex -0.523577 -4.0497 21
      vertex 0.890083 -3.89971 23
    endloop
  endfacet
  facet normal 0 -0.9972 0.074785
    outer loop
      vertex 0.523577 -4.0497 21
      vertex 0.890083 -3.89971 23
      vertex -0.523577 -4.0497 21
    endloop
  endfacet
  facet normal 0 -0.9972 0.074785
    outer loop
      vertex 0.890083 -3.89971 23
      vertex 0.523577 -4.0497 21
      vertex 0.924317 -4.0497 21
    endloop
  endfacet
  facet normal 0.43268 -0.89844 0.0747847
    outer loop
      vertex 1.20632 -3.91389 21
      vertex 0.890083 -3.89971 23
      vertex 0.924317 -4.0497 21
    endloop
  endfacet
  facet normal 0.432665 -0.898448 0.0747823
    outer loop
      vertex 2.17019 -3.44972 21
      vertex 0.890083 -3.89971 23
      vertex 1.20632 -3.91389 21
    endloop
  endfacet
  facet normal 0.432665 -0.898448 0.0747826
    outer loop
      vertex 0.890083 -3.89971 23
      vertex 2.17019 -3.44972 21
      vertex 2.58988 -3.24761 21
    endloop
  endfacet
  facet normal 0.972198 -0.221896 0.0747851
    outer loop
      vertex 4 0 23
      vertex 3.60388 -1.73553 23
      vertex 3.74249 -1.80229 21
    endloop
  endfacet
  facet normal -0.779643 -0.621743 0.0747833
    outer loop
      vertex -2.49396 -3.12733 23
      vertex -3.60388 -1.73553 23
      vertex -2.58988 -3.24761 21
    endloop
  endfacet
  facet normal -0.779644 0.621742 0.0747805
    outer loop
      vertex -3.60388 1.73553 23
      vertex -2.72357 3.07996 21
      vertex -3.45296 2.16533 21
    endloop
  endfacet
  facet normal -0.779626 0.621764 0.0747865
    outer loop
      vertex -3.60388 1.73553 23
      vertex -3.45296 2.16533 21
      vertex -3.74249 1.80229 21
    endloop
  endfacet
  facet normal -0.779658 0.621727 0.0747636
    outer loop
      vertex -2.72357 3.07996 21
      vertex -3.60388 1.73553 23
      vertex -2.58988 3.24761 21
    endloop
  endfacet
  facet normal -0.972198 0.221896 0.0747851
    outer loop
      vertex -3.74249 1.80229 21
      vertex -4 0 23
      vertex -3.60388 1.73553 23
    endloop
  endfacet
  facet normal 0.779643 -0.621743 0.0747833
    outer loop
      vertex 3.60388 -1.73553 23
      vertex 2.49396 -3.12733 23
      vertex 2.58988 -3.24761 21
    endloop
  endfacet
  facet normal -0.432666 0.898447 0.0747833
    outer loop
      vertex -0.890083 3.89971 23
      vertex -2.58988 3.24761 21
      vertex -2.49396 3.12733 23
    endloop
  endfacet
endsolid OpenSCAD_Model
